<svg width="204" height="89" viewBox="0 0 204 89" fill="none" xmlns="http://www.w3.org/2000/svg">
<mask id="mask0_2537_684" style="mask-type:luminance" maskUnits="userSpaceOnUse" x="0" y="0" width="204" height="89">
<path d="M0.328125 0.96875H203.375V88.9167H0.328125V0.96875Z" fill="white"/>
</mask>
<g mask="url(#mask0_2537_684)">
<mask id="mask1_2537_684" style="mask-type:luminance" maskUnits="userSpaceOnUse" x="0" y="0" width="204" height="89">
<path d="M25.3229 0.96875H178.354C192.156 0.96875 203.349 12.1563 203.349 25.9583V63.9271C203.349 77.7292 192.156 88.9167 178.354 88.9167H25.3229C11.5208 88.9167 0.328125 77.7292 0.328125 63.9271V25.9583C0.328125 12.1563 11.5208 0.96875 25.3229 0.96875Z" fill="white"/>
</mask>
<g mask="url(#mask1_2537_684)">
<path d="M0.328125 0.96875H203.375V88.9167H0.328125V0.96875Z" fill="#0068B1"/>
</g>
</g>
<path d="M37.4531 36.9557V21.9141H44.1198C45.7708 21.9141 47.026 22.3203 47.8906 23.1224C48.7656 23.9141 49.2031 25.0078 49.2031 26.3932C49.2031 27.7682 48.7656 28.8672 47.8906 29.6849C47.026 30.4922 45.7708 30.8932 44.1198 30.8932H40.2031V36.9557H37.4531ZM40.2031 28.7266H43.8073C44.724 28.7266 45.401 28.5286 45.849 28.1224C46.3073 27.7057 46.5365 27.1328 46.5365 26.3932C46.5365 25.6589 46.3073 25.0911 45.849 24.6849C45.401 24.2839 44.724 24.0807 43.8073 24.0807H40.2031V28.7266Z" fill="white"/>
<path d="M49.9844 36.9557L56.7969 21.9141H59.0885L65.9844 36.9557H63.1927L61.3594 32.7266L62.4635 33.4766H53.4427L54.5885 32.7266L52.7552 36.9557H49.9844ZM57.9219 24.8516L54.9219 31.9766L54.3594 31.3307H61.526L61.0677 31.9766L58.0052 24.8516H57.9219Z" fill="white"/>
<path d="M67.6484 36.9557V21.9141H74.3151C75.9661 21.9141 77.2214 22.3203 78.0859 23.1224C78.9609 23.9141 79.3984 25.0078 79.3984 26.3932C79.3984 27.7682 78.9609 28.8672 78.0859 29.6849C77.2214 30.4922 75.9661 30.8932 74.3151 30.8932H70.3984V36.9557H67.6484ZM70.3984 28.7266H74.0026C74.9193 28.7266 75.5964 28.5286 76.0443 28.1224C76.5026 27.7057 76.7318 27.1328 76.7318 26.3932C76.7318 25.6589 76.5026 25.0911 76.0443 24.6849C75.5964 24.2839 74.9193 24.0807 74.0026 24.0807H70.3984V28.7266Z" fill="white"/>
<path d="M81.8438 36.9557V21.9141H91.9688V24.0807H84.4896V28.2266H91.4896V30.4141H84.4896V34.7891H91.9688V36.9557H81.8438Z" fill="white"/>
<path d="M94.5312 36.9557V21.9141H101.094C102.745 21.9141 104.021 22.3099 104.927 23.1016C105.828 23.8828 106.281 24.9661 106.281 26.3516C106.281 27.2839 106.078 28.0755 105.677 28.7266C105.271 29.3828 104.688 29.8828 103.927 30.2266C103.177 30.5755 102.286 30.7474 101.26 30.7474L101.573 30.3516H102.302C102.896 30.3516 103.427 30.513 103.885 30.8307C104.354 31.138 104.745 31.612 105.052 32.2474L107.24 36.9557H104.219L101.99 32.0807C101.792 31.5807 101.495 31.2578 101.094 31.1016C100.688 30.9349 100.203 30.8516 99.6354 30.8516H97.2813V36.9557H94.5312ZM97.2813 28.8307H100.656C101.615 28.8307 102.344 28.6328 102.844 28.2266C103.354 27.8099 103.615 27.2161 103.615 26.4349C103.615 25.6589 103.354 25.0755 102.844 24.6849C102.344 24.2839 101.615 24.0807 100.656 24.0807H97.2813V28.8307Z" fill="white"/>
<path d="M113.672 36.9557L120.484 21.9141H122.776L129.672 36.9557H126.88L125.047 32.7266L126.151 33.4766H117.13L118.276 32.7266L116.443 36.9557H113.672ZM121.609 24.8516L118.609 31.9766L118.047 31.3307H125.214L124.755 31.9766L121.693 24.8516H121.609Z" fill="white"/>
<path d="M131.336 36.9557V21.9141H133.398L142.128 33.2057H141.565V21.9141H144.128V36.9557H142.065L133.357 25.6641H133.898V36.9557H131.336Z" fill="white"/>
<path d="M147.43 36.9557V21.9141H152.888C154.607 21.9141 156.06 22.2161 157.242 22.8099C158.435 23.3932 159.336 24.2474 159.951 25.3724C160.56 26.487 160.867 27.8411 160.867 29.4349C160.867 31.0078 160.56 32.3516 159.951 33.4766C159.336 34.6016 158.435 35.4661 157.242 36.0599C156.06 36.6589 154.607 36.9557 152.888 36.9557H147.43ZM150.18 34.6641H152.721C154.539 34.6641 155.888 34.237 156.763 33.3724C157.648 32.513 158.096 31.2005 158.096 29.4349C158.096 27.6589 157.648 26.3411 156.763 25.4766C155.888 24.6172 154.539 24.1849 152.721 24.1849H150.18V34.6641Z" fill="white"/>
<path d="M40.2656 66.1536C38.6927 66.1536 37.349 65.8411 36.224 65.2161C35.1094 64.5807 34.2552 63.6849 33.6615 62.5286C33.0625 61.362 32.7656 59.9974 32.7656 58.4245C32.7656 56.8411 33.0625 55.4766 33.6615 54.3203C34.2552 53.1693 35.1094 52.2786 36.224 51.6536C37.349 51.0182 38.6927 50.6953 40.2656 50.6953C41.3177 50.6953 42.2656 50.8516 43.099 51.1536C43.9427 51.4453 44.6719 51.8828 45.2865 52.4661L44.3906 54.6328C43.724 54.0911 43.0781 53.7109 42.4531 53.487C41.8385 53.2526 41.1406 53.1328 40.349 53.1328C38.8177 53.1328 37.651 53.5911 36.849 54.5078C36.0573 55.4245 35.6615 56.7318 35.6615 58.4245C35.6615 60.1068 36.0573 61.4141 36.849 62.3411C37.651 63.2734 38.8177 63.737 40.349 63.737C41.1406 63.737 41.8385 63.6224 42.4531 63.3828C43.0781 63.1484 43.724 62.7526 44.3906 62.1953L45.2865 64.362C44.6719 64.9349 43.9427 65.3776 43.099 65.6953C42.2656 65.9974 41.3177 66.1536 40.2656 66.1536Z" fill="white"/>
<path d="M46.2031 65.9401L53.0156 50.8984H55.3073L62.2031 65.9401H59.4115L57.5781 61.7109L58.6823 62.4609H49.6615L50.8073 61.7109L48.974 65.9401H46.2031ZM54.1406 53.8359L51.1406 60.9609L50.5781 60.3151H57.7448L57.2865 60.9609L54.224 53.8359H54.1406Z" fill="white"/>
<path d="M63.8672 65.9401V50.8984H70.4297C72.0807 50.8984 73.3568 51.2943 74.263 52.0859C75.1641 52.8672 75.6172 53.9505 75.6172 55.3359C75.6172 56.2682 75.4141 57.0599 75.013 57.7109C74.6068 58.3672 74.0234 58.8672 73.263 59.2109C72.513 59.5599 71.6224 59.7318 70.5964 59.7318L70.9089 59.3359H71.638C72.2318 59.3359 72.763 59.4974 73.2214 59.8151C73.6901 60.1224 74.0807 60.5964 74.388 61.2318L76.5755 65.9401H73.5547L71.3255 61.0651C71.1276 60.5651 70.8307 60.2422 70.4297 60.0859C70.0234 59.9193 69.5391 59.8359 68.9714 59.8359H66.6172V65.9401H63.8672ZM66.6172 57.8151H69.9922C70.9505 57.8151 71.6797 57.6172 72.1797 57.2109C72.6901 56.7943 72.9505 56.2005 72.9505 55.4193C72.9505 54.6432 72.6901 54.0599 72.1797 53.6693C71.6797 53.2682 70.9505 53.0651 69.9922 53.0651H66.6172V57.8151Z" fill="white"/>
<path d="M78.8281 65.9401V50.8984H84.2865C86.0052 50.8984 87.4583 51.2005 88.6406 51.7943C89.8333 52.3776 90.7344 53.2318 91.349 54.3568C91.9583 55.4714 92.2656 56.8255 92.2656 58.4193C92.2656 59.9922 91.9583 61.3359 91.349 62.4609C90.7344 63.5859 89.8333 64.4505 88.6406 65.0443C87.4583 65.6432 86.0052 65.9401 84.2865 65.9401H78.8281ZM81.5781 63.6484H84.1198C85.9375 63.6484 87.2865 63.2214 88.1615 62.3568C89.0469 61.4974 89.4948 60.1849 89.4948 58.4193C89.4948 56.6432 89.0469 55.3255 88.1615 54.4609C87.2865 53.6016 85.9375 53.1693 84.1198 53.1693H81.5781V63.6484Z" fill="white"/>
<path d="M95.0781 65.9401V50.8984H101.661C103.297 50.8984 104.557 51.2474 105.432 51.9401C106.318 52.6224 106.766 53.5755 106.766 54.7943C106.766 55.7109 106.495 56.4818 105.953 57.1068C105.411 57.7318 104.667 58.1484 103.724 58.3568V58.0443C104.807 58.2005 105.646 58.5964 106.245 59.2318C106.854 59.8724 107.161 60.7057 107.161 61.7318C107.161 63.0807 106.693 64.1224 105.766 64.8568C104.849 65.5807 103.568 65.9401 101.932 65.9401H95.0781ZM97.724 63.8568H101.599C102.526 63.8568 103.25 63.6849 103.766 63.3359C104.276 62.9766 104.536 62.3984 104.536 61.6068C104.536 60.8047 104.276 60.2266 103.766 59.8776C103.25 59.5339 102.526 59.3568 101.599 59.3568H97.724V63.8568ZM97.724 57.2734H101.203C102.172 57.2734 102.896 57.0964 103.37 56.7318C103.854 56.3724 104.099 55.8359 104.099 55.1276C104.099 54.4193 103.854 53.888 103.37 53.5234C102.896 53.1484 102.172 52.9609 101.203 52.9609H97.724V57.2734Z" fill="white"/>
<path d="M109.289 58.4245C109.289 56.8411 109.57 55.4766 110.143 54.3203C110.727 53.1693 111.56 52.2786 112.643 51.6536C113.727 51.0182 115.008 50.6953 116.497 50.6953C117.982 50.6953 119.268 51.0182 120.352 51.6536C121.435 52.2786 122.268 53.1693 122.852 54.3203C123.445 55.4766 123.747 56.8359 123.747 58.4036C123.747 59.9766 123.445 61.3411 122.852 62.5078C122.268 63.6641 121.435 64.5599 120.352 65.1953C119.268 65.8359 117.982 66.1536 116.497 66.1536C115.008 66.1536 113.727 65.8359 112.643 65.1953C111.57 64.5599 110.747 63.6641 110.164 62.5078C109.581 61.3411 109.289 59.9818 109.289 58.4245ZM112.185 58.4245C112.185 60.1068 112.544 61.4245 113.268 62.3828C113.987 63.3411 115.065 63.8203 116.497 63.8203C117.898 63.8203 118.977 63.3411 119.727 62.3828C120.477 61.4245 120.852 60.1068 120.852 58.4245C120.852 56.7161 120.477 55.3932 119.727 54.4453C118.987 53.5026 117.914 53.0286 116.497 53.0286C115.065 53.0286 113.987 53.5026 113.268 54.4453C112.544 55.3932 112.185 56.7161 112.185 58.4245Z" fill="white"/>
<path d="M124.906 65.9401L131.719 50.8984H134.01L140.906 65.9401H138.115L136.281 61.7109L137.385 62.4609H128.365L129.51 61.7109L127.677 65.9401H124.906ZM132.844 53.8359L129.844 60.9609L129.281 60.3151H136.448L135.99 60.9609L132.927 53.8359H132.844Z" fill="white"/>
<path d="M142.562 65.9401V50.8984H149.125C150.776 50.8984 152.052 51.2943 152.958 52.0859C153.859 52.8672 154.313 53.9505 154.313 55.3359C154.313 56.2682 154.109 57.0599 153.708 57.7109C153.302 58.3672 152.719 58.8672 151.958 59.2109C151.208 59.5599 150.318 59.7318 149.292 59.7318L149.604 59.3359H150.333C150.927 59.3359 151.458 59.4974 151.917 59.8151C152.385 60.1224 152.776 60.5964 153.083 61.2318L155.271 65.9401H152.25L150.021 61.0651C149.823 60.5651 149.526 60.2422 149.125 60.0859C148.719 59.9193 148.234 59.8359 147.667 59.8359H145.313V65.9401H142.562ZM145.313 57.8151H148.688C149.646 57.8151 150.375 57.6172 150.875 57.2109C151.385 56.7943 151.646 56.2005 151.646 55.4193C151.646 54.6432 151.385 54.0599 150.875 53.6693C150.375 53.2682 149.646 53.0651 148.688 53.0651H145.313V57.8151Z" fill="white"/>
<path d="M157.531 65.9401V50.8984H162.99C164.708 50.8984 166.161 51.2005 167.344 51.7943C168.536 52.3776 169.438 53.2318 170.052 54.3568C170.661 55.4714 170.969 56.8255 170.969 58.4193C170.969 59.9922 170.661 61.3359 170.052 62.4609C169.438 63.5859 168.536 64.4505 167.344 65.0443C166.161 65.6432 164.708 65.9401 162.99 65.9401H157.531ZM160.281 63.6484H162.823C164.641 63.6484 165.99 63.2214 166.865 62.3568C167.75 61.4974 168.198 60.1849 168.198 58.4193C168.198 56.6432 167.75 55.3255 166.865 54.4609C165.99 53.6016 164.641 53.1693 162.823 53.1693H160.281V63.6484Z" fill="white"/>
</svg>
