<svg width="254" height="35" viewBox="0 0 254 35" fill="none" xmlns="http://www.w3.org/2000/svg">
<path d="M8.63021 0H245.349C250.115 0 253.979 3.86458 253.979 8.63021V25.8906C253.979 30.6562 250.115 34.5208 245.349 34.5208H8.63021C3.86458 34.5208 0 30.6562 0 25.8906V8.63021C0 3.86458 3.86458 0 8.63021 0Z" fill="#0068B1"/>
<path d="M52.872 26V9.08H59.016C60.952 9.08 62.584 9.416 63.912 10.088C65.256 10.744 66.272 11.704 66.96 12.968C67.648 14.216 67.992 15.736 67.992 17.528C67.992 19.304 67.648 20.824 66.96 22.088C66.272 23.352 65.256 24.32 63.912 24.992C62.584 25.664 60.952 26 59.016 26H52.872ZM55.968 23.432H58.824C60.872 23.432 62.392 22.944 63.384 21.968C64.376 20.992 64.872 19.512 64.872 17.528C64.872 15.528 64.376 14.048 63.384 13.088C62.392 12.112 60.872 11.624 58.824 11.624H55.968V23.432ZM71.1533 26V9.08H78.5453C80.4013 9.08 81.8333 9.52 82.8412 10.4C83.8653 11.28 84.3773 12.504 84.3773 14.072C84.3773 15.112 84.1453 16 83.6813 16.736C83.2333 17.472 82.5853 18.04 81.7373 18.44C80.8893 18.824 79.8893 19.016 78.7373 19.016L79.0733 18.56H79.8893C80.5613 18.56 81.1613 18.736 81.6893 19.088C82.2173 19.44 82.6493 19.976 82.9853 20.696L85.4573 26H82.0493L79.5533 20.504C79.3293 19.944 78.9853 19.576 78.5213 19.4C78.0733 19.224 77.5293 19.136 76.8893 19.136H74.2493V26H71.1533ZM74.2493 16.856H78.0413C79.1293 16.856 79.9533 16.632 80.5133 16.184C81.0893 15.72 81.3773 15.048 81.3773 14.168C81.3773 13.288 81.0893 12.624 80.5133 12.176C79.9533 11.728 79.1293 11.504 78.0413 11.504H74.2493V16.856ZM91.9453 26V18.008L92.5933 19.856L85.3213 9.08H88.8973L93.8893 16.76H93.2173L98.2093 9.08H101.665L94.4173 19.856L95.0413 18.008V26H91.9453ZM114.201 26L108.225 9.08H111.441L116.049 22.952H115.089L120.057 9.08H122.361L126.969 22.952H126.081L130.905 9.08H133.929L127.905 26H125.337L120.873 12.992H121.401L116.769 26H114.201ZM133.102 26L140.758 9.08H143.35L151.102 26H147.958L145.894 21.248L147.142 22.088H136.99L138.286 21.248L136.222 26H133.102ZM142.03 12.392L138.646 20.408L138.022 19.664H146.086L145.582 20.408L142.126 12.392H142.03ZM158.69 26.24C157.33 26.24 156.074 26.072 154.922 25.736C153.786 25.384 152.81 24.904 151.994 24.296L152.954 21.872C153.498 22.256 154.066 22.584 154.658 22.856C155.25 23.112 155.882 23.312 156.554 23.456C157.226 23.584 157.938 23.648 158.69 23.648C159.954 23.648 160.866 23.44 161.426 23.024C161.986 22.608 162.266 22.064 162.266 21.392C162.266 20.8 162.074 20.352 161.69 20.048C161.306 19.728 160.618 19.464 159.626 19.256L156.914 18.704C155.362 18.384 154.202 17.848 153.434 17.096C152.666 16.344 152.282 15.336 152.282 14.072C152.282 13.016 152.562 12.096 153.122 11.312C153.682 10.528 154.466 9.92 155.474 9.488C156.482 9.056 157.658 8.84 159.002 8.84C160.202 8.84 161.314 9.016 162.338 9.368C163.362 9.704 164.218 10.192 164.906 10.832L163.946 13.136C163.258 12.56 162.506 12.136 161.69 11.864C160.874 11.576 159.962 11.432 158.954 11.432C157.818 11.432 156.93 11.656 156.29 12.104C155.666 12.536 155.354 13.136 155.354 13.904C155.354 14.496 155.546 14.968 155.93 15.32C156.33 15.672 157.002 15.944 157.946 16.136L160.634 16.664C162.234 16.984 163.418 17.512 164.186 18.248C164.954 18.968 165.338 19.944 165.338 21.176C165.338 22.184 165.066 23.072 164.522 23.84C163.978 24.592 163.21 25.184 162.218 25.616C161.226 26.032 160.05 26.24 158.69 26.24ZM171.887 26V11.624H166.295V9.08H180.575V11.624H174.983V26H171.887ZM182.763 26V9.08H194.163V11.504H185.739V16.184H193.611V18.632H185.739V23.552H194.163V26H182.763Z" fill="white"/>
</svg>
