<svg width="177" height="144" viewBox="0 0 177 144" fill="none" xmlns="http://www.w3.org/2000/svg">
<path d="M175.276 67.9008C174.887 60.6329 174.577 53.2352 174.275 46.0821C173.982 39.1161 173.679 31.9126 173.303 24.8305C172.76 14.5459 167.468 7.05345 158.002 3.16287C154.659 1.78998 150.546 1.064 145.435 0.941501C131.898 0.619619 118.133 0.470837 104.82 0.326187C100.081 0.274494 95.3431 0.220398 90.6056 0.163927C90.4863 0.0650139 90.3365 0.0106555 90.1816 0.010576H79.1466C70.1793 0.010576 61.2126 0.0132312 52.2472 0.0175753C50.6062 0.0175753 48.9601 0.0138639 47.3197 0.0093028C42.3884 -0.00763837 37.2885 -0.0216983 32.2728 0.160745C25.4249 0.408999 20.1519 1.74786 15.6795 4.37504C6.62206 9.69718 1.79058 17.2941 1.31923 26.9565C1.07091 32.0447 0.987261 37.22 0.906865 42.2254L0.854355 45.3593C0.78174 49.5602 0.70587 53.7603 0.626771 57.9595C0.371969 71.7966 0.108092 86.1048 0.00370734 100.182C-0.0384355 105.786 0.244243 112.416 2.65546 119.1C6.22138 128.986 12.7989 135.378 22.7641 138.639C32.0355 141.603 41.7039 143.122 51.4329 143.143C75.6163 143.457 100.982 143.606 130.835 143.606H136.634C142.12 143.699 147.597 143.103 152.936 141.832C165.176 138.686 172.43 131.146 174.495 119.422C175.152 115.444 175.608 111.436 175.862 107.412C176.756 95.2009 176.086 82.8266 175.436 70.8583L175.276 67.9008ZM62.1826 132.495C51.7071 132.463 40.514 132.065 29.6392 129.384C25.2635 128.307 22.1339 127.044 19.6332 125.335L73.6019 75.4553L75.1087 77.0842C76.6103 78.7086 78.1605 80.3852 79.7262 82.0467C84.2582 86.8573 88.7046 87.2516 93.7164 83.2886C95.7671 81.6681 97.7154 79.8346 99.5995 78.0675C100.313 77.3963 101.034 76.7207 101.765 76.0482L154.587 129.63C152.761 131.138 150.554 131.454 148.229 131.787L147.561 131.884C145.064 132.217 142.546 132.372 140.026 132.346L125.252 132.4C104.578 132.477 83.2046 132.559 62.1826 132.495ZM144.653 21.1393C136.749 28.31 128.578 35.724 120.785 43.2805C113.009 50.8206 105.385 58.7227 98.011 66.367C94.9593 69.5311 91.8083 72.7981 88.6968 75.9857L23.0617 11.293C23.5315 11.1675 23.9977 11.0407 24.4602 10.9125C26.2496 10.4232 27.9399 9.95964 29.6664 9.61886C38.2513 7.92475 47.0902 8.15515 55.6387 8.38124C57.5481 8.43077 59.4569 8.47976 61.365 8.51104C64.2683 8.55665 67.2234 8.65393 70.0801 8.74841C72.5613 8.82986 75.1268 8.91457 77.6535 8.96474C84.7587 9.10594 91.864 9.24147 98.97 9.37139C114.329 9.65939 130.211 9.95814 145.828 10.3348C148.024 10.4565 150.207 10.7654 152.351 11.2581C153.194 11.4268 154.067 11.6 154.934 11.7512V11.7728C151.518 14.9102 148.029 18.0768 144.652 21.1419L144.653 21.1393ZM34.1089 99.8362C27.5262 106.127 20.727 112.626 14.152 119.266C11.4212 112.792 10.0058 107.477 9.58438 102.149C8.41735 87.3662 8.90232 72.6522 9.50269 58.8484C9.77694 52.5535 9.88652 46.1509 9.99284 39.9589C10.0655 35.7497 10.1407 31.3969 10.2664 27.1226C10.3961 22.5888 11.9048 19.4076 15.2789 16.596L66.5634 67.229C56.1231 78.7953 44.9325 89.491 34.105 99.8414L34.1089 99.8362ZM163.397 118.161C163.157 119.459 162.836 120.742 162.436 121.999C162.292 122.487 162.148 122.977 162.012 123.465L161.806 123.534L107.443 70.2954C126.236 50.8127 144.058 34.1971 161.884 19.5364C161.961 19.8811 162.038 20.2166 162.115 20.5437C162.433 21.731 162.643 22.9442 162.745 24.1694C163.346 36.5 163.836 48.6689 164.196 57.894C164.534 66.5507 164.822 75.0917 165.053 83.2814C165.341 93.6514 165.373 105.908 163.393 118.163L163.397 118.161Z" fill="white"/>
</svg>
