<svg width="204" height="89" viewBox="0 0 204 89" fill="none" xmlns="http://www.w3.org/2000/svg">
<mask id="mask0_2537_682" style="mask-type:luminance" maskUnits="userSpaceOnUse" x="0" y="0" width="204" height="89">
<path d="M0.3125 0.78125H203.359V88.7344H0.3125V0.78125Z" fill="white"/>
</mask>
<g mask="url(#mask0_2537_682)">
<mask id="mask1_2537_682" style="mask-type:luminance" maskUnits="userSpaceOnUse" x="0" y="0" width="204" height="89">
<path d="M25.3073 0.78125H178.339C192.141 0.78125 203.333 11.9688 203.333 25.776V63.7396C203.333 77.5417 192.141 88.7344 178.339 88.7344H25.3073C11.5 88.7344 0.3125 77.5417 0.3125 63.7396V25.776C0.3125 11.9688 11.5 0.78125 25.3073 0.78125Z" fill="white"/>
</mask>
<g mask="url(#mask1_2537_682)">
<path d="M0.3125 0.78125H203.359V88.7344H0.3125V0.78125Z" fill="#028A02"/>
</g>
</g>
<path d="M26 36.974C24.4271 36.974 23.0833 36.6615 21.9583 36.0365C20.8437 35.401 19.9896 34.5052 19.3958 33.349C18.7969 32.1823 18.5 30.8177 18.5 29.2448C18.5 27.6615 18.7969 26.2969 19.3958 25.1406C19.9896 23.9896 20.8437 23.099 21.9583 22.474C23.0833 21.8385 24.4271 21.5156 26 21.5156C27.0521 21.5156 28 21.6719 28.8333 21.974C29.6771 22.2656 30.4063 22.7031 31.0208 23.2865L30.125 25.4531C29.4583 24.9115 28.8125 24.5313 28.1875 24.3073C27.5729 24.0729 26.875 23.9531 26.0833 23.9531C24.5521 23.9531 23.3854 24.4115 22.5833 25.3281C21.7917 26.2448 21.3958 27.5521 21.3958 29.2448C21.3958 30.9271 21.7917 32.2344 22.5833 33.1615C23.3854 34.0938 24.5521 34.5573 26.0833 34.5573C26.875 34.5573 27.5729 34.4427 28.1875 34.2031C28.8125 33.9688 29.4583 33.5729 30.125 33.0156L31.0208 35.1823C30.4063 35.7552 29.6771 36.1979 28.8333 36.5156C28 36.8177 27.0521 36.974 26 36.974Z" fill="white"/>
<path d="M33.1094 29.2448C33.1094 27.6615 33.3906 26.2969 33.9635 25.1406C34.5469 23.9896 35.3802 23.099 36.4635 22.474C37.5469 21.8385 38.8281 21.5156 40.3177 21.5156C41.8021 21.5156 43.0885 21.8385 44.1719 22.474C45.2552 23.099 46.0885 23.9896 46.6719 25.1406C47.2656 26.2969 47.5677 27.6563 47.5677 29.224C47.5677 30.7969 47.2656 32.1615 46.6719 33.3281C46.0885 34.4844 45.2552 35.3802 44.1719 36.0156C43.0885 36.6563 41.8021 36.974 40.3177 36.974C38.8281 36.974 37.5469 36.6563 36.4635 36.0156C35.3906 35.3802 34.5677 34.4844 33.9844 33.3281C33.401 32.1615 33.1094 30.8021 33.1094 29.2448ZM36.0052 29.2448C36.0052 30.9271 36.3646 32.2448 37.0885 33.2031C37.8073 34.1615 38.8854 34.6406 40.3177 34.6406C41.7187 34.6406 42.7969 34.1615 43.5469 33.2031C44.2969 32.2448 44.6719 30.9271 44.6719 29.2448C44.6719 27.5365 44.2969 26.2135 43.5469 25.2656C42.8073 24.3229 41.7344 23.849 40.3177 23.849C38.8854 23.849 37.8073 24.3229 37.0885 25.2656C36.3646 26.2135 36.0052 27.5365 36.0052 29.2448Z" fill="white"/>
<path d="M50.4062 36.7682V21.7266H52.8229L58.3438 34.1641H57.6771L63.1979 21.7266H65.5938V36.7682H63.0938V25.6016H63.8646L58.8021 36.7682H57.1771L52.1146 25.6016H52.9063V36.7682H50.4062Z" fill="white"/>
<path d="M68.9375 36.7682V21.7266H75.6042C77.2552 21.7266 78.5104 22.1328 79.375 22.9349C80.25 23.7266 80.6875 24.8203 80.6875 26.2057C80.6875 27.5807 80.25 28.6797 79.375 29.4974C78.5104 30.3047 77.2552 30.7057 75.6042 30.7057H71.6875V36.7682H68.9375ZM71.6875 28.5391H75.2917C76.2083 28.5391 76.8854 28.3411 77.3333 27.9349C77.7917 27.5182 78.0208 26.9453 78.0208 26.2057C78.0208 25.4714 77.7917 24.9036 77.3333 24.4974C76.8854 24.0964 76.2083 23.8932 75.2917 23.8932H71.6875V28.5391Z" fill="white"/>
<path d="M82.6328 29.2448C82.6328 27.6615 82.9141 26.2969 83.487 25.1406C84.0703 23.9896 84.9036 23.099 85.987 22.474C87.0703 21.8385 88.3516 21.5156 89.8411 21.5156C91.3255 21.5156 92.612 21.8385 93.6953 22.474C94.7786 23.099 95.612 23.9896 96.1953 25.1406C96.7891 26.2969 97.0911 27.6563 97.0911 29.224C97.0911 30.7969 96.7891 32.1615 96.1953 33.3281C95.612 34.4844 94.7786 35.3802 93.6953 36.0156C92.612 36.6563 91.3255 36.974 89.8411 36.974C88.3516 36.974 87.0703 36.6563 85.987 36.0156C84.9141 35.3802 84.0911 34.4844 83.5078 33.3281C82.9245 32.1615 82.6328 30.8021 82.6328 29.2448ZM85.5286 29.2448C85.5286 30.9271 85.888 32.2448 86.612 33.2031C87.3307 34.1615 88.4089 34.6406 89.8411 34.6406C91.2422 34.6406 92.3203 34.1615 93.0703 33.2031C93.8203 32.2448 94.1953 30.9271 94.1953 29.2448C94.1953 27.5365 93.8203 26.2135 93.0703 25.2656C92.3307 24.3229 91.2578 23.849 89.8411 23.849C88.4089 23.849 87.3307 24.3229 86.612 25.2656C85.888 26.2135 85.5286 27.5365 85.5286 29.2448Z" fill="white"/>
<path d="M105.169 36.974C103.961 36.974 102.841 36.8177 101.815 36.5156C100.799 36.2135 99.9297 35.7865 99.2109 35.2448L100.065 33.099C100.549 33.4323 101.055 33.7188 101.586 33.9531C102.112 34.1927 102.674 34.3698 103.273 34.4948C103.867 34.6198 104.503 34.6823 105.169 34.6823C106.294 34.6823 107.096 34.4948 107.586 34.1198C108.086 33.7448 108.336 33.2604 108.336 32.6615C108.336 32.151 108.159 31.7552 107.815 31.474C107.482 31.1979 106.878 30.9635 106.003 30.7656L103.586 30.2865C102.211 29.9948 101.174 29.5156 100.482 28.849C99.7995 28.1823 99.4609 27.2865 99.4609 26.1615C99.4609 25.2188 99.7109 24.401 100.211 23.7031C100.711 23.0104 101.404 22.474 102.294 22.099C103.195 21.7135 104.242 21.5156 105.44 21.5156C106.508 21.5156 107.492 21.6719 108.398 21.974C109.315 22.2813 110.076 22.7188 110.69 23.2865L109.836 25.3281C109.221 24.8177 108.555 24.4323 107.836 24.1823C107.112 23.9323 106.299 23.8073 105.398 23.8073C104.383 23.8073 103.591 24.0104 103.023 24.4115C102.466 24.8021 102.19 25.3385 102.19 26.0156C102.19 26.5469 102.362 26.9688 102.711 27.2865C103.07 27.5938 103.669 27.8281 104.503 27.9948L106.898 28.474C108.315 28.7552 109.362 29.2188 110.044 29.8698C110.721 30.5104 111.065 31.3802 111.065 32.474C111.065 33.3802 110.82 34.1719 110.336 34.849C109.862 35.5156 109.18 36.0365 108.294 36.4115C107.419 36.7865 106.378 36.974 105.169 36.974Z" fill="white"/>
<path d="M117.214 36.7682V23.9974H112.234V21.7266H124.943V23.9974H119.964V36.7682H117.214Z" fill="white"/>
<path d="M125.203 36.7682L132.016 21.7266H134.307L141.203 36.7682H138.411L136.578 32.5391L137.682 33.2891H128.661L129.807 32.5391L127.974 36.7682H125.203ZM133.141 24.6641L130.141 31.7891L129.578 31.1432H136.745L136.286 31.7891L133.224 24.6641H133.141Z" fill="white"/>
<path d="M142.859 36.7682V21.7266H149.443C151.078 21.7266 152.339 22.0755 153.214 22.7682C154.099 23.4505 154.547 24.4036 154.547 25.6224C154.547 26.5391 154.276 27.3099 153.734 27.9349C153.193 28.5599 152.448 28.9766 151.505 29.1849V28.8724C152.589 29.0286 153.427 29.4245 154.026 30.0599C154.635 30.7005 154.943 31.5339 154.943 32.5599C154.943 33.9089 154.474 34.9505 153.547 35.6849C152.63 36.4089 151.349 36.7682 149.714 36.7682H142.859ZM145.505 34.6849H149.38C150.307 34.6849 151.031 34.513 151.547 34.1641C152.057 33.8047 152.318 33.2266 152.318 32.4349C152.318 31.6328 152.057 31.0547 151.547 30.7057C151.031 30.362 150.307 30.1849 149.38 30.1849H145.505V34.6849ZM145.505 28.1016H148.984C149.953 28.1016 150.677 27.9245 151.151 27.5599C151.635 27.2005 151.88 26.6641 151.88 25.9557C151.88 25.2474 151.635 24.7161 151.151 24.3516C150.677 23.9766 149.953 23.7891 148.984 23.7891H145.505V28.1016Z" fill="white"/>
<path d="M157.57 36.7682V21.7266H160.32V34.4349H167.404V36.7682H157.57Z" fill="white"/>
<path d="M169.508 36.7682V21.7266H179.633V23.8932H172.154V28.0391H179.154V30.2266H172.154V34.6016H179.633V36.7682H169.508Z" fill="white"/>
<path d="M69.5625 65.7604V50.7188H79.4792V52.8854H72.3125V57.1354H78.9792V59.3021H72.3125V65.7604H69.5625Z" fill="white"/>
<path d="M81.2578 58.237C81.2578 56.6536 81.5391 55.2891 82.112 54.1328C82.6953 52.9818 83.5286 52.0911 84.612 51.4661C85.6953 50.8307 86.9766 50.5078 88.4661 50.5078C89.9505 50.5078 91.237 50.8307 92.3203 51.4661C93.4036 52.0911 94.237 52.9818 94.8203 54.1328C95.4141 55.2891 95.7161 56.6484 95.7161 58.2161C95.7161 59.7891 95.4141 61.1536 94.8203 62.3203C94.237 63.4766 93.4036 64.3724 92.3203 65.0078C91.237 65.6484 89.9505 65.9661 88.4661 65.9661C86.9766 65.9661 85.6953 65.6484 84.612 65.0078C83.5391 64.3724 82.7161 63.4766 82.1328 62.3203C81.5495 61.1536 81.2578 59.7943 81.2578 58.237ZM84.1536 58.237C84.1536 59.9193 84.513 61.237 85.237 62.1953C85.9557 63.1536 87.0339 63.6328 88.4661 63.6328C89.8672 63.6328 90.9453 63.1536 91.6953 62.1953C92.4453 61.237 92.8203 59.9193 92.8203 58.237C92.8203 56.5286 92.4453 55.2057 91.6953 54.2578C90.9557 53.3151 89.8828 52.8411 88.4661 52.8411C87.0339 52.8411 85.9557 53.3151 85.237 54.2578C84.513 55.2057 84.1536 56.5286 84.1536 58.237Z" fill="white"/>
<path d="M98.0391 58.237C98.0391 56.6536 98.3203 55.2891 98.8932 54.1328C99.4766 52.9818 100.31 52.0911 101.393 51.4661C102.477 50.8307 103.758 50.5078 105.247 50.5078C106.732 50.5078 108.018 50.8307 109.102 51.4661C110.185 52.0911 111.018 52.9818 111.602 54.1328C112.195 55.2891 112.497 56.6484 112.497 58.2161C112.497 59.7891 112.195 61.1536 111.602 62.3203C111.018 63.4766 110.185 64.3724 109.102 65.0078C108.018 65.6484 106.732 65.9661 105.247 65.9661C103.758 65.9661 102.477 65.6484 101.393 65.0078C100.32 64.3724 99.4974 63.4766 98.9141 62.3203C98.3307 61.1536 98.0391 59.7943 98.0391 58.237ZM100.935 58.237C100.935 59.9193 101.294 61.237 102.018 62.1953C102.737 63.1536 103.815 63.6328 105.247 63.6328C106.648 63.6328 107.727 63.1536 108.477 62.1953C109.227 61.237 109.602 59.9193 109.602 58.237C109.602 56.5286 109.227 55.2057 108.477 54.2578C107.737 53.3151 106.664 52.8411 105.247 52.8411C103.815 52.8411 102.737 53.3151 102.018 54.2578C101.294 55.2057 100.935 56.5286 100.935 58.237Z" fill="white"/>
<path d="M115.32 65.7604V50.7188H120.779C122.497 50.7188 123.951 51.0208 125.133 51.6146C126.326 52.1979 127.227 53.0521 127.841 54.1771C128.451 55.2917 128.758 56.6458 128.758 58.2396C128.758 59.8125 128.451 61.1563 127.841 62.2813C127.227 63.4063 126.326 64.2708 125.133 64.8646C123.951 65.4635 122.497 65.7604 120.779 65.7604H115.32ZM118.07 63.4688H120.612C122.43 63.4688 123.779 63.0417 124.654 62.1771C125.539 61.3177 125.987 60.0052 125.987 58.2396C125.987 56.4635 125.539 55.1458 124.654 54.2813C123.779 53.4219 122.43 52.9896 120.612 52.9896H118.07V63.4688Z" fill="white"/>
</svg>
