<svg width="187" height="149" viewBox="0 0 187 149" fill="none" xmlns="http://www.w3.org/2000/svg">
<mask id="mask0_2485_183" style="mask-type:luminance" maskUnits="userSpaceOnUse" x="0" y="0" width="187" height="149">
<path d="M0 0H186.667V148.797H0V0Z" fill="white"/>
</mask>
<g mask="url(#mask0_2485_183)">
<path d="M137.677 147.824C148.635 147.402 159.703 143.673 168.948 137.83C188.479 124.913 193.552 90.0795 171.646 77.0378C157.583 68.2618 139.495 77.8451 135.734 93.1889C135.62 93.293 135.505 93.4024 135.391 93.5066C125.427 77.6108 122.271 57.5274 130.693 40.267C133.937 32.6837 138.474 25.7618 142.953 18.8608C145.307 15.3816 147.703 11.918 150.047 8.36596C151.755 6.35033 152.984 2.83471 150.026 1.14721C142.281 -2.13925 133.948 3.85033 127.995 8.44929C118.073 16.7618 111.714 28.5066 106.448 40.1524C101.844 50.543 97.2135 61.0378 94.5416 72.1108C90.1458 90.7774 90.4479 111.428 100.599 128.236C108.339 140.689 123.203 147.819 137.677 147.824ZM100.745 115.184C101.682 117.095 102.391 119.137 103.354 121.038C103.37 121.267 103.385 121.496 103.401 121.725C101.984 119.85 100.932 117.788 100.745 115.184ZM103.922 93.6472C103.937 93.7514 103.969 93.8503 104.026 93.9389C103.391 97.3295 103.229 100.819 101.49 103.876C100 99.2566 103.062 94.5118 104.125 90.0743C103.88 91.2462 103.714 92.4545 103.922 93.6472ZM126.589 138.58C125.859 138.163 125.234 137.626 124.719 136.97C125.073 136.934 125.417 136.845 125.745 136.71C125.906 136.923 126.115 137.001 126.375 136.934C126.443 137.486 126.51 138.033 126.589 138.58ZM126.464 102.715C126.651 102.595 126.844 102.481 127.036 102.371C127.094 102.475 127.146 102.58 127.203 102.689C127.031 102.991 126.854 103.288 126.677 103.58C126.661 103.6 126.646 103.621 126.63 103.642C126.583 103.33 126.526 103.022 126.464 102.715ZM125.125 134.96C124.724 134.866 124.323 134.772 123.932 134.658C123.964 134.408 124.026 134.163 124.109 133.928C124.547 134.231 124.99 134.527 125.427 134.83C125.323 134.866 125.224 134.913 125.125 134.96ZM124.375 129.814C124.292 129.689 124.208 129.564 124.135 129.434C124.078 129.324 124.016 129.22 123.958 129.111C124.151 128.861 124.344 128.606 124.536 128.35C124.776 128.038 125.01 127.725 125.25 127.418C125.281 127.715 125.318 128.017 125.349 128.314C125.021 128.814 124.693 129.314 124.375 129.814ZM123.391 124.439C123.437 124.126 123.474 123.814 123.516 123.501C123.786 122.814 124.062 122.126 124.339 121.444C124.406 121.356 124.469 121.267 124.536 121.184C124.542 121.21 124.542 121.241 124.547 121.267C124.151 122.319 123.776 123.382 123.391 124.439ZM123.917 100.33C123.865 99.9701 123.807 99.6108 123.76 99.2514C123.687 98.7097 123.578 98.1785 123.495 97.6368C123.708 97.4962 123.922 97.3608 124.141 97.2305C124.208 97.5378 124.281 97.8399 124.359 98.1472C124.432 98.4753 124.505 98.8087 124.589 99.1368C124.37 99.5378 124.141 99.9337 123.917 100.33ZM123.302 95.5483C123.234 95.5899 123.172 95.6368 123.104 95.6785C123.068 95.5743 123.026 95.4649 122.979 95.3608C122.849 95.0587 122.62 94.866 122.307 94.7722C122.25 94.267 122.51 93.8399 122.698 93.3868C123.005 94.0326 123.318 94.6837 123.625 95.3347C123.516 95.4024 123.406 95.4753 123.302 95.5483ZM122.349 76.4858C122.042 76.4805 121.74 76.5118 121.443 76.5795C120.844 72.7566 120.896 68.8712 120.771 65.0118C120.927 66.0483 121.089 67.0847 121.271 68.1212C121.656 70.9233 122.5 73.6837 122.609 76.517C122.526 76.4962 122.437 76.4858 122.349 76.4858ZM121.818 109.637C121.849 110.189 121.875 110.746 121.891 111.298C121.849 111.371 121.802 111.444 121.755 111.517C121.776 110.892 121.797 110.262 121.818 109.637ZM121.76 78.3816C121.802 78.3712 121.839 78.366 121.88 78.3608C121.896 78.3555 121.906 78.3555 121.922 78.3555C121.927 78.5326 121.906 78.7045 121.849 78.8712C121.818 78.7097 121.792 78.543 121.76 78.3816ZM121.974 115.887V116.819C121.974 117.194 121.979 117.564 121.964 117.939C121.948 118.277 121.932 118.616 121.917 118.955C121.792 119.1 121.667 119.251 121.542 119.402C121.557 118.418 121.578 117.434 121.604 116.449C121.729 116.262 121.849 116.074 121.974 115.887ZM121.469 133.132C121.458 133.142 121.453 133.152 121.443 133.158V133.022C121.453 133.059 121.458 133.095 121.469 133.132ZM120.844 38.3451C120.604 40.2514 120.214 42.1368 119.193 43.793C119 43.267 119.016 42.392 118.307 42.3295C119.146 40.8347 120.016 39.3712 120.917 37.9128C120.891 38.0587 120.865 38.2045 120.844 38.3451ZM115.422 114.361C115.375 114.434 115.323 114.501 115.276 114.574C115.292 114.277 115.307 113.986 115.323 113.689C115.521 113.413 115.719 113.132 115.932 112.866C115.984 112.809 116.031 112.751 116.078 112.694C116.042 112.96 116.01 113.22 115.974 113.486C115.786 113.783 115.599 114.08 115.411 114.376C115.417 114.371 115.417 114.366 115.422 114.361ZM115.771 74.8712V74.866C115.797 75.2514 115.823 75.6368 115.854 76.0274C115.927 77.1055 116 78.1941 116.073 79.2878C116.099 79.6576 116.125 80.0326 116.151 80.4024C115.453 81.1108 114.776 81.8451 114.13 82.6055C114.286 79.9493 115.141 77.4337 115.771 74.8712ZM114.281 66.6055C114.385 66.2514 114.495 65.892 114.599 65.5378C114.547 65.8764 114.495 66.2201 114.443 66.5587C114.391 66.5743 114.333 66.5899 114.281 66.6055ZM114.005 51.0639C115.214 48.7045 116.302 46.043 117.828 43.8035C118.531 47.5691 115.021 50.6941 113.594 54.0014C113.76 53.043 114.365 52.0326 114.005 51.0639ZM118.328 78.4128C117.964 72.392 117.474 66.6212 116.969 60.5483C118.573 66.1264 119.01 71.8868 119.339 77.6524C118.995 77.8972 118.656 78.1524 118.328 78.4128ZM119.542 79.5743C119.656 80.6472 119.771 81.7201 119.891 82.793C119.891 82.7983 119.891 82.8035 119.896 82.8087C119.703 82.6264 119.484 82.4962 119.234 82.4233C119.016 82.366 118.792 82.3555 118.568 82.392L118.562 82.2983C118.526 81.6785 118.49 81.0535 118.453 80.4337C118.807 80.1368 119.172 79.8503 119.542 79.5743ZM117.948 121.856C118.109 121.632 118.266 121.402 118.422 121.178C118.51 121.512 118.615 121.835 118.719 122.168C118.771 122.34 118.823 122.512 118.875 122.689C118.411 123.267 117.948 123.845 117.49 124.428C117.464 124.46 117.437 124.496 117.411 124.533C117.365 124.361 117.318 124.189 117.271 124.017C117.193 123.731 117.109 123.439 117.031 123.152C117.339 122.72 117.646 122.288 117.948 121.856ZM117.073 117.731C117.193 117.069 117.135 116.34 117.365 115.725C117.422 116.194 117.49 116.663 117.568 117.126C117.401 117.324 117.234 117.522 117.073 117.731ZM116.625 97.2618C116.552 98.5378 116.437 99.8087 116.245 101.074C116.219 101.132 116.187 101.189 116.156 101.246C116.234 100.465 116.307 99.6785 116.375 98.892C116.469 97.8816 116.562 96.8764 116.667 95.8712C116.656 96.3399 116.641 96.8139 116.62 97.2826C116.62 97.2774 116.62 97.267 116.625 97.2618ZM117.031 105.371C116.854 106.72 116.677 108.069 116.505 109.418C116.156 109.85 115.807 110.277 115.458 110.705C115.427 108.731 115.714 106.918 117.031 105.371ZM118.656 61.5274C118.552 61.0587 118.443 60.5899 118.312 60.1212C118.271 59.9753 118.234 59.8243 118.193 59.6733C118.339 59.6316 118.443 59.543 118.516 59.4128C118.583 59.2826 118.646 59.1576 118.714 59.0274C118.687 59.7722 118.656 60.5118 118.656 61.2514C118.656 61.3451 118.656 61.4337 118.656 61.5274ZM119.255 50.1837C119.135 52.793 118.021 55.1993 117.484 57.741C117.479 57.7305 117.474 57.7201 117.469 57.7045C117.385 57.5639 117.292 57.4285 117.187 57.3035C117.703 54.8764 118.516 52.491 119.26 50.1316C119.255 50.1472 119.255 50.168 119.255 50.1837ZM116.292 82.4597C116.302 82.6212 116.312 82.7826 116.318 82.9389C116.37 83.8712 116.422 84.8035 116.474 85.7305C114.505 87.2305 115.609 91.4285 113.615 93.1316C113.599 90.5118 113.609 87.8712 113.807 85.2618C114.604 84.2826 115.411 83.3712 116.292 82.4597ZM115.729 130.382C116.271 130.428 116.776 130.137 117.177 129.788C117.542 130.574 118.12 131.449 118.969 131.725C118.87 131.965 118.776 132.205 118.677 132.444C117.698 131.913 116.708 131.392 115.724 130.866C115.724 130.705 115.724 130.538 115.729 130.382ZM118.958 113.246L119.078 113.059C119.135 113.71 119.187 114.361 119.24 115.012C119.24 115.007 119.24 115.001 119.234 114.996C119.24 115.043 119.24 115.085 119.245 115.126C119.24 115.132 119.24 115.132 119.234 115.137C119.193 114.824 119.146 114.512 119.099 114.205C119.047 113.882 119 113.564 118.958 113.246ZM119.375 127.574L119.38 127.569L119.385 128.043C119.297 127.986 119.203 127.923 119.109 127.866C119.198 127.772 119.286 127.673 119.375 127.574ZM118.911 106.725C118.839 106.689 118.755 106.658 118.677 106.626C118.594 106.59 118.505 106.574 118.411 106.569C118.516 105.72 118.625 104.866 118.729 104.012C118.839 103.132 118.948 102.251 119.062 101.366C119.354 101.074 119.646 100.788 119.948 100.507C119.859 102.309 119.781 104.106 119.708 105.908C119.443 106.178 119.172 106.439 118.911 106.725ZM118.849 36.9128C116.719 40.4337 114.411 43.9128 112.432 47.5326C113.87 43.2878 116.339 39.6837 119.224 36.2878C119.099 36.4962 118.974 36.7045 118.849 36.9128ZM114.995 54.1837C113.672 57.5535 112.484 60.9858 111.297 64.4024C111.094 64.991 110.901 65.5899 110.708 66.1889C110.771 65.9285 110.818 65.6576 110.849 65.392C110.87 65.1628 110.781 64.991 110.583 64.8712C111.464 61.0222 112.719 57.4337 114.995 54.1837ZM111 73.2253C110.802 73.8972 110.604 74.5639 110.406 75.2305C109.495 78.2878 108.542 81.3347 107.573 84.3712C108.562 80.6368 109.557 76.8035 111 73.2253ZM109.74 81.7097C111.411 77.517 111.781 72.5118 114.115 68.7358C114.094 68.8972 114.078 69.0587 114.057 69.2149C113.969 69.9649 113.87 70.7149 113.781 71.4597C111.995 79.3139 109.469 86.9285 106.214 94.293C106.635 89.9389 108.646 85.9337 109.74 81.7097ZM107.448 113.699C107.552 111.892 108.026 110.33 109.167 108.913C109.104 109.517 109.047 110.126 108.995 110.736C108.984 111.887 107.943 112.705 107.448 113.699ZM108.302 119.72C108.271 120.246 108.234 120.767 108.198 121.293C107.922 121.788 107.687 122.298 107.484 122.824C107.448 122.751 107.417 122.678 107.385 122.6C107.255 122.184 107.13 121.762 107 121.34C107.448 120.835 107.901 120.277 108.302 119.72ZM107.432 102.106C107.328 102.08 107.214 102.069 107.104 102.069C106.865 102.074 106.635 102.137 106.427 102.257C107.328 100.043 108.245 97.8347 109.083 95.6055C109.031 95.8972 108.979 96.1889 108.932 96.4805C108.474 98.3764 108.625 100.491 107.432 102.106ZM109.031 103.277C109.089 102.902 109.151 102.527 109.208 102.152C109.484 101.689 109.76 101.225 110.036 100.762C109.828 101.777 110.021 102.949 109.495 103.856C109.458 103.803 109.417 103.757 109.38 103.71C109.266 103.564 109.151 103.418 109.031 103.277ZM111.26 116.439C111.391 115.465 111.573 114.543 112.182 113.746C112.286 114.038 112.391 114.335 112.495 114.632C112.073 115.231 111.672 115.835 111.26 116.439ZM112.682 117.465C112.677 117.809 112.667 118.152 112.661 118.496C111.943 119.543 111.182 120.569 110.375 121.553C110.76 120.059 111.948 118.83 112.682 117.465ZM110.453 97.2097C110.385 97.5951 110.031 97.892 109.849 98.2358C110.339 95.2618 110.849 92.293 111.38 89.3295C111.448 89.116 111.521 88.9076 111.594 88.6993C111.177 91.5326 110.792 94.3764 110.453 97.2097ZM109.807 125.527C109.833 125.356 109.859 125.189 109.88 125.017C111.005 124.345 111.807 123.267 112.651 122.288C112.651 122.699 112.656 123.111 112.661 123.522C111.724 124.835 110.714 126.1 109.849 127.465C109.635 127.08 109.427 126.689 109.224 126.303C109.557 126.147 109.755 125.892 109.807 125.527ZM112.839 128.611C112.854 128.866 112.865 129.121 112.88 129.376C112.88 129.376 112.88 129.376 112.88 129.382C112.703 129.288 112.526 129.205 112.349 129.116C112.516 128.949 112.687 128.783 112.839 128.611ZM107.38 105.449C107.245 107.642 106.437 109.413 105.073 111.132C105.094 109.053 106.578 107.335 107.38 105.449ZM106.99 125.762C106.672 125.434 106.359 125.106 106.047 124.783C106.052 124.444 106.052 124.106 106.083 123.777C106.354 124.387 106.641 124.996 106.932 125.59C106.953 125.647 106.969 125.705 106.99 125.762ZM105.516 116.783C105.396 116.434 105.281 116.085 105.156 115.736C105.146 115.314 105.125 114.892 105.115 114.47C105.172 114.413 105.229 114.361 105.286 114.303C105.568 114.001 105.828 113.689 106.083 113.366C105.901 114.496 105.719 115.621 105.536 116.751C105.531 116.762 105.521 116.772 105.516 116.783ZM107.01 129.027C106.521 128.356 106.057 127.668 105.599 126.975C106.464 127.543 107.312 128.121 107.922 128.949C108.042 129.08 108.193 129.152 108.37 129.173C108.547 129.194 108.708 129.152 108.854 129.053C110.255 131.361 111.932 133.444 113.875 135.314C111.318 133.512 109.031 131.418 107.01 129.027ZM111.411 130.074C111.932 130.33 112.458 130.585 112.984 130.85C113.021 131.272 113.083 131.694 113.167 132.111C113.328 133.111 114.568 133.402 115.24 132.736C115.38 132.564 115.49 132.371 115.557 132.158C116.464 132.626 117.37 133.09 118.281 133.559C118.198 133.882 118.307 134.116 118.599 134.272C118.385 135.184 118.526 136.069 119.578 136.251C119.542 136.991 119.703 138.048 120.672 137.923C121.792 137.715 121.365 136.387 121.427 135.58C121.615 135.46 121.802 135.33 121.984 135.199C122.031 135.215 122.073 135.236 122.12 135.251C123.021 137.428 124.385 138.897 126.062 139.814C120.031 138.762 114.589 135.382 111.411 130.074ZM125.906 141.236C126.312 141.293 126.708 141.361 127.125 141.397C127.182 141.486 127.25 141.569 127.328 141.642C126.854 141.512 126.375 141.382 125.906 141.236ZM127.318 109.043C127.88 108.543 128.443 108.043 129 107.543C128.495 108.626 127.995 109.715 127.51 110.814C127.448 110.225 127.385 109.632 127.318 109.043ZM128.151 116.876C128.312 116.481 128.479 116.08 128.646 115.678C129.297 114.777 129.953 113.882 130.604 112.981C130.609 113.012 130.615 113.048 130.62 113.08C129.828 114.673 129.042 116.267 128.245 117.856C128.214 117.533 128.182 117.205 128.151 116.876ZM128.484 120.246C129.292 118.632 130.083 117.017 130.875 115.397C130.875 115.402 130.88 115.408 130.88 115.418C130.953 116.111 131.016 116.814 131.073 117.517C130.219 118.548 129.365 119.574 128.526 120.616C128.51 120.491 128.5 120.371 128.484 120.246ZM130.328 130.303C130.104 130.626 129.875 130.955 129.661 131.288C129.63 131.085 129.609 130.882 129.583 130.673C130.214 129.262 130.849 127.856 131.469 126.439C131.469 127.215 131.469 127.991 131.437 128.767C131.062 129.267 130.682 129.777 130.328 130.303ZM130.937 133.033C130.807 133.548 130.734 133.991 130.474 134.496L130.339 134.439C130.318 134.382 130.292 134.324 130.266 134.267C130.208 134.1 130.161 133.928 130.115 133.757C130.391 133.522 130.667 133.277 130.937 133.033ZM128.797 123.35C128.781 123.205 128.766 123.059 128.75 122.918C129.25 122.288 129.755 121.663 130.266 121.043C130.594 120.647 130.922 120.246 131.25 119.85C131.255 119.908 131.255 119.965 131.26 120.022C130.406 121.116 129.615 122.236 128.797 123.35ZM128.568 142.001C128.724 141.928 128.844 141.819 128.927 141.673L128.932 141.668C128.979 141.678 129.026 141.684 129.078 141.689C129.417 141.736 129.755 141.777 130.099 141.819C130.042 142.001 130.052 142.178 130.12 142.356C129.599 142.241 129.083 142.132 128.568 142.001ZM130.87 139.642C130.401 139.632 129.932 139.595 129.464 139.527C129.505 139.048 129.531 138.564 129.536 138.08C129.604 138.064 129.667 138.043 129.729 138.012C129.807 137.975 129.875 137.928 129.932 137.871C130.406 138.189 130.88 138.501 131.359 138.819C131.182 139.085 131.031 139.366 130.87 139.642ZM132.208 137.569C131.896 137.356 131.589 137.137 131.276 136.923C131.635 137.069 131.995 137.215 132.359 137.35C132.307 137.423 132.26 137.496 132.208 137.569ZM135.12 136.319C135.245 136.142 135.375 135.96 135.5 135.783C135.641 135.751 135.781 135.725 135.922 135.689C135.927 135.746 135.937 135.809 135.958 135.866C135.984 135.955 136.026 136.043 136.078 136.121C135.896 136.205 135.75 136.324 135.635 136.491C135.464 136.434 135.292 136.376 135.12 136.319ZM135.51 138.397C135.224 138.684 134.932 138.96 134.641 139.236C134.281 138.991 133.922 138.746 133.562 138.501C133.698 138.309 133.839 138.111 133.974 137.918C134.089 137.955 134.198 137.991 134.312 138.027C134.708 138.152 135.109 138.277 135.51 138.397ZM135.984 127.84C136.292 127.496 136.599 127.152 136.901 126.803C137.016 127.741 137.12 128.678 137.203 129.621C136.953 129.861 136.708 130.106 136.458 130.34C136.344 129.751 136.234 129.163 136.12 128.574C136.078 128.33 136.031 128.085 135.984 127.84ZM136.323 107.626C136.24 107.35 136.172 107.069 136.089 106.788C136.339 106.564 136.599 106.356 136.859 106.137C136.677 106.632 136.5 107.132 136.323 107.626ZM136.26 122.225C136.271 122.298 136.281 122.371 136.292 122.444C135.937 122.887 135.589 123.33 135.245 123.777C135.057 122.736 134.865 121.699 134.677 120.658C135.047 120.168 135.417 119.678 135.781 119.189C135.948 120.199 136.109 121.21 136.26 122.225ZM134.818 130.257C134.906 130.71 134.995 131.158 135.083 131.611C134.656 131.981 134.203 132.319 133.76 132.668C134.115 131.866 134.464 131.059 134.818 130.257ZM133.432 126.121C133.432 126.043 133.432 125.965 133.432 125.887C133.432 124.996 133.448 124.095 133.437 123.199C133.589 123.975 133.74 124.751 133.885 125.527C133.734 125.725 133.583 125.923 133.432 126.121ZM134.943 133.72C135.005 133.668 135.062 133.621 135.125 133.569C134.766 134.059 134.411 134.543 134.057 135.033C133.625 135.121 133.187 135.178 132.755 135.246C133.516 134.783 134.245 134.272 134.943 133.72ZM137.755 143.423C136.151 143.335 134.547 143.147 132.953 142.897C133.297 142.694 133.63 142.47 133.948 142.22C134.891 142.251 136.568 142.705 136.755 141.376C137.786 141.866 138.99 141.856 140.109 141.803C139.604 144.908 151.443 140.939 153.328 140.642C154.089 140.35 154.865 140.106 155.656 139.908C150.323 142.501 144.281 143.741 137.755 143.423ZM137.464 118.324C137.531 118.595 137.599 118.861 137.667 119.126C137.651 119.173 137.63 119.225 137.615 119.272C137.562 118.955 137.516 118.642 137.464 118.324ZM138.604 116.392C138.536 116.132 138.474 115.866 138.411 115.606C138.698 115.21 138.984 114.809 139.271 114.413C139.052 115.074 138.828 115.736 138.604 116.392ZM139.094 124.699C138.922 125.21 138.771 125.731 138.599 126.241C138.552 125.83 138.5 125.413 138.448 124.996C138.516 124.918 138.578 124.835 138.646 124.757C138.76 124.606 138.88 124.46 138.995 124.314C139.026 124.444 139.062 124.569 139.094 124.699ZM153.984 97.2097C154.062 97.7253 154.141 98.2462 154.219 98.7618C153.984 99.6733 153.745 100.58 153.484 101.481C153.344 101.689 153.208 101.897 153.062 102.1L152.724 102.595C152.51 101.46 152.219 100.345 151.833 99.2514C152.547 98.5639 153.26 97.8816 153.984 97.2097ZM152.781 92.6368C152.896 92.2462 153.005 91.8555 153.115 91.4649C153.12 91.5066 153.125 91.543 153.13 91.5847C153.151 91.7097 153.167 91.8347 153.187 91.9649C153.031 92.2097 152.896 92.4337 152.781 92.6368ZM159.094 92.8503C158.479 93.9076 157.797 94.9337 157.13 95.9597C157.099 96.0066 157.068 96.0483 157.036 96.0951C157 95.9597 156.969 95.8191 156.932 95.6837C157.594 94.6368 157.932 93.4701 159.094 92.8503ZM156.979 89.866C157 89.7982 157.021 89.7305 157.036 89.668C157.083 89.517 157.125 89.3712 157.167 89.2201C157.115 89.4493 157.057 89.6785 157.005 89.9076C156.995 89.892 156.99 89.8764 156.979 89.866ZM159.776 83.0587C159.901 82.8816 160.036 82.7149 160.172 82.5483C160.203 82.5118 160.24 82.4753 160.271 82.4389C160.464 83.2097 160.724 83.9649 160.984 84.7201C161.312 85.6837 161.677 86.642 162.036 87.5951C162.057 87.6472 162.078 87.7045 162.099 87.7618C161.323 87.7826 161.073 88.6003 161.12 89.2514H161.115C160.766 89.1055 160.38 88.9649 160.01 89.0326C159.833 89.0691 159.651 89.1108 159.479 89.1628C159.922 87.2097 160.922 84.9285 159.776 83.0587ZM171.37 120.408C171.562 120.585 171.786 120.699 172.047 120.751C172.245 120.772 172.437 120.751 172.625 120.699C172.719 120.949 172.859 121.178 173.036 121.376C170.797 125.741 167.417 129.392 163.672 132.58C166.245 128.517 168.943 124.553 171.37 120.408ZM165.021 102.246C165.109 102.111 165.198 101.981 165.286 101.845C165.37 102.152 165.458 102.46 165.542 102.767C165.656 103.184 165.771 103.6 165.891 104.017C165.859 104.064 165.828 104.111 165.797 104.158C165.641 104.293 165.484 104.423 165.328 104.553C165.245 103.923 165.161 103.293 165.073 102.658C165.057 102.522 165.036 102.382 165.021 102.246ZM173.708 106.632C173.734 107.215 173.76 107.798 173.781 108.376C173.797 108.632 173.802 108.887 173.807 109.137C172.906 108.803 172.005 109.387 171.229 109.798C171.427 109.402 171.625 109.007 171.823 108.606C172.057 108.137 172.286 107.673 172.5 107.194C172.625 107.121 172.755 107.048 172.885 106.975C173.156 106.845 173.427 106.736 173.708 106.632ZM173.365 104.767C173.437 104.47 173.484 104.173 173.505 103.876C173.531 104.147 173.557 104.423 173.578 104.694C173.505 104.72 173.437 104.741 173.365 104.767ZM176.578 108.574C176.63 108.392 176.677 108.21 176.708 108.027V108.017C176.771 107.991 176.828 107.96 176.88 107.923C176.823 108.262 176.76 108.606 176.703 108.944C176.682 108.887 176.656 108.83 176.641 108.772C176.646 108.783 176.646 108.793 176.651 108.803C176.625 108.725 176.604 108.652 176.578 108.574ZM176.495 105.606C176.458 105.553 176.422 105.496 176.38 105.444C176.24 105.267 176.078 105.106 175.896 104.97C175.734 104.1 175.609 103.22 175.479 102.345C175.901 102.069 176.328 101.814 176.776 101.58C176.807 101.569 176.917 101.517 177.026 101.47C177 102.85 176.896 104.236 176.495 105.606ZM176.224 100.507C175.906 100.668 175.594 100.845 175.292 101.043C175.13 99.9128 174.974 98.7774 174.792 97.6368C174.641 96.6733 174.484 95.7045 174.323 94.7462C174.432 94.8191 174.547 94.8868 174.667 94.9441C174.844 95.0222 175.026 95.0691 175.219 95.0743C175.453 95.1055 175.677 95.0639 175.885 94.9441C176.302 96.6733 176.714 98.4076 177.021 100.158C176.75 100.262 176.49 100.382 176.224 100.507ZM174.771 122.652C174.755 122.694 174.734 122.736 174.719 122.772C174.339 123.736 173.875 124.652 173.323 125.527C173.302 125.345 173.234 125.178 173.125 125.033C173.667 124.236 174.208 123.434 174.771 122.652ZM175.182 93.3712C175.172 93.4233 175.161 93.4805 175.151 93.5378V93.543C174.437 93.0066 174.016 92.1316 173.724 91.3035C174.021 91.6628 174.318 92.0274 174.609 92.392C174.807 92.6472 175 92.9076 175.182 93.168C175.187 93.2358 175.182 93.3035 175.182 93.3712ZM170.698 115.283C170.464 114.481 170.245 113.668 170.021 112.861C170.432 112.548 170.854 112.241 171.276 111.939C171.542 111.762 171.807 111.59 172.083 111.428C172.391 111.272 172.703 111.121 173.026 110.991C173.016 111.017 173.01 111.048 173 111.08C172.87 111.455 172.719 111.83 172.552 112.194C171.984 113.257 171.354 114.277 170.698 115.283ZM172.328 118.725C172.323 118.85 172.312 118.975 172.318 119.1C172.297 119.111 172.281 119.121 172.26 119.132C172.229 119.095 172.203 119.053 172.167 119.017C172.224 118.918 172.276 118.824 172.328 118.725ZM167.729 116.928C167.573 117.09 167.422 117.257 167.271 117.418C167.714 116.371 168.24 115.371 168.849 114.413C169.089 115.251 169.339 116.09 169.615 116.918C169.411 117.231 169.187 117.533 168.979 117.84C169.167 117.059 168.948 116.553 167.729 116.928ZM166.458 113.522C166.417 113.564 166.37 113.606 166.328 113.647C166.286 113.132 166.24 112.616 166.193 112.106C166.719 111.637 167.24 111.173 167.771 110.71C167.901 111.158 168.031 111.6 168.156 112.043C167.578 112.527 167.01 113.017 166.458 113.522ZM166.63 120.085C166.51 120.33 166.38 120.574 166.26 120.819C166.276 120.725 166.286 120.632 166.307 120.538C166.417 120.387 166.536 120.231 166.63 120.085ZM167.214 87.9753C167.396 88.517 167.583 89.0587 167.755 89.6003C167.63 89.6993 167.51 89.7983 167.385 89.9024C167.359 89.9233 167.333 89.9441 167.312 89.9649C167.339 89.2097 167.104 88.3764 166.495 87.892C166.49 87.3087 166.479 86.7253 166.469 86.1472C166.755 86.7722 166.995 87.4024 167.229 88.0378C167.224 88.017 167.219 87.9962 167.214 87.9753ZM168.224 91.3399L168.229 91.3347C168.365 91.9805 168.474 92.6316 168.547 93.2878C168.292 93.6837 168.031 94.0743 167.771 94.4649C167.448 94.9597 167.13 95.4493 166.807 95.9441C166.698 95.6628 166.589 95.3816 166.484 95.0951C166.328 94.642 166.135 94.1003 165.948 93.5535C166.37 92.5378 167.427 92.0483 168.224 91.3399ZM169.266 98.7305C169.062 99.0587 168.849 99.3868 168.646 99.7201C168.458 100.007 168.276 100.293 168.089 100.585C167.771 101.09 167.448 101.59 167.125 102.095C167.12 102.074 167.115 102.048 167.104 102.027C166.927 101.335 166.745 100.637 166.557 99.9441C166.818 99.7045 167.089 99.4597 167.344 99.2358C168 99.5222 168.802 99.2514 169.266 98.7305ZM166.229 109.46C166.495 109.012 166.766 108.564 167.031 108.116C167.073 108.262 167.115 108.408 167.156 108.553C166.76 109.012 166.37 109.465 165.974 109.923C165.974 109.913 165.974 109.902 165.969 109.892C166.057 109.751 166.146 109.606 166.229 109.46ZM169.12 109.58C169.266 109.46 169.411 109.345 169.562 109.225C169.448 109.465 169.333 109.699 169.219 109.939C169.187 109.819 169.151 109.699 169.12 109.58ZM168.443 107.085C168.359 106.772 168.276 106.455 168.193 106.142C168.667 105.309 169.151 104.486 169.625 103.652C170.052 103.413 170.484 103.142 171.01 103.059C171.193 103.038 171.37 103.043 171.547 103.074C171.635 103.335 171.667 103.606 171.646 103.882C170.526 104.892 169.458 105.97 168.443 107.085ZM173.307 102.455C173.036 101.455 171.943 101.106 171 101.173C171.703 99.866 172.307 98.4805 172.458 96.9962C172.599 97.6472 172.74 98.2983 172.88 98.9493C173.047 100.106 173.193 101.267 173.344 102.428C173.328 102.434 173.318 102.444 173.307 102.455ZM172.974 87.8399C172.719 87.741 172.464 87.7305 172.203 87.8035C171.906 87.017 171.63 86.3035 171.365 85.5014C171.812 86.0326 172.229 86.5847 172.635 87.1576C172.75 87.3399 172.932 87.6212 173.109 87.9024C173.062 87.8816 173.016 87.8608 172.974 87.8399ZM171.443 92.3451C171.448 92.3295 171.458 92.3087 171.469 92.293C171.474 92.3139 171.479 92.3347 171.479 92.3555C171.641 93.116 171.755 93.7462 171.927 94.5326C171.927 94.5378 171.927 94.5378 171.927 94.5378C171.687 94.418 171.437 94.3868 171.177 94.4493C170.948 94.5066 170.708 94.5535 170.469 94.616C170.479 94.3868 170.479 94.1524 170.479 93.9233C170.818 93.4076 171.151 92.8868 171.443 92.3451ZM170.542 90.043C170.557 90.0014 170.573 89.9701 170.589 89.9285C170.443 90.1993 170.297 90.4649 170.141 90.7305C170.099 90.5118 170.057 90.2983 170.01 90.0847C170.099 90.0326 170.187 89.9805 170.276 89.9337C170.25 89.9493 170.229 89.9649 170.203 89.9753C170.292 89.9337 170.38 89.8972 170.469 89.8555C170.526 89.8347 170.589 89.8191 170.646 89.7983C170.615 89.8816 170.578 89.9597 170.542 90.043ZM169.573 88.3503C168.922 86.4649 168.542 83.7618 166.328 83.1472C166.292 82.6837 166.214 82.2253 166.099 81.7774C166.036 81.5483 165.979 81.3087 165.896 81.0795C166.417 81.3712 166.927 81.6785 167.427 82.0066C167.964 82.366 168.474 82.7462 168.969 83.1524C169.135 84.8555 169.901 86.4128 170.552 87.9701C170.219 88.0743 169.891 88.2045 169.573 88.3503ZM163.307 120.923C163.125 120.402 162.958 119.871 162.807 119.345C163.234 118.934 163.656 118.522 164.083 118.111C164.271 117.923 164.458 117.736 164.651 117.553C164.885 118.887 163.917 119.892 163.344 121.012C163.333 120.981 163.318 120.944 163.307 120.913C163.307 120.918 163.307 120.918 163.307 120.923ZM163.937 115.85C163.385 116.392 162.849 116.928 162.302 117.46C162.219 117.142 162.135 116.824 162.057 116.501C162.479 115.928 162.906 115.361 163.349 114.803C163.703 114.46 164.052 114.116 164.406 113.767C164.448 114.272 164.49 114.777 164.531 115.283C164.328 115.47 164.13 115.658 163.937 115.85ZM160.807 108.486C161.656 107.246 162.495 106.007 163.333 104.757C163.401 105.225 163.464 105.689 163.531 106.152C162.901 106.731 162.286 107.324 161.682 107.928C161.214 108.392 160.75 108.861 160.281 109.33C160.276 109.309 160.271 109.288 160.266 109.272C160.448 109.007 160.625 108.746 160.807 108.486ZM160.781 102.611C161.391 101.517 161.969 100.408 162.536 99.2878C162.604 99.741 162.672 100.189 162.74 100.637C162.089 101.298 161.432 101.96 160.781 102.611ZM162.922 111.788C162.448 112.59 161.964 113.387 161.469 114.178C161.448 114.095 161.427 114.017 161.411 113.934C161.917 113.22 162.422 112.507 162.922 111.788ZM161.625 110.428C161.469 110.652 161.312 110.882 161.156 111.106C161.047 111.262 160.937 111.423 160.828 111.58C160.807 111.481 160.781 111.387 160.76 111.288C161.047 111.001 161.339 110.715 161.625 110.428ZM161.562 120.626C161.646 120.897 161.734 121.173 161.823 121.444C161.969 121.892 162.146 122.33 162.354 122.751C162.281 122.876 162.208 122.996 162.135 123.121C161.542 123.762 160.932 124.392 160.297 124.991C160.146 125.137 159.984 125.272 159.833 125.418C159.786 124.481 159.729 123.543 159.687 122.606C159.859 122.408 160.036 122.215 160.219 122.027C160.667 121.564 161.115 121.095 161.562 120.626ZM163.38 86.142C162.839 84.5014 162.182 82.8712 161.969 81.1524C162.167 81.0795 162.375 81.0378 162.583 81.0326C163.964 81.2253 163.932 83.0274 164.13 84.1472C163.755 84.7618 163.5 85.4285 163.38 86.142ZM161.531 92.5326C161.536 92.5795 161.547 92.6264 161.552 92.6733C161.656 93.3816 161.76 94.0951 161.865 94.8035C160.49 96.1316 159.062 97.4128 157.719 98.7878C157.714 98.7722 157.714 98.7566 157.708 98.741C159.005 96.6993 160.458 94.7097 161.531 92.5326ZM156.974 117.048C156.672 117.46 156.375 117.876 156.073 118.288C155.969 117.788 155.87 117.293 155.766 116.793C156.099 116.402 156.437 116.007 156.771 115.611C156.776 115.663 156.786 115.715 156.792 115.767C156.849 116.194 156.911 116.621 156.974 117.048ZM156.474 128.356C156.312 128.486 156.151 128.626 155.984 128.757C156.062 128.132 156.089 127.507 156.073 126.882C156.089 126.861 156.104 126.84 156.12 126.819L156.125 126.814C156.266 127.314 156.375 127.835 156.474 128.356ZM156.146 111.746C155.781 112.277 155.411 112.809 155.042 113.335C154.99 113.095 154.937 112.85 154.885 112.611C155.276 111.981 155.661 111.35 156.052 110.715C156.099 111.038 156.146 111.356 156.193 111.673C156.177 111.699 156.161 111.72 156.146 111.746ZM155.932 85.9649C155.635 86.9128 155.38 87.8764 155.135 88.8451C155.042 88.4597 154.844 88.142 154.536 87.892C154.734 87.543 154.943 87.1993 155.156 86.8555C155.385 86.5014 155.703 86.0691 156.026 85.6576C155.995 85.7566 155.964 85.8608 155.932 85.9649ZM154.943 103.449C155.078 104.34 155.214 105.231 155.349 106.116C154.87 106.824 154.396 107.527 153.917 108.231C153.812 107.762 153.703 107.298 153.599 106.83C153.901 105.856 154.203 104.876 154.5 103.897C154.651 103.746 154.797 103.6 154.943 103.449ZM151.667 122.908C151.615 122.652 151.557 122.397 151.505 122.142C152.026 121.439 152.578 120.757 153.104 120.059C153.229 119.902 153.354 119.741 153.479 119.58C153.578 120.205 153.667 120.83 153.734 121.455C153.734 121.455 153.734 121.46 153.74 121.46C153.729 121.47 153.719 121.486 153.714 121.496C153.099 122.283 152.484 123.069 151.87 123.861C151.797 123.533 151.729 123.205 151.661 122.882C151.661 122.892 151.667 122.897 151.667 122.908ZM149.667 113.267C149.521 112.58 149.375 111.887 149.224 111.194C149.208 111.142 149.198 111.085 149.187 111.027C149.922 110.007 150.661 108.986 151.401 107.97C151.406 108.001 151.417 108.038 151.422 108.074C150.844 109.809 150.255 111.543 149.667 113.267ZM150.641 117.022C150.594 117.1 150.547 117.173 150.5 117.251L150.495 117.215C150.542 117.147 150.589 117.085 150.641 117.022ZM149.469 137.595C148.948 137.819 148.427 138.038 147.906 138.262C147.693 137.059 148.062 135.965 148.682 134.986C149.021 134.793 149.354 134.595 149.693 134.392C149.286 135.434 149.005 136.538 149.469 137.595ZM146.37 138.272C145.094 138.392 143.823 138.345 142.562 138.132C142.833 138.012 143.104 137.892 143.37 137.767C144.443 138.246 145.51 137.46 146.396 136.908C146.354 137.158 146.339 137.408 146.344 137.658C146.349 137.856 146.349 138.064 146.37 138.272ZM141.12 136.335C141.49 136.277 141.844 136.178 142.182 136.043C142.193 136.272 142.245 136.496 142.349 136.71C141.589 137.033 140.828 137.35 140.062 137.652C140.047 137.647 140.031 137.647 140.021 137.642C140.422 137.236 140.792 136.798 141.12 136.335ZM140.542 124.309C140.901 123.199 141.271 122.095 141.641 120.991C141.891 120.684 142.135 120.371 142.38 120.064C142.474 120.684 142.552 121.303 142.641 121.923C142.271 122.96 141.891 123.991 141.5 125.017C141.297 125.246 141.094 125.475 140.891 125.705C140.776 125.241 140.661 124.772 140.542 124.309ZM141.766 127.981C141.937 127.58 142.125 127.184 142.286 126.777C142.516 126.491 142.74 126.205 142.969 125.918C142.562 126.6 142.156 127.293 141.766 127.981ZM146.391 134.803C145.573 135.22 144.745 135.621 143.906 136.007C143.781 135.652 144.031 135.158 144.073 134.803C144.812 134.22 145.516 133.6 146.182 132.939C146.448 132.673 146.714 132.408 146.974 132.137C147.047 132.35 147.135 132.553 147.24 132.751C147.333 132.934 147.448 133.1 147.583 133.251C147.599 133.267 147.609 133.283 147.625 133.298C147.536 133.491 147.448 133.678 147.359 133.871C147.047 134.189 146.719 134.501 146.391 134.803ZM145.615 120.074C145.51 119.6 145.406 119.126 145.302 118.652C145.797 117.215 146.281 115.777 146.75 114.33C146.865 114.178 146.979 114.027 147.094 113.876C147.312 115.059 147.521 116.246 147.724 117.434C147.396 117.871 147.068 118.309 146.724 118.725C146.354 119.173 145.984 119.626 145.615 120.074ZM146.38 130.147C146.359 130.152 146.339 130.158 146.323 130.168C146.333 130.142 146.349 130.116 146.365 130.09C146.37 130.111 146.375 130.132 146.38 130.147ZM147.443 128.241C147.922 127.481 148.396 126.715 148.875 125.949C148.911 126.465 148.937 126.986 148.958 127.507C148.615 127.918 148.266 128.33 147.917 128.731C147.922 128.725 147.922 128.72 147.927 128.71C147.828 128.824 147.729 128.934 147.635 129.043C147.568 128.777 147.505 128.507 147.443 128.241ZM147.792 104.876C148.052 104.288 148.276 103.684 148.542 103.095C148.401 103.59 148.26 104.09 148.115 104.585C148.042 104.84 147.969 105.09 147.901 105.345C147.865 105.189 147.828 105.033 147.792 104.876ZM148.74 108.027C148.828 107.741 148.917 107.455 149.005 107.163C149.484 105.678 149.87 104.126 150.255 102.574C150.453 103.481 150.656 104.382 150.849 105.309C150.224 106.272 149.521 107.178 148.74 108.027ZM148.198 131.048C148.193 131.033 148.187 131.012 148.182 130.996C148.177 130.981 148.172 130.97 148.167 130.96C148.167 130.96 148.172 130.965 148.172 130.97C148.167 130.949 148.156 130.923 148.151 130.902C148.411 130.616 148.677 130.324 148.932 130.038C148.911 130.35 148.88 130.663 148.839 130.975C148.708 131.205 148.583 131.428 148.464 131.658C148.37 131.444 148.276 131.231 148.187 131.017C148.193 131.027 148.193 131.038 148.198 131.048ZM152.891 115.856C152.917 116.001 152.937 116.147 152.964 116.288C152.729 116.621 152.495 116.955 152.26 117.293C151.812 117.928 151.37 118.59 150.906 119.225C150.901 119.194 150.891 119.158 150.885 119.126C151.552 118.038 152.219 116.944 152.891 115.856ZM153.958 129.892C153.943 130.001 153.922 130.111 153.901 130.215C153.891 130.251 153.885 130.283 153.875 130.314C153.766 130.387 153.661 130.47 153.552 130.548C153.687 130.33 153.823 130.111 153.958 129.892ZM151.323 89.517C150.089 91.6941 148.984 93.9389 148.005 96.241C147.49 96.267 147 96.4024 146.547 96.6524C146.724 96.0743 146.885 95.491 147.057 94.9076C148.656 91.8712 150.443 88.8816 151.448 85.6212C151.557 85.5118 151.672 85.4024 151.786 85.293C151.823 85.2514 151.984 85.1212 152.151 84.9962C152.047 86.5326 151.771 88.043 151.323 89.517ZM146.964 98.7358C146.818 99.0899 146.677 99.4441 146.536 99.793C146.474 99.5483 146.417 99.3035 146.344 99.0587C146.37 99.0483 146.391 99.0326 146.411 99.0222C146.583 98.9337 146.776 98.8347 146.964 98.7358ZM146.411 110.34C146.37 110.475 146.328 110.606 146.292 110.736C146.042 111.007 145.797 111.277 145.552 111.548C145.26 111.871 144.969 112.194 144.672 112.517C145.141 111.293 145.62 110.08 146.115 108.866C146.214 109.361 146.312 109.85 146.411 110.34ZM143.786 111.923C143.656 111.345 143.521 110.767 143.385 110.189C143.964 108.814 144.542 107.444 145.125 106.074C145.161 106.022 145.198 105.97 145.234 105.913C145.318 105.83 145.396 105.751 145.474 105.668C145.568 106.126 145.656 106.58 145.75 107.038C145.083 108.663 144.432 110.288 143.786 111.923ZM142.375 104.668C142.297 104.757 142.214 104.84 142.13 104.928C142.094 104.788 142.057 104.647 142.021 104.501C141.875 103.96 141.74 103.408 141.594 102.861C141.719 102.574 141.849 102.288 141.974 102.001C142.057 101.939 142.146 101.871 142.229 101.809C142.76 101.892 143.109 101.637 143.411 101.309C143.068 102.428 142.724 103.548 142.375 104.668ZM141.719 115.923C141.219 116.512 140.719 117.106 140.219 117.689C140.641 116.678 141.073 115.668 141.495 114.658C141.573 115.08 141.646 115.501 141.719 115.923ZM141.135 118.449C141.229 118.335 141.328 118.225 141.422 118.116C141.406 118.158 141.391 118.205 141.37 118.251C141.276 118.376 141.182 118.496 141.089 118.621C140.594 119.241 140.099 119.866 139.604 120.486C139.589 120.434 139.578 120.376 139.562 120.324C140.078 119.689 140.599 119.064 141.135 118.449ZM139.703 127.022C139.687 127.038 139.672 127.053 139.656 127.069C139.667 127.033 139.677 127.001 139.687 126.965C139.693 126.981 139.698 127.001 139.703 127.022ZM151.792 136.585C151.328 135.267 151.896 133.892 152.448 132.642C152.573 132.559 152.698 132.475 152.828 132.392C154.385 133.658 155.26 132.189 155.698 130.376C156.052 130.116 156.406 129.856 156.75 129.595C156.854 130.038 156.99 130.475 157.167 130.897C155.505 132.871 154.276 135.569 151.792 136.585ZM157.719 125.991C157.651 125.694 157.589 125.397 157.521 125.1C157.62 124.981 157.719 124.856 157.818 124.736C157.87 125.486 157.917 126.241 157.937 126.991C157.859 126.658 157.792 126.324 157.719 125.991ZM158.005 109.027C157.984 108.876 157.964 108.731 157.948 108.58C158.057 108.46 158.172 108.34 158.286 108.22C158.312 108.319 158.333 108.413 158.359 108.507C158.245 108.678 158.125 108.85 158.005 109.027ZM158.281 101.069C158.224 100.835 158.167 100.595 158.109 100.361C159.141 99.3295 160.214 98.3555 161.286 97.3764C160.333 98.7826 159.375 100.194 158.411 101.606C158.37 101.428 158.328 101.251 158.281 101.069ZM158.625 113.564C158.781 113.392 158.943 113.22 159.104 113.048C159.214 112.928 159.323 112.803 159.437 112.684C159.495 112.902 159.552 113.126 159.609 113.35C159.328 113.757 159.042 114.163 158.755 114.569C158.714 114.236 158.667 113.897 158.625 113.564ZM159.453 120.314C159.927 119.59 160.391 118.861 160.854 118.126C160.859 118.121 160.865 118.116 160.87 118.111C160.922 118.319 160.979 118.527 161.031 118.736C160.677 119.106 160.323 119.481 159.964 119.856C159.797 120.027 159.63 120.199 159.458 120.371C159.458 120.356 159.458 120.335 159.453 120.314ZM163.437 124.001C163.646 124.126 163.87 124.194 164.115 124.199C164.266 124.194 164.411 124.163 164.552 124.106C162.984 126.199 161.344 128.215 159.656 130.205C160.656 128.048 162.26 126.106 163.437 124.001ZM163.057 131.231C162.755 131.772 162.464 132.309 162.156 132.845C162.125 132.746 162.078 132.658 162.021 132.58C162.016 132.58 162.016 132.574 162.016 132.574C162.375 132.137 162.708 131.678 163.057 131.231ZM161.333 134.215C161.276 134.22 161.224 134.22 161.167 134.225C161.25 134.173 161.339 134.116 161.427 134.053C161.396 134.111 161.365 134.163 161.333 134.215ZM181.75 94.8087C181.849 95.1212 181.932 95.4389 182.021 95.7566C182.547 97.9076 182.5 100.116 182.203 102.356C182.099 101.715 181.849 101.142 181.453 100.626C181.255 99.6733 181.437 98.392 180.734 97.616C180.656 95.7774 180.573 93.9389 180.495 92.1003C181.021 92.9493 181.443 93.8503 181.75 94.8087ZM181.937 109.751C182.51 107.871 182.969 105.965 183.323 104.027C183.776 118.757 175.146 134.038 161.844 140.434C165.156 137.876 167.911 134.689 170.229 131.215C170.286 131.173 170.349 131.132 170.406 131.09C170.062 131.652 169.677 132.517 170.318 133.022C173.578 133.955 178.75 122.324 179.724 119.538C180.906 116.366 181.578 113.08 181.937 109.751ZM160.26 76.7045C168.396 77.0483 175.516 82.3816 179.443 89.3816C178.964 89.8035 179.068 91.2826 179.182 92.0274C178.594 89.2149 177.187 86.9701 175.375 85.0535C175.328 84.9024 175.281 84.7566 175.234 84.6108C175.167 84.3972 175.042 84.2253 174.854 84.0951C174.672 83.9649 174.464 83.9128 174.24 83.9285C174.229 83.918 174.219 83.9076 174.208 83.9024C173.422 82.6576 172.151 80.9962 170.562 81.1264C169.484 80.418 168.375 79.7462 167.271 79.116C167.115 79.0222 166.953 79.0014 166.781 79.0483C164.516 77.7878 161.964 77.0899 160.365 79.293C159.292 79.9285 158.464 80.9024 157.781 81.9337C156.375 81.9545 155.323 83.0587 154.5 84.0899C154.339 83.2618 153.734 82.491 152.865 82.3764C154.703 81.1837 156.703 80.4076 158.865 80.0378C159.911 79.7566 159.703 78.2149 158.677 78.1003C153.599 79.2462 147.552 80.1368 143.641 83.8295C147.906 79.2826 153.922 76.3868 160.26 76.7045ZM145.677 87.5378C145.328 87.991 145.01 88.4649 144.677 88.9285C144.38 89.3399 144.109 89.7566 143.833 90.1733C143.646 90.4441 143.474 90.7253 143.292 91.0014C143.229 90.9128 143.146 90.8503 143.052 90.8035C142.75 90.6837 142.479 90.7358 142.25 90.9701C142.219 91.0014 142.193 91.043 142.167 91.0795C143.042 89.6055 144.208 88.4233 145.677 87.5378ZM142.333 95.5066C143.036 94.4805 143.755 93.4649 144.479 92.4493C144.62 92.2566 144.76 92.0639 144.901 91.8764C143.687 94.4962 142.453 97.1368 141.578 99.892C141.568 99.918 141.562 99.9493 141.552 99.9753C141.427 100.069 141.302 100.168 141.177 100.267C141.078 100.345 140.979 100.423 140.88 100.496C140.859 100.35 140.818 100.205 140.75 100.069C141.031 99.2774 141.318 98.4858 141.594 97.6889C142.083 97.2618 142.266 96.7253 142.135 96.0847C142.203 95.892 142.266 95.6993 142.333 95.5066ZM142 85.7462C141.469 86.8243 140.823 87.8295 140.062 88.767C140.63 87.7097 141.276 86.7045 142 85.7462ZM140.036 106.913C140.052 106.996 140.073 107.085 140.089 107.173C139.87 107.413 139.651 107.658 139.432 107.902C139.615 107.475 139.797 107.043 139.979 106.616C140 106.715 140.021 106.814 140.036 106.913ZM139.594 104.658C138.766 106.59 137.932 108.527 137.104 110.46C137.089 110.397 137.068 110.335 137.052 110.272C137.802 108.22 138.557 106.163 139.302 104.106C139.354 104.064 139.406 104.022 139.458 103.975C139.505 104.205 139.547 104.428 139.594 104.658ZM139.422 99.017C139.375 99.1524 139.328 99.2878 139.276 99.4233C139.057 99.5639 138.906 99.7618 138.823 100.012C138.771 100.251 138.766 100.496 138.802 100.741C138.547 101.444 138.292 102.152 138.036 102.861C137.562 103.272 137.083 103.678 136.604 104.09C136.714 103.845 136.797 103.585 136.839 103.319C137.547 101.928 138.271 100.548 139.01 99.1733C139.151 99.1264 139.286 99.0691 139.422 99.017ZM137.901 94.4493C137.927 94.3399 137.969 94.2305 137.995 94.1212C138.172 93.9493 138.344 93.7774 138.521 93.6055C138.505 93.6628 138.495 93.7149 138.479 93.7722C138.318 94.4545 138.146 95.142 138.031 95.8347C137.875 95.9128 137.734 96.017 137.589 96.1108C137.76 95.5691 137.87 95.017 137.901 94.4493ZM136.411 101.486C135.828 101.1 135.208 101.022 134.547 101.246C135.333 100.449 136.307 100.048 137.318 99.7149C137.016 100.303 136.714 100.897 136.411 101.486ZM135.083 97.0587C135.359 97.1524 135.641 97.2149 135.932 97.241C135.401 97.5951 134.854 97.9024 134.214 97.9805C134.495 97.6628 134.797 97.366 135.083 97.0587ZM134.583 112.46C134.396 112.991 134.208 113.517 134.016 114.048C134 114.064 133.984 114.085 133.969 114.106C133.828 114.267 133.687 114.428 133.547 114.59C133.333 113.475 133.115 112.361 132.896 111.246C133.245 110.533 133.594 109.824 133.943 109.111C134.161 110.225 134.375 111.345 134.583 112.46ZM132.187 106.902C132.479 106.142 132.75 105.371 133.031 104.606C133.089 104.882 133.146 105.163 133.203 105.439C132.865 105.928 132.526 106.413 132.187 106.902ZM133.047 95.8035C132.599 96.2774 132.167 96.767 131.76 97.2722C130.635 93.918 129.026 90.8139 126.937 87.9597C126.698 86.5795 126.437 85.2045 126.182 83.8295C128.031 88.5951 130.432 93.4545 133.047 95.8035ZM125.958 94.4493C125.922 94.4493 125.891 94.4545 125.859 94.4545C125.677 94.043 125.49 93.6264 125.307 93.2149C124.979 92.4805 124.646 91.7514 124.307 91.0222C124.323 90.9285 124.333 90.8399 124.339 90.7514C124.615 91.3608 124.891 91.9701 125.161 92.5847C125.427 93.2045 125.698 93.8243 125.958 94.4493ZM123.536 19.5483C123.516 19.5743 123.495 19.6003 123.474 19.6212C129.328 12.8191 136.635 5.94408 145.896 4.41804C146.594 4.38679 147.323 4.33471 147.979 4.62117C147.49 5.55346 146.943 6.28783 146.38 7.17325C136.339 21.9962 124.464 38.3608 122.083 56.3555C122.078 56.3347 122.073 56.3139 122.073 56.2983C121.839 55.616 121.781 54.7358 121.026 54.4233C123.422 45.3555 127.547 36.517 131.609 28.0222C134.792 21.491 137.87 14.9805 143.396 10.043C144.266 9.10033 147.333 6.44408 144.484 6.12117C144.453 5.97533 144.406 5.83471 144.349 5.69929C142.667 3.19929 134.292 10.7045 132.229 12.0795C128.781 14.8399 125.521 17.8139 122.464 20.9962C122.844 20.491 123.208 19.9753 123.604 19.4753C123.583 19.5014 123.557 19.5222 123.536 19.5483ZM121.63 47.2358C121.927 45.8451 122.344 44.4389 123.062 43.2045C122.839 43.8295 122.62 44.4545 122.401 45.0743C122.135 45.793 121.88 46.5118 121.63 47.2358ZM126.016 31.4389C125.885 31.7358 125.76 32.0326 125.635 32.3347C124.354 32.0691 123.984 33.9389 123.401 34.7618C123.437 34.5274 123.385 34.3139 123.245 34.1264C124.083 32.8139 124.891 31.517 125.786 30.2305C125.729 30.3868 125.682 30.543 125.635 30.7097C125.594 30.866 125.609 31.0118 125.682 31.1524C125.755 31.2878 125.87 31.3868 126.016 31.4389ZM133.719 17.5691C134.224 17.0378 134.729 16.5118 135.234 15.9805C135.328 15.8816 135.427 15.7878 135.521 15.6889C135.193 16.2566 134.88 16.8295 134.573 17.4076C134.547 17.4597 134.516 17.5118 134.49 17.5639C134.234 17.517 133.974 17.517 133.719 17.5691ZM138.266 12.918C139.307 11.9337 140.271 10.8451 141.375 9.93367C140.448 10.9649 139.526 11.9962 138.604 13.0274C138.599 13.0274 138.594 13.0274 138.589 13.0222C138.484 12.9805 138.375 12.9493 138.266 12.918ZM123.823 22.7618C127.792 18.7253 131.927 14.918 136.484 11.5118C136.266 11.6993 136.042 11.8868 135.828 12.0795C133.016 14.5274 130.333 17.116 127.792 19.8399C126.047 21.7618 124.125 23.5587 122.766 25.7774C122.479 26.267 122.495 26.7462 122.807 27.2149C123.286 27.9858 124.167 27.5899 124.703 27.116C122.557 29.392 120.469 31.7149 118.432 34.0795C120.161 30.2774 122.13 26.5691 123.823 22.7618ZM113.792 34.741C115.104 32.8764 116.474 31.0483 117.937 29.2878C115.333 33.8816 113.802 39.116 111.01 43.5639C109.359 45.8295 107.786 48.142 106.292 50.5118C108.635 45.1993 111.057 39.8816 113.792 34.741ZM104.823 57.4962C105.99 55.3972 107.214 53.3295 108.495 51.2983C107 55.9233 105.427 60.5639 103.901 65.2201C104.26 62.6524 104.609 60.0795 104.823 57.4962ZM102.495 79.2462V79.241C104.078 74.392 106.141 69.6368 107.828 64.9285C107.937 64.9076 108.047 64.8712 108.151 64.8243C108.198 64.8035 108.245 64.7826 108.286 64.7514C106.156 71.2253 104.198 77.7514 102.37 84.3139C102.396 82.6212 102.432 80.9337 102.495 79.2462ZM101.792 63.3243C101.958 62.9858 102.146 62.6524 102.318 62.3139C101.786 66.0691 101.495 69.8503 101.214 73.6316C101.125 73.918 101.047 74.2045 100.958 74.4858C101.271 70.767 101.589 67.0483 101.792 63.3243ZM101.271 112.251C101.583 113.267 101.896 114.277 102.193 115.298C101.839 114.335 101.417 113.408 100.932 112.507C101.052 112.439 101.167 112.35 101.271 112.251ZM96.0208 91.4962C96.0937 92.1628 96.1666 92.8139 96.2396 93.4337C96.1614 93.8347 96.0833 94.2358 96.0104 94.642C95.9896 93.5899 95.9948 92.543 96.0208 91.4962ZM96.901 104.178C96.4844 101.673 96.2187 99.1472 96.0885 96.6108C96.2344 96.7514 96.401 96.8347 96.5989 96.8608C96.6041 96.8608 96.6041 96.8555 96.6094 96.8555C96.6823 97.4441 96.7135 98.0378 96.7135 98.6264C96.9948 99.142 96.9479 101.517 96.901 104.178ZM97.6875 82.6003C97.4219 81.6889 97.4844 80.5378 97.1041 79.6472C97.4844 77.2305 97.9479 74.8243 98.526 72.4493C98.0156 77.2774 97.7344 82.0483 97.6875 82.6003ZM99.4219 108.72C99.2708 108.043 99.25 107.361 99.3437 106.673C99.5 107.059 99.6198 107.455 99.7656 107.845C99.6406 108.132 99.5312 108.428 99.4219 108.72ZM99.8854 71.0743C99.8125 72.1837 99.7291 73.2878 99.6562 74.392C99.5156 76.3035 99.4219 78.2253 99.3229 80.142C99.0989 80.9389 98.8906 81.7358 98.6823 82.5378C98.9219 78.1055 99.5416 73.668 100.01 69.2826C99.9687 69.8816 99.9271 70.4805 99.8854 71.0743ZM100.182 92.4128C100.401 90.5535 100.62 88.6941 100.865 86.8399C100.859 87.8712 100.854 88.9024 100.844 89.9337C100.682 90.5326 100.516 91.1264 100.359 91.7201C100.302 91.9545 100.24 92.1837 100.182 92.4128ZM16.651 137.137C20.5729 140.293 25.125 142.975 29.9531 144.616C29.8437 145.283 30.8385 145.642 31.1666 144.996C34.0052 145.866 36.9114 146.309 39.8802 146.314C40.8177 146.413 41.7604 146.449 42.7031 146.428C44.4375 146.678 48 145.861 48.8177 145.913C51.3177 145.481 54.0833 145.215 56.6458 144.501C53.5104 145.949 50.2292 146.892 46.8073 147.33C46.5364 147.309 46.2708 147.262 46.0104 147.189C45.3594 147.012 45.0885 148.027 45.7448 148.205C53.5781 148.798 61.25 144.512 67.5208 140.173C85.9792 127.418 92.0104 94.8868 71.3385 81.3972C57.5833 71.7514 47.9271 78.5274 38.3021 89.5951C34.3958 69.616 38.7708 47.9597 50.2864 30.9962C54.5 24.8035 60.7292 19.7722 66.6042 15.1108C72.7812 10.6837 72.8125 5.65242 64.7708 4.09513C53.0573 2.43888 42.6198 10.2149 33.6354 16.741C20.2135 26.241 11.1146 40.3868 6.18227 55.9337C-1.76564 78.3399 -4.25002 121.262 16.651 137.137ZM15.2812 123.257C14.2396 122.142 13.7135 120.819 13.7031 119.293C13.7187 119.303 13.7344 119.314 13.75 119.324C13.776 119.402 13.8021 119.481 13.8281 119.553C14.2396 120.809 14.7291 122.027 15.2969 123.215C15.2916 123.231 15.2864 123.246 15.2812 123.257ZM13.1458 94.0743C12.901 94.267 12.6562 94.4545 12.4166 94.6472C12.5521 94.1108 12.6719 93.5691 12.8125 93.0378C13.2187 92.4441 13.5989 91.8399 14.0104 91.2566C13.7552 92.2045 13.4635 93.142 13.1458 94.0743ZM13.375 108.981C13.25 109.496 13.1302 110.012 13.0052 110.527C12.9635 110.725 12.9166 110.918 12.8698 111.116C12.7448 110.512 12.6198 109.908 12.5 109.303C12.8125 109.257 13.1041 109.147 13.375 108.981ZM10.8021 90.1889C10.9062 86.892 11.3541 83.6472 12.1458 80.4493C12.7552 80.1524 13.3698 79.8608 13.9687 79.5483C12.9166 83.1055 11.8802 86.6576 10.8021 90.1889ZM12.0208 96.9805C11.8698 97.3347 11.7396 97.6993 11.5729 98.0535C11.6406 97.7514 11.7239 97.4545 11.7916 97.1576C11.8698 97.1003 11.9479 97.0378 12.0208 96.9805ZM8.90623 81.9233C8.92707 81.918 8.9479 81.9024 8.97394 81.8972C8.51561 82.7514 7.98436 83.5535 7.36977 84.3035C6.5104 80.7566 8.42186 77.1368 9.31248 73.7253C10.4635 70.6837 11.3594 67.4858 12.7448 64.5274C12.9271 64.6785 13.1198 64.6889 13.3177 64.5639C13.3854 64.5222 13.4583 64.4805 13.526 64.4337C12.4166 68.4597 11.3906 72.5118 10.5052 76.5951C8.16665 79.6264 7.16144 81.7774 8.90623 81.9233ZM9.80727 79.7826C9.73957 80.043 9.65623 80.2983 9.56248 80.5483C9.37498 80.6368 9.19269 80.7358 9.00519 80.8191C9.02082 80.8139 9.01561 80.8139 9.00519 80.8191C9.00519 80.8139 9.00519 80.8139 9.0104 80.8087C9.2604 80.4545 9.54686 80.1316 9.80727 79.7826ZM7.68227 85.741C7.67186 85.6889 7.65623 85.6316 7.64582 85.5743C8.23957 85.3347 8.54686 84.7462 8.85936 84.2305C8.77602 84.6993 8.70311 85.168 8.63019 85.6368C8.51561 86.4545 8.41665 87.2722 8.35936 88.0951C8.29165 88.0639 8.22394 88.043 8.15623 88.0326C7.99998 87.267 7.84373 86.5066 7.68227 85.741ZM7.84894 100.022C7.18748 95.2253 6.80727 90.5899 6.45311 85.7149C6.46873 85.7253 6.48436 85.7357 6.49998 85.741C7.72394 90.4076 7.45311 95.2514 7.84894 100.022ZM8.15102 69.2358C8.77602 67.5483 9.46352 65.892 10.2135 64.2618C10.2344 64.2149 10.2552 64.168 10.276 64.1264C10.1667 64.4285 10.0573 64.7358 9.95311 65.043C9.59894 66.0483 9.21353 67.0483 8.8854 68.0743C8.72915 68.5014 8.39061 68.8451 8.15102 69.2358ZM16.1094 72.4545C15.5416 74.293 14.9844 76.1368 14.4375 77.9805C13.7969 78.3503 13.1458 78.7045 12.5 79.0587C12.8489 77.741 13.2291 76.4285 13.651 75.1264C14.4583 74.2253 15.2708 73.3295 16.1094 72.4545ZM13.7864 62.5691C13.9375 62.3139 14.0781 62.0587 14.2344 61.8087C14.1927 61.9597 14.1562 62.1108 14.1146 62.267C14.0052 62.366 13.8958 62.4649 13.7864 62.5691ZM25.5364 120.059C24.6823 120.762 23.8333 121.47 22.9844 122.178C23.1041 121.861 23.2187 121.538 23.3333 121.22C24.0729 120.824 24.8021 120.465 25.5364 120.059ZM23.9687 119.33C24.5521 117.517 25.0833 115.684 25.5677 113.835C25.6041 113.798 25.6406 113.767 25.6771 113.731C25.7552 115.22 25.8281 116.71 25.901 118.199C25.2604 118.58 24.6146 118.965 23.9687 119.33ZM20.3854 104.069C21.1458 103.58 21.9166 103.111 22.6927 102.647C22.4635 103.616 22.2344 104.59 22 105.559C21.0625 106.543 20.0781 107.585 19.1041 108.642C19.5312 107.116 19.9583 105.595 20.3854 104.069ZM19.5625 97.142C19.7135 96.6316 19.875 96.1264 20.026 95.6108C19.9271 96.0483 19.8281 96.4858 19.7291 96.9233C19.6719 96.9962 19.6198 97.0691 19.5625 97.142ZM21.0208 101.783C21.4271 100.319 21.8489 98.866 22.25 97.4024C22.3646 97.267 22.4844 97.1264 22.5989 96.9858C22.6927 98.2358 22.75 99.4493 22.7396 100.616C22.1614 101.001 21.5937 101.392 21.0208 101.783ZM23.1302 112.168C23.1719 112.142 23.2135 112.116 23.2552 112.09C23.0729 112.72 22.8802 113.345 22.6927 113.97C22.6719 113.996 22.651 114.017 22.6302 114.043C22.8073 113.418 22.9687 112.793 23.1302 112.168ZM25.0156 122.913C25.0104 122.934 25.0052 122.96 25 122.981C24.6041 124.824 24.0625 126.632 23.526 128.439C23.1562 127.882 22.7812 127.324 22.4062 126.772C22.1406 126.392 21.8906 126.001 21.625 125.621C22.7656 124.731 23.8906 123.824 25.0156 122.913ZM22.6719 79.9962C22.8854 79.7358 23.0937 79.4753 23.3021 79.2149C22.6562 82.1264 21.8802 85.017 21.0677 87.892C20.9166 88.0066 20.7604 88.1212 20.6094 88.2358C21.2864 85.4858 21.9948 82.7462 22.6719 79.9962ZM21.4739 73.6993C22.0781 71.6264 22.6875 69.5587 23.3073 67.491C23.3125 67.5014 23.3229 67.5066 23.3281 67.517C22.8125 69.4858 22.3333 71.4701 21.8698 73.4597C21.7344 73.5378 21.6041 73.616 21.4739 73.6993ZM20.5521 79.1524C20.2239 79.5587 19.8906 79.9753 19.5521 80.3972C19.9844 78.8555 20.4114 77.3087 20.8594 75.7722C21.0364 75.668 21.2187 75.5691 21.401 75.4701C21.1146 76.6993 20.8333 77.9285 20.5521 79.1524ZM19.9166 90.9858C20.026 90.9076 20.1354 90.8243 20.25 90.7462C19.6041 92.9441 18.9531 95.142 18.3229 97.3399C18.8802 95.2253 19.3906 93.1055 19.9166 90.9858ZM18.6458 101.699C18.4896 102.382 18.3333 103.069 18.1771 103.751C17.9114 103.939 17.651 104.142 17.3854 104.33C17.5677 103.746 17.7396 103.163 17.9166 102.58C18.1614 102.288 18.401 101.991 18.6458 101.699ZM17.7916 90.3972C17.3906 90.7097 16.9948 91.0274 16.5937 91.3399C17.0677 89.5014 17.5521 87.6628 18.0469 85.8243C18.4896 85.2514 18.9479 84.6837 19.3958 84.116C18.8958 86.2201 18.3594 88.3139 17.7916 90.3972ZM16.9739 79.3555C16.4062 81.4962 15.875 83.6472 15.3489 85.7983C15.0989 86.1264 14.8541 86.4597 14.6094 86.7878C15.4687 83.9285 16.3698 81.0847 17.2656 78.2462C17.1666 78.616 17.0677 78.9858 16.9739 79.3555ZM15.9114 94.017C16.276 93.7305 16.6458 93.4493 17.0156 93.168C16.1458 96.1316 15.1614 99.0639 14 101.939C14.6094 99.2878 15.25 96.6524 15.9114 94.017ZM16.7031 106.543C17.0312 106.309 17.3698 106.08 17.7031 105.856C17.6146 106.225 17.5364 106.6 17.4479 106.97C17.0885 108.548 16.7187 110.126 16.3541 111.705C15.5677 112.611 14.8437 113.481 14.2396 114.272C15.0729 111.699 15.8906 109.121 16.7031 106.543ZM18.0469 112.408C19.0573 111.366 20.0677 110.319 21.1094 109.298C20.8698 110.262 20.6094 111.225 20.3646 112.189C19.4375 112.803 18.5156 113.418 17.5937 114.033C17.7448 113.496 17.8958 112.949 18.0469 112.408ZM20.875 119.527C20.9739 119.382 21.0521 119.225 21.151 119.085C20.9323 119.793 20.7187 120.501 20.5 121.21C20.3906 121.267 20.2812 121.33 20.1666 121.392C20.4114 120.772 20.651 120.152 20.875 119.527ZM20.6614 127.486C20.7135 127.408 20.7604 127.324 20.8125 127.246C21.526 128.251 22.1927 129.251 22.8802 130.298C21.9479 129.574 21.0625 128.803 20.2239 127.981C20.3854 127.83 20.5312 127.668 20.6614 127.486ZM23.9948 133.048C24.5052 133.444 25.0156 133.85 25.526 134.257C25.4531 134.574 25.3802 134.887 25.3281 135.205C23.8698 133.871 22.5729 132.366 21.3021 130.861C22.1771 131.606 23.0781 132.33 23.9948 133.048ZM24.6927 130.231C25.2344 128.491 25.7396 126.741 26.2344 124.986C26.3177 126.553 26.401 128.121 26.4948 129.689C26.5208 129.845 26.5417 130.007 26.5521 130.163C26.375 130.856 26.1979 131.548 26.0156 132.241C25.5677 131.574 25.1302 130.902 24.6927 130.231ZM25.7239 84.6264C26.651 81.1993 27.5833 77.767 28.5156 74.3399C27.9739 77.5639 27.3594 80.7774 26.7344 83.991C26.3958 84.2045 26.0573 84.4076 25.7239 84.6264ZM26.5989 136.22C26.6614 136.137 26.7187 136.053 26.7656 135.965C26.8854 136.132 27.0104 136.298 27.1406 136.465C27.1927 136.533 27.2448 136.6 27.2969 136.668L27.2916 136.663C27.1302 136.585 26.9739 136.496 26.8281 136.397C26.7448 136.345 26.6666 136.288 26.5885 136.231C26.5937 136.225 26.5937 136.225 26.5989 136.22ZM27.2448 97.6472C27.125 97.7305 27.0052 97.8087 26.8854 97.8868C26.8073 97.0639 26.7239 96.267 26.6354 95.4858C26.9114 94.0378 27.1927 92.5899 27.4791 91.1472C28.0677 90.4285 28.651 89.7045 29.2344 88.9805C28.6354 91.8868 27.9687 94.7774 27.2448 97.6472ZM28.2969 102.251C28.5677 101.986 28.8333 101.715 29.1041 101.444C29.0625 102.798 29.0104 104.147 28.9635 105.501C28.4896 106.126 28.0052 106.746 27.5469 107.382C27.5208 106.897 27.4948 106.413 27.4687 105.923C27.7448 104.699 28.0208 103.475 28.2969 102.251ZM28.1302 120.439C28.0937 120.902 28.0781 121.366 28.0364 121.83C28.026 121.569 28.0156 121.116 28 120.543C28.0469 120.507 28.0885 120.475 28.1302 120.439ZM27.9427 132.47C28.3125 132.402 28.5208 132.184 28.5781 131.814C28.6666 131.001 28.7344 130.184 28.8125 129.371C28.9635 128.803 29.1146 128.231 29.2656 127.663C29.1666 128.215 29.0729 128.772 28.9896 129.33C28.8177 130.475 28.6146 131.616 28.4844 132.767C28.4114 133.376 28.3385 133.981 28.2604 134.59C28.026 134.356 27.7708 134.126 27.5156 133.908C27.6719 133.434 27.8021 132.949 27.9427 132.47ZM27.6146 70.2201C27.5573 70.2462 27.5 70.2774 27.4427 70.3087C28.0521 66.8451 28.651 63.3816 29.1302 59.9024C29.1354 59.8295 29.1146 59.7462 29.1094 59.668C29.3229 59.4493 29.5312 59.2253 29.75 59.0014C29.0677 62.7358 28.4062 66.4962 27.6146 70.2201ZM28.6719 48.6889C29.0677 48.1472 29.4739 47.6055 29.8698 47.0639C30.2448 46.8816 30.5833 46.7305 30.9791 46.5378C30.9791 46.5378 30.9791 46.5378 30.9791 46.543C30.2083 47.2566 29.4427 47.9753 28.6719 48.6889ZM30.4687 55.1733C30.4479 55.2618 30.4375 55.3503 30.4166 55.4389C30.375 55.4805 30.3281 55.5326 30.2864 55.5795C30.3489 55.4441 30.4062 55.3087 30.4687 55.1733ZM31.8333 56.8347C32.151 56.4962 32.4583 56.1472 32.7656 55.8087C31.9687 59.1785 31.1562 62.543 30.5 65.9389C30.276 65.9389 30.0833 66.0222 29.9271 66.1837C30.5677 63.0639 31.2031 59.9493 31.8333 56.8347ZM29.8125 45.4389C29.1406 45.793 28.4687 46.1472 27.7864 46.4858C28.651 45.0951 29.5625 43.7358 30.526 42.4128C31.2344 41.9233 31.9427 41.4337 32.651 40.9493C31.901 42.543 30.901 44.0118 29.8125 45.4389ZM29.0625 51.017C28.8073 51.5587 28.5521 52.1003 28.3229 52.6524C27.6614 52.1368 27.0208 52.8087 26.8802 53.4649C26.9166 53.2618 26.9479 53.0639 26.9844 52.8608C27.6771 52.2462 28.3698 51.6316 29.0625 51.017ZM26.0052 50.4805C25.9323 50.293 25.8125 50.1472 25.6458 50.0378C25.9166 49.5691 26.1979 49.1055 26.4739 48.642C26.9114 48.4493 27.3177 48.267 27.7864 48.0483C27.1666 48.8503 26.5573 49.6524 26.0052 50.4805ZM25.9739 78.4024C26.026 78.3712 26.0729 78.3347 26.1198 78.2983C25.9531 78.9441 25.7864 79.5951 25.6146 80.241C25.7344 79.6316 25.8541 79.017 25.9739 78.4024ZM26.2135 86.7305C26.0521 87.5274 25.8698 88.3139 25.7031 89.1108C25.6875 89.1316 25.6666 89.1576 25.651 89.1785C25.5 88.5066 25.3385 87.9128 25.1666 87.3816C25.5104 87.1628 25.8594 86.9441 26.2135 86.7305ZM25.1719 105.309C25.1771 105.34 25.1771 105.376 25.1823 105.413C24.7656 106.882 24.3489 108.35 23.9219 109.819C23.8385 109.871 23.7604 109.923 23.6823 109.975C24.0104 108.606 24.3229 107.231 24.6146 105.85C24.8021 105.673 24.9844 105.486 25.1719 105.309ZM24.2083 95.0743C24.2344 95.2878 24.2656 95.5014 24.2916 95.7149C24.1041 96.5639 23.9323 97.418 23.7344 98.267C23.7239 97.4076 23.7031 96.5483 23.6979 95.6837C23.8698 95.4805 24.0416 95.2774 24.2083 95.0743ZM23.9166 75.0326C24.0104 74.6733 24.0937 74.3087 24.1875 73.9545C24.2344 73.9285 24.2812 73.9024 24.3281 73.8764C24.2812 74.1524 24.2344 74.4285 24.1875 74.7045C24.0989 74.8087 24.0104 74.9128 23.9166 75.0326ZM21.1875 55.668C21.1458 55.7097 21.0989 55.7514 21.0573 55.793C21.7187 54.0014 22.3385 52.2097 22.8906 50.4076C23.2083 50.293 23.4791 50.1055 23.7083 49.8555C23.7448 49.8399 23.7864 49.8243 23.8229 49.8087C22.8229 51.6993 21.7083 53.5743 21.1875 55.668ZM20.9219 45.4701C20.7552 45.9649 20.5156 46.418 20.2031 46.8347C20.4166 46.1941 20.6354 45.5535 20.8541 44.918C21.0364 44.6472 21.2239 44.3712 21.4114 44.1055C21.2448 44.5587 21.0833 45.0118 20.9219 45.4701ZM21.0833 57.9597C21.0364 58.0743 20.9948 58.1889 20.9479 58.3035C20.6354 58.4962 20.3125 58.6941 20 58.8816C20.3646 58.5795 20.7187 58.2618 21.0833 57.9597ZM20.1406 60.418C19.0989 63.2514 18.125 66.1108 17.1979 68.9858C16.4271 69.7983 15.6719 70.6108 14.9427 71.4076C16.2083 67.9441 17.6302 64.5118 19.0052 61.0795C19.3802 60.8555 19.7604 60.6368 20.1406 60.418ZM14.4427 117.585C14.6458 117.465 14.8437 117.345 15.0469 117.22C14.9739 117.507 14.9114 117.788 14.8437 118.069C14.7344 117.986 14.6198 117.902 14.5104 117.819C14.4896 117.741 14.4635 117.663 14.4427 117.585ZM14.7396 115.939C15.0052 115.637 15.2969 115.356 15.5625 115.059C15.5364 115.189 15.5 115.319 15.4687 115.449C15.2291 115.611 14.9844 115.772 14.7396 115.939ZM15.9896 121.772C15.8541 121.47 15.6823 121.194 15.5625 120.892C15.5625 120.887 15.5677 120.882 15.5677 120.882C15.7708 121.074 15.9583 121.298 16.1562 121.507C16.0937 121.595 16.0469 121.678 15.9896 121.772ZM16.3594 127.423C16.3281 127.35 16.2812 127.283 16.2448 127.21C16.2969 127.272 16.3489 127.335 16.3958 127.397L16.3594 127.423ZM16.1562 119.168C16.4583 118.116 16.7396 117.053 17.0416 115.996C17.9739 115.408 18.9062 114.814 19.8385 114.22C19.4948 115.543 19.1614 116.866 18.8125 118.184C18.2135 118.856 17.6562 119.517 17.151 120.152C16.9791 119.986 16.8281 119.798 16.651 119.637C16.4896 119.481 16.3229 119.324 16.1562 119.168ZM19.9583 122.991C19.9271 123.09 19.901 123.184 19.8698 123.277C19.8229 123.22 19.7812 123.168 19.7344 123.111C19.8073 123.074 19.8854 123.027 19.9583 122.991ZM19.2864 125.163C18.9948 125.397 18.7083 125.626 18.4114 125.856C18.1406 125.501 17.8854 125.132 17.6354 124.757C17.8073 124.475 17.9791 124.194 18.1562 123.913C18.1823 123.897 18.2135 123.882 18.2448 123.866C18.5937 124.298 18.9479 124.72 19.2864 125.163ZM17.2239 122.647C17.2656 122.694 17.3125 122.736 17.3489 122.783C17.3333 122.809 17.3125 122.84 17.2969 122.866C17.1666 122.934 17.0364 122.996 16.9062 123.059C17.0052 122.918 17.1198 122.788 17.2239 122.647ZM30.875 141.069C26.6927 139.449 22.875 137.215 19.4166 134.366C19.6927 134.168 19.8021 133.902 19.75 133.564C19.1823 131.876 18.0833 130.371 17.1354 128.814C17.2292 128.757 17.3229 128.694 17.4166 128.632C19.2135 130.84 21.0469 133.017 23.0104 135.069C24.3802 136.356 25.8489 138.038 27.8021 138.267C27.7448 138.46 27.7864 138.621 27.9323 138.751C27.9948 138.824 28.0469 138.892 28.0989 138.96C28.25 139.397 28.6146 139.699 28.9739 139.548C29.1614 139.47 29.3125 139.34 29.4166 139.163C29.875 139.725 30.3958 140.22 30.9844 140.647C30.9479 140.788 30.9062 140.928 30.875 141.069ZM30.9166 108.939C30.9323 110.001 30.9479 111.064 30.9583 112.126C30.7083 113.277 30.4323 114.428 30.1666 115.58C30.0469 115.658 29.9323 115.736 29.8125 115.814C29.901 114.147 29.9739 112.486 30.0416 110.819C30.1771 110.324 30.3177 109.824 30.4583 109.33C30.6094 109.199 30.7656 109.069 30.9166 108.939ZM30.5208 95.4649C30.5416 94.6368 30.5677 93.8139 30.5885 92.9858C30.6302 92.8399 30.6719 92.6993 30.7135 92.5535C30.7239 93.4753 30.7344 94.392 30.7448 95.3139C30.6719 95.3608 30.5937 95.4128 30.5208 95.4649ZM31.4114 139.017C31.1198 138.762 30.8437 138.491 30.5937 138.199C30.7812 137.673 30.9375 137.142 31.1146 136.621C31.0052 137.491 30.8854 138.392 31.4583 138.83C31.4427 138.892 31.4271 138.955 31.4114 139.017ZM31.3489 77.0118C31.2291 77.7305 31.1146 78.4441 30.9896 79.1576C30.9583 79.3816 30.9167 79.6055 30.8802 79.8295C30.1614 80.0222 29.9271 81.0795 29.8281 82.1837C29.7083 82.2462 29.5885 82.3087 29.4687 82.3764C30.1094 79.9285 30.8281 77.4962 31.6823 75.1108C31.5781 75.7462 31.4583 76.3816 31.3489 77.0118ZM32.3541 141.585C32.3646 141.553 32.375 141.527 32.3802 141.501C32.7292 141.658 33.0885 141.788 33.4583 141.887C33.0885 141.788 32.7187 141.694 32.3541 141.585ZM34 91.9233C33.6771 92.6941 33.7187 93.5483 33.5833 94.366C33.5677 93.9753 33.5469 93.5847 33.5312 93.1941C33.8125 91.8087 34.0833 90.418 34.3385 89.0274C34.5781 89.7201 34.8698 90.392 35.2187 91.0326C35.2135 91.0482 35.2031 91.0639 35.1979 91.0795C34.6406 91.1316 34.2396 91.4128 34 91.9233ZM34.7135 110.475C34.526 111.298 34.3385 112.126 34.151 112.949C34.1406 112.955 34.1302 112.965 34.1198 112.97C34.1771 111.949 34.2396 110.928 34.2969 109.908C34.4114 109.356 34.5312 108.803 34.651 108.257C34.6667 108.996 34.6927 109.736 34.7135 110.475ZM33.5364 128.736C34.1094 126.642 34.6458 124.543 35.1406 122.428C35.1719 123.173 35.2031 123.918 35.2344 124.658C34.6562 126.793 34.0833 128.928 33.5052 131.059C33.526 130.283 33.5364 129.507 33.5364 128.736ZM35.526 131.09C35.5312 131.184 35.5312 131.277 35.5364 131.366C35.2291 133.319 34.1666 138.246 34.7031 140.595C34.0521 140.512 33.4323 140.319 32.8489 140.017C33.776 137.048 34.625 134.064 35.526 131.09ZM33.0937 86.6524C33.0625 86.3139 33.026 85.9753 32.9896 85.6316C33.1302 85.267 33.276 84.9024 33.4219 84.5378C33.4375 84.6576 33.4583 84.7826 33.4791 84.9024C33.3489 85.4858 33.2239 86.0691 33.0937 86.6524ZM33.0937 82.3243C32.9792 81.9858 32.7708 81.7149 32.4791 81.5066C32.6094 80.8451 32.7396 80.1785 32.8594 79.5066C32.9323 80.418 33.0208 81.3295 33.1302 82.2358C33.1198 82.267 33.1042 82.293 33.0937 82.3243ZM37.625 110.501C37.9427 108.835 38.2552 107.163 38.5573 105.491C38.6041 105.491 38.6458 105.486 38.6823 105.475C38.5469 106.996 38.4114 108.517 38.2812 110.038C38.0677 110.194 37.8437 110.345 37.625 110.501ZM38.0469 112.798C38 113.413 37.9427 114.033 37.8958 114.647C37.7344 115.257 37.5781 115.861 37.4166 116.465C37.3854 115.413 37.3646 114.361 37.3646 113.309C37.5937 113.137 37.8177 112.965 38.0469 112.798ZM38.6614 125.356C39.526 121.574 40.5 117.814 41.5156 114.064C41.5469 114.689 41.5833 115.319 41.6146 115.944C40.4479 119.986 39.3802 124.048 38.4219 128.142C38.5 127.21 38.5833 126.283 38.6614 125.356ZM42.3489 128.949C42.3646 129.173 42.375 129.397 42.3906 129.616C41.8073 132.205 41.0521 135.835 40.6927 138.746C40.0937 139.007 39.4844 139.257 38.8854 139.512C40 135.991 41.2239 132.486 42.3489 128.949ZM41.7604 141.257C41.8333 140.699 41.9323 140.142 42.0104 139.59C42.1042 139.543 42.2031 139.496 42.2969 139.449C42.1198 140.053 41.9375 140.652 41.7604 141.257ZM42.3125 142.751C42.3333 142.725 42.3489 142.71 42.3698 142.684C42.3906 142.715 42.4114 142.72 42.4323 142.746C42.3906 142.746 42.3489 142.746 42.3125 142.751ZM42.7917 137.777C42.6094 137.866 42.4271 137.944 42.2448 138.027C42.401 137.053 42.5833 136.08 42.7708 135.106C42.8281 135.819 42.8906 136.533 42.9479 137.241C42.8958 137.423 42.8437 137.6 42.7917 137.777ZM43.6146 106.387C44.3021 103.871 44.9739 101.35 45.625 98.8243C45.6198 100.225 45.6094 101.626 45.6042 103.027C45.2552 104.064 44.9167 105.1 44.5937 106.142C44.3073 107.033 44.0469 107.928 43.7656 108.824C43.7187 108.012 43.6667 107.199 43.6146 106.387ZM44.776 131.053C44.7552 131.132 44.7292 131.215 44.7031 131.298C44.6458 129.975 44.5989 128.652 44.5521 127.335C44.7396 126.611 44.9271 125.892 45.125 125.178C45.026 127.132 44.9167 129.09 44.776 131.053ZM45.5989 142.413C45.5364 142.423 45.4635 142.428 45.401 142.439C45.4427 142.1 45.4687 141.767 45.4792 141.428C45.5573 140.585 45.6042 139.736 45.6771 138.892C46.6823 135.892 47.4792 132.293 47.7708 131.512C48.1198 130.283 48.4687 129.059 48.8177 127.83C48.9167 128.908 49.0364 129.986 49.1458 131.064C48.2604 134.012 47.375 136.955 46.4687 139.897C46.1719 140.741 45.9271 141.564 45.5989 142.413ZM48.6823 141.731C48.6875 141.746 48.6979 141.751 48.7031 141.767C48.2083 141.892 47.7031 141.986 47.2031 142.095C47.3802 141.533 47.5312 140.96 47.7344 140.642C48.3698 138.845 49.0052 137.048 49.6354 135.251C49.7187 135.902 49.776 136.559 49.8646 137.21C49.4479 138.715 49.0521 140.22 48.6823 141.731ZM49.7708 98.4649C49.9896 97.5118 50.2031 96.5587 50.4167 95.6003C50.4167 96.7878 50.4271 97.9753 50.4479 99.168C50.2812 99.616 50.1146 100.064 49.9427 100.512C49.8906 99.8191 49.8333 99.1368 49.7708 98.4649ZM50.6979 107.262C50.7344 108.548 50.7656 109.835 50.7864 111.116C50.7083 111.387 50.625 111.652 50.5469 111.918C50.4948 110.835 50.4427 109.58 50.3802 108.225C50.4896 107.908 50.5937 107.585 50.6979 107.262ZM50.4583 141.241C50.8594 140.465 50.9219 139.465 51.2135 138.6C51.2552 138.444 51.3021 138.288 51.3437 138.132C51.6094 137.986 51.7708 137.757 51.8281 137.455C51.8854 136.96 51.9114 136.46 51.9427 135.96C52.7552 132.981 53.6146 130.017 54.5312 127.074C54.6719 129.194 54.7864 131.309 54.8594 133.434C53.6979 136.085 52.3698 138.647 50.8594 141.121C50.7292 141.168 50.5937 141.199 50.4583 141.241ZM52.3906 120.199C52.3906 118.647 52.3958 117.095 52.3802 115.543C52.6614 114.6 52.9583 113.658 53.2448 112.71C53.3646 113.845 53.4844 114.981 53.5989 116.116C53.1979 117.481 52.7969 118.84 52.3906 120.199ZM54.1719 122.439C54.1927 122.684 54.2135 122.928 54.2344 123.173C53.5469 125.215 52.8802 127.262 52.2239 129.314C52.2448 128.803 52.2604 128.293 52.276 127.783C52.9062 126.001 53.5417 124.22 54.1719 122.439ZM52.25 106.324C52.2239 105.116 52.2031 103.908 52.1823 102.699C52.2812 103.647 52.3854 104.595 52.4844 105.543C52.4062 105.803 52.3281 106.064 52.25 106.324ZM55.3229 91.8399C55.4844 92.7618 55.651 93.6837 55.8021 94.6108C55.4323 95.8451 55.0625 97.0795 54.6875 98.3139C54.651 97.0118 54.6354 95.7149 54.6302 94.4128C54.8646 93.5535 55.0989 92.6993 55.3229 91.8399ZM55.3073 85.1108C55.3802 85.0795 55.4531 85.0483 55.5208 85.017C55.5052 85.0847 55.4844 85.142 55.4635 85.2045C55.4062 85.1628 55.3594 85.142 55.3073 85.1108ZM59.7917 131.944C59.8073 132.152 59.8229 132.361 59.8333 132.574C58.9271 134.043 57.9844 135.491 56.9739 136.897C57.6875 135.408 58.3906 133.913 58.9896 132.371C59.3125 132.335 59.5833 132.194 59.7917 131.944ZM59.5469 107.444C59.5625 107.402 59.5781 107.361 59.5937 107.319C59.5781 107.361 59.5625 107.408 59.5469 107.449V107.444ZM56.2396 130.095C56.1979 128.856 56.1406 127.616 56.0885 126.371C56.0417 125.178 55.9792 123.981 55.9219 122.788C56.7396 120.293 57.5833 117.809 58.4583 115.33C58.6719 117.507 58.8698 119.689 59.0521 121.871C58.2135 124.652 57.2864 127.402 56.2396 130.095ZM55.7083 118.803C55.6979 118.616 55.6875 118.423 55.6771 118.236C56.4739 116.001 57.2708 113.772 58.0781 111.548C58.0833 111.626 58.0937 111.71 58.0989 111.788C57.3125 114.126 56.5104 116.465 55.7083 118.803ZM58.2292 97.7305C58.4427 97.1524 58.6562 96.5743 58.8698 95.9962C58.9531 96.4597 59.0364 96.9233 59.1198 97.392C58.9062 98.1055 58.6875 98.8243 58.4792 99.543C58.3958 98.9233 58.3125 98.3243 58.2292 97.7305ZM58.5625 85.3608C58.4167 84.8816 58.2448 84.4128 58.0573 83.9545C58.4167 83.793 58.776 83.6212 59.1354 83.4545C58.9479 84.0899 58.7552 84.7253 58.5625 85.3608ZM58.1354 92.0378C58.2187 92.4701 58.2969 92.9024 58.375 93.3347C58.1927 93.8087 58.0104 94.2878 57.8281 94.767C57.7708 94.3555 57.7187 93.9649 57.6667 93.5743C57.8229 93.0587 57.9792 92.5483 58.1354 92.0378ZM57.6719 108.001C57.7031 108.298 57.7396 108.6 57.776 108.902C57.2448 110.361 56.7083 111.824 56.1823 113.288C56.6614 111.522 57.1667 109.762 57.6719 108.001ZM55.2344 110.553C55.1667 109.376 55.1042 108.199 55.0417 107.022C55.625 105.21 56.2292 103.402 56.8542 101.606C56.9635 102.387 57.0729 103.173 57.1719 103.96C56.526 106.158 55.8802 108.356 55.2344 110.553ZM55.6875 100.751C55.8802 99.8816 56.1302 99.0326 56.3594 98.1733C56.3802 98.3243 56.4062 98.4753 56.4323 98.6264C56.1823 99.3347 55.9219 100.043 55.6875 100.751ZM56.8073 139.585C56.4114 140.387 55.5156 140.955 55.4739 141.928C55.0677 142.064 54.6562 142.178 54.2448 142.298C54.8802 141.882 55.3073 141.423 55.3489 140.923C56.0364 140.194 56.6719 139.402 57.3021 138.642L56.8073 139.585ZM61.3385 137.126C61.1771 137.522 60.9167 137.887 60.9375 138.33C60.9375 138.335 60.9375 138.34 60.9375 138.345C60.9167 138.366 60.8958 138.392 60.875 138.418C60.4739 138.871 60 139.387 59.5 139.876C60.1198 138.97 60.776 138.08 61.3385 137.126ZM67.3698 113.35C67.3437 112.798 67.3177 112.251 67.2917 111.705C68.3437 109.085 69.375 106.455 70.3489 103.803C70.3906 104.085 70.4271 104.366 70.4687 104.647C69.5052 107.564 68.4739 110.465 67.3698 113.35ZM69.7969 110.319C69.7864 110.356 69.7708 110.392 69.7604 110.423C69.0729 112.58 68.3281 114.715 67.5156 116.835C67.5104 116.626 67.5 116.418 67.4896 116.215C68.2708 114.251 69.0364 112.283 69.7969 110.319ZM66.8802 104.553C66.7812 102.882 66.6823 101.21 66.5885 99.5378C67.1875 97.2722 67.7812 95.0118 68.3646 92.7462C68.6719 94.0535 68.9427 95.3712 69.1875 96.6889C68.5573 99.3399 67.7656 101.96 66.8802 104.553ZM66.3542 94.9649C66.3489 94.8295 66.3437 94.6941 66.3333 94.5587C66.6094 93.8712 66.8802 93.1785 67.151 92.4962C66.875 93.3139 66.6146 94.1368 66.3542 94.9649ZM67.3229 122.293C67.5417 122.199 67.6458 122.033 67.6406 121.793C67.6354 121.741 67.6354 121.684 67.6354 121.632C68.6354 119.496 69.6719 117.371 70.8177 115.298C69.6406 118.137 68.4167 120.96 67.1146 123.741C66.2448 125.569 65.3489 127.387 64.4219 129.189C64.4219 129.1 64.4167 129.012 64.4167 128.918C64.4167 128.866 64.4114 128.814 64.4114 128.762C65.3594 126.595 66.3281 124.439 67.3229 122.293ZM70.6146 123.449C69.375 125.918 68.3542 128.689 66.0937 130.392C67.9739 126.939 69.901 123.512 71.8854 120.111C72.0677 119.793 72.2552 119.475 72.4375 119.158C71.8333 120.59 71.2448 122.027 70.6146 123.449ZM72.0364 124.585C71.9583 124.777 71.8854 124.97 71.8125 125.163C71.5312 125.944 71.2031 126.705 70.8281 127.444C70.6823 127.455 70.5364 127.475 70.3906 127.507C70.3646 127.512 70.3385 127.517 70.3073 127.527C70.8906 126.548 71.4635 125.564 72.0364 124.585ZM68.6927 131.569C68.7448 131.413 68.8021 131.251 68.8542 131.095C68.8542 131.106 68.8489 131.111 68.8437 131.121C69.0729 130.486 69.3021 129.856 69.5364 129.225C69.6042 129.184 69.6719 129.147 69.7396 129.111C69.8542 129.048 69.9739 128.986 70.0989 128.934C70.0312 129.074 69.9583 129.21 69.8906 129.35C69.901 129.324 69.9167 129.303 69.9271 129.277C69.526 130.048 69.1146 130.814 68.6927 131.569ZM64.6823 133.439C64.6719 133.449 64.6614 133.465 64.6562 133.475C64.6458 133.491 64.6354 133.507 64.625 133.522C64.6302 133.517 64.6302 133.507 64.6354 133.501C64.375 133.85 64.1146 134.199 63.8594 134.553C64.2448 133.793 64.5937 133.012 65.3021 132.496C65.0937 132.814 64.8802 133.132 64.6719 133.449C64.6771 133.444 64.6771 133.444 64.6823 133.439ZM67.4114 132.085C67.3177 132.356 67.2239 132.626 67.1562 132.908C67.0364 133.314 66.9531 133.725 66.9167 134.147C65.9739 135.158 64.9739 136.111 63.9219 137.012C65.1771 135.439 66.3437 133.793 67.4114 132.085ZM64.1927 124.6C64.1823 124.392 64.1771 124.189 64.1614 123.981C64.8385 122.522 65.5 121.059 66.1198 119.574C66.1458 119.762 66.1667 119.955 66.1927 120.147C65.5625 121.647 64.8958 123.132 64.1927 124.6ZM63.9896 121.527C63.9531 121.043 63.9167 120.559 63.8802 120.069C64.4739 118.626 65.0625 117.178 65.6562 115.731C65.7187 116.231 65.776 116.731 65.8385 117.225C65.2396 118.668 64.625 120.106 63.9896 121.527ZM64.9687 99.642C64.9114 99.2462 64.8542 98.8555 64.7917 98.4597C64.9896 97.9597 65.1875 97.4649 65.3802 96.9649C65.4062 97.293 65.4323 97.616 65.4583 97.9389C65.2917 98.5066 65.125 99.0743 64.9687 99.642ZM64.9114 109.981C64.401 111.324 63.8802 112.668 63.3542 114.001C63.3021 113.46 63.2552 112.913 63.2031 112.366C63.651 110.678 64.0989 108.991 64.5417 107.303C64.6667 108.194 64.7917 109.09 64.9114 109.981ZM63.3958 131.163C63.2969 131.345 63.2083 131.533 63.1094 131.715C63.1927 131.522 63.276 131.335 63.3594 131.147C63.375 131.152 63.3802 131.158 63.3958 131.163ZM62.7604 108.007C62.6406 106.882 62.526 105.757 62.4062 104.632C62.8229 103.543 63.2448 102.455 63.6667 101.371C63.7656 102.007 63.8854 102.637 63.9792 103.277C63.5677 104.85 63.1614 106.423 62.7604 108.007ZM62.5573 123.33C62.5833 123.684 62.6198 124.043 62.6458 124.397C62.3125 125.1 61.9583 125.793 61.6094 126.491C61.5937 126.262 61.5833 126.038 61.5677 125.798C61.8958 124.975 62.2239 124.152 62.5573 123.33ZM61.5417 118.642C61.6823 118.095 61.8281 117.553 61.9739 117.012C61.9896 117.147 62.0052 117.288 62.0156 117.423C61.8594 117.83 61.6979 118.236 61.5417 118.642ZM62.7864 126.814C62.7969 126.996 62.8073 127.184 62.8177 127.366C62.4687 128.033 62.0989 128.689 61.7292 129.345C61.7292 129.173 61.7187 128.981 61.7135 128.803C62.0781 128.142 62.4479 127.486 62.7864 126.814ZM61.7344 98.0483C61.625 96.9701 61.5208 95.8868 61.4219 94.8087C61.651 93.9805 61.8646 93.1524 62.0833 92.3191C62.2864 93.3555 62.4948 94.3868 62.6823 95.4233C62.3646 96.2983 62.0521 97.1733 61.7344 98.0483ZM61.0677 90.8399C61.0573 90.7097 61.0469 90.5743 61.0364 90.4441C61.1875 90.0795 61.3281 89.7097 61.4792 89.3451C61.4792 89.3712 61.4844 89.392 61.4896 89.4128C61.3489 89.8868 61.2083 90.366 61.0677 90.8399ZM61.5052 112.923C61.2239 114.022 60.9375 115.116 60.6406 116.21C60.4479 114.517 60.2344 112.788 60.0156 111.043C60.3177 110.22 60.6146 109.397 60.9219 108.58C61.1302 110.022 61.3229 111.475 61.5052 112.923ZM61.526 141.856C61.5417 141.095 60.3437 141.34 59.7708 141.595C59.9792 141.486 60.1875 141.371 60.3906 141.257C61.2448 140.762 62.0729 140.236 62.875 139.663C65.0208 139.402 66.3385 137.262 67.5729 135.699C68.4271 135.824 69.3073 135.444 70.1979 134.757C67.5937 137.475 64.7031 139.84 61.526 141.856ZM68.4167 134.673C68.6094 134.455 68.8073 134.241 69.0104 134.022C69.2917 133.699 69.5521 133.356 69.8125 133.017C70.0521 133.048 70.25 132.97 70.401 132.783C72.0989 130.517 72.9531 127.736 74.1198 125.173C75.1771 123.048 75.9323 120.746 76.7292 118.465C76.8073 119.038 76.8802 119.611 76.9271 120.184C76.7396 120.293 76.6458 120.455 76.6614 120.673C76.6719 120.892 76.776 121.043 76.9792 121.132C76.3646 122.533 75.7239 123.923 75.0364 125.293C73.2396 128.611 71.6042 132.512 68.4167 134.673ZM74.3021 129.866C73.9427 130.361 73.5625 130.85 73.1823 131.335C75.6146 127.705 77.8646 122.564 79.4167 118.673C78.2656 122.658 76.5573 126.387 74.3021 129.866ZM80.901 110.533C80.0364 113.319 79.0521 116.074 77.9479 118.803C77.8542 117.97 77.7083 117.142 77.5104 116.33C78.375 114.08 79.401 111.934 80.9271 110.09C80.9219 110.236 80.9114 110.387 80.901 110.533ZM80.8802 107.678C80.9219 107.694 80.9583 107.705 81 107.715C81 107.913 81 108.111 80.9948 108.314C80.9479 108.34 80.8958 108.366 80.8489 108.397C80.8281 108.231 80.8125 108.064 80.7969 107.902C80.8229 107.83 80.8542 107.757 80.8802 107.678ZM77.7344 110.309C77.7396 110.658 77.7708 111.007 77.7396 111.356C77.6354 111.168 77.5521 110.96 77.4479 110.767C77.5417 110.616 77.6406 110.46 77.7344 110.309ZM76.5469 112.6C76.526 112.517 76.5052 112.434 76.4844 112.361C76.5573 112.236 76.6302 112.116 76.7031 111.996C76.8229 112.142 76.9583 112.272 77.1042 112.392C76.901 112.408 76.7135 112.475 76.5469 112.6ZM76.5104 104.699C76.6771 105.1 76.8385 105.507 76.9739 105.918C76.7344 106.731 76.4844 107.538 76.2344 108.345C75.9739 107.809 75.6927 107.298 75.4479 106.751C75.7812 106.059 76.1302 105.371 76.5104 104.699ZM75.5677 102.652C75.3073 103.439 75.026 104.215 74.7135 104.981C74.5781 104.663 74.4479 104.345 74.3177 104.027C74.625 103.361 74.9375 102.694 75.2656 102.038C75.3646 102.241 75.4687 102.449 75.5677 102.652ZM74.5104 100.496C74.5677 100.616 74.625 100.736 74.6823 100.856C74.5469 101.168 74.3854 101.47 74.2135 101.767C74.3125 101.345 74.4114 100.923 74.5104 100.496ZM74.3698 109.173C74.6302 110.007 74.8906 110.845 75.1406 111.684C74.8698 112.376 74.5625 113.059 74.2344 113.731C74.1198 112.647 73.9948 111.564 73.8542 110.486C74.026 110.048 74.1927 109.606 74.3698 109.173ZM73.4114 106.017C73.526 106.418 73.6458 106.814 73.7656 107.215C73.6771 107.408 73.5781 107.59 73.4896 107.783C73.4167 107.298 73.3437 106.819 73.2708 106.335C73.3125 106.231 73.3646 106.126 73.4114 106.017ZM72.7344 96.8816C72.7448 96.9076 72.7604 96.9337 72.7708 96.9597C72.6458 97.4285 72.526 97.8972 72.401 98.366C72.3802 98.4389 72.3594 98.5066 72.3385 98.5795C72.3125 98.4962 72.2812 98.4128 72.2552 98.3295C72.4167 97.8503 72.5781 97.366 72.7344 96.8816ZM72.2083 117.33C71.3073 118.772 70.3437 120.178 69.4062 121.58C70.3698 119.637 71.2135 117.647 71.9427 115.606C72.026 116.178 72.125 116.751 72.2083 117.33ZM71.3489 111.267C71.375 111.46 71.4062 111.658 71.4271 111.85C71.1354 112.402 70.8489 112.955 70.5521 113.507C70.8073 112.757 71.0833 112.012 71.3489 111.267ZM68.3177 84.0899C69.0937 84.5639 69.8385 85.0795 70.5573 85.6316C70.5364 86.0378 70.5989 86.4285 70.7448 86.8087C70.0052 87.616 69.6614 88.7045 69.4739 89.7514C69.4219 89.6368 69.3542 89.4597 69.2812 89.2514C69.4479 88.5951 69.6302 87.9441 69.7969 87.2878C69.8437 86.866 69.5521 86.3503 69.0677 86.4285C68.8594 86.5378 68.6719 86.6785 68.5104 86.8451C68.3489 86.3555 68.1771 85.8555 67.9896 85.3764C68.1042 84.9389 68.2187 84.5118 68.3177 84.0899ZM67.1719 88.2618C67.2292 88.4441 67.2969 88.6264 67.3489 88.8087C66.9687 89.741 66.651 90.741 66.25 91.4441C66.2969 91.168 66.6979 89.8764 67.1719 88.2618ZM66.2239 85.2983C66.1875 85.4076 66.151 85.517 66.1146 85.6264C66.1146 85.392 66.1042 85.1628 66.1042 84.9285C66.151 85.0535 66.1823 85.1733 66.2239 85.2983ZM65.9219 106.34C65.7864 105.428 65.6562 104.512 65.526 103.59C65.6094 103.267 65.6979 102.944 65.7812 102.616C65.8542 103.861 65.9114 105.1 65.9219 106.34ZM64.3542 82.1524C64.8333 82.3295 65.3021 82.5274 65.7708 82.741C65.5417 82.8608 65.3125 83.1264 65.0833 83.5743C64.9323 85.4233 64.875 87.2774 64.9219 89.1316C64.5469 90.2097 64.1562 91.2826 63.776 92.3555C63.5417 91.1368 63.2864 89.918 62.9948 88.7097C63.1406 88.116 63.3073 87.5274 63.4479 86.9285C63.776 85.4233 64.1771 83.9233 64.4062 82.4076C64.401 82.3191 64.3854 82.2305 64.3542 82.1524ZM60.7604 82.6055C61.1042 82.4233 61.4583 82.2722 61.7917 82.0743C62.0156 81.9024 62.0937 81.6785 62.0312 81.4024C62.4479 81.5118 62.8594 81.6368 63.2708 81.767C63.0833 81.9493 62.9375 82.1576 62.8385 82.3972C62.5156 83.168 62.1927 83.9441 61.8646 84.7149C61.6719 84.0951 61.4792 83.4753 61.2552 82.8608C61.1042 82.7566 60.9375 82.6785 60.7604 82.6264C60.7604 82.6212 60.7604 82.616 60.7604 82.6055ZM60.9687 86.8608C60.9114 86.991 60.8594 87.1264 60.8073 87.2566C60.7656 86.642 60.7083 86.0274 60.6719 85.4128C60.7812 85.892 60.8646 86.3764 60.9687 86.8608ZM60.1614 92.6368C60.1667 92.7462 60.1719 92.8608 60.1667 92.9285C60.151 92.8608 60.1406 92.793 60.125 92.7253C60.1354 92.6941 60.1458 92.668 60.1614 92.6368ZM59.2135 104.939C59.1406 104.413 59.0729 103.887 59 103.366C59.2396 102.538 59.4792 101.71 59.7187 100.882C59.8229 101.496 59.9271 102.106 60.026 102.715C59.7552 103.46 59.4844 104.199 59.2135 104.939ZM59.2708 88.2878C59.3646 87.9649 59.4687 87.6472 59.5625 87.3243C59.6302 88.1264 59.7187 88.9337 59.8125 89.6941C59.75 89.8555 59.6823 90.0118 59.6198 90.1733C59.5052 89.543 59.3906 88.918 59.2708 88.2878ZM57.6198 80.8712C58.1302 80.8295 58.6406 80.8243 59.151 80.8451C59.4375 80.8816 59.7239 80.9389 60.0104 80.9805C59.9948 80.991 59.9844 81.017 59.9687 81.0274C59.1458 81.2878 58.3125 81.5222 57.4739 81.741C57.526 81.4493 57.5729 81.1576 57.6198 80.8712ZM56.8698 85.4858C57.0885 86.6055 57.3073 87.7253 57.526 88.8451C57.4167 89.2097 57.3073 89.5691 57.1979 89.9337C56.9062 87.4962 56.7604 85.866 56.8698 85.4858ZM53.6042 81.7253C54.5937 81.3555 55.6094 81.0951 56.651 80.9545C56.5625 81.3139 56.4583 81.668 56.3646 82.0222C55.4323 82.2514 54.5 82.4858 53.5781 82.7253C53.6302 82.392 53.6406 82.0587 53.6042 81.7253ZM53.651 85.7722C53.151 87.116 53.1406 89.6576 53.2187 91.8347C53.1354 92.0691 53.0469 92.2983 52.9635 92.5326C52.8437 91.6837 52.6614 90.8608 52.2292 90.142C52.1042 89.991 51.9479 89.8868 51.7604 89.8399C52.0625 88.6055 52.3802 87.3764 52.7135 86.1524C53.026 86.0222 53.3385 85.9024 53.651 85.7722ZM51.8125 82.5066C51.7708 82.7618 51.7135 83.017 51.6667 83.2722C50.7083 83.5587 49.7656 83.8972 48.8437 84.293C49.7864 83.6264 50.776 83.0274 51.8125 82.5066ZM48.0521 88.4701C48.3281 88.2774 48.5989 88.0691 48.8802 87.8816C49.5312 87.543 50.2083 87.2618 50.875 86.9597C50.3594 89.0378 49.7396 91.0847 49.0625 93.1212C48.7396 91.4285 48.3333 90.1368 47.8281 89.491C47.8958 89.1472 47.9844 88.8087 48.0521 88.4701ZM46.7812 119.507C47.151 118.298 47.526 117.09 47.9062 115.887C47.9896 117.178 48.0729 118.47 48.1667 119.762C47.6354 121.512 47.0989 123.262 46.5729 125.012C46.651 123.178 46.7187 121.34 46.7812 119.507ZM46.0364 89.9389C45.8854 90.6576 45.7864 91.3816 45.7344 92.116C44.9062 94.6837 44 97.2305 43.0937 99.7722C43.0937 99.7358 43.0937 99.7045 43.0885 99.6733C43.7187 96.6003 44.5417 93.5795 45.5469 90.6055C45.526 90.5118 45.5 90.4597 45.4739 90.3816C45.6614 90.2358 45.8437 90.0847 46.0364 89.9389ZM43.8229 91.7149C43.3594 92.9545 42.8958 94.5535 42.5364 95.8868C42.3958 95.5795 42.1927 95.3191 41.9219 95.116C41.9583 95.0014 41.9844 94.892 42.0208 94.7774C42.0885 94.6108 42.0833 94.4493 42.0156 94.2826C41.9479 94.1212 41.8281 94.0066 41.6667 93.9389C41.5521 93.918 41.4427 93.918 41.3333 93.9441C42.1458 93.1785 42.9739 92.4337 43.8229 91.7149ZM40.5781 94.6628C40.6094 94.6368 40.6406 94.6055 40.6719 94.5743C40.6042 94.7253 40.5521 94.8816 40.5052 95.0378L40.5781 94.6628ZM40.7708 101.486C40.8021 101.908 40.8229 102.335 40.8489 102.757C40.7291 103.283 40.5989 103.803 40.4739 104.324C40.5781 103.376 40.6562 102.428 40.7708 101.486ZM37.7604 94.3712C38.1354 94.4701 38.5416 94.2253 38.9323 93.892C38.9062 93.9701 38.8854 94.0535 38.8594 94.1368C38.3802 94.6108 37.901 95.0847 37.4271 95.5691C37.526 95.2045 37.6406 94.7983 37.7604 94.3712ZM37.9375 97.3035C37.7187 98.1003 37.5104 98.9024 37.3021 99.7045C37.276 99.1576 37.2552 98.6055 37.2187 98.0587C37.4531 97.8035 37.6979 97.5535 37.9375 97.3035ZM38.1354 141.908C38.1927 141.725 38.25 141.543 38.3073 141.361C38.3906 141.319 38.4792 141.298 38.5625 141.246C39.2239 140.939 39.875 140.616 40.5312 140.298C40.4531 141.356 40.4583 142.225 40.5833 142.798C38.2552 142.798 35.9583 142.512 33.6927 141.949C34.7344 142.194 35.776 142.189 36.8177 141.923C37 142.527 37.9479 142.673 38.1354 141.908ZM36.1146 139.288C36.2552 138.168 36.4531 137.053 36.6302 135.939C36.6719 135.949 36.7187 135.96 36.7656 135.965C36.5521 137.074 36.3073 138.173 36.1146 139.288ZM32.6875 71.7305C31.7656 71.4128 30.8854 73.2566 30.6562 74.0691C31.8958 68.2618 33.125 62.4649 34.4948 56.6941C35.526 52.3087 36.5937 47.9389 37.7031 43.5795C38.375 43.0274 39.0729 42.4962 39.7604 41.9545C35.4062 51.4076 33.0521 61.3347 32.6875 71.7305ZM32.9166 51.5014C33.2135 49.7201 33.5156 47.9493 34.7656 46.5899C34.4896 48.1055 34.1719 49.616 33.8437 51.1212C33.75 51.1264 33.6614 51.1472 33.5781 51.168C33.3541 51.2722 33.1354 51.3972 32.9166 51.5014ZM37.875 33.4545C37.4427 34.1316 37 34.8035 36.5677 35.4805C36.3437 35.642 36.1198 35.8035 35.8906 35.9701C36.4948 35.1055 37.2396 34.3191 37.875 33.4545ZM35.4323 28.116C35.0937 28.1941 34.7604 28.267 34.4219 28.3399C35.0729 27.6837 35.7708 27.0899 36.5156 26.5535C36.5521 26.6993 36.5781 26.8555 36.5833 27.0066C36.2031 27.3816 35.8125 27.741 35.4323 28.116ZM37.875 25.6212C37.9427 25.5847 38.0104 25.543 38.0781 25.5066C38.0208 25.5639 37.9687 25.616 37.9114 25.6733C37.9062 25.6524 37.8854 25.642 37.875 25.6212ZM42.2604 37.0066C41.8073 37.043 41.401 37.2097 41.0469 37.4962C40.6823 37.8503 40.2969 38.1733 39.9219 38.5118C40.901 36.9545 41.8906 35.4076 42.901 33.8712C43.6094 33.3712 44.3021 32.8503 45.0104 32.3503C44.0364 33.8608 43.1302 35.418 42.2604 37.0066ZM41.3385 32.0326C42.0729 30.6785 42.8698 29.3712 43.7083 28.0899C43.8594 28.0587 44.0156 28.0326 44.1667 28.0066C43.3802 29.2201 42.6094 30.4389 41.8542 31.6628C41.6875 31.7826 41.5104 31.9076 41.3385 32.0326ZM66.9427 7.92846C67.2864 8.04825 67.6302 8.15763 67.9739 8.30867C68.2864 8.50658 68.7083 9.03783 68.4792 9.48054C64.9635 13.5639 60.4062 16.7358 56.0937 20.1837C58.1875 17.9701 60.25 15.7253 62.1875 13.3816C64.9167 11.2878 67.6042 9.35554 66.9427 7.92846ZM61.6146 8.01179C62.8385 8.05867 64.0312 8.28783 65.1875 8.68888C64.2031 9.61596 63.0364 10.4545 61.9739 11.3347C59.6562 11.2618 57.6406 13.4128 55.6927 14.5222C51.6979 17.668 48.5052 21.6108 45.6354 25.7983C45.4948 25.8295 45.3542 25.8451 45.2135 25.8712C48.0833 21.9076 51.2864 18.241 54.8333 14.866C56.8958 12.4805 60.1042 10.7045 61.6146 8.01179ZM46.0573 22.2045C46.4114 21.4805 47.0833 20.6368 47.5573 19.7722C47.9739 19.5118 48.3906 19.2618 48.8021 19.0014C47.9948 19.9233 47.2031 20.8555 46.4323 21.8087C46.3125 21.9545 46.1979 22.1003 46.0781 22.2462C46.0729 22.2305 46.0625 22.2201 46.0573 22.2045ZM52.2292 15.3035C51.9687 15.0691 51.6719 14.9128 51.3281 14.8295C51.0364 14.8347 50.75 14.8712 50.4635 14.9337C52.4896 12.9493 54.6979 11.142 57.3698 10.2618C55.6198 11.9024 53.9062 13.5847 52.2292 15.3035ZM41.2917 15.517C44.2344 13.6941 47.4948 11.6108 50.9167 9.96492C49.2239 11.0951 47.5937 12.3191 46.026 13.4493C40.3229 17.0274 34.9844 21.267 30.625 26.3972C29.2239 23.892 27.0469 28.5899 26.1562 29.6212C26.0521 28.9233 25.875 28.4545 25.651 28.1576C30.3073 23.3555 35.6614 19.1785 41.2917 15.517ZM33.1406 30.3243C31.9427 31.4858 30.7552 32.668 29.5312 33.8035C30.526 32.7462 31.4844 31.5847 32.4635 30.4441C32.6927 30.4076 32.9166 30.366 33.1406 30.3243ZM26.1094 38.9285C28.5104 35.4441 32.3958 32.991 35.3541 29.8764C35.3802 29.8712 35.4062 29.866 35.4375 29.8608C32.0833 34.3503 28.8333 38.892 25.7448 43.5639C25.2604 43.9441 24.7916 44.3139 24.3333 44.6785C24.1823 44.2097 23.8125 43.8972 23.1979 44.1941C24.2396 42.4597 25.2135 40.7618 26.1094 38.9285ZM23.0052 33.5274C22.8333 34.0847 22.6562 34.6368 22.4791 35.1889C20.8541 38.3087 19.0677 41.3399 17.1198 44.2774C18.8385 40.5587 20.7969 36.9753 23.0052 33.5274ZM13.8125 45.5378C13.7969 45.5743 13.7812 45.6055 13.7656 45.642C14.6979 43.491 15.7708 41.4128 16.9844 39.4128C13.6979 46.4389 11.0677 54.1524 12.1979 54.793C11.5781 56.6212 3.01561 73.293 7.70311 71.767C6.97394 73.9753 6.37498 76.2149 5.90623 78.491C5.3229 77.7514 4.63019 78.5326 4.74998 79.2201C4.74998 95.616 5.77602 113.684 13.9166 128.246C13.8646 128.34 13.8229 128.439 13.776 128.538C10.4114 124.231 8.17186 119.397 7.06248 114.043C1.1354 91.3243 4.04686 66.7253 13.8333 45.4962C13.8281 45.5118 13.8229 45.5222 13.8125 45.5378Z" fill="white"/>
</g>
</svg>
