<svg width="187" height="150" viewBox="0 0 187 150" fill="none" xmlns="http://www.w3.org/2000/svg">
<mask id="mask0_2484_176" style="mask-type:luminance" maskUnits="userSpaceOnUse" x="0" y="0" width="187" height="150">
<path d="M0.333984 0.664062H187.001V149.461H0.333984V0.664062Z" fill="white"/>
</mask>
<g mask="url(#mask0_2484_176)">
<path d="M138.011 148.488C148.969 148.066 160.037 144.337 169.282 138.494C188.813 125.577 193.886 90.7436 171.98 77.7019C157.917 68.9259 139.829 78.5092 136.068 93.8529C135.954 93.9571 135.839 94.0665 135.725 94.1706C125.761 78.2748 122.605 58.1915 131.027 40.9311C134.271 33.3477 138.808 26.4259 143.287 19.5248C145.641 16.0456 148.037 12.5821 150.381 9.03002C152.089 7.0144 153.318 3.49877 150.36 1.81127C142.615 -1.47519 134.282 4.5144 128.329 9.11336C118.407 17.4259 112.048 29.1706 106.782 40.8165C102.178 51.2071 97.5475 61.7019 94.8756 72.7748C90.4798 91.4415 90.7819 112.093 100.933 128.9C108.673 141.353 123.537 148.483 138.011 148.488ZM101.079 115.848C102.016 117.759 102.725 119.801 103.688 121.702C103.704 121.931 103.719 122.16 103.735 122.389C102.318 120.514 101.266 118.452 101.079 115.848ZM104.256 94.3113C104.271 94.4154 104.303 94.5144 104.36 94.6029C103.725 97.9936 103.563 101.483 101.824 104.54C100.334 99.9206 103.396 95.1759 104.459 90.7384C104.214 91.9102 104.048 93.1186 104.256 94.3113ZM126.923 139.244C126.193 138.827 125.568 138.29 125.053 137.634C125.407 137.598 125.751 137.509 126.079 137.374C126.24 137.587 126.449 137.665 126.709 137.598C126.777 138.15 126.844 138.697 126.923 139.244ZM126.798 103.379C126.985 103.259 127.178 103.145 127.37 103.035C127.428 103.139 127.48 103.244 127.537 103.353C127.365 103.655 127.188 103.952 127.011 104.244C126.995 104.264 126.98 104.285 126.964 104.306C126.917 103.994 126.86 103.686 126.798 103.379ZM125.459 135.624C125.058 135.53 124.657 135.436 124.266 135.322C124.298 135.072 124.36 134.827 124.443 134.593C124.881 134.895 125.324 135.191 125.761 135.494C125.657 135.53 125.558 135.577 125.459 135.624ZM124.709 130.478C124.626 130.353 124.542 130.228 124.469 130.098C124.412 129.988 124.35 129.884 124.292 129.775C124.485 129.525 124.678 129.27 124.87 129.014C125.11 128.702 125.344 128.389 125.584 128.082C125.615 128.379 125.652 128.681 125.683 128.978C125.355 129.478 125.027 129.978 124.709 130.478ZM123.725 125.103C123.771 124.79 123.808 124.478 123.85 124.165C124.12 123.478 124.396 122.79 124.673 122.108C124.74 122.02 124.803 121.931 124.87 121.848C124.876 121.874 124.876 121.905 124.881 121.931C124.485 122.983 124.11 124.046 123.725 125.103ZM124.251 100.994C124.199 100.634 124.141 100.275 124.094 99.9154C124.021 99.3738 123.912 98.8425 123.829 98.3009C124.042 98.1602 124.256 98.0248 124.475 97.8946C124.542 98.2019 124.615 98.504 124.693 98.8113C124.766 99.1394 124.839 99.4727 124.923 99.8009C124.704 100.202 124.475 100.598 124.251 100.994ZM123.636 96.2123C123.568 96.254 123.506 96.3009 123.438 96.3425C123.402 96.2384 123.36 96.129 123.313 96.0248C123.183 95.7227 122.954 95.53 122.641 95.4363C122.584 94.9311 122.844 94.504 123.032 94.0509C123.339 94.6967 123.652 95.3477 123.959 95.9988C123.85 96.0665 123.74 96.1394 123.636 96.2123ZM122.683 77.1498C122.376 77.1446 122.074 77.1759 121.777 77.2436C121.178 73.4207 121.23 69.5352 121.105 65.6759C121.261 66.7123 121.423 67.7488 121.605 68.7852C121.99 71.5873 122.834 74.3477 122.943 77.1811C122.86 77.1602 122.771 77.1498 122.683 77.1498ZM122.152 110.301C122.183 110.853 122.209 111.41 122.225 111.962C122.183 112.035 122.136 112.108 122.089 112.181C122.11 111.556 122.131 110.926 122.152 110.301ZM122.094 79.0457C122.136 79.0352 122.173 79.03 122.214 79.0248C122.23 79.0196 122.24 79.0196 122.256 79.0196C122.261 79.1967 122.24 79.3686 122.183 79.5352C122.152 79.3738 122.126 79.2071 122.094 79.0457ZM122.308 116.551V117.483C122.308 117.858 122.313 118.228 122.298 118.603C122.282 118.941 122.266 119.28 122.251 119.619C122.126 119.764 122.001 119.915 121.876 120.066C121.891 119.082 121.912 118.098 121.938 117.113C122.063 116.926 122.183 116.738 122.308 116.551ZM121.803 133.796C121.792 133.806 121.787 133.816 121.777 133.822V133.686C121.787 133.723 121.792 133.759 121.803 133.796ZM121.178 39.0092C120.938 40.9154 120.548 42.8009 119.527 44.4571C119.334 43.9311 119.35 43.0561 118.641 42.9936C119.48 41.4988 120.35 40.0352 121.251 38.5769C121.225 38.7227 121.199 38.8686 121.178 39.0092ZM115.756 115.025C115.709 115.098 115.657 115.165 115.61 115.238C115.626 114.941 115.641 114.65 115.657 114.353C115.855 114.077 116.053 113.796 116.266 113.53C116.318 113.473 116.365 113.415 116.412 113.358C116.376 113.624 116.344 113.884 116.308 114.15C116.12 114.447 115.933 114.744 115.745 115.04C115.751 115.035 115.751 115.03 115.756 115.025ZM116.105 75.5352V75.53C116.131 75.9154 116.157 76.3009 116.188 76.6915C116.261 77.7696 116.334 78.8582 116.407 79.9519C116.433 80.3217 116.459 80.6967 116.485 81.0665C115.787 81.7748 115.11 82.5092 114.464 83.2696C114.62 80.6134 115.475 78.0977 116.105 75.5352ZM114.615 67.2696C114.719 66.9154 114.829 66.5561 114.933 66.2019C114.881 66.5404 114.829 66.8842 114.777 67.2227C114.725 67.2384 114.667 67.254 114.615 67.2696ZM114.339 51.7279C115.548 49.3686 116.636 46.7071 118.162 44.4675C118.865 48.2332 115.355 51.3582 113.928 54.6654C114.094 53.7071 114.699 52.6967 114.339 51.7279ZM118.662 79.0769C118.298 73.0561 117.808 67.2852 117.303 61.2123C118.907 66.7904 119.344 72.5509 119.673 78.3165C119.329 78.5613 118.99 78.8165 118.662 79.0769ZM119.876 80.2384C119.99 81.3113 120.105 82.3842 120.225 83.4571C120.225 83.4623 120.225 83.4675 120.23 83.4727C120.037 83.2904 119.818 83.1602 119.568 83.0873C119.35 83.03 119.126 83.0196 118.902 83.0561L118.896 82.9623C118.86 82.3425 118.824 81.7175 118.787 81.0977C119.141 80.8009 119.506 80.5144 119.876 80.2384ZM118.282 122.52C118.443 122.296 118.6 122.066 118.756 121.843C118.844 122.176 118.949 122.499 119.053 122.832C119.105 123.004 119.157 123.176 119.209 123.353C118.745 123.931 118.282 124.509 117.824 125.093C117.798 125.124 117.771 125.16 117.745 125.197C117.699 125.025 117.652 124.853 117.605 124.681C117.527 124.395 117.443 124.103 117.365 123.816C117.673 123.384 117.98 122.952 118.282 122.52ZM117.407 118.395C117.527 117.733 117.469 117.004 117.699 116.389C117.756 116.858 117.824 117.327 117.902 117.79C117.735 117.988 117.568 118.186 117.407 118.395ZM116.959 97.9259C116.886 99.2019 116.771 100.473 116.579 101.738C116.553 101.796 116.521 101.853 116.49 101.91C116.568 101.129 116.641 100.343 116.709 99.5561C116.803 98.5456 116.896 97.5404 117.001 96.5352C116.99 97.004 116.975 97.4779 116.954 97.9467C116.954 97.9415 116.954 97.9311 116.959 97.9259ZM117.365 106.035C117.188 107.384 117.011 108.733 116.839 110.082C116.49 110.514 116.141 110.941 115.792 111.369C115.761 109.395 116.048 107.582 117.365 106.035ZM118.99 62.1915C118.886 61.7227 118.777 61.254 118.646 60.7852C118.605 60.6394 118.568 60.4884 118.527 60.3373C118.673 60.2957 118.777 60.2071 118.85 60.0769C118.917 59.9467 118.98 59.8217 119.048 59.6915C119.021 60.4363 118.99 61.1759 118.99 61.9154C118.99 62.0092 118.99 62.0977 118.99 62.1915ZM119.589 50.8477C119.469 53.4571 118.355 55.8634 117.818 58.405C117.813 58.3946 117.808 58.3842 117.803 58.3686C117.719 58.2279 117.626 58.0925 117.521 57.9675C118.037 55.5404 118.85 53.155 119.594 50.7957C119.589 50.8113 119.589 50.8321 119.589 50.8477ZM116.626 83.1238C116.636 83.2852 116.646 83.4467 116.652 83.6029C116.704 84.5352 116.756 85.4675 116.808 86.3946C114.839 87.8946 115.943 92.0925 113.949 93.7956C113.933 91.1759 113.943 88.5352 114.141 85.9259C114.938 84.9467 115.745 84.0352 116.626 83.1238ZM116.063 131.046C116.605 131.093 117.11 130.801 117.511 130.452C117.876 131.238 118.454 132.113 119.303 132.389C119.204 132.629 119.11 132.869 119.011 133.108C118.032 132.577 117.042 132.056 116.058 131.53C116.058 131.369 116.058 131.202 116.063 131.046ZM119.292 113.91L119.412 113.723C119.469 114.374 119.521 115.025 119.574 115.676C119.574 115.671 119.574 115.665 119.568 115.66C119.574 115.707 119.574 115.749 119.579 115.79C119.574 115.796 119.574 115.796 119.568 115.801C119.527 115.488 119.48 115.176 119.433 114.869C119.381 114.546 119.334 114.228 119.292 113.91ZM119.709 128.238L119.714 128.233L119.719 128.707C119.631 128.65 119.537 128.587 119.443 128.53C119.532 128.436 119.62 128.337 119.709 128.238ZM119.245 107.389C119.173 107.353 119.089 107.322 119.011 107.29C118.928 107.254 118.839 107.238 118.745 107.233C118.85 106.384 118.959 105.53 119.063 104.676C119.173 103.796 119.282 102.915 119.396 102.03C119.688 101.738 119.98 101.452 120.282 101.171C120.193 102.973 120.115 104.77 120.042 106.572C119.777 106.843 119.506 107.103 119.245 107.389ZM119.183 37.5769C117.053 41.0977 114.745 44.5769 112.766 48.1967C114.204 43.9519 116.673 40.3477 119.558 36.9519C119.433 37.1602 119.308 37.3686 119.183 37.5769ZM115.329 54.8477C114.006 58.2175 112.818 61.6498 111.631 65.0665C111.428 65.655 111.235 66.254 111.042 66.8529C111.105 66.5925 111.152 66.3217 111.183 66.0561C111.204 65.8269 111.115 65.655 110.917 65.5352C111.798 61.6863 113.053 58.0977 115.329 54.8477ZM111.334 73.8894C111.136 74.5613 110.938 75.2279 110.74 75.8946C109.829 78.9519 108.876 81.9988 107.907 85.0352C108.896 81.3009 109.891 77.4675 111.334 73.8894ZM110.074 82.3738C111.745 78.1811 112.115 73.1759 114.449 69.3998C114.428 69.5613 114.412 69.7227 114.391 69.879C114.303 70.629 114.204 71.379 114.115 72.1238C112.329 79.9779 109.803 87.5925 106.548 94.9571C106.969 90.6029 108.98 86.5977 110.074 82.3738ZM107.782 114.363C107.886 112.556 108.36 110.994 109.501 109.577C109.438 110.181 109.381 110.79 109.329 111.4C109.318 112.551 108.277 113.369 107.782 114.363ZM108.636 120.384C108.605 120.91 108.568 121.431 108.532 121.957C108.256 122.452 108.021 122.962 107.818 123.488C107.782 123.415 107.751 123.343 107.719 123.264C107.589 122.848 107.464 122.426 107.334 122.004C107.782 121.499 108.235 120.941 108.636 120.384ZM107.766 102.77C107.662 102.744 107.548 102.733 107.438 102.733C107.199 102.738 106.969 102.801 106.761 102.921C107.662 100.707 108.579 98.4988 109.417 96.2696C109.365 96.5613 109.313 96.8529 109.266 97.1446C108.808 99.0404 108.959 101.155 107.766 102.77ZM109.365 103.941C109.423 103.566 109.485 103.191 109.542 102.816C109.818 102.353 110.094 101.889 110.37 101.426C110.162 102.441 110.355 103.613 109.829 104.52C109.792 104.468 109.751 104.421 109.714 104.374C109.6 104.228 109.485 104.082 109.365 103.941ZM111.594 117.103C111.725 116.129 111.907 115.207 112.516 114.41C112.62 114.702 112.725 114.999 112.829 115.296C112.407 115.895 112.006 116.499 111.594 117.103ZM113.016 118.129C113.011 118.473 113.001 118.816 112.995 119.16C112.277 120.207 111.516 121.233 110.709 122.218C111.094 120.723 112.282 119.494 113.016 118.129ZM110.787 97.8738C110.719 98.2592 110.365 98.5561 110.183 98.8998C110.673 95.9259 111.183 92.9571 111.714 89.9936C111.782 89.78 111.855 89.5717 111.928 89.3634C111.511 92.1967 111.126 95.0404 110.787 97.8738ZM110.141 126.191C110.167 126.02 110.193 125.853 110.214 125.681C111.339 125.009 112.141 123.931 112.985 122.952C112.985 123.363 112.99 123.775 112.995 124.186C112.058 125.499 111.048 126.764 110.183 128.129C109.969 127.744 109.761 127.353 109.558 126.968C109.891 126.811 110.089 126.556 110.141 126.191ZM113.173 129.275C113.188 129.53 113.199 129.785 113.214 130.04C113.214 130.04 113.214 130.04 113.214 130.046C113.037 129.952 112.86 129.869 112.683 129.78C112.85 129.613 113.021 129.447 113.173 129.275ZM107.714 106.113C107.579 108.306 106.771 110.077 105.407 111.796C105.428 109.718 106.912 107.999 107.714 106.113ZM107.324 126.426C107.006 126.098 106.693 125.77 106.381 125.447C106.386 125.108 106.386 124.77 106.417 124.441C106.688 125.051 106.975 125.66 107.266 126.254C107.287 126.311 107.303 126.369 107.324 126.426ZM105.85 117.447C105.73 117.098 105.615 116.749 105.49 116.4C105.48 115.978 105.459 115.556 105.449 115.134C105.506 115.077 105.563 115.025 105.62 114.968C105.902 114.665 106.162 114.353 106.417 114.03C106.235 115.16 106.053 116.285 105.87 117.415C105.865 117.426 105.855 117.436 105.85 117.447ZM107.344 129.691C106.855 129.02 106.391 128.332 105.933 127.639C106.798 128.207 107.646 128.785 108.256 129.613C108.376 129.744 108.527 129.816 108.704 129.837C108.881 129.858 109.042 129.816 109.188 129.718C110.589 132.025 112.266 134.108 114.209 135.978C111.652 134.176 109.365 132.082 107.344 129.691ZM111.745 130.738C112.266 130.994 112.792 131.249 113.318 131.514C113.355 131.936 113.417 132.358 113.501 132.775C113.662 133.775 114.902 134.066 115.574 133.4C115.714 133.228 115.824 133.035 115.891 132.822C116.798 133.29 117.704 133.754 118.615 134.223C118.532 134.546 118.641 134.78 118.933 134.936C118.719 135.848 118.86 136.733 119.912 136.915C119.876 137.655 120.037 138.712 121.006 138.587C122.126 138.379 121.699 137.051 121.761 136.244C121.949 136.124 122.136 135.994 122.318 135.863C122.365 135.879 122.407 135.9 122.454 135.915C123.355 138.093 124.719 139.561 126.396 140.478C120.365 139.426 114.923 136.046 111.745 130.738ZM126.24 141.9C126.646 141.957 127.042 142.025 127.459 142.061C127.516 142.15 127.584 142.233 127.662 142.306C127.188 142.176 126.709 142.046 126.24 141.9ZM127.652 109.707C128.214 109.207 128.777 108.707 129.334 108.207C128.829 109.29 128.329 110.379 127.844 111.478C127.782 110.889 127.719 110.296 127.652 109.707ZM128.485 117.54C128.646 117.145 128.813 116.744 128.98 116.343C129.631 115.441 130.287 114.546 130.938 113.645C130.943 113.676 130.949 113.712 130.954 113.744C130.162 115.337 129.376 116.931 128.579 118.52C128.548 118.197 128.516 117.869 128.485 117.54ZM128.818 120.91C129.626 119.296 130.417 117.681 131.209 116.061C131.209 116.066 131.214 116.072 131.214 116.082C131.287 116.775 131.35 117.478 131.407 118.181C130.553 119.212 129.699 120.238 128.86 121.28C128.844 121.155 128.834 121.035 128.818 120.91ZM130.662 130.968C130.438 131.29 130.209 131.619 129.995 131.952C129.964 131.749 129.943 131.546 129.917 131.337C130.548 129.926 131.183 128.52 131.803 127.103C131.803 127.879 131.803 128.655 131.771 129.431C131.396 129.931 131.016 130.441 130.662 130.968ZM131.271 133.697C131.141 134.212 131.068 134.655 130.808 135.16L130.673 135.103C130.652 135.046 130.626 134.988 130.6 134.931C130.542 134.764 130.495 134.593 130.449 134.421C130.725 134.186 131.001 133.941 131.271 133.697ZM129.131 124.014C129.115 123.869 129.1 123.723 129.084 123.582C129.584 122.952 130.089 122.327 130.6 121.707C130.928 121.311 131.256 120.91 131.584 120.514C131.589 120.572 131.589 120.629 131.594 120.686C130.74 121.78 129.949 122.9 129.131 124.014ZM128.902 142.665C129.058 142.593 129.178 142.483 129.261 142.337L129.266 142.332C129.313 142.343 129.36 142.348 129.412 142.353C129.751 142.4 130.089 142.441 130.433 142.483C130.376 142.665 130.386 142.843 130.454 143.02C129.933 142.905 129.417 142.796 128.902 142.665ZM131.204 140.306C130.735 140.296 130.266 140.259 129.798 140.191C129.839 139.712 129.865 139.228 129.87 138.744C129.938 138.728 130.001 138.707 130.063 138.676C130.141 138.639 130.209 138.593 130.266 138.535C130.74 138.853 131.214 139.165 131.693 139.483C131.516 139.749 131.365 140.03 131.204 140.306ZM132.542 138.233C132.23 138.02 131.923 137.801 131.61 137.587C131.969 137.733 132.329 137.879 132.693 138.014C132.641 138.087 132.594 138.16 132.542 138.233ZM135.454 136.983C135.579 136.806 135.709 136.624 135.834 136.447C135.975 136.415 136.115 136.389 136.256 136.353C136.261 136.41 136.271 136.473 136.292 136.53C136.318 136.619 136.36 136.707 136.412 136.785C136.23 136.869 136.084 136.988 135.969 137.155C135.798 137.098 135.626 137.04 135.454 136.983ZM135.844 139.061C135.558 139.348 135.266 139.624 134.975 139.9C134.615 139.655 134.256 139.41 133.896 139.165C134.032 138.973 134.173 138.775 134.308 138.582C134.423 138.619 134.532 138.655 134.646 138.691C135.042 138.816 135.443 138.941 135.844 139.061ZM136.318 128.504C136.626 128.16 136.933 127.816 137.235 127.468C137.35 128.405 137.454 129.343 137.537 130.285C137.287 130.525 137.042 130.77 136.792 131.004C136.678 130.415 136.568 129.827 136.454 129.238C136.412 128.994 136.365 128.749 136.318 128.504ZM136.657 108.29C136.574 108.014 136.506 107.733 136.423 107.452C136.673 107.228 136.933 107.02 137.193 106.801C137.011 107.296 136.834 107.796 136.657 108.29ZM136.594 122.889C136.605 122.962 136.615 123.035 136.626 123.108C136.271 123.551 135.923 123.994 135.579 124.441C135.391 123.4 135.199 122.363 135.011 121.322C135.381 120.832 135.751 120.343 136.115 119.853C136.282 120.863 136.443 121.874 136.594 122.889ZM135.152 130.921C135.24 131.374 135.329 131.822 135.417 132.275C134.99 132.645 134.537 132.983 134.094 133.332C134.449 132.53 134.798 131.723 135.152 130.921ZM133.766 126.785C133.766 126.707 133.766 126.629 133.766 126.551C133.766 125.66 133.782 124.759 133.771 123.863C133.923 124.639 134.074 125.415 134.219 126.191C134.068 126.389 133.917 126.587 133.766 126.785ZM135.277 134.384C135.339 134.332 135.396 134.285 135.459 134.233C135.1 134.723 134.745 135.207 134.391 135.697C133.959 135.785 133.521 135.843 133.089 135.91C133.85 135.447 134.579 134.936 135.277 134.384ZM138.089 144.087C136.485 143.999 134.881 143.811 133.287 143.561C133.631 143.358 133.964 143.134 134.282 142.884C135.225 142.915 136.902 143.369 137.089 142.04C138.12 142.53 139.324 142.52 140.443 142.468C139.938 145.572 151.777 141.603 153.662 141.306C154.423 141.014 155.199 140.77 155.99 140.572C150.657 143.165 144.615 144.405 138.089 144.087ZM137.798 118.988C137.865 119.259 137.933 119.525 138.001 119.79C137.985 119.837 137.964 119.889 137.949 119.936C137.896 119.619 137.85 119.306 137.798 118.988ZM138.938 117.056C138.87 116.796 138.808 116.53 138.745 116.27C139.032 115.874 139.318 115.473 139.605 115.077C139.386 115.738 139.162 116.4 138.938 117.056ZM139.428 125.363C139.256 125.874 139.105 126.395 138.933 126.905C138.886 126.494 138.834 126.077 138.782 125.66C138.85 125.582 138.912 125.499 138.98 125.421C139.094 125.27 139.214 125.124 139.329 124.978C139.36 125.108 139.396 125.233 139.428 125.363ZM154.318 97.8738C154.396 98.3894 154.475 98.9102 154.553 99.4259C154.318 100.337 154.079 101.244 153.818 102.145C153.678 102.353 153.542 102.561 153.396 102.764L153.058 103.259C152.844 102.124 152.553 101.009 152.167 99.9154C152.881 99.2279 153.594 98.5456 154.318 97.8738ZM153.115 93.3009C153.23 92.9102 153.339 92.5196 153.449 92.129C153.454 92.1706 153.459 92.2071 153.464 92.2488C153.485 92.3738 153.501 92.4988 153.521 92.629C153.365 92.8738 153.23 93.0977 153.115 93.3009ZM159.428 93.5144C158.813 94.5717 158.131 95.5977 157.464 96.6238C157.433 96.6706 157.402 96.7123 157.37 96.7592C157.334 96.6238 157.303 96.4831 157.266 96.3477C157.928 95.3009 158.266 94.1342 159.428 93.5144ZM157.313 90.53C157.334 90.4623 157.355 90.3946 157.37 90.3321C157.417 90.1811 157.459 90.0352 157.501 89.8842C157.449 90.1134 157.391 90.3425 157.339 90.5717C157.329 90.5561 157.324 90.5404 157.313 90.53ZM160.11 83.7227C160.235 83.5457 160.37 83.379 160.506 83.2123C160.537 83.1759 160.574 83.1394 160.605 83.1029C160.798 83.8738 161.058 84.629 161.318 85.3842C161.646 86.3477 162.011 87.3061 162.37 88.2592C162.391 88.3113 162.412 88.3686 162.433 88.4259C161.657 88.4467 161.407 89.2644 161.454 89.9154H161.449C161.1 89.7696 160.714 89.629 160.344 89.6967C160.167 89.7331 159.985 89.7748 159.813 89.8269C160.256 87.8738 161.256 85.5925 160.11 83.7227ZM171.704 121.072C171.896 121.249 172.12 121.363 172.381 121.415C172.579 121.436 172.771 121.415 172.959 121.363C173.053 121.613 173.193 121.843 173.37 122.04C171.131 126.405 167.751 130.056 164.006 133.244C166.579 129.181 169.277 125.218 171.704 121.072ZM165.355 102.91C165.443 102.775 165.532 102.645 165.62 102.509C165.704 102.816 165.792 103.124 165.876 103.431C165.99 103.848 166.105 104.264 166.225 104.681C166.193 104.728 166.162 104.775 166.131 104.822C165.975 104.957 165.818 105.087 165.662 105.218C165.579 104.587 165.495 103.957 165.407 103.322C165.391 103.186 165.37 103.046 165.355 102.91ZM174.042 107.296C174.068 107.879 174.094 108.462 174.115 109.04C174.131 109.296 174.136 109.551 174.141 109.801C173.24 109.468 172.339 110.051 171.563 110.462C171.761 110.066 171.959 109.671 172.157 109.27C172.391 108.801 172.62 108.337 172.834 107.858C172.959 107.785 173.089 107.712 173.219 107.639C173.49 107.509 173.761 107.4 174.042 107.296ZM173.699 105.431C173.771 105.134 173.818 104.837 173.839 104.54C173.865 104.811 173.891 105.087 173.912 105.358C173.839 105.384 173.771 105.405 173.699 105.431ZM176.912 109.238C176.964 109.056 177.011 108.874 177.042 108.691V108.681C177.105 108.655 177.162 108.624 177.214 108.587C177.157 108.926 177.094 109.27 177.037 109.608C177.016 109.551 176.99 109.494 176.975 109.436C176.98 109.447 176.98 109.457 176.985 109.468C176.959 109.389 176.938 109.316 176.912 109.238ZM176.829 106.27C176.792 106.218 176.756 106.16 176.714 106.108C176.574 105.931 176.412 105.77 176.23 105.634C176.068 104.764 175.943 103.884 175.813 103.009C176.235 102.733 176.662 102.478 177.11 102.244C177.141 102.233 177.251 102.181 177.36 102.134C177.334 103.514 177.23 104.9 176.829 106.27ZM176.558 101.171C176.24 101.332 175.928 101.509 175.626 101.707C175.464 100.577 175.308 99.4415 175.126 98.3009C174.975 97.3373 174.818 96.3686 174.657 95.4102C174.766 95.4831 174.881 95.5509 175.001 95.6081C175.178 95.6863 175.36 95.7331 175.553 95.7384C175.787 95.7696 176.011 95.7279 176.219 95.6081C176.636 97.3373 177.048 99.0717 177.355 100.822C177.084 100.926 176.824 101.046 176.558 101.171ZM175.105 123.316C175.089 123.358 175.068 123.4 175.053 123.436C174.673 124.4 174.209 125.316 173.657 126.191C173.636 126.009 173.568 125.843 173.459 125.697C174.001 124.9 174.542 124.098 175.105 123.316ZM175.516 94.0352C175.506 94.0873 175.495 94.1446 175.485 94.2019V94.2071C174.771 93.6706 174.35 92.7956 174.058 91.9675C174.355 92.3269 174.652 92.6915 174.943 93.0561C175.141 93.3113 175.334 93.5717 175.516 93.8321C175.521 93.8998 175.516 93.9675 175.516 94.0352ZM171.032 115.947C170.798 115.145 170.579 114.332 170.355 113.525C170.766 113.212 171.188 112.905 171.61 112.603C171.876 112.426 172.141 112.254 172.417 112.093C172.725 111.936 173.037 111.785 173.36 111.655C173.35 111.681 173.344 111.712 173.334 111.744C173.204 112.119 173.053 112.494 172.886 112.858C172.318 113.921 171.688 114.941 171.032 115.947ZM172.662 119.389C172.657 119.514 172.646 119.639 172.652 119.764C172.631 119.775 172.615 119.785 172.594 119.796C172.563 119.759 172.537 119.718 172.501 119.681C172.558 119.582 172.61 119.488 172.662 119.389ZM168.063 117.593C167.907 117.754 167.756 117.921 167.605 118.082C168.048 117.035 168.574 116.035 169.183 115.077C169.423 115.915 169.673 116.754 169.949 117.582C169.745 117.895 169.521 118.197 169.313 118.504C169.501 117.723 169.282 117.218 168.063 117.593ZM166.792 114.186C166.751 114.228 166.704 114.27 166.662 114.311C166.62 113.796 166.574 113.28 166.527 112.77C167.053 112.301 167.574 111.837 168.105 111.374C168.235 111.822 168.365 112.264 168.49 112.707C167.912 113.191 167.344 113.681 166.792 114.186ZM166.964 120.749C166.844 120.994 166.714 121.238 166.594 121.483C166.61 121.389 166.62 121.296 166.641 121.202C166.751 121.051 166.87 120.895 166.964 120.749ZM167.548 88.6394C167.73 89.1811 167.917 89.7227 168.089 90.2644C167.964 90.3634 167.844 90.4623 167.719 90.5665C167.693 90.5873 167.667 90.6081 167.646 90.629C167.673 89.8738 167.438 89.0404 166.829 88.5561C166.824 87.9727 166.813 87.3894 166.803 86.8113C167.089 87.4363 167.329 88.0665 167.563 88.7019C167.558 88.6811 167.553 88.6602 167.548 88.6394ZM168.558 92.004L168.563 91.9988C168.699 92.6446 168.808 93.2956 168.881 93.9519C168.626 94.3477 168.365 94.7384 168.105 95.129C167.782 95.6238 167.464 96.1134 167.141 96.6081C167.032 96.3269 166.923 96.0456 166.818 95.7592C166.662 95.3061 166.469 94.7644 166.282 94.2175C166.704 93.2019 167.761 92.7123 168.558 92.004ZM169.6 99.3946C169.396 99.7227 169.183 100.051 168.98 100.384C168.792 100.671 168.61 100.957 168.423 101.249C168.105 101.754 167.782 102.254 167.459 102.759C167.454 102.738 167.449 102.712 167.438 102.691C167.261 101.999 167.079 101.301 166.891 100.608C167.152 100.369 167.423 100.124 167.678 99.8998C168.334 100.186 169.136 99.9154 169.6 99.3946ZM166.563 110.124C166.829 109.676 167.1 109.228 167.365 108.78C167.407 108.926 167.449 109.072 167.49 109.218C167.094 109.676 166.704 110.129 166.308 110.587C166.308 110.577 166.308 110.566 166.303 110.556C166.391 110.415 166.48 110.27 166.563 110.124ZM169.454 110.244C169.6 110.124 169.745 110.009 169.896 109.889C169.782 110.129 169.667 110.363 169.553 110.603C169.521 110.483 169.485 110.363 169.454 110.244ZM168.777 107.749C168.693 107.436 168.61 107.119 168.527 106.806C169.001 105.973 169.485 105.15 169.959 104.316C170.386 104.077 170.818 103.806 171.344 103.723C171.527 103.702 171.704 103.707 171.881 103.738C171.969 103.999 172.001 104.27 171.98 104.546C170.86 105.556 169.792 106.634 168.777 107.749ZM173.641 103.119C173.37 102.119 172.277 101.77 171.334 101.837C172.037 100.53 172.641 99.1446 172.792 97.6602C172.933 98.3113 173.074 98.9623 173.214 99.6134C173.381 100.77 173.527 101.931 173.678 103.093C173.662 103.098 173.652 103.108 173.641 103.119ZM173.308 88.504C173.053 88.405 172.798 88.3946 172.537 88.4675C172.24 87.6811 171.964 86.9675 171.699 86.1654C172.146 86.6967 172.563 87.2488 172.969 87.8217C173.084 88.004 173.266 88.2852 173.443 88.5665C173.396 88.5456 173.35 88.5248 173.308 88.504ZM171.777 93.0092C171.782 92.9936 171.792 92.9727 171.803 92.9571C171.808 92.9779 171.813 92.9988 171.813 93.0196C171.975 93.78 172.089 94.4102 172.261 95.1967C172.261 95.2019 172.261 95.2019 172.261 95.2019C172.021 95.0821 171.771 95.0509 171.511 95.1134C171.282 95.1706 171.042 95.2175 170.803 95.28C170.813 95.0509 170.813 94.8165 170.813 94.5873C171.152 94.0717 171.485 93.5509 171.777 93.0092ZM170.876 90.7071C170.891 90.6654 170.907 90.6342 170.923 90.5925C170.777 90.8634 170.631 91.129 170.475 91.3946C170.433 91.1759 170.391 90.9623 170.344 90.7488C170.433 90.6967 170.521 90.6446 170.61 90.5977C170.584 90.6134 170.563 90.629 170.537 90.6394C170.626 90.5977 170.714 90.5613 170.803 90.5196C170.86 90.4988 170.923 90.4831 170.98 90.4623C170.949 90.5456 170.912 90.6238 170.876 90.7071ZM169.907 89.0144C169.256 87.129 168.876 84.4259 166.662 83.8113C166.626 83.3477 166.548 82.8894 166.433 82.4415C166.37 82.2123 166.313 81.9727 166.23 81.7436C166.751 82.0352 167.261 82.3425 167.761 82.6707C168.298 83.03 168.808 83.4102 169.303 83.8165C169.469 85.5196 170.235 87.0769 170.886 88.6342C170.553 88.7384 170.225 88.8686 169.907 89.0144ZM163.641 121.587C163.459 121.066 163.292 120.535 163.141 120.009C163.568 119.598 163.99 119.186 164.417 118.775C164.605 118.587 164.792 118.4 164.985 118.218C165.219 119.551 164.251 120.556 163.678 121.676C163.667 121.645 163.652 121.608 163.641 121.577C163.641 121.582 163.641 121.582 163.641 121.587ZM164.271 116.514C163.719 117.056 163.183 117.593 162.636 118.124C162.553 117.806 162.469 117.488 162.391 117.165C162.813 116.593 163.24 116.025 163.683 115.468C164.037 115.124 164.386 114.78 164.74 114.431C164.782 114.936 164.824 115.441 164.865 115.947C164.662 116.134 164.464 116.322 164.271 116.514ZM161.141 109.15C161.99 107.91 162.829 106.671 163.667 105.421C163.735 105.889 163.798 106.353 163.865 106.816C163.235 107.395 162.62 107.988 162.016 108.593C161.548 109.056 161.084 109.525 160.615 109.994C160.61 109.973 160.605 109.952 160.6 109.936C160.782 109.671 160.959 109.41 161.141 109.15ZM161.115 103.275C161.725 102.181 162.303 101.072 162.87 99.9519C162.938 100.405 163.006 100.853 163.074 101.301C162.423 101.962 161.766 102.624 161.115 103.275ZM163.256 112.452C162.782 113.254 162.298 114.051 161.803 114.843C161.782 114.759 161.761 114.681 161.745 114.598C162.251 113.884 162.756 113.171 163.256 112.452ZM161.959 111.093C161.803 111.316 161.646 111.546 161.49 111.77C161.381 111.926 161.271 112.087 161.162 112.244C161.141 112.145 161.115 112.051 161.094 111.952C161.381 111.665 161.673 111.379 161.959 111.093ZM161.896 121.29C161.98 121.561 162.068 121.837 162.157 122.108C162.303 122.556 162.48 122.994 162.688 123.415C162.615 123.54 162.542 123.66 162.469 123.785C161.876 124.426 161.266 125.056 160.631 125.655C160.48 125.801 160.318 125.936 160.167 126.082C160.12 125.145 160.063 124.207 160.021 123.27C160.193 123.072 160.37 122.879 160.553 122.691C161.001 122.228 161.449 121.759 161.896 121.29ZM163.714 86.8061C163.173 85.1654 162.516 83.5352 162.303 81.8165C162.501 81.7436 162.709 81.7019 162.917 81.6967C164.298 81.8894 164.266 83.6915 164.464 84.8113C164.089 85.4259 163.834 86.0925 163.714 86.8061ZM161.865 93.1967C161.87 93.2436 161.881 93.2904 161.886 93.3373C161.99 94.0456 162.094 94.7592 162.199 95.4675C160.824 96.7956 159.396 98.0769 158.053 99.4519C158.048 99.4363 158.048 99.4206 158.042 99.405C159.339 97.3634 160.792 95.3738 161.865 93.1967ZM157.308 117.712C157.006 118.124 156.709 118.54 156.407 118.952C156.303 118.452 156.204 117.957 156.1 117.457C156.433 117.066 156.771 116.671 157.105 116.275C157.11 116.327 157.12 116.379 157.126 116.431C157.183 116.858 157.245 117.285 157.308 117.712ZM156.808 129.02C156.646 129.15 156.485 129.29 156.318 129.421C156.396 128.796 156.423 128.171 156.407 127.546C156.423 127.525 156.438 127.504 156.454 127.483L156.459 127.478C156.6 127.978 156.709 128.499 156.808 129.02ZM156.48 112.41C156.115 112.941 155.745 113.473 155.376 113.999C155.324 113.759 155.271 113.514 155.219 113.275C155.61 112.645 155.995 112.014 156.386 111.379C156.433 111.702 156.48 112.02 156.527 112.337C156.511 112.363 156.495 112.384 156.48 112.41ZM156.266 86.629C155.969 87.5769 155.714 88.5404 155.469 89.5092C155.376 89.1238 155.178 88.8061 154.87 88.5561C155.068 88.2071 155.277 87.8634 155.49 87.5196C155.719 87.1654 156.037 86.7331 156.36 86.3217C156.329 86.4206 156.298 86.5248 156.266 86.629ZM155.277 104.113C155.412 105.004 155.548 105.895 155.683 106.78C155.204 107.488 154.73 108.191 154.251 108.895C154.146 108.426 154.037 107.962 153.933 107.494C154.235 106.52 154.537 105.54 154.834 104.561C154.985 104.41 155.131 104.264 155.277 104.113ZM152.001 123.572C151.949 123.316 151.891 123.061 151.839 122.806C152.36 122.103 152.912 121.421 153.438 120.723C153.563 120.566 153.688 120.405 153.813 120.244C153.912 120.869 154.001 121.494 154.068 122.119C154.068 122.119 154.068 122.124 154.074 122.124C154.063 122.134 154.053 122.15 154.048 122.16C153.433 122.947 152.818 123.733 152.204 124.525C152.131 124.197 152.063 123.869 151.995 123.546C151.995 123.556 152.001 123.561 152.001 123.572ZM150.001 113.931C149.855 113.244 149.709 112.551 149.558 111.858C149.542 111.806 149.532 111.749 149.521 111.691C150.256 110.671 150.995 109.65 151.735 108.634C151.74 108.665 151.751 108.702 151.756 108.738C151.178 110.473 150.589 112.207 150.001 113.931ZM150.975 117.686C150.928 117.764 150.881 117.837 150.834 117.915L150.829 117.879C150.876 117.811 150.923 117.749 150.975 117.686ZM149.803 138.259C149.282 138.483 148.761 138.702 148.24 138.926C148.027 137.723 148.396 136.629 149.016 135.65C149.355 135.457 149.688 135.259 150.027 135.056C149.62 136.098 149.339 137.202 149.803 138.259ZM146.704 138.936C145.428 139.056 144.157 139.009 142.896 138.796C143.167 138.676 143.438 138.556 143.704 138.431C144.777 138.91 145.844 138.124 146.73 137.572C146.688 137.822 146.673 138.072 146.678 138.322C146.683 138.52 146.683 138.728 146.704 138.936ZM141.454 136.999C141.824 136.941 142.178 136.843 142.516 136.707C142.527 136.936 142.579 137.16 142.683 137.374C141.923 137.697 141.162 138.014 140.396 138.316C140.381 138.311 140.365 138.311 140.355 138.306C140.756 137.9 141.126 137.462 141.454 136.999ZM140.876 124.973C141.235 123.863 141.605 122.759 141.975 121.655C142.225 121.348 142.469 121.035 142.714 120.728C142.808 121.348 142.886 121.968 142.975 122.587C142.605 123.624 142.225 124.655 141.834 125.681C141.631 125.91 141.428 126.139 141.225 126.369C141.11 125.905 140.995 125.436 140.876 124.973ZM142.1 128.645C142.271 128.244 142.459 127.848 142.62 127.441C142.85 127.155 143.074 126.869 143.303 126.582C142.896 127.264 142.49 127.957 142.1 128.645ZM146.725 135.468C145.907 135.884 145.079 136.285 144.24 136.671C144.115 136.316 144.365 135.822 144.407 135.468C145.146 134.884 145.85 134.264 146.516 133.603C146.782 133.337 147.048 133.072 147.308 132.801C147.381 133.014 147.469 133.218 147.574 133.415C147.667 133.598 147.782 133.764 147.917 133.915C147.933 133.931 147.943 133.947 147.959 133.962C147.87 134.155 147.782 134.343 147.693 134.535C147.381 134.853 147.053 135.165 146.725 135.468ZM145.949 120.738C145.844 120.264 145.74 119.79 145.636 119.316C146.131 117.879 146.615 116.441 147.084 114.994C147.199 114.843 147.313 114.691 147.428 114.54C147.646 115.723 147.855 116.91 148.058 118.098C147.73 118.535 147.402 118.973 147.058 119.389C146.688 119.837 146.318 120.29 145.949 120.738ZM146.714 130.811C146.693 130.816 146.673 130.822 146.657 130.832C146.667 130.806 146.683 130.78 146.699 130.754C146.704 130.775 146.709 130.796 146.714 130.811ZM147.777 128.905C148.256 128.145 148.73 127.379 149.209 126.613C149.245 127.129 149.271 127.65 149.292 128.171C148.949 128.582 148.6 128.994 148.251 129.395C148.256 129.389 148.256 129.384 148.261 129.374C148.162 129.488 148.063 129.598 147.969 129.707C147.902 129.441 147.839 129.171 147.777 128.905ZM148.126 105.54C148.386 104.952 148.61 104.348 148.876 103.759C148.735 104.254 148.594 104.754 148.449 105.249C148.376 105.504 148.303 105.754 148.235 106.009C148.199 105.853 148.162 105.697 148.126 105.54ZM149.074 108.691C149.162 108.405 149.251 108.119 149.339 107.827C149.818 106.343 150.204 104.79 150.589 103.238C150.787 104.145 150.99 105.046 151.183 105.973C150.558 106.936 149.855 107.843 149.074 108.691ZM148.532 131.712C148.527 131.697 148.521 131.676 148.516 131.66C148.511 131.645 148.506 131.634 148.501 131.624C148.501 131.624 148.506 131.629 148.506 131.634C148.501 131.613 148.49 131.587 148.485 131.566C148.745 131.28 149.011 130.988 149.266 130.702C149.245 131.014 149.214 131.327 149.173 131.639C149.042 131.869 148.917 132.093 148.798 132.322C148.704 132.108 148.61 131.895 148.521 131.681C148.527 131.691 148.527 131.702 148.532 131.712ZM153.225 116.52C153.251 116.665 153.271 116.811 153.298 116.952C153.063 117.285 152.829 117.619 152.594 117.957C152.146 118.593 151.704 119.254 151.24 119.889C151.235 119.858 151.225 119.822 151.219 119.79C151.886 118.702 152.553 117.608 153.225 116.52ZM154.292 130.556C154.277 130.665 154.256 130.775 154.235 130.879C154.225 130.915 154.219 130.947 154.209 130.978C154.1 131.051 153.995 131.134 153.886 131.212C154.021 130.994 154.157 130.775 154.292 130.556ZM151.657 90.1811C150.423 92.3581 149.318 94.6029 148.339 96.905C147.824 96.9311 147.334 97.0665 146.881 97.3165C147.058 96.7384 147.219 96.155 147.391 95.5717C148.99 92.5352 150.777 89.5456 151.782 86.2852C151.891 86.1759 152.006 86.0665 152.12 85.9571C152.157 85.9154 152.318 85.7852 152.485 85.6602C152.381 87.1967 152.105 88.7071 151.657 90.1811ZM147.298 99.3998C147.152 99.754 147.011 100.108 146.87 100.457C146.808 100.212 146.751 99.9675 146.678 99.7227C146.704 99.7123 146.725 99.6967 146.745 99.6863C146.917 99.5977 147.11 99.4988 147.298 99.3998ZM146.745 111.004C146.704 111.139 146.662 111.27 146.626 111.4C146.376 111.671 146.131 111.941 145.886 112.212C145.594 112.535 145.303 112.858 145.006 113.181C145.475 111.957 145.954 110.744 146.449 109.53C146.548 110.025 146.646 110.514 146.745 111.004ZM144.12 112.587C143.99 112.009 143.855 111.431 143.719 110.853C144.298 109.478 144.876 108.108 145.459 106.738C145.495 106.686 145.532 106.634 145.568 106.577C145.652 106.494 145.73 106.415 145.808 106.332C145.902 106.79 145.99 107.244 146.084 107.702C145.417 109.327 144.766 110.952 144.12 112.587ZM142.709 105.332C142.631 105.421 142.548 105.504 142.464 105.593C142.428 105.452 142.391 105.311 142.355 105.165C142.209 104.624 142.074 104.072 141.928 103.525C142.053 103.238 142.183 102.952 142.308 102.665C142.391 102.603 142.48 102.535 142.563 102.473C143.094 102.556 143.443 102.301 143.745 101.973C143.402 103.093 143.058 104.212 142.709 105.332ZM142.053 116.587C141.553 117.176 141.053 117.77 140.553 118.353C140.975 117.343 141.407 116.332 141.829 115.322C141.907 115.744 141.98 116.165 142.053 116.587ZM141.469 119.113C141.563 118.999 141.662 118.889 141.756 118.78C141.74 118.822 141.725 118.869 141.704 118.915C141.61 119.04 141.516 119.16 141.423 119.285C140.928 119.905 140.433 120.53 139.938 121.15C139.923 121.098 139.912 121.04 139.896 120.988C140.412 120.353 140.933 119.728 141.469 119.113ZM140.037 127.686C140.021 127.702 140.006 127.718 139.99 127.733C140.001 127.697 140.011 127.665 140.021 127.629C140.027 127.645 140.032 127.665 140.037 127.686ZM152.126 137.249C151.662 135.931 152.23 134.556 152.782 133.306C152.907 133.223 153.032 133.139 153.162 133.056C154.719 134.322 155.594 132.853 156.032 131.04C156.386 130.78 156.74 130.52 157.084 130.259C157.188 130.702 157.324 131.139 157.501 131.561C155.839 133.535 154.61 136.233 152.126 137.249ZM158.053 126.655C157.985 126.358 157.923 126.061 157.855 125.764C157.954 125.645 158.053 125.52 158.152 125.4C158.204 126.15 158.251 126.905 158.271 127.655C158.193 127.322 158.126 126.988 158.053 126.655ZM158.339 109.691C158.318 109.54 158.298 109.395 158.282 109.244C158.391 109.124 158.506 109.004 158.62 108.884C158.646 108.983 158.667 109.077 158.693 109.171C158.579 109.343 158.459 109.514 158.339 109.691ZM158.615 101.733C158.558 101.499 158.501 101.259 158.443 101.025C159.475 99.9936 160.548 99.0196 161.62 98.0404C160.667 99.4467 159.709 100.858 158.745 102.27C158.704 102.093 158.662 101.915 158.615 101.733ZM158.959 114.228C159.115 114.056 159.277 113.884 159.438 113.712C159.548 113.593 159.657 113.468 159.771 113.348C159.829 113.566 159.886 113.79 159.943 114.014C159.662 114.421 159.376 114.827 159.089 115.233C159.048 114.9 159.001 114.561 158.959 114.228ZM159.787 120.978C160.261 120.254 160.725 119.525 161.188 118.79C161.193 118.785 161.199 118.78 161.204 118.775C161.256 118.983 161.313 119.191 161.365 119.4C161.011 119.77 160.657 120.145 160.298 120.52C160.131 120.691 159.964 120.863 159.792 121.035C159.792 121.02 159.792 120.999 159.787 120.978ZM163.771 124.665C163.98 124.79 164.204 124.858 164.449 124.863C164.6 124.858 164.745 124.827 164.886 124.77C163.318 126.863 161.678 128.879 159.99 130.869C160.99 128.712 162.594 126.77 163.771 124.665ZM163.391 131.895C163.089 132.436 162.798 132.973 162.49 133.509C162.459 133.41 162.412 133.322 162.355 133.244C162.35 133.244 162.35 133.238 162.35 133.238C162.709 132.801 163.042 132.343 163.391 131.895ZM161.667 134.879C161.61 134.884 161.558 134.884 161.501 134.889C161.584 134.837 161.673 134.78 161.761 134.718C161.73 134.775 161.699 134.827 161.667 134.879ZM182.084 95.4727C182.183 95.7852 182.266 96.1029 182.355 96.4206C182.881 98.5717 182.834 100.78 182.537 103.02C182.433 102.379 182.183 101.806 181.787 101.29C181.589 100.337 181.771 99.0561 181.068 98.28C180.99 96.4415 180.907 94.6029 180.829 92.7644C181.355 93.6134 181.777 94.5144 182.084 95.4727ZM182.271 110.415C182.844 108.535 183.303 106.629 183.657 104.691C184.11 119.421 175.48 134.702 162.178 141.098C165.49 138.54 168.245 135.353 170.563 131.879C170.62 131.837 170.683 131.796 170.74 131.754C170.396 132.316 170.011 133.181 170.652 133.686C173.912 134.619 179.084 122.988 180.058 120.202C181.24 117.03 181.912 113.744 182.271 110.415ZM160.594 77.3686C168.73 77.7123 175.85 83.0456 179.777 90.0456C179.298 90.4675 179.402 91.9467 179.516 92.6915C178.928 89.879 177.521 87.6342 175.709 85.7175C175.662 85.5665 175.615 85.4207 175.568 85.2748C175.501 85.0613 175.376 84.8894 175.188 84.7592C175.006 84.629 174.798 84.5769 174.574 84.5925C174.563 84.5821 174.553 84.5717 174.542 84.5665C173.756 83.3217 172.485 81.6602 170.896 81.7904C169.818 81.0821 168.709 80.4102 167.605 79.78C167.449 79.6863 167.287 79.6654 167.115 79.7123C164.85 78.4519 162.298 77.754 160.699 79.9571C159.626 80.5925 158.798 81.5665 158.115 82.5977C156.709 82.6186 155.657 83.7227 154.834 84.754C154.673 83.9259 154.068 83.155 153.199 83.0404C155.037 81.8477 157.037 81.0717 159.199 80.7019C160.245 80.4207 160.037 78.879 159.011 78.7644C153.933 79.9102 147.886 80.8009 143.975 84.4936C148.24 79.9467 154.256 77.0509 160.594 77.3686ZM146.011 88.2019C145.662 88.655 145.344 89.129 145.011 89.5925C144.714 90.004 144.443 90.4206 144.167 90.8373C143.98 91.1081 143.808 91.3894 143.626 91.6654C143.563 91.5769 143.48 91.5144 143.386 91.4675C143.084 91.3477 142.813 91.3998 142.584 91.6342C142.553 91.6654 142.527 91.7071 142.501 91.7436C143.376 90.2696 144.542 89.0873 146.011 88.2019ZM142.667 96.1706C143.37 95.1446 144.089 94.129 144.813 93.1134C144.954 92.9206 145.094 92.7279 145.235 92.5404C144.021 95.1602 142.787 97.8009 141.912 100.556C141.902 100.582 141.896 100.613 141.886 100.639C141.761 100.733 141.636 100.832 141.511 100.931C141.412 101.009 141.313 101.087 141.214 101.16C141.193 101.014 141.152 100.869 141.084 100.733C141.365 99.9415 141.652 99.1498 141.928 98.3529C142.417 97.9259 142.6 97.3894 142.469 96.7488C142.537 96.5561 142.6 96.3634 142.667 96.1706ZM142.334 86.4102C141.803 87.4884 141.157 88.4936 140.396 89.4311C140.964 88.3738 141.61 87.3686 142.334 86.4102ZM140.37 107.577C140.386 107.66 140.407 107.749 140.423 107.837C140.204 108.077 139.985 108.322 139.766 108.566C139.949 108.139 140.131 107.707 140.313 107.28C140.334 107.379 140.355 107.478 140.37 107.577ZM139.928 105.322C139.1 107.254 138.266 109.191 137.438 111.124C137.423 111.061 137.402 110.999 137.386 110.936C138.136 108.884 138.891 106.827 139.636 104.77C139.688 104.728 139.74 104.686 139.792 104.639C139.839 104.869 139.881 105.093 139.928 105.322ZM139.756 99.6811C139.709 99.8165 139.662 99.9519 139.61 100.087C139.391 100.228 139.24 100.426 139.157 100.676C139.105 100.915 139.1 101.16 139.136 101.405C138.881 102.108 138.626 102.816 138.37 103.525C137.896 103.936 137.417 104.343 136.938 104.754C137.048 104.509 137.131 104.249 137.173 103.983C137.881 102.593 138.605 101.212 139.344 99.8373C139.485 99.7904 139.62 99.7331 139.756 99.6811ZM138.235 95.1134C138.261 95.004 138.303 94.8946 138.329 94.7852C138.506 94.6134 138.678 94.4415 138.855 94.2696C138.839 94.3269 138.829 94.379 138.813 94.4363C138.652 95.1186 138.48 95.8061 138.365 96.4988C138.209 96.5769 138.068 96.6811 137.923 96.7748C138.094 96.2331 138.204 95.6811 138.235 95.1134ZM136.745 102.15C136.162 101.764 135.542 101.686 134.881 101.91C135.667 101.113 136.641 100.712 137.652 100.379C137.35 100.968 137.048 101.561 136.745 102.15ZM135.417 97.7227C135.693 97.8165 135.975 97.879 136.266 97.905C135.735 98.2592 135.188 98.5665 134.548 98.6446C134.829 98.3269 135.131 98.03 135.417 97.7227ZM134.917 113.124C134.73 113.655 134.542 114.181 134.35 114.712C134.334 114.728 134.318 114.749 134.303 114.77C134.162 114.931 134.021 115.093 133.881 115.254C133.667 114.139 133.449 113.025 133.23 111.91C133.579 111.197 133.928 110.488 134.277 109.775C134.495 110.889 134.709 112.009 134.917 113.124ZM132.521 107.566C132.813 106.806 133.084 106.035 133.365 105.27C133.423 105.546 133.48 105.827 133.537 106.103C133.199 106.593 132.86 107.077 132.521 107.566ZM133.381 96.4675C132.933 96.9415 132.501 97.4311 132.094 97.9363C130.969 94.5821 129.36 91.4779 127.271 88.6238C127.032 87.2436 126.771 85.8686 126.516 84.4936C128.365 89.2592 130.766 94.1186 133.381 96.4675ZM126.292 95.1134C126.256 95.1134 126.225 95.1186 126.193 95.1186C126.011 94.7071 125.824 94.2904 125.641 93.879C125.313 93.1446 124.98 92.4154 124.641 91.6863C124.657 91.5925 124.667 91.504 124.673 91.4154C124.949 92.0248 125.225 92.6342 125.495 93.2488C125.761 93.8686 126.032 94.4884 126.292 95.1134ZM123.87 20.2123C123.85 20.2384 123.829 20.2644 123.808 20.2852C129.662 13.4831 136.969 6.60815 146.23 5.08211C146.928 5.05085 147.657 4.99877 148.313 5.28523C147.824 6.21752 147.277 6.9519 146.714 7.83731C136.673 22.6602 124.798 39.0248 122.417 57.0196C122.412 56.9988 122.407 56.9779 122.407 56.9623C122.173 56.28 122.115 55.3998 121.36 55.0873C123.756 46.0196 127.881 37.1811 131.943 28.6863C135.126 22.155 138.204 15.6446 143.73 10.7071C144.6 9.7644 147.667 7.10815 144.818 6.78523C144.787 6.6394 144.74 6.49877 144.683 6.36336C143.001 3.86336 134.626 11.3686 132.563 12.7436C129.115 15.504 125.855 18.4779 122.798 21.6602C123.178 21.155 123.542 20.6394 123.938 20.1394C123.917 20.1654 123.891 20.1863 123.87 20.2123ZM121.964 47.8998C122.261 46.5092 122.678 45.1029 123.396 43.8686C123.173 44.4936 122.954 45.1186 122.735 45.7384C122.469 46.4571 122.214 47.1759 121.964 47.8998ZM126.35 32.1029C126.219 32.3998 126.094 32.6967 125.969 32.9988C124.688 32.7331 124.318 34.6029 123.735 35.4259C123.771 35.1915 123.719 34.9779 123.579 34.7904C124.417 33.4779 125.225 32.1811 126.12 30.8946C126.063 31.0509 126.016 31.2071 125.969 31.3738C125.928 31.53 125.943 31.6759 126.016 31.8165C126.089 31.9519 126.204 32.0509 126.35 32.1029ZM134.053 18.2331C134.558 17.7019 135.063 17.1759 135.568 16.6446C135.662 16.5456 135.761 16.4519 135.855 16.3529C135.527 16.9206 135.214 17.4936 134.907 18.0717C134.881 18.1238 134.85 18.1759 134.824 18.2279C134.568 18.1811 134.308 18.1811 134.053 18.2331ZM138.6 13.5821C139.641 12.5977 140.605 11.5092 141.709 10.5977C140.782 11.629 139.86 12.6602 138.938 13.6915C138.933 13.6915 138.928 13.6915 138.923 13.6863C138.818 13.6446 138.709 13.6134 138.6 13.5821ZM124.157 23.4259C128.126 19.3894 132.261 15.5821 136.818 12.1759C136.6 12.3634 136.376 12.5509 136.162 12.7436C133.35 15.1915 130.667 17.78 128.126 20.504C126.381 22.4259 124.459 24.2227 123.1 26.4415C122.813 26.9311 122.829 27.4102 123.141 27.879C123.62 28.6498 124.501 28.254 125.037 27.78C122.891 30.0561 120.803 32.379 118.766 34.7436C120.495 30.9415 122.464 27.2331 124.157 23.4259ZM114.126 35.405C115.438 33.5404 116.808 31.7123 118.271 29.9519C115.667 34.5456 114.136 39.78 111.344 44.2279C109.693 46.4936 108.12 48.8061 106.626 51.1759C108.969 45.8634 111.391 40.5456 114.126 35.405ZM105.157 58.1602C106.324 56.0613 107.548 53.9936 108.829 51.9623C107.334 56.5873 105.761 61.2279 104.235 65.8842C104.594 63.3165 104.943 60.7436 105.157 58.1602ZM102.829 79.9102V79.905C104.412 75.0561 106.475 70.3009 108.162 65.5925C108.271 65.5717 108.381 65.5352 108.485 65.4884C108.532 65.4675 108.579 65.4467 108.62 65.4154C106.49 71.8894 104.532 78.4154 102.704 84.9779C102.73 83.2852 102.766 81.5977 102.829 79.9102ZM102.126 63.9884C102.292 63.6498 102.48 63.3165 102.652 62.9779C102.12 66.7332 101.829 70.5144 101.548 74.2957C101.459 74.5821 101.381 74.8686 101.292 75.1498C101.605 71.4311 101.923 67.7123 102.126 63.9884ZM101.605 112.915C101.917 113.931 102.23 114.941 102.527 115.962C102.173 114.999 101.751 114.072 101.266 113.171C101.386 113.103 101.501 113.014 101.605 112.915ZM96.3548 92.1602C96.4277 92.8269 96.5006 93.4779 96.5736 94.0977C96.4954 94.4988 96.4173 94.8998 96.3444 95.3061C96.3236 94.254 96.3288 93.2071 96.3548 92.1602ZM97.235 104.843C96.8183 102.337 96.5527 99.8113 96.4225 97.2748C96.5683 97.4154 96.735 97.4988 96.9329 97.5248C96.9381 97.5248 96.9381 97.5196 96.9433 97.5196C97.0163 98.1081 97.0475 98.7019 97.0475 99.2904C97.3288 99.8061 97.2819 102.181 97.235 104.843ZM98.0215 83.2644C97.7558 82.3529 97.8183 81.2019 97.4381 80.3113C97.8183 77.8946 98.2819 75.4884 98.86 73.1134C98.3496 77.9415 98.0683 82.7123 98.0215 83.2644ZM99.7558 109.384C99.6048 108.707 99.584 108.025 99.6777 107.337C99.834 107.723 99.9538 108.119 100.1 108.509C99.9746 108.796 99.8652 109.093 99.7558 109.384ZM100.219 71.7384C100.146 72.8477 100.063 73.9519 99.9902 75.0561C99.8496 76.9675 99.7558 78.8894 99.6569 80.8061C99.4329 81.6029 99.2246 82.3998 99.0163 83.2019C99.2558 78.7696 99.8756 74.3321 100.344 69.9467C100.303 70.5457 100.261 71.1446 100.219 71.7384ZM100.516 93.0769C100.735 91.2175 100.954 89.3581 101.199 87.504C101.193 88.5352 101.188 89.5665 101.178 90.5977C101.016 91.1967 100.85 91.7904 100.693 92.3842C100.636 92.6186 100.574 92.8477 100.516 93.0769ZM16.985 137.801C20.9069 140.957 25.459 143.639 30.2871 145.28C30.1777 145.947 31.1725 146.306 31.5006 145.66C34.3392 146.53 37.2454 146.973 40.2142 146.978C41.1517 147.077 42.0944 147.113 43.0371 147.093C44.7715 147.343 48.334 146.525 49.1517 146.577C51.6517 146.145 54.4173 145.879 56.9798 145.165C53.8444 146.613 50.5631 147.556 47.1413 147.994C46.8704 147.973 46.6048 147.926 46.3444 147.853C45.6933 147.676 45.4225 148.691 46.0788 148.869C53.9121 149.462 61.584 145.176 67.8548 140.837C86.3131 128.082 92.3444 95.5509 71.6725 82.0613C57.9173 72.4154 48.2611 79.1915 38.6361 90.2592C34.7298 70.28 39.1048 48.6238 50.6204 31.6602C54.834 25.4675 61.0631 20.4363 66.9381 15.7748C73.1152 11.3477 73.1465 6.31648 65.1048 4.75919C53.3913 3.10294 42.9538 10.879 33.9694 17.405C20.5475 26.905 11.4486 41.0509 6.51626 56.5977C-1.43166 79.004 -3.91603 121.926 16.985 137.801ZM15.6152 123.921C14.5736 122.806 14.0475 121.483 14.0371 119.957C14.0527 119.968 14.0683 119.978 14.084 119.988C14.11 120.066 14.136 120.145 14.1621 120.218C14.5736 121.473 15.0631 122.691 15.6308 123.879C15.6256 123.895 15.6204 123.91 15.6152 123.921ZM13.4798 94.7384C13.235 94.9311 12.9902 95.1186 12.7506 95.3113C12.886 94.7748 13.0058 94.2331 13.1465 93.7019C13.5527 93.1081 13.9329 92.504 14.3444 91.9206C14.0892 92.8686 13.7975 93.8061 13.4798 94.7384ZM13.709 109.645C13.584 110.16 13.4642 110.676 13.3392 111.191C13.2975 111.389 13.2506 111.582 13.2038 111.78C13.0788 111.176 12.9538 110.572 12.834 109.968C13.1465 109.921 13.4381 109.811 13.709 109.645ZM11.1361 90.8529C11.2402 87.5561 11.6881 84.3113 12.4798 81.1134C13.0892 80.8165 13.7038 80.5248 14.3027 80.2123C13.2506 83.7696 12.2142 87.3217 11.1361 90.8529ZM12.3548 97.6446C12.2038 97.9988 12.0736 98.3634 11.9069 98.7175C11.9746 98.4154 12.0579 98.1186 12.1256 97.8217C12.2038 97.7644 12.2819 97.7019 12.3548 97.6446ZM9.24022 82.5873C9.26105 82.5821 9.28188 82.5665 9.30793 82.5613C8.84959 83.4154 8.31834 84.2175 7.70376 84.9675C6.84438 81.4207 8.75584 77.8009 9.64647 74.3894C10.7975 71.3477 11.6933 68.1498 13.0788 65.1915C13.261 65.3425 13.4538 65.3529 13.6517 65.2279C13.7194 65.1863 13.7923 65.1446 13.86 65.0977C12.7506 69.1238 11.7246 73.1759 10.8392 77.2592C8.50063 80.2904 7.49543 82.4415 9.24022 82.5873ZM10.1413 80.4467C10.0736 80.7071 9.99022 80.9623 9.89647 81.2123C9.70897 81.3009 9.52668 81.3998 9.33918 81.4832C9.3548 81.4779 9.34959 81.4779 9.33918 81.4832C9.33918 81.4779 9.33918 81.4779 9.34438 81.4727C9.59438 81.1186 9.88084 80.7957 10.1413 80.4467ZM8.01626 86.405C8.00584 86.3529 7.99022 86.2956 7.9798 86.2384C8.57355 85.9988 8.88084 85.4102 9.19334 84.8946C9.11001 85.3634 9.03709 85.8321 8.96418 86.3009C8.84959 87.1186 8.75063 87.9363 8.69334 88.7592C8.62563 88.7279 8.55793 88.7071 8.49022 88.6967C8.33397 87.9311 8.17772 87.1706 8.01626 86.405ZM8.18293 100.686C7.52147 95.8894 7.14126 91.254 6.78709 86.379C6.80272 86.3894 6.81834 86.3998 6.83397 86.405C8.05793 91.0717 7.78709 95.9154 8.18293 100.686ZM8.48501 69.8998C9.11001 68.2123 9.79751 66.5561 10.5475 64.9259C10.5683 64.879 10.5892 64.8321 10.61 64.7904C10.5006 65.0925 10.3913 65.3998 10.2871 65.7071C9.93293 66.7123 9.54751 67.7123 9.21938 68.7384C9.06313 69.1654 8.72459 69.5092 8.48501 69.8998ZM16.4433 73.1186C15.8756 74.9571 15.3183 76.8009 14.7715 78.6446C14.1308 79.0144 13.4798 79.3686 12.834 79.7227C13.1829 78.405 13.5631 77.0925 13.985 75.7904C14.7923 74.8894 15.6048 73.9936 16.4433 73.1186ZM14.1204 63.2332C14.2715 62.9779 14.4121 62.7227 14.5683 62.4727C14.5267 62.6238 14.4902 62.7748 14.4486 62.9311C14.3392 63.03 14.2298 63.129 14.1204 63.2332ZM25.8704 120.723C25.0163 121.426 24.1673 122.134 23.3183 122.843C23.4381 122.525 23.5527 122.202 23.6673 121.884C24.4069 121.488 25.136 121.129 25.8704 120.723ZM24.3027 119.994C24.8861 118.181 25.4173 116.348 25.9017 114.499C25.9381 114.462 25.9746 114.431 26.0111 114.395C26.0892 115.884 26.1621 117.374 26.235 118.863C25.5944 119.244 24.9486 119.629 24.3027 119.994ZM20.7194 104.733C21.4798 104.244 22.2506 103.775 23.0267 103.311C22.7975 104.28 22.5683 105.254 22.334 106.223C21.3965 107.207 20.4121 108.249 19.4381 109.306C19.8652 107.78 20.2923 106.259 20.7194 104.733ZM19.8965 97.8061C20.0475 97.2956 20.209 96.7904 20.36 96.2748C20.2611 96.7123 20.1621 97.1498 20.0631 97.5873C20.0058 97.6602 19.9538 97.7331 19.8965 97.8061ZM21.3548 102.447C21.761 100.983 22.1829 99.53 22.584 98.0665C22.6986 97.9311 22.8183 97.7904 22.9329 97.6498C23.0267 98.8998 23.084 100.113 23.0736 101.28C22.4954 101.665 21.9277 102.056 21.3548 102.447ZM23.4642 112.832C23.5058 112.806 23.5475 112.78 23.5892 112.754C23.4069 113.384 23.2142 114.009 23.0267 114.634C23.0058 114.66 22.985 114.681 22.9642 114.707C23.1413 114.082 23.3027 113.457 23.4642 112.832ZM25.3496 123.577C25.3444 123.598 25.3392 123.624 25.334 123.645C24.9381 125.488 24.3965 127.296 23.86 129.103C23.4902 128.546 23.1152 127.988 22.7402 127.436C22.4746 127.056 22.2246 126.665 21.959 126.285C23.0996 125.395 24.2246 124.488 25.3496 123.577ZM23.0058 80.6602C23.2194 80.3998 23.4277 80.1394 23.6361 79.879C22.9902 82.7904 22.2142 85.6811 21.4017 88.5561C21.2506 88.6706 21.0944 88.7852 20.9433 88.8998C21.6204 86.1498 22.3288 83.4102 23.0058 80.6602ZM21.8079 74.3634C22.4121 72.2904 23.0215 70.2227 23.6413 68.155C23.6465 68.1654 23.6569 68.1707 23.6621 68.1811C23.1465 70.1498 22.6673 72.1342 22.2038 74.1238C22.0683 74.2019 21.9381 74.28 21.8079 74.3634ZM20.8861 79.8165C20.5579 80.2227 20.2246 80.6394 19.8861 81.0613C20.3183 79.5196 20.7454 77.9727 21.1933 76.4363C21.3704 76.3321 21.5527 76.2332 21.735 76.1342C21.4486 77.3634 21.1673 78.5925 20.8861 79.8165ZM20.2506 91.6498C20.36 91.5717 20.4694 91.4884 20.584 91.4102C19.9381 93.6081 19.2871 95.8061 18.6569 98.004C19.2142 95.8894 19.7246 93.7696 20.2506 91.6498ZM18.9798 102.363C18.8236 103.046 18.6673 103.733 18.5111 104.415C18.2454 104.603 17.985 104.806 17.7194 104.994C17.9017 104.41 18.0736 103.827 18.2506 103.244C18.4954 102.952 18.735 102.655 18.9798 102.363ZM18.1256 91.0613C17.7246 91.3738 17.3288 91.6915 16.9277 92.004C17.4017 90.1654 17.8861 88.3269 18.3808 86.4884C18.8236 85.9154 19.2819 85.3477 19.7298 84.78C19.2298 86.8842 18.6933 88.9779 18.1256 91.0613ZM17.3079 80.0196C16.7402 82.1602 16.209 84.3113 15.6829 86.4623C15.4329 86.7904 15.1881 87.1238 14.9433 87.4519C15.8027 84.5925 16.7038 81.7488 17.5996 78.9102C17.5006 79.28 17.4017 79.6498 17.3079 80.0196ZM16.2454 94.6811C16.61 94.3946 16.9798 94.1134 17.3496 93.8321C16.4798 96.7956 15.4954 99.7279 14.334 102.603C14.9433 99.9519 15.584 97.3165 16.2454 94.6811ZM17.0371 107.207C17.3652 106.973 17.7038 106.744 18.0371 106.52C17.9486 106.889 17.8704 107.264 17.7819 107.634C17.4225 109.212 17.0527 110.79 16.6881 112.369C15.9017 113.275 15.1777 114.145 14.5736 114.936C15.4069 112.363 16.2246 109.785 17.0371 107.207ZM18.3808 113.072C19.3913 112.03 20.4017 110.983 21.4433 109.962C21.2038 110.926 20.9433 111.889 20.6986 112.853C19.7715 113.468 18.8496 114.082 17.9277 114.697C18.0788 114.16 18.2298 113.613 18.3808 113.072ZM21.209 120.191C21.3079 120.046 21.3861 119.889 21.485 119.749C21.2663 120.457 21.0527 121.165 20.834 121.874C20.7246 121.931 20.6152 121.994 20.5006 122.056C20.7454 121.436 20.985 120.816 21.209 120.191ZM20.9954 128.15C21.0475 128.072 21.0944 127.988 21.1465 127.91C21.86 128.915 22.5267 129.915 23.2142 130.962C22.2819 130.238 21.3965 129.468 20.5579 128.645C20.7194 128.494 20.8652 128.332 20.9954 128.15ZM24.3288 133.712C24.8392 134.108 25.3496 134.514 25.86 134.921C25.7871 135.238 25.7142 135.551 25.6621 135.869C24.2038 134.535 22.9069 133.03 21.6361 131.525C22.5111 132.27 23.4121 132.994 24.3288 133.712ZM25.0267 130.895C25.5683 129.155 26.0736 127.405 26.5683 125.65C26.6517 127.218 26.735 128.785 26.8288 130.353C26.8548 130.509 26.8756 130.671 26.8861 130.827C26.709 131.52 26.5319 132.212 26.3496 132.905C25.9017 132.238 25.4642 131.566 25.0267 130.895ZM26.0579 85.2904C26.985 81.8634 27.9173 78.4311 28.8496 75.004C28.3079 78.2279 27.6933 81.4415 27.0683 84.655C26.7298 84.8686 26.3913 85.0717 26.0579 85.2904ZM26.9329 136.884C26.9954 136.801 27.0527 136.718 27.0996 136.629C27.2194 136.796 27.3444 136.962 27.4746 137.129C27.5267 137.197 27.5788 137.264 27.6308 137.332L27.6256 137.327C27.4642 137.249 27.3079 137.16 27.1621 137.061C27.0788 137.009 27.0006 136.952 26.9225 136.895C26.9277 136.889 26.9277 136.889 26.9329 136.884ZM27.5788 98.3113C27.459 98.3946 27.3392 98.4727 27.2194 98.5509C27.1413 97.7279 27.0579 96.9311 26.9694 96.1498C27.2454 94.7019 27.5267 93.254 27.8131 91.8113C28.4017 91.0925 28.985 90.3686 29.5683 89.6446C28.9694 92.5509 28.3027 95.4415 27.5788 98.3113ZM28.6308 102.915C28.9017 102.65 29.1673 102.379 29.4381 102.108C29.3965 103.462 29.3444 104.811 29.2975 106.165C28.8236 106.79 28.3392 107.41 27.8808 108.046C27.8548 107.561 27.8288 107.077 27.8027 106.587C28.0788 105.363 28.3548 104.139 28.6308 102.915ZM28.4642 121.103C28.4277 121.566 28.4121 122.03 28.3704 122.494C28.36 122.233 28.3496 121.78 28.334 121.207C28.3808 121.171 28.4225 121.139 28.4642 121.103ZM28.2767 133.134C28.6465 133.066 28.8548 132.848 28.9121 132.478C29.0006 131.665 29.0683 130.848 29.1465 130.035C29.2975 129.468 29.4486 128.895 29.5996 128.327C29.5006 128.879 29.4069 129.436 29.3236 129.994C29.1517 131.139 28.9486 132.28 28.8183 133.431C28.7454 134.04 28.6725 134.645 28.5944 135.254C28.36 135.02 28.1048 134.79 27.8496 134.572C28.0058 134.098 28.1361 133.613 28.2767 133.134ZM27.9486 70.8842C27.8913 70.9102 27.834 70.9415 27.7767 70.9727C28.3861 67.5092 28.985 64.0457 29.4642 60.5665C29.4694 60.4936 29.4486 60.4102 29.4433 60.3321C29.6569 60.1134 29.8652 59.8894 30.084 59.6654C29.4017 63.3998 28.7402 67.1602 27.9486 70.8842ZM29.0058 49.3529C29.4017 48.8113 29.8079 48.2696 30.2038 47.7279C30.5788 47.5457 30.9173 47.3946 31.3131 47.2019C31.3131 47.2019 31.3131 47.2019 31.3131 47.2071C30.5423 47.9207 29.7767 48.6394 29.0058 49.3529ZM30.8027 55.8373C30.7819 55.9259 30.7715 56.0144 30.7506 56.1029C30.709 56.1446 30.6621 56.1967 30.6204 56.2436C30.6829 56.1082 30.7402 55.9727 30.8027 55.8373ZM32.1673 57.4988C32.485 57.1602 32.7923 56.8113 33.0996 56.4727C32.3027 59.8425 31.4902 63.2071 30.834 66.6029C30.61 66.6029 30.4173 66.6863 30.2611 66.8477C30.9017 63.7279 31.5371 60.6134 32.1673 57.4988ZM30.1465 46.1029C29.4746 46.4571 28.8027 46.8113 28.1204 47.1498C28.985 45.7592 29.8965 44.3998 30.86 43.0769C31.5683 42.5873 32.2767 42.0977 32.985 41.6134C32.235 43.2071 31.235 44.6759 30.1465 46.1029ZM29.3965 51.6811C29.1413 52.2227 28.886 52.7644 28.6569 53.3165C27.9954 52.8009 27.3548 53.4727 27.2142 54.129C27.2506 53.9259 27.2819 53.7279 27.3183 53.5248C28.0111 52.9102 28.7038 52.2957 29.3965 51.6811ZM26.3392 51.1446C26.2663 50.9571 26.1465 50.8113 25.9798 50.7019C26.2506 50.2332 26.5319 49.7696 26.8079 49.3061C27.2454 49.1134 27.6517 48.9311 28.1204 48.7123C27.5006 49.5144 26.8913 50.3165 26.3392 51.1446ZM26.3079 79.0665C26.36 79.0352 26.4069 78.9988 26.4538 78.9623C26.2871 79.6082 26.1204 80.2592 25.9486 80.905C26.0683 80.2957 26.1881 79.6811 26.3079 79.0665ZM26.5475 87.3946C26.3861 88.1915 26.2038 88.9779 26.0371 89.7748C26.0215 89.7956 26.0006 89.8217 25.985 89.8425C25.834 89.1706 25.6725 88.5769 25.5006 88.0456C25.8444 87.8269 26.1933 87.6081 26.5475 87.3946ZM25.5058 105.973C25.5111 106.004 25.511 106.04 25.5163 106.077C25.0996 107.546 24.6829 109.014 24.2558 110.483C24.1725 110.535 24.0944 110.587 24.0163 110.639C24.3444 109.27 24.6569 107.895 24.9486 106.514C25.136 106.337 25.3183 106.15 25.5058 105.973ZM24.5423 95.7384C24.5683 95.9519 24.5996 96.1654 24.6256 96.379C24.4381 97.2279 24.2663 98.0821 24.0683 98.9311C24.0579 98.0717 24.0371 97.2123 24.0319 96.3477C24.2038 96.1446 24.3756 95.9415 24.5423 95.7384ZM24.2506 75.6967C24.3444 75.3373 24.4277 74.9727 24.5215 74.6186C24.5683 74.5925 24.6152 74.5665 24.6621 74.5404C24.6152 74.8165 24.5683 75.0925 24.5215 75.3686C24.4329 75.4727 24.3444 75.5769 24.2506 75.6967ZM21.5215 56.3321C21.4798 56.3738 21.4329 56.4154 21.3913 56.4571C22.0527 54.6654 22.6725 52.8738 23.2246 51.0717C23.5423 50.9571 23.8131 50.7696 24.0423 50.5196C24.0788 50.504 24.1204 50.4884 24.1569 50.4727C23.1569 52.3634 22.0423 54.2384 21.5215 56.3321ZM21.2558 46.1342C21.0892 46.629 20.8496 47.0821 20.5371 47.4988C20.7506 46.8582 20.9694 46.2175 21.1881 45.5821C21.3704 45.3113 21.5579 45.0352 21.7454 44.7696C21.5788 45.2227 21.4173 45.6759 21.2558 46.1342ZM21.4173 58.6238C21.3704 58.7384 21.3288 58.8529 21.2819 58.9675C20.9694 59.1602 20.6465 59.3582 20.334 59.5457C20.6986 59.2436 21.0527 58.9259 21.4173 58.6238ZM20.4746 61.0821C19.4329 63.9154 18.459 66.7748 17.5319 69.6498C16.761 70.4623 16.0058 71.2748 15.2767 72.0717C16.5423 68.6082 17.9642 65.1759 19.3392 61.7436C19.7142 61.5196 20.0944 61.3009 20.4746 61.0821ZM14.7767 118.249C14.9798 118.129 15.1777 118.009 15.3808 117.884C15.3079 118.171 15.2454 118.452 15.1777 118.733C15.0683 118.65 14.9538 118.566 14.8444 118.483C14.8236 118.405 14.7975 118.327 14.7767 118.249ZM15.0736 116.603C15.3392 116.301 15.6308 116.02 15.8965 115.723C15.8704 115.853 15.834 115.983 15.8027 116.113C15.5631 116.275 15.3183 116.436 15.0736 116.603ZM16.3236 122.436C16.1881 122.134 16.0163 121.858 15.8965 121.556C15.8965 121.551 15.9017 121.546 15.9017 121.546C16.1048 121.738 16.2923 121.962 16.4902 122.171C16.4277 122.259 16.3808 122.343 16.3236 122.436ZM16.6933 128.087C16.6621 128.014 16.6152 127.947 16.5788 127.874C16.6308 127.936 16.6829 127.999 16.7298 128.061L16.6933 128.087ZM16.4902 119.832C16.7923 118.78 17.0736 117.718 17.3756 116.66C18.3079 116.072 19.2402 115.478 20.1725 114.884C19.8288 116.207 19.4954 117.53 19.1465 118.848C18.5475 119.52 17.9902 120.181 17.485 120.816C17.3131 120.65 17.1621 120.462 16.985 120.301C16.8236 120.145 16.6569 119.988 16.4902 119.832ZM20.2923 123.655C20.261 123.754 20.235 123.848 20.2038 123.941C20.1569 123.884 20.1152 123.832 20.0683 123.775C20.1413 123.738 20.2194 123.691 20.2923 123.655ZM19.6204 125.827C19.3288 126.061 19.0423 126.29 18.7454 126.52C18.4746 126.165 18.2194 125.796 17.9694 125.421C18.1413 125.139 18.3131 124.858 18.4902 124.577C18.5163 124.561 18.5475 124.546 18.5788 124.53C18.9277 124.962 19.2819 125.384 19.6204 125.827ZM17.5579 123.311C17.5996 123.358 17.6465 123.4 17.6829 123.447C17.6673 123.473 17.6465 123.504 17.6308 123.53C17.5006 123.598 17.3704 123.66 17.2402 123.723C17.3392 123.582 17.4538 123.452 17.5579 123.311ZM31.209 141.733C27.0267 140.113 23.209 137.879 19.7506 135.03C20.0267 134.832 20.136 134.566 20.084 134.228C19.5163 132.54 18.4173 131.035 17.4694 129.478C17.5631 129.421 17.6569 129.358 17.7506 129.296C19.5475 131.504 21.3808 133.681 23.3444 135.733C24.7142 137.02 26.1829 138.702 28.1361 138.931C28.0788 139.124 28.1204 139.285 28.2663 139.415C28.3288 139.488 28.3808 139.556 28.4329 139.624C28.584 140.061 28.9486 140.363 29.3079 140.212C29.4954 140.134 29.6465 140.004 29.7506 139.827C30.209 140.389 30.7298 140.884 31.3183 141.311C31.2819 141.452 31.2402 141.593 31.209 141.733ZM31.2506 109.603C31.2663 110.665 31.2819 111.728 31.2923 112.79C31.0423 113.941 30.7663 115.093 30.5006 116.244C30.3808 116.322 30.2663 116.4 30.1465 116.478C30.235 114.811 30.3079 113.15 30.3756 111.483C30.5111 110.988 30.6517 110.488 30.7923 109.994C30.9433 109.863 31.0996 109.733 31.2506 109.603ZM30.8548 96.129C30.8756 95.3009 30.9017 94.4779 30.9225 93.6498C30.9642 93.504 31.0058 93.3634 31.0475 93.2175C31.0579 94.1394 31.0683 95.0561 31.0788 95.9779C31.0058 96.0248 30.9277 96.0769 30.8548 96.129ZM31.7454 139.681C31.4538 139.426 31.1777 139.155 30.9277 138.863C31.1152 138.337 31.2715 137.806 31.4486 137.285C31.3392 138.155 31.2194 139.056 31.7923 139.494C31.7767 139.556 31.761 139.619 31.7454 139.681ZM31.6829 77.6759C31.5631 78.3946 31.4486 79.1082 31.3236 79.8217C31.2923 80.0457 31.2506 80.2696 31.2142 80.4936C30.4954 80.6863 30.261 81.7436 30.1621 82.8477C30.0423 82.9102 29.9225 82.9727 29.8027 83.0404C30.4433 80.5925 31.1621 78.1602 32.0163 75.7748C31.9121 76.4102 31.7923 77.0457 31.6829 77.6759ZM32.6881 142.249C32.6986 142.218 32.709 142.191 32.7142 142.165C33.0631 142.322 33.4225 142.452 33.7923 142.551C33.4225 142.452 33.0527 142.358 32.6881 142.249ZM34.334 92.5873C34.0111 93.3581 34.0527 94.2123 33.9173 95.03C33.9017 94.6394 33.8808 94.2488 33.8652 93.8581C34.1465 92.4727 34.4173 91.0821 34.6725 89.6915C34.9121 90.3842 35.2038 91.0561 35.5527 91.6967C35.5475 91.7123 35.5371 91.7279 35.5319 91.7436C34.9746 91.7956 34.5736 92.0769 34.334 92.5873ZM35.0475 111.139C34.86 111.962 34.6725 112.79 34.485 113.613C34.4746 113.619 34.4642 113.629 34.4538 113.634C34.511 112.613 34.5736 111.593 34.6308 110.572C34.7454 110.02 34.8652 109.468 34.985 108.921C35.0006 109.66 35.0267 110.4 35.0475 111.139ZM33.8704 129.4C34.4433 127.306 34.9798 125.207 35.4746 123.093C35.5058 123.837 35.5371 124.582 35.5683 125.322C34.9902 127.457 34.4173 129.593 33.8392 131.723C33.86 130.947 33.8704 130.171 33.8704 129.4ZM35.86 131.754C35.8652 131.848 35.8652 131.941 35.8704 132.03C35.5631 133.983 34.5006 138.91 35.0371 141.259C34.386 141.176 33.7663 140.983 33.1829 140.681C34.11 137.712 34.959 134.728 35.86 131.754ZM33.4277 87.3165C33.3965 86.9779 33.36 86.6394 33.3236 86.2956C33.4642 85.9311 33.61 85.5665 33.7558 85.2019C33.7715 85.3217 33.7923 85.4467 33.8131 85.5665C33.6829 86.1498 33.5579 86.7331 33.4277 87.3165ZM33.4277 82.9884C33.3131 82.6498 33.1048 82.379 32.8131 82.1707C32.9433 81.5092 33.0736 80.8425 33.1933 80.1707C33.2663 81.0821 33.3548 81.9936 33.4642 82.8998C33.4538 82.9311 33.4381 82.9571 33.4277 82.9884ZM37.959 111.165C38.2767 109.499 38.5892 107.827 38.8913 106.155C38.9381 106.155 38.9798 106.15 39.0163 106.139C38.8808 107.66 38.7454 109.181 38.6152 110.702C38.4017 110.858 38.1777 111.009 37.959 111.165ZM38.3808 113.462C38.334 114.077 38.2767 114.697 38.2298 115.311C38.0683 115.921 37.9121 116.525 37.7506 117.129C37.7194 116.077 37.6986 115.025 37.6986 113.973C37.9277 113.801 38.1517 113.629 38.3808 113.462ZM38.9954 126.02C39.86 122.238 40.834 118.478 41.8496 114.728C41.8808 115.353 41.9173 115.983 41.9486 116.608C40.7819 120.65 39.7142 124.712 38.7558 128.806C38.834 127.874 38.9173 126.947 38.9954 126.02ZM42.6829 129.613C42.6986 129.837 42.709 130.061 42.7246 130.28C42.1413 132.869 41.3861 136.499 41.0267 139.41C40.4277 139.671 39.8183 139.921 39.2194 140.176C40.334 136.655 41.5579 133.15 42.6829 129.613ZM42.0944 141.921C42.1673 141.363 42.2663 140.806 42.3444 140.254C42.4381 140.207 42.5371 140.16 42.6308 140.113C42.4538 140.718 42.2715 141.316 42.0944 141.921ZM42.6465 143.415C42.6673 143.389 42.6829 143.374 42.7038 143.348C42.7246 143.379 42.7454 143.384 42.7663 143.41C42.7246 143.41 42.6829 143.41 42.6465 143.415ZM43.1256 138.441C42.9433 138.53 42.7611 138.608 42.5788 138.691C42.735 137.718 42.9173 136.744 43.1048 135.77C43.1621 136.483 43.2246 137.197 43.2819 137.905C43.2298 138.087 43.1777 138.264 43.1256 138.441ZM43.9486 107.051C44.6361 104.535 45.3079 102.014 45.959 99.4884C45.9538 100.889 45.9433 102.29 45.9381 103.691C45.5892 104.728 45.2506 105.764 44.9277 106.806C44.6413 107.697 44.3808 108.593 44.0996 109.488C44.0527 108.676 44.0006 107.863 43.9486 107.051ZM45.11 131.718C45.0892 131.796 45.0631 131.879 45.0371 131.962C44.9798 130.639 44.9329 129.316 44.8861 127.999C45.0736 127.275 45.2611 126.556 45.459 125.843C45.36 127.796 45.2506 129.754 45.11 131.718ZM45.9329 143.077C45.8704 143.087 45.7975 143.093 45.735 143.103C45.7767 142.764 45.8027 142.431 45.8131 142.093C45.8913 141.249 45.9381 140.4 46.0111 139.556C47.0163 136.556 47.8131 132.957 48.1048 132.176C48.4538 130.947 48.8027 129.723 49.1517 128.494C49.2506 129.572 49.3704 130.65 49.4798 131.728C48.5944 134.676 47.709 137.619 46.8027 140.561C46.5058 141.405 46.2611 142.228 45.9329 143.077ZM49.0163 142.395C49.0215 142.41 49.0319 142.415 49.0371 142.431C48.5423 142.556 48.0371 142.65 47.5371 142.759C47.7142 142.197 47.8652 141.624 48.0683 141.306C48.7038 139.509 49.3392 137.712 49.9694 135.915C50.0527 136.566 50.11 137.223 50.1986 137.874C49.7819 139.379 49.3861 140.884 49.0163 142.395ZM50.1048 99.129C50.3236 98.1759 50.5371 97.2227 50.7506 96.2644C50.7506 97.4519 50.7611 98.6394 50.7819 99.8321C50.6152 100.28 50.4486 100.728 50.2767 101.176C50.2246 100.483 50.1673 99.8009 50.1048 99.129ZM51.0319 107.926C51.0683 109.212 51.0996 110.499 51.1204 111.78C51.0423 112.051 50.959 112.316 50.8808 112.582C50.8288 111.499 50.7767 110.244 50.7142 108.889C50.8236 108.572 50.9277 108.249 51.0319 107.926ZM50.7923 141.905C51.1933 141.129 51.2558 140.129 51.5475 139.264C51.5892 139.108 51.6361 138.952 51.6777 138.796C51.9433 138.65 52.1048 138.421 52.1621 138.119C52.2194 137.624 52.2454 137.124 52.2767 136.624C53.0892 133.645 53.9486 130.681 54.8652 127.738C55.0058 129.858 55.1204 131.973 55.1933 134.098C54.0319 136.749 52.7038 139.311 51.1933 141.785C51.0631 141.832 50.9277 141.863 50.7923 141.905ZM52.7246 120.863C52.7246 119.311 52.7298 117.759 52.7142 116.207C52.9954 115.264 53.2923 114.322 53.5788 113.374C53.6986 114.509 53.8183 115.645 53.9329 116.78C53.5319 118.145 53.1308 119.504 52.7246 120.863ZM54.5058 123.103C54.5267 123.348 54.5475 123.593 54.5683 123.837C53.8808 125.879 53.2142 127.926 52.5579 129.978C52.5788 129.468 52.5944 128.957 52.61 128.447C53.2402 126.665 53.8756 124.884 54.5058 123.103ZM52.584 106.988C52.5579 105.78 52.5371 104.572 52.5163 103.363C52.6152 104.311 52.7194 105.259 52.8183 106.207C52.7402 106.468 52.6621 106.728 52.584 106.988ZM55.6569 92.504C55.8183 93.4259 55.985 94.3477 56.1361 95.2748C55.7663 96.5092 55.3965 97.7436 55.0215 98.9779C54.985 97.6759 54.9694 96.379 54.9642 95.0769C55.1986 94.2175 55.4329 93.3634 55.6569 92.504ZM55.6413 85.7748C55.7142 85.7436 55.7871 85.7123 55.8548 85.6811C55.8392 85.7488 55.8183 85.8061 55.7975 85.8686C55.7402 85.8269 55.6933 85.8061 55.6413 85.7748ZM60.1256 132.608C60.1413 132.816 60.1569 133.025 60.1673 133.238C59.2611 134.707 58.3183 136.155 57.3079 137.561C58.0215 136.072 58.7246 134.577 59.3236 133.035C59.6465 132.999 59.9173 132.858 60.1256 132.608ZM59.8808 108.108C59.8965 108.066 59.9121 108.025 59.9277 107.983C59.9121 108.025 59.8965 108.072 59.8808 108.113V108.108ZM56.5736 130.759C56.5319 129.52 56.4746 128.28 56.4225 127.035C56.3756 125.843 56.3131 124.645 56.2558 123.452C57.0736 120.957 57.9173 118.473 58.7923 115.994C59.0058 118.171 59.2038 120.353 59.3861 122.535C58.5475 125.316 57.6204 128.066 56.5736 130.759ZM56.0423 119.468C56.0319 119.28 56.0215 119.087 56.0111 118.9C56.8079 116.665 57.6048 114.436 58.4121 112.212C58.4173 112.29 58.4277 112.374 58.4329 112.452C57.6465 114.79 56.8444 117.129 56.0423 119.468ZM58.5631 98.3946C58.7767 97.8165 58.9902 97.2384 59.2038 96.6602C59.2871 97.1238 59.3704 97.5873 59.4538 98.0561C59.2402 98.7696 59.0215 99.4884 58.8131 100.207C58.7298 99.5873 58.6465 98.9884 58.5631 98.3946ZM58.8965 86.0248C58.7506 85.5457 58.5788 85.0769 58.3913 84.6186C58.7506 84.4571 59.11 84.2852 59.4694 84.1186C59.2819 84.754 59.0892 85.3894 58.8965 86.0248ZM58.4694 92.7019C58.5527 93.1342 58.6308 93.5665 58.709 93.9988C58.5267 94.4727 58.3444 94.9519 58.1621 95.4311C58.1048 95.0196 58.0527 94.629 58.0006 94.2384C58.1569 93.7227 58.3131 93.2123 58.4694 92.7019ZM58.0058 108.665C58.0371 108.962 58.0736 109.264 58.11 109.566C57.5788 111.025 57.0423 112.488 56.5163 113.952C56.9954 112.186 57.5006 110.426 58.0058 108.665ZM55.5683 111.218C55.5006 110.04 55.4381 108.863 55.3756 107.686C55.959 105.874 56.5631 104.066 57.1881 102.27C57.2975 103.051 57.4069 103.837 57.5058 104.624C56.86 106.822 56.2142 109.02 55.5683 111.218ZM56.0215 101.415C56.2142 100.546 56.4642 99.6967 56.6933 98.8373C56.7142 98.9884 56.7402 99.1394 56.7663 99.2904C56.5163 99.9988 56.2558 100.707 56.0215 101.415ZM57.1413 140.249C56.7454 141.051 55.8496 141.619 55.8079 142.593C55.4017 142.728 54.9902 142.843 54.5788 142.962C55.2142 142.546 55.6413 142.087 55.6829 141.587C56.3704 140.858 57.0058 140.066 57.6361 139.306L57.1413 140.249ZM61.6725 137.79C61.5111 138.186 61.2506 138.551 61.2715 138.994C61.2715 138.999 61.2715 139.004 61.2715 139.009C61.2506 139.03 61.2298 139.056 61.209 139.082C60.8079 139.535 60.334 140.051 59.834 140.54C60.4538 139.634 61.11 138.744 61.6725 137.79ZM67.7038 114.014C67.6777 113.462 67.6517 112.915 67.6256 112.369C68.6777 109.749 69.709 107.119 70.6829 104.468C70.7246 104.749 70.7611 105.03 70.8027 105.311C69.8392 108.228 68.8079 111.129 67.7038 114.014ZM70.1308 110.983C70.1204 111.02 70.1048 111.056 70.0944 111.087C69.4069 113.244 68.6621 115.379 67.8496 117.499C67.8444 117.29 67.834 117.082 67.8236 116.879C68.6048 114.915 69.3704 112.947 70.1308 110.983ZM67.2142 105.218C67.1152 103.546 67.0163 101.874 66.9225 100.202C67.5215 97.9363 68.1152 95.6759 68.6986 93.4102C69.0058 94.7175 69.2767 96.0352 69.5215 97.3529C68.8913 100.004 68.0996 102.624 67.2142 105.218ZM66.6881 95.629C66.6829 95.4936 66.6777 95.3581 66.6673 95.2227C66.9433 94.5352 67.2142 93.8425 67.485 93.1602C67.209 93.9779 66.9486 94.8009 66.6881 95.629ZM67.6569 122.957C67.8756 122.863 67.9798 122.697 67.9746 122.457C67.9694 122.405 67.9694 122.348 67.9694 122.296C68.9694 120.16 70.0058 118.035 71.1517 115.962C69.9746 118.801 68.7506 121.624 67.4486 124.405C66.5788 126.233 65.6829 128.051 64.7558 129.853C64.7558 129.764 64.7506 129.676 64.7506 129.582C64.7506 129.53 64.7454 129.478 64.7454 129.426C65.6933 127.259 66.6621 125.103 67.6569 122.957ZM70.9486 124.113C69.709 126.582 68.6881 129.353 66.4277 131.056C68.3079 127.603 70.235 124.176 72.2194 120.775C72.4017 120.457 72.5892 120.139 72.7715 119.822C72.1673 121.254 71.5788 122.691 70.9486 124.113ZM72.3704 125.249C72.2923 125.441 72.2194 125.634 72.1465 125.827C71.8652 126.608 71.5371 127.369 71.1621 128.108C71.0163 128.119 70.8704 128.139 70.7246 128.171C70.6986 128.176 70.6725 128.181 70.6413 128.191C71.2246 127.212 71.7975 126.228 72.3704 125.249ZM69.0267 132.233C69.0788 132.077 69.1361 131.915 69.1881 131.759C69.1881 131.77 69.1829 131.775 69.1777 131.785C69.4069 131.15 69.6361 130.52 69.8704 129.889C69.9381 129.848 70.0058 129.811 70.0736 129.775C70.1881 129.712 70.3079 129.65 70.4329 129.598C70.3652 129.738 70.2923 129.874 70.2246 130.014C70.235 129.988 70.2506 129.968 70.2611 129.941C69.86 130.712 69.4486 131.478 69.0267 132.233ZM65.0163 134.103C65.0058 134.113 64.9954 134.129 64.9902 134.139C64.9798 134.155 64.9694 134.171 64.959 134.186C64.9642 134.181 64.9642 134.171 64.9694 134.165C64.709 134.514 64.4486 134.863 64.1933 135.218C64.5788 134.457 64.9277 133.676 65.6361 133.16C65.4277 133.478 65.2142 133.796 65.0058 134.113C65.0111 134.108 65.0111 134.108 65.0163 134.103ZM67.7454 132.749C67.6517 133.02 67.5579 133.29 67.4902 133.572C67.3704 133.978 67.2871 134.389 67.2506 134.811C66.3079 135.822 65.3079 136.775 64.2558 137.676C65.5111 136.103 66.6777 134.457 67.7454 132.749ZM64.5267 125.264C64.5163 125.056 64.5111 124.853 64.4954 124.645C65.1725 123.186 65.834 121.723 66.4538 120.238C66.4798 120.426 66.5006 120.619 66.5267 120.811C65.8965 122.311 65.2298 123.796 64.5267 125.264ZM64.3236 122.191C64.2871 121.707 64.2506 121.223 64.2142 120.733C64.8079 119.29 65.3965 117.843 65.9902 116.395C66.0527 116.895 66.11 117.395 66.1725 117.889C65.5736 119.332 64.959 120.77 64.3236 122.191ZM65.3027 100.306C65.2454 99.9102 65.1881 99.5196 65.1256 99.1238C65.3236 98.6238 65.5215 98.129 65.7142 97.629C65.7402 97.9571 65.7663 98.28 65.7923 98.6029C65.6256 99.1706 65.459 99.7384 65.3027 100.306ZM65.2454 110.645C64.735 111.988 64.2142 113.332 63.6881 114.665C63.6361 114.124 63.5892 113.577 63.5371 113.03C63.985 111.343 64.4329 109.655 64.8756 107.968C65.0006 108.858 65.1256 109.754 65.2454 110.645ZM63.7298 131.827C63.6308 132.009 63.5423 132.197 63.4433 132.379C63.5267 132.186 63.61 131.999 63.6933 131.811C63.709 131.816 63.7142 131.822 63.7298 131.827ZM63.0944 108.671C62.9746 107.546 62.86 106.421 62.7402 105.296C63.1569 104.207 63.5788 103.119 64.0006 102.035C64.0996 102.671 64.2194 103.301 64.3131 103.941C63.9017 105.514 63.4954 107.087 63.0944 108.671ZM62.8913 123.994C62.9173 124.348 62.9538 124.707 62.9798 125.061C62.6465 125.764 62.2923 126.457 61.9433 127.155C61.9277 126.926 61.9173 126.702 61.9017 126.462C62.2298 125.639 62.5579 124.816 62.8913 123.994ZM61.8756 119.306C62.0163 118.759 62.1621 118.218 62.3079 117.676C62.3236 117.811 62.3392 117.952 62.3496 118.087C62.1933 118.494 62.0319 118.9 61.8756 119.306ZM63.1204 127.478C63.1308 127.66 63.1413 127.848 63.1517 128.03C62.8027 128.697 62.4329 129.353 62.0631 130.009C62.0631 129.837 62.0527 129.645 62.0475 129.468C62.4121 128.806 62.7819 128.15 63.1204 127.478ZM62.0683 98.7123C61.959 97.6342 61.8548 96.5509 61.7558 95.4727C61.985 94.6446 62.1986 93.8165 62.4173 92.9831C62.6204 94.0196 62.8288 95.0509 63.0163 96.0873C62.6986 96.9623 62.3861 97.8373 62.0683 98.7123ZM61.4017 91.504C61.3913 91.3738 61.3808 91.2384 61.3704 91.1081C61.5215 90.7436 61.6621 90.3738 61.8131 90.0092C61.8131 90.0352 61.8183 90.0561 61.8236 90.0769C61.6829 90.5509 61.5423 91.03 61.4017 91.504ZM61.8392 113.587C61.5579 114.686 61.2715 115.78 60.9746 116.874C60.7819 115.181 60.5683 113.452 60.3496 111.707C60.6517 110.884 60.9486 110.061 61.2558 109.244C61.4642 110.686 61.6569 112.139 61.8392 113.587ZM61.86 142.52C61.8756 141.759 60.6777 142.004 60.1048 142.259C60.3131 142.15 60.5215 142.035 60.7246 141.921C61.5788 141.426 62.4069 140.9 63.209 140.327C65.3548 140.066 66.6725 137.926 67.9069 136.363C68.7611 136.488 69.6413 136.108 70.5319 135.421C67.9277 138.139 65.0371 140.504 61.86 142.52ZM68.7506 135.337C68.9433 135.119 69.1413 134.905 69.3444 134.686C69.6256 134.363 69.8861 134.02 70.1465 133.681C70.3861 133.712 70.584 133.634 70.735 133.447C72.4329 131.181 73.2871 128.4 74.4538 125.837C75.5111 123.712 76.2663 121.41 77.0631 119.129C77.1413 119.702 77.2142 120.275 77.2611 120.848C77.0736 120.957 76.9798 121.119 76.9954 121.337C77.0058 121.556 77.11 121.707 77.3131 121.796C76.6986 123.197 76.0579 124.587 75.3704 125.957C73.5736 129.275 71.9381 133.176 68.7506 135.337ZM74.6361 130.53C74.2767 131.025 73.8965 131.514 73.5163 131.999C75.9486 128.369 78.1986 123.228 79.7506 119.337C78.5996 123.322 76.8913 127.051 74.6361 130.53ZM81.235 111.197C80.3704 113.983 79.3861 116.738 78.2819 119.468C78.1881 118.634 78.0423 117.806 77.8444 116.994C78.709 114.744 79.735 112.598 81.2611 110.754C81.2558 110.9 81.2454 111.051 81.235 111.197ZM81.2142 108.343C81.2558 108.358 81.2923 108.369 81.334 108.379C81.334 108.577 81.334 108.775 81.3288 108.978C81.2819 109.004 81.2298 109.03 81.1829 109.061C81.1621 108.895 81.1465 108.728 81.1308 108.566C81.1569 108.494 81.1881 108.421 81.2142 108.343ZM78.0683 110.973C78.0736 111.322 78.1048 111.671 78.0736 112.02C77.9694 111.832 77.8861 111.624 77.7819 111.431C77.8756 111.28 77.9746 111.124 78.0683 110.973ZM76.8808 113.264C76.86 113.181 76.8392 113.098 76.8183 113.025C76.8913 112.9 76.9642 112.78 77.0371 112.66C77.1569 112.806 77.2923 112.936 77.4381 113.056C77.235 113.072 77.0475 113.139 76.8808 113.264ZM76.8444 105.363C77.0111 105.764 77.1725 106.171 77.3079 106.582C77.0683 107.395 76.8183 108.202 76.5683 109.009C76.3079 108.473 76.0267 107.962 75.7819 107.415C76.1152 106.723 76.4642 106.035 76.8444 105.363ZM75.9017 103.316C75.6413 104.103 75.36 104.879 75.0475 105.645C74.9121 105.327 74.7819 105.009 74.6517 104.691C74.959 104.025 75.2715 103.358 75.5996 102.702C75.6986 102.905 75.8027 103.113 75.9017 103.316ZM74.8444 101.16C74.9017 101.28 74.959 101.4 75.0163 101.52C74.8808 101.832 74.7194 102.134 74.5475 102.431C74.6465 102.009 74.7454 101.587 74.8444 101.16ZM74.7038 109.837C74.9642 110.671 75.2246 111.509 75.4746 112.348C75.2038 113.04 74.8965 113.723 74.5683 114.395C74.4538 113.311 74.3288 112.228 74.1881 111.15C74.36 110.712 74.5267 110.27 74.7038 109.837ZM73.7454 106.681C73.86 107.082 73.9798 107.478 74.0996 107.879C74.0111 108.072 73.9121 108.254 73.8236 108.447C73.7506 107.962 73.6777 107.483 73.6048 106.999C73.6465 106.895 73.6986 106.79 73.7454 106.681ZM73.0683 97.5456C73.0788 97.5717 73.0944 97.5977 73.1048 97.6238C72.9798 98.0925 72.86 98.5613 72.735 99.03C72.7142 99.1029 72.6933 99.1706 72.6725 99.2436C72.6465 99.1602 72.6152 99.0769 72.5892 98.9936C72.7506 98.5144 72.9121 98.03 73.0683 97.5456ZM72.5423 117.994C71.6413 119.436 70.6777 120.843 69.7402 122.244C70.7038 120.301 71.5475 118.311 72.2767 116.27C72.36 116.843 72.459 117.415 72.5423 117.994ZM71.6829 111.931C71.709 112.124 71.7402 112.322 71.7611 112.514C71.4694 113.066 71.1829 113.619 70.8861 114.171C71.1413 113.421 71.4173 112.676 71.6829 111.931ZM68.6517 84.754C69.4277 85.2279 70.1725 85.7436 70.8913 86.2956C70.8704 86.7019 70.9329 87.0925 71.0788 87.4727C70.3392 88.28 69.9954 89.3686 69.8079 90.4154C69.7558 90.3009 69.6881 90.1238 69.6152 89.9154C69.7819 89.2592 69.9642 88.6081 70.1308 87.9519C70.1777 87.53 69.8861 87.0144 69.4017 87.0925C69.1933 87.2019 69.0058 87.3425 68.8444 87.5092C68.6829 87.0196 68.5111 86.5196 68.3236 86.0404C68.4381 85.6029 68.5527 85.1759 68.6517 84.754ZM67.5058 88.9259C67.5631 89.1081 67.6308 89.2904 67.6829 89.4727C67.3027 90.405 66.985 91.405 66.584 92.1081C66.6308 91.8321 67.0319 90.5404 67.5058 88.9259ZM66.5579 85.9623C66.5215 86.0717 66.485 86.1811 66.4486 86.2904C66.4486 86.0561 66.4381 85.8269 66.4381 85.5925C66.485 85.7175 66.5163 85.8373 66.5579 85.9623ZM66.2558 107.004C66.1204 106.093 65.9902 105.176 65.86 104.254C65.9433 103.931 66.0319 103.608 66.1152 103.28C66.1881 104.525 66.2454 105.764 66.2558 107.004ZM64.6881 82.8165C65.1673 82.9936 65.6361 83.1915 66.1048 83.405C65.8756 83.5248 65.6465 83.7904 65.4173 84.2384C65.2663 86.0873 65.209 87.9415 65.2558 89.7956C64.8808 90.8738 64.4902 91.9467 64.11 93.0196C63.8756 91.8009 63.6204 90.5821 63.3288 89.3738C63.4746 88.78 63.6413 88.1915 63.7819 87.5925C64.11 86.0873 64.5111 84.5873 64.7402 83.0717C64.735 82.9832 64.7194 82.8946 64.6881 82.8165ZM61.0944 83.2696C61.4381 83.0873 61.7923 82.9363 62.1256 82.7384C62.3496 82.5665 62.4277 82.3425 62.3652 82.0665C62.7819 82.1759 63.1933 82.3009 63.6048 82.4311C63.4173 82.6134 63.2715 82.8217 63.1725 83.0613C62.8496 83.8321 62.5267 84.6082 62.1986 85.379C62.0058 84.7592 61.8131 84.1394 61.5892 83.5248C61.4381 83.4207 61.2715 83.3425 61.0944 83.2904C61.0944 83.2852 61.0944 83.28 61.0944 83.2696ZM61.3027 87.5248C61.2454 87.655 61.1933 87.7904 61.1413 87.9206C61.0996 87.3061 61.0423 86.6915 61.0058 86.0769C61.1152 86.5561 61.1986 87.0404 61.3027 87.5248ZM60.4954 93.3009C60.5006 93.4102 60.5058 93.5248 60.5006 93.5925C60.485 93.5248 60.4746 93.4571 60.459 93.3894C60.4694 93.3581 60.4798 93.3321 60.4954 93.3009ZM59.5475 105.603C59.4746 105.077 59.4069 104.551 59.334 104.03C59.5736 103.202 59.8131 102.374 60.0527 101.546C60.1569 102.16 60.2611 102.77 60.36 103.379C60.0892 104.124 59.8183 104.863 59.5475 105.603ZM59.6048 88.9519C59.6986 88.629 59.8027 88.3113 59.8965 87.9884C59.9642 88.7904 60.0527 89.5977 60.1465 90.3581C60.084 90.5196 60.0163 90.6759 59.9538 90.8373C59.8392 90.2071 59.7246 89.5821 59.6048 88.9519ZM57.9538 81.5352C58.4642 81.4936 58.9746 81.4884 59.485 81.5092C59.7715 81.5457 60.0579 81.6029 60.3444 81.6446C60.3288 81.655 60.3183 81.6811 60.3027 81.6915C59.4798 81.9519 58.6465 82.1863 57.8079 82.405C57.86 82.1134 57.9069 81.8217 57.9538 81.5352ZM57.2038 86.1498C57.4225 87.2696 57.6413 88.3894 57.86 89.5092C57.7506 89.8738 57.6413 90.2331 57.5319 90.5977C57.2402 88.1602 57.0944 86.53 57.2038 86.1498ZM53.9381 82.3894C54.9277 82.0196 55.9433 81.7592 56.985 81.6186C56.8965 81.9779 56.7923 82.3321 56.6986 82.6863C55.7663 82.9154 54.834 83.1498 53.9121 83.3894C53.9642 83.0561 53.9746 82.7227 53.9381 82.3894ZM53.985 86.4363C53.485 87.78 53.4746 90.3217 53.5527 92.4988C53.4694 92.7331 53.3808 92.9623 53.2975 93.1967C53.1777 92.3477 52.9954 91.5248 52.5631 90.8061C52.4381 90.655 52.2819 90.5509 52.0944 90.504C52.3965 89.2696 52.7142 88.0404 53.0475 86.8165C53.36 86.6863 53.6725 86.5665 53.985 86.4363ZM52.1465 83.1707C52.1048 83.4259 52.0475 83.6811 52.0006 83.9363C51.0423 84.2227 50.0996 84.5613 49.1777 84.9571C50.1204 84.2904 51.11 83.6915 52.1465 83.1707ZM48.3861 89.1342C48.6621 88.9415 48.9329 88.7331 49.2142 88.5456C49.8652 88.2071 50.5423 87.9259 51.209 87.6238C50.6933 89.7019 50.0736 91.7488 49.3965 93.7852C49.0736 92.0925 48.6673 90.8009 48.1621 90.155C48.2298 89.8113 48.3183 89.4727 48.3861 89.1342ZM47.1152 120.171C47.485 118.962 47.86 117.754 48.2402 116.551C48.3236 117.843 48.4069 119.134 48.5006 120.426C47.9694 122.176 47.4329 123.926 46.9069 125.676C46.985 123.843 47.0527 122.004 47.1152 120.171ZM46.3704 90.6029C46.2194 91.3217 46.1204 92.0456 46.0683 92.78C45.2402 95.3477 44.334 97.8946 43.4277 100.436C43.4277 100.4 43.4277 100.369 43.4225 100.337C44.0527 97.2644 44.8756 94.2436 45.8808 91.2696C45.86 91.1759 45.834 91.1238 45.8079 91.0456C45.9954 90.8998 46.1777 90.7488 46.3704 90.6029ZM44.1569 92.379C43.6933 93.6186 43.2298 95.2175 42.8704 96.5509C42.7298 96.2436 42.5267 95.9831 42.2558 95.78C42.2923 95.6654 42.3183 95.5561 42.3548 95.4415C42.4225 95.2748 42.4173 95.1134 42.3496 94.9467C42.2819 94.7852 42.1621 94.6706 42.0006 94.6029C41.8861 94.5821 41.7767 94.5821 41.6673 94.6081C42.4798 93.8425 43.3079 93.0977 44.1569 92.379ZM40.9121 95.3269C40.9433 95.3009 40.9746 95.2696 41.0058 95.2384C40.9381 95.3894 40.8861 95.5456 40.8392 95.7019L40.9121 95.3269ZM41.1048 102.15C41.1361 102.572 41.1569 102.999 41.1829 103.421C41.0631 103.947 40.9329 104.468 40.8079 104.988C40.9121 104.04 40.9902 103.093 41.1048 102.15ZM38.0944 95.0352C38.4694 95.1342 38.8756 94.8894 39.2663 94.5561C39.2402 94.6342 39.2194 94.7175 39.1933 94.8009C38.7142 95.2748 38.235 95.7488 37.7611 96.2331C37.86 95.8686 37.9746 95.4623 38.0944 95.0352ZM38.2715 97.9675C38.0527 98.7644 37.8444 99.5665 37.6361 100.369C37.61 99.8217 37.5892 99.2696 37.5527 98.7227C37.7871 98.4675 38.0319 98.2175 38.2715 97.9675ZM38.4694 142.572C38.5267 142.389 38.584 142.207 38.6413 142.025C38.7246 141.983 38.8131 141.962 38.8965 141.91C39.5579 141.603 40.209 141.28 40.8652 140.962C40.7871 142.02 40.7923 142.889 40.9173 143.462C38.5892 143.462 36.2923 143.176 34.0267 142.613C35.0683 142.858 36.11 142.853 37.1517 142.587C37.334 143.191 38.2819 143.337 38.4694 142.572ZM36.4486 139.952C36.5892 138.832 36.7871 137.718 36.9642 136.603C37.0058 136.613 37.0527 136.624 37.0996 136.629C36.886 137.738 36.6413 138.837 36.4486 139.952ZM33.0215 72.3946C32.0996 72.0769 31.2194 73.9207 30.9902 74.7332C32.2298 68.9259 33.459 63.129 34.8288 57.3582C35.86 52.9727 36.9277 48.6029 38.0371 44.2436C38.709 43.6915 39.4069 43.1602 40.0944 42.6186C35.7402 52.0717 33.3861 61.9988 33.0215 72.3946ZM33.2506 52.1654C33.5475 50.3842 33.8496 48.6134 35.0996 47.254C34.8236 48.7696 34.5058 50.28 34.1777 51.7852C34.084 51.7904 33.9954 51.8113 33.9121 51.8321C33.6881 51.9363 33.4694 52.0613 33.2506 52.1654ZM38.209 34.1186C37.7767 34.7956 37.334 35.4675 36.9017 36.1446C36.6777 36.3061 36.4538 36.4675 36.2246 36.6342C36.8288 35.7696 37.5736 34.9831 38.209 34.1186ZM35.7663 28.78C35.4277 28.8581 35.0944 28.9311 34.7558 29.004C35.4069 28.3477 36.1048 27.754 36.8496 27.2175C36.886 27.3634 36.9121 27.5196 36.9173 27.6706C36.5371 28.0456 36.1465 28.405 35.7663 28.78ZM38.209 26.2852C38.2767 26.2488 38.3444 26.2071 38.4121 26.1706C38.3548 26.2279 38.3027 26.28 38.2454 26.3373C38.2402 26.3165 38.2194 26.3061 38.209 26.2852ZM42.5944 37.6706C42.1413 37.7071 41.735 37.8738 41.3808 38.1602C41.0163 38.5144 40.6308 38.8373 40.2558 39.1759C41.235 37.6186 42.2246 36.0717 43.235 34.5352C43.9433 34.0352 44.6361 33.5144 45.3444 33.0144C44.3704 34.5248 43.4642 36.0821 42.5944 37.6706ZM41.6725 32.6967C42.4069 31.3425 43.2038 30.0352 44.0423 28.754C44.1933 28.7227 44.3496 28.6967 44.5006 28.6706C43.7142 29.8842 42.9433 31.1029 42.1881 32.3269C42.0215 32.4467 41.8444 32.5717 41.6725 32.6967ZM67.2767 8.59252C67.6204 8.71231 67.9642 8.82169 68.3079 8.97273C68.6204 9.17065 69.0423 9.7019 68.8131 10.1446C65.2975 14.2279 60.7402 17.3998 56.4277 20.8477C58.5215 18.6342 60.584 16.3894 62.5215 14.0456C65.2506 11.9519 67.9381 10.0196 67.2767 8.59252ZM61.9486 8.67586C63.1725 8.72273 64.3652 8.9519 65.5215 9.35294C64.5371 10.28 63.3704 11.1186 62.3079 11.9988C59.9902 11.9259 57.9746 14.0769 56.0267 15.1863C52.0319 18.3321 48.8392 22.2748 45.9694 26.4623C45.8288 26.4936 45.6881 26.5092 45.5475 26.5352C48.4173 22.5717 51.6204 18.905 55.1673 15.53C57.2298 13.1446 60.4381 11.3686 61.9486 8.67586ZM46.3913 22.8686C46.7454 22.1446 47.4173 21.3009 47.8913 20.4363C48.3079 20.1759 48.7246 19.9259 49.1361 19.6654C48.3288 20.5873 47.5371 21.5196 46.7663 22.4727C46.6465 22.6186 46.5319 22.7644 46.4121 22.9102C46.4069 22.8946 46.3965 22.8842 46.3913 22.8686ZM52.5631 15.9675C52.3027 15.7331 52.0058 15.5769 51.6621 15.4936C51.3704 15.4988 51.084 15.5352 50.7975 15.5977C52.8236 13.6134 55.0319 11.8061 57.7038 10.9259C55.9538 12.5665 54.2402 14.2488 52.5631 15.9675ZM41.6256 16.1811C44.5683 14.3581 47.8288 12.2748 51.2506 10.629C49.5579 11.7592 47.9277 12.9831 46.36 14.1134C40.6569 17.6915 35.3183 21.9311 30.959 27.0613C29.5579 24.5561 27.3808 29.254 26.4902 30.2852C26.386 29.5873 26.209 29.1186 25.985 28.8217C30.6413 24.0196 35.9954 19.8425 41.6256 16.1811ZM33.4746 30.9884C32.2767 32.1498 31.0892 33.3321 29.8652 34.4675C30.86 33.4102 31.8183 32.2488 32.7975 31.1081C33.0267 31.0717 33.2506 31.03 33.4746 30.9884ZM26.4433 39.5925C28.8444 36.1081 32.7298 33.655 35.6881 30.5404C35.7142 30.5352 35.7402 30.53 35.7715 30.5248C32.4173 35.0144 29.1673 39.5561 26.0788 44.2279C25.5944 44.6082 25.1256 44.9779 24.6673 45.3425C24.5163 44.8738 24.1465 44.5613 23.5319 44.8582C24.5736 43.1238 25.5475 41.4259 26.4433 39.5925ZM23.3392 34.1915C23.1673 34.7488 22.9902 35.3009 22.8131 35.8529C21.1881 38.9727 19.4017 42.004 17.4538 44.9415C19.1725 41.2227 21.1308 37.6394 23.3392 34.1915ZM14.1465 46.2019C14.1308 46.2384 14.1152 46.2696 14.0996 46.3061C15.0319 44.155 16.1048 42.0769 17.3183 40.0769C14.0319 47.1029 11.4017 54.8165 12.5319 55.4571C11.9121 57.2852 3.34959 73.9571 8.03709 72.4311C7.30793 74.6394 6.70897 76.879 6.24022 79.155C5.65688 78.4154 4.96418 79.1967 5.08397 79.8842C5.08397 96.28 6.11001 114.348 14.2506 128.91C14.1986 129.004 14.1569 129.103 14.11 129.202C10.7454 124.895 8.50584 120.061 7.39647 114.707C1.46938 91.9884 4.38084 67.3894 14.1673 46.1602C14.1621 46.1759 14.1569 46.1863 14.1465 46.2019Z" fill="#103E7C"/>
</g>
</svg>
