<svg width="204" height="89" viewBox="0 0 204 89" fill="none" xmlns="http://www.w3.org/2000/svg">
<mask id="mask0_2537_683" style="mask-type:luminance" maskUnits="userSpaceOnUse" x="0" y="0" width="204" height="89">
<path d="M0.3125 0.335938H203.359V88.2891H0.3125V0.335938Z" fill="white"/>
</mask>
<g mask="url(#mask0_2537_683)">
<mask id="mask1_2537_683" style="mask-type:luminance" maskUnits="userSpaceOnUse" x="0" y="0" width="204" height="89">
<path d="M25.3073 0.335938H178.339C192.141 0.335938 203.333 11.5286 203.333 25.3307V63.2943C203.333 77.1016 192.141 88.2891 178.339 88.2891H25.3073C11.5 88.2891 0.3125 77.1016 0.3125 63.2943V25.3307C0.3125 11.5286 11.5 0.335938 25.3073 0.335938Z" fill="white"/>
</mask>
<g mask="url(#mask1_2537_683)">
<path d="M0.3125 0.335938H203.359V88.2891H0.3125V0.335938Z" fill="#EF0B0B"/>
</g>
</g>
<path d="M31.5547 36.3229V21.2812H38.2214C39.8724 21.2812 41.1276 21.6875 41.9922 22.4896C42.8672 23.2813 43.3047 24.375 43.3047 25.7604C43.3047 27.1354 42.8672 28.2344 41.9922 29.0521C41.1276 29.8594 39.8724 30.2604 38.2214 30.2604H34.3047V36.3229H31.5547ZM34.3047 28.0938H37.9089C38.8255 28.0938 39.5026 27.8958 39.9505 27.4896C40.4089 27.0729 40.638 26.5 40.638 25.7604C40.638 25.026 40.4089 24.4583 39.9505 24.0521C39.5026 23.651 38.8255 23.4479 37.9089 23.4479H34.3047V28.0938Z" fill="white"/>
<path d="M45.7578 36.3229V21.2812H48.5078V33.9896H55.5911V36.3229H45.7578Z" fill="white"/>
<path d="M56.0312 36.3229L62.8438 21.2812H65.1354L72.0313 36.3229H69.2396L67.4063 32.0938L68.5104 32.8438H59.4896L60.6354 32.0938L58.8021 36.3229H56.0312ZM63.9688 24.2188L60.9688 31.3438L60.4063 30.6979H67.5729L67.1146 31.3438L64.0521 24.2188H63.9688Z" fill="white"/>
<path d="M78.9427 36.5365C77.7344 36.5365 76.6146 36.3802 75.5885 36.0781C74.5729 35.776 73.7031 35.349 72.9844 34.8073L73.8385 32.6615C74.3229 32.9948 74.8281 33.2813 75.3594 33.5156C75.8854 33.7552 76.4479 33.9323 77.0469 34.0573C77.6406 34.1823 78.276 34.2448 78.9427 34.2448C80.0677 34.2448 80.8698 34.0573 81.3594 33.6823C81.8594 33.3073 82.1094 32.8229 82.1094 32.224C82.1094 31.7135 81.9323 31.3177 81.5885 31.0365C81.2552 30.7604 80.651 30.526 79.776 30.3281L77.3594 29.849C75.9844 29.5573 74.9479 29.0781 74.2552 28.4115C73.5729 27.7448 73.2344 26.849 73.2344 25.724C73.2344 24.7813 73.4844 23.9635 73.9844 23.2656C74.4844 22.5729 75.1771 22.0365 76.0677 21.6615C76.9687 21.276 78.0156 21.0781 79.2135 21.0781C80.2812 21.0781 81.2656 21.2344 82.1719 21.5365C83.0885 21.8438 83.849 22.2813 84.4635 22.849L83.6094 24.8906C82.9948 24.3802 82.3281 23.9948 81.6094 23.7448C80.8854 23.4948 80.0729 23.3698 79.1719 23.3698C78.1562 23.3698 77.3646 23.5729 76.7969 23.974C76.2396 24.3646 75.9635 24.901 75.9635 25.5781C75.9635 26.1094 76.1354 26.5313 76.4844 26.849C76.8437 27.1563 77.4427 27.3906 78.276 27.5573L80.6719 28.0365C82.0885 28.3177 83.1354 28.7813 83.8177 29.4323C84.4948 30.0729 84.8385 30.9427 84.8385 32.0365C84.8385 32.9427 84.5938 33.7344 84.1094 34.4115C83.6354 35.0781 82.9531 35.599 82.0677 35.974C81.1927 36.349 80.151 36.5365 78.9427 36.5365Z" fill="white"/>
<path d="M90.987 36.3229V23.5521H86.0078V21.2812H98.7161V23.5521H93.737V36.3229H90.987Z" fill="white"/>
<path d="M100.641 36.3229V21.2812H103.391V36.3229H100.641Z" fill="white"/>
<path d="M113.695 36.5365C112.122 36.5365 110.779 36.224 109.654 35.599C108.539 34.9635 107.685 34.0677 107.091 32.9115C106.492 31.7448 106.195 30.3802 106.195 28.8073C106.195 27.224 106.492 25.8594 107.091 24.7031C107.685 23.5521 108.539 22.6615 109.654 22.0365C110.779 21.401 112.122 21.0781 113.695 21.0781C114.747 21.0781 115.695 21.2344 116.529 21.5365C117.372 21.8281 118.102 22.2656 118.716 22.849L117.82 25.0156C117.154 24.474 116.508 24.0938 115.883 23.8698C115.268 23.6354 114.57 23.5156 113.779 23.5156C112.247 23.5156 111.081 23.974 110.279 24.8906C109.487 25.8073 109.091 27.1146 109.091 28.8073C109.091 30.4896 109.487 31.7969 110.279 32.724C111.081 33.6563 112.247 34.1198 113.779 34.1198C114.57 34.1198 115.268 34.0052 115.883 33.7656C116.508 33.5313 117.154 33.1354 117.82 32.5781L118.716 34.7448C118.102 35.3177 117.372 35.7604 116.529 36.0781C115.695 36.3802 114.747 36.5365 113.695 36.5365Z" fill="white"/>
<path d="M125.477 36.3229L132.289 21.2812H134.581L141.477 36.3229H138.685L136.852 32.0938L137.956 32.8438H128.935L130.081 32.0938L128.247 36.3229H125.477ZM133.414 24.2188L130.414 31.3438L129.852 30.6979H137.018L136.56 31.3438L133.497 24.2188H133.414Z" fill="white"/>
<path d="M143.133 36.3229V21.2812H145.195L153.924 32.5729H153.362V21.2812H155.924V36.3229H153.862L145.154 25.0313H145.695V36.3229H143.133Z" fill="white"/>
<path d="M159.234 36.3229V21.2812H164.693C166.411 21.2812 167.865 21.5833 169.047 22.1771C170.24 22.7604 171.141 23.6146 171.755 24.7396C172.365 25.8542 172.672 27.2083 172.672 28.8021C172.672 30.375 172.365 31.7188 171.755 32.8438C171.141 33.9688 170.24 34.8333 169.047 35.4271C167.865 36.026 166.411 36.3229 164.693 36.3229H159.234ZM161.984 34.0313H164.526C166.344 34.0313 167.693 33.6042 168.568 32.7396C169.453 31.8802 169.901 30.5677 169.901 28.8021C169.901 27.026 169.453 25.7083 168.568 24.8438C167.693 23.9844 166.344 23.5521 164.526 23.5521H161.984V34.0313Z" fill="white"/>
<path d="M70.2734 65.3151V50.2734H72.6901L78.2109 62.7109H77.5443L83.0651 50.2734H85.4609V65.3151H82.9609V54.1484H83.7318L78.6693 65.3151H77.0443L71.9818 54.1484H72.7734V65.3151H70.2734Z" fill="white"/>
<path d="M88.7969 65.3151V50.2734H98.9219V52.4401H91.4427V56.5859H98.4427V58.7734H91.4427V63.1484H98.9219V65.3151H88.7969Z" fill="white"/>
<path d="M105.026 65.3151V52.5443H100.047V50.2734H112.755V52.5443H107.776V65.3151H105.026Z" fill="white"/>
<path d="M113.016 65.3151L119.828 50.2734H122.12L129.016 65.3151H126.224L124.391 61.0859L125.495 61.8359H116.474L117.62 61.0859L115.786 65.3151H113.016ZM120.953 53.2109L117.953 60.3359L117.391 59.6901H124.557L124.099 60.3359L121.036 53.2109H120.953Z" fill="white"/>
<path d="M130.672 65.3151V50.2734H133.422V62.9818H140.505V65.3151H130.672Z" fill="white"/>
</svg>
