<svg width="187" height="150" viewBox="0 0 187 150" fill="none" xmlns="http://www.w3.org/2000/svg">
<mask id="mask0_2484_182" style="mask-type:luminance" maskUnits="userSpaceOnUse" x="0" y="0" width="187" height="150">
<path d="M0 0.523438H186.667V149.331H0V0.523438Z" fill="white"/>
</mask>
<g mask="url(#mask0_2484_182)">
<path d="M48.9843 1.50237C38.0208 1.92425 26.9531 5.65342 17.7083 11.4972C-1.81777 24.4086 -6.8959 59.2472 15.0156 72.2888C29.0729 81.0597 47.1666 71.4815 50.927 56.1378C51.0416 56.0336 51.151 55.9243 51.2656 55.8201C61.2343 71.7159 64.3906 91.7992 55.9687 109.054C52.7239 116.643 48.1874 123.565 43.7083 130.466C41.3489 133.94 38.9531 137.403 36.6093 140.961C34.9062 142.971 33.677 146.492 36.6354 148.174C44.3801 151.461 52.7083 145.476 58.6666 140.877C68.5885 132.565 74.9426 120.815 80.2135 109.169C84.8124 98.7836 89.4479 88.2888 92.1145 77.2107C96.5156 58.5493 96.2135 37.893 86.0624 21.0909C78.3229 8.63779 63.4583 1.50758 48.9843 1.50237ZM85.9166 34.143C84.9791 32.2263 84.2708 30.1899 83.302 28.2836C83.2916 28.0545 83.276 27.8253 83.2604 27.5961C84.6718 29.4763 85.7291 31.5388 85.9166 34.143ZM82.7343 55.6795C82.7239 55.5753 82.6927 55.4763 82.6354 55.3878C83.2708 51.9972 83.427 48.5076 85.1666 45.4503C86.6614 50.0701 83.5989 54.8149 82.5312 59.2524C82.776 58.0753 82.9479 56.8722 82.7343 55.6795ZM60.0729 10.7472C60.802 11.1586 61.4218 11.6951 61.9426 12.3565C61.5885 12.393 61.2447 12.4815 60.9166 12.617C60.7551 12.3982 60.5468 12.3253 60.2864 12.3878C60.2187 11.8409 60.1458 11.294 60.0729 10.7472ZM60.1979 46.6118C60.0051 46.7263 59.8124 46.8409 59.6197 46.9555C59.5676 46.8513 59.5156 46.742 59.4583 46.6378C59.6301 46.3357 59.802 46.0388 59.9843 45.742C59.9999 45.7263 60.0156 45.7055 60.026 45.6847C60.0781 45.992 60.1301 46.3045 60.1979 46.6118ZM61.5364 14.367C61.9374 14.4607 62.3333 14.5545 62.7291 14.669C62.6926 14.919 62.6354 15.1586 62.552 15.3982C62.1093 15.0961 61.6718 14.7992 61.2291 14.4972C61.3333 14.4555 61.4374 14.4138 61.5364 14.367ZM62.2864 19.5076C62.3697 19.6326 62.4531 19.7628 62.526 19.893C62.5833 19.9972 62.6458 20.1065 62.7031 20.2107C62.5104 20.4659 62.3176 20.7211 62.1249 20.9711C61.8854 21.2836 61.651 21.5961 61.4114 21.9086C61.3801 21.6065 61.3437 21.3097 61.3072 21.0076C61.6354 20.5128 61.9635 20.0128 62.2864 19.5076ZM63.2708 24.8878C63.2239 25.2003 63.1874 25.5128 63.1458 25.8253C62.8697 26.5128 62.5989 27.1951 62.3229 27.8826C62.2551 27.9711 62.1874 28.0545 62.1197 28.143C62.1197 28.1118 62.1145 28.0857 62.1145 28.0545C62.5104 27.0024 62.8854 25.9451 63.2708 24.8878ZM62.7447 48.9972C62.7968 49.3565 62.8489 49.7159 62.901 50.0753C62.9739 50.6118 63.0833 51.1482 63.1614 51.6847C62.9531 51.8253 62.7395 51.9607 62.5208 52.0961C62.4479 51.7888 62.3749 51.4815 62.302 51.1795C62.2291 50.8513 62.151 50.518 62.0676 50.1847C62.2916 49.7888 62.5208 49.393 62.7447 48.9972ZM63.3593 53.7784C63.427 53.7315 63.4895 53.6899 63.5572 53.643C63.5937 53.7524 63.6354 53.8618 63.677 53.9659C63.8124 54.2628 64.0364 54.4607 64.3541 54.5545C64.4114 55.0597 64.151 55.4868 63.9635 55.9399C63.651 55.2888 63.3437 54.643 63.0364 53.992C63.1458 53.919 63.2499 53.8461 63.3593 53.7784ZM64.3124 72.8409C64.6145 72.8461 64.9166 72.8149 65.2187 72.7472C65.8124 76.5649 65.7604 80.4555 65.8906 84.3149C65.7343 83.2732 65.5676 82.2368 65.3906 81.2055C64.9999 78.3982 64.1614 75.643 64.0468 72.8097C64.1354 72.8253 64.2239 72.8357 64.3124 72.8409ZM64.8385 39.6899C64.8124 39.1378 64.7864 38.5805 64.7656 38.0232C64.8124 37.9503 64.8593 37.8774 64.9062 37.8045C64.8854 38.4347 64.8645 39.0597 64.8385 39.6899ZM64.901 70.9451C64.8593 70.9503 64.8176 70.9607 64.7812 70.9659C64.7656 70.9659 64.7551 70.9659 64.7395 70.9711C64.7343 70.794 64.7551 70.6222 64.8124 70.4555C64.8385 70.617 64.8697 70.7836 64.901 70.9451ZM64.6874 33.4347V32.5076C64.6874 32.1326 64.677 31.7628 64.6926 31.3878C64.7083 31.0493 64.7239 30.7107 64.7395 30.3722C64.8697 30.2211 64.9947 30.0753 65.1197 29.9243C65.1041 30.9034 65.0833 31.8878 65.0572 32.8722C64.9322 33.0597 64.8072 33.2472 64.6874 33.4347ZM65.1874 16.1951C65.1979 16.1847 65.2083 16.1742 65.2187 16.1638V16.3045C65.2083 16.268 65.1979 16.2315 65.1874 16.1951ZM65.8176 110.976C66.052 109.07 66.4479 107.185 67.4687 105.528C67.6614 106.06 67.6458 106.929 68.3489 106.992C67.5156 108.487 66.6458 109.955 65.7447 111.414C65.7708 111.268 65.7916 111.122 65.8176 110.976ZM71.2395 34.9659C71.2864 34.893 71.3333 34.8253 71.3801 34.7524C71.3697 35.044 71.3541 35.3409 71.3385 35.6326C71.1406 35.9138 70.9426 36.1951 70.7239 36.4555C70.677 36.518 70.6301 36.5753 70.5833 36.6326C70.6145 36.367 70.651 36.1013 70.6822 35.8357C70.8749 35.5388 71.0624 35.2472 71.2499 34.9503C71.2447 34.9555 71.2395 34.9607 71.2395 34.9659ZM70.8906 74.4555C70.8593 74.0701 70.8333 73.6847 70.8072 73.2993C70.7343 72.2159 70.6614 71.1274 70.5833 70.0388C70.5624 69.6638 70.5364 69.294 70.5051 68.919C71.2083 68.2107 71.8801 67.4763 72.526 66.7211C72.3749 69.3774 71.5208 71.893 70.8906 74.4555ZM72.3801 82.7211C72.2708 83.0753 72.1666 83.4295 72.0572 83.7888C72.1093 83.4451 72.1614 83.1065 72.2187 82.7628C72.2708 82.7524 72.3229 82.7368 72.3801 82.7211ZM72.6562 98.2576C71.4426 100.622 70.3541 103.284 68.8281 105.518C68.1301 101.752 71.6354 98.6326 73.0676 95.3253C72.8958 96.2836 72.2916 97.294 72.6562 98.2576ZM68.3281 70.9138C68.6979 76.9347 69.1822 82.7003 69.6874 88.7732C68.0885 83.1951 67.6458 77.4347 67.3229 71.669C67.6666 71.4295 67.9999 71.1743 68.3281 70.9138ZM67.1197 69.7472C67.0051 68.6743 66.8854 67.6065 66.7656 66.5336C66.7656 66.5284 66.7656 66.5232 66.7656 66.518C66.9531 66.7003 67.1718 66.8253 67.4218 66.9034C67.6458 66.9555 67.8645 66.9659 68.0885 66.9295L68.0937 67.0232C68.1301 67.6482 68.1666 68.268 68.2031 68.893C67.8489 69.1899 67.4895 69.4711 67.1197 69.7472ZM68.7083 27.4711C68.552 27.6951 68.3958 27.919 68.2395 28.1482C68.151 27.8149 68.0468 27.4868 67.9374 27.1586C67.8854 26.9868 67.8385 26.8097 67.7864 26.6378C68.2499 26.0597 68.7083 25.4763 69.1666 24.8982C69.1979 24.8618 69.2239 24.8305 69.2499 24.794C69.2968 24.9659 69.3437 25.1378 69.3906 25.3045C69.4687 25.5961 69.5468 25.8826 69.6301 26.1743C69.3176 26.6065 69.0156 27.0388 68.7083 27.4711ZM69.5885 31.5961C69.4687 32.2524 69.526 32.9868 69.2968 33.6013C69.2395 33.1274 69.1718 32.6638 69.0937 32.2003C69.2604 31.9972 69.427 31.7993 69.5885 31.5961ZM70.0364 52.0649C70.1041 50.7836 70.2187 49.5128 70.4114 48.2524C70.4426 48.1951 70.4739 48.1326 70.4999 48.0753C70.427 48.8618 70.3541 49.6482 70.2812 50.4347C70.1926 51.4451 70.0937 52.4503 69.9947 53.4555C69.9999 52.9815 70.0156 52.5128 70.0416 52.044C70.0364 52.0493 70.0364 52.0545 70.0364 52.0649ZM69.6301 43.9555C69.8072 42.6065 69.9843 41.2576 70.1562 39.9034C70.5051 39.4763 70.8541 39.0493 71.2031 38.6222C71.2343 40.5961 70.9426 42.4086 69.6301 43.9555ZM68.0051 87.7992C68.1041 88.268 68.2187 88.7367 68.3489 89.2003C68.3854 89.3513 68.427 89.5024 68.4635 89.6482C68.3229 89.6951 68.2135 89.7836 68.1458 89.9138C68.0781 90.0388 68.0104 90.169 67.9426 90.294C67.9739 89.5545 68.0051 88.8149 68.0051 88.0701C68.0051 87.9815 68.0051 87.8878 68.0051 87.7992ZM67.4062 99.1378C67.526 96.5336 68.6406 94.1274 69.1718 91.5857C69.177 91.5961 69.1874 91.6065 69.1926 91.617C69.276 91.7576 69.3697 91.893 69.4687 92.0232C68.9583 94.4503 68.1406 96.8305 67.401 99.1951C67.401 99.1742 67.4062 99.1586 67.4062 99.1378ZM70.3645 66.8618C70.3593 66.7055 70.3489 66.544 70.3385 66.3826C70.2916 65.4503 70.2395 64.5232 70.1822 63.5961C72.1562 62.0961 71.052 57.893 73.0468 56.1899C73.0572 58.8149 73.0468 61.4555 72.8489 64.0649C72.0572 65.044 71.2447 65.9503 70.3645 66.8618ZM70.9322 18.9451C70.3906 18.8982 69.8854 19.1899 69.4843 19.5336C69.1197 18.7524 68.5416 17.8722 67.6926 17.5961C67.7864 17.3617 67.8801 17.117 67.9791 16.8774C68.9583 17.4138 69.9479 17.9347 70.9374 18.4555C70.9322 18.6222 70.9322 18.7888 70.9322 18.9451ZM67.6979 36.0805L67.5833 36.268C67.5208 35.617 67.4739 34.9659 67.4218 34.3149C67.4218 34.3201 67.4218 34.3201 67.4218 34.3253C67.4218 34.2836 67.4166 34.242 67.4166 34.1951L67.4218 34.1899C67.4687 34.4972 67.5156 34.8097 67.5624 35.1222C67.6145 35.4399 67.6562 35.7576 67.6979 36.0805ZM67.2864 21.7524H67.2812L67.2708 21.2836C67.3645 21.3409 67.4583 21.3982 67.5468 21.4555C67.4583 21.5545 67.3697 21.6534 67.2864 21.7524ZM67.7499 42.5961C67.8229 42.6378 67.901 42.6638 67.9791 42.7003C68.0676 42.7368 68.1562 42.7524 68.2499 42.7524C68.1406 43.6065 68.0364 44.4607 67.9322 45.3149C67.8229 46.1951 67.7083 47.0753 67.5989 47.9607C67.3072 48.2472 67.0104 48.5336 66.7135 48.8149C66.7968 47.018 66.8801 45.2159 66.9531 43.419C67.2187 43.143 67.4895 42.8826 67.7499 42.5961ZM67.8072 112.414C69.9426 108.888 72.2499 105.414 74.2291 101.789C72.7864 106.039 70.3229 109.638 67.4374 113.034C67.5572 112.825 67.6822 112.617 67.8072 112.414ZM71.6614 95.143C72.9895 91.7732 74.1718 88.3409 75.3593 84.9243C75.5676 84.3357 75.7604 83.7368 75.9479 83.1326C75.8906 83.3982 75.8437 83.6638 75.8124 83.9347C75.7916 84.1638 75.8801 84.3357 76.0781 84.4503C75.1926 88.2993 73.9426 91.8878 71.6614 95.143ZM75.6562 76.0961C75.8541 75.4295 76.0572 74.7628 76.2551 74.0961C77.1666 71.0336 78.1145 67.992 79.0885 64.9555C78.0937 68.6899 77.1041 72.5232 75.6562 76.0961ZM76.9166 67.6118C75.2499 71.8045 74.8801 76.8149 72.5468 80.5909C72.5624 80.4295 72.5781 80.268 72.5989 80.1065C72.6926 79.3618 72.7916 78.6065 72.8801 77.8618C74.6666 70.0076 77.1874 62.3982 80.4426 55.0284C80.026 59.3826 78.0104 63.393 76.9166 67.6118ZM79.2083 35.6222C79.1041 37.4295 78.6354 38.992 77.4947 40.4138C77.552 39.8045 77.6093 39.1951 77.6614 38.5857C77.677 37.4399 78.7135 36.6222 79.2083 35.6222ZM78.3541 29.6065C78.3906 29.0805 78.427 28.5597 78.4635 28.0336C78.7343 27.5388 78.9739 27.0284 79.177 26.4972C79.2083 26.5753 79.2395 26.6482 79.276 26.7211C79.401 27.143 79.526 27.5649 79.6562 27.9815C79.2135 28.492 78.7604 29.0493 78.3541 29.6065ZM79.2239 47.2159C79.3333 47.242 79.4426 47.2576 79.5572 47.2576C79.7968 47.2472 80.0208 47.1847 80.2343 47.0701C79.3333 49.2784 78.4114 51.4868 77.5781 53.7211C77.6301 53.4295 77.677 53.1326 77.7291 52.8409C78.1874 50.9503 78.0364 48.8305 79.2239 47.2159ZM77.6301 46.0493C77.5729 46.4243 77.5104 46.7993 77.4479 47.1743C77.1718 47.6378 76.901 48.1013 76.6249 48.5649C76.8333 47.544 76.6406 46.3774 77.1666 45.4711C77.2031 45.518 77.2395 45.5701 77.2812 45.617C77.3958 45.7628 77.5104 45.9086 77.6301 46.0493ZM75.401 32.8878C75.2708 33.8618 75.0833 34.7836 74.4739 35.5805C74.3749 35.2836 74.2708 34.9868 74.1666 34.6951C74.5833 34.0961 74.9895 33.4868 75.401 32.8878ZM73.9739 31.8565C73.9843 31.5128 73.9895 31.169 73.9999 30.8253C74.7187 29.7784 75.4791 28.7524 76.2864 27.7732C75.901 29.268 74.7135 30.4972 73.9739 31.8565ZM76.2031 52.1118C76.276 51.7263 76.6249 51.4347 76.8124 51.0909C76.3176 54.0597 75.8072 57.0284 75.2812 59.9972C75.2083 60.2055 75.1406 60.4138 75.0676 60.6222C75.4843 57.794 75.8645 54.9503 76.2031 52.1118ZM76.8541 23.7993C76.8281 23.9659 76.802 24.1378 76.776 24.3097C75.651 24.9763 74.8489 26.0545 74.0104 27.0388C74.0051 26.6274 74.0051 26.2159 73.9947 25.8045C74.9374 24.4868 75.9426 23.2211 76.8072 21.8617C77.026 22.2472 77.2343 22.6326 77.4374 23.0232C77.1041 23.1743 76.9062 23.4347 76.8541 23.7993ZM73.8176 20.7159C73.8072 20.4607 73.7916 20.2055 73.7812 19.9503C73.7812 19.9451 73.7812 19.9451 73.7812 19.9451C73.9583 20.0336 74.1354 20.117 74.3124 20.2107C74.1458 20.3774 73.9739 20.5388 73.8176 20.7159ZM79.276 43.8722C79.4166 41.6847 80.2239 39.9138 81.5833 38.1899C81.5676 40.2732 80.0781 41.992 79.276 43.8722ZM79.6718 23.5649C79.9895 23.893 80.302 24.2211 80.6093 24.544C80.6041 24.8826 80.6041 25.2159 80.5781 25.5493C80.3072 24.9347 80.0208 24.3305 79.7239 23.7315C79.7083 23.6743 79.6874 23.6222 79.6718 23.5649ZM81.1406 32.544C81.2604 32.893 81.3801 33.242 81.4999 33.5909C81.5156 34.0128 81.5364 34.4347 81.5468 34.8565C81.4843 34.9086 81.4322 34.9659 81.3749 35.0232C81.0937 35.3201 80.8281 35.6378 80.5781 35.9555C80.7604 34.8305 80.9426 33.7003 81.1249 32.5753C81.1301 32.5649 81.1354 32.5545 81.1406 32.544ZM79.6458 20.2992C80.1354 20.9659 80.6041 21.6534 81.0624 22.3461C80.1926 21.7836 79.3437 21.2055 78.7395 20.3774C78.6145 20.2472 78.4687 20.1742 78.2916 20.1534C78.1145 20.1326 77.9531 20.169 77.802 20.268C76.401 17.9659 74.7291 15.8826 72.7812 14.0128C75.3385 15.8149 77.6249 17.9086 79.6458 20.2992ZM75.2499 19.2524C74.7239 18.992 74.1979 18.742 73.677 18.4763C73.6406 18.0545 73.5781 17.6326 73.4947 17.2107C73.3333 16.2107 72.0885 15.9242 71.4218 16.5909C71.276 16.7628 71.1718 16.9555 71.1041 17.169C70.1979 16.7003 69.2864 16.2367 68.3801 15.7628C68.4583 15.4451 68.3541 15.2055 68.0624 15.0545C68.2708 14.143 68.1354 13.2576 67.0833 13.0701C67.1197 12.3305 66.9583 11.2784 65.9895 11.4034C64.8697 11.6065 65.2916 12.9399 65.2343 13.7472C65.0416 13.8618 64.8593 13.9972 64.677 14.1274C64.6301 14.1118 64.5885 14.0909 64.5416 14.0753C63.6406 11.8982 62.276 10.4295 60.5989 9.51279C66.6301 10.5597 72.0729 13.9451 75.2499 19.2524ZM60.7499 8.09092C60.3489 8.03363 59.9479 7.96591 59.5364 7.92946C59.4791 7.83571 59.4114 7.75237 59.3333 7.67946C59.8072 7.81487 60.2812 7.93987 60.7499 8.09092ZM59.3385 40.2784C58.7812 40.7836 58.2187 41.2836 57.6562 41.7836C58.1666 40.6951 58.6666 39.6065 59.151 38.5128C59.2135 39.1013 59.276 39.6899 59.3385 40.2784ZM58.5104 32.4451C58.3437 32.8461 58.1822 33.2472 58.0156 33.643C57.3593 34.544 56.7083 35.4451 56.052 36.3461C56.0468 36.3097 56.0468 36.2784 56.0416 36.242C56.8281 34.6534 57.6197 33.0597 58.4114 31.4659C58.4479 31.794 58.4791 32.1222 58.5104 32.4451ZM58.1718 29.0753C57.3697 30.6899 56.5729 32.3097 55.7864 33.9295C55.7812 33.9243 55.7812 33.9138 55.7812 33.9086C55.7083 33.2107 55.6458 32.5076 55.5885 31.8045C56.4426 30.7784 57.2968 29.7472 58.1354 28.7107C58.151 28.8305 58.1614 28.9555 58.1718 29.0753ZM56.3281 19.0232C56.5572 18.7003 56.7812 18.367 56.9999 18.0336C57.026 18.242 57.052 18.4451 57.0781 18.6534C56.4479 20.0597 55.8124 21.4711 55.1926 22.8826C55.1874 22.1065 55.1874 21.3305 55.2187 20.5597C55.5989 20.0545 55.9791 19.5492 56.3281 19.0232ZM55.7239 16.294C55.8541 15.7732 55.927 15.3357 56.1874 14.8305L56.3176 14.8878C56.3437 14.9451 56.3697 15.0024 56.3906 15.0545C56.4479 15.2263 56.4999 15.393 56.5468 15.5649C56.2708 15.8045 55.9947 16.044 55.7239 16.294ZM57.8645 25.9763C57.8801 26.1222 57.8906 26.2628 57.9062 26.4086C57.4062 27.0388 56.9062 27.6638 56.3958 28.2784C56.0676 28.6795 55.7395 29.0753 55.4114 29.4763C55.4062 29.419 55.4062 29.3565 55.401 29.2993C56.2551 28.2107 57.0468 27.0909 57.8645 25.9763ZM58.0937 7.32529C57.9374 7.393 57.8176 7.50237 57.7291 7.65342C57.6822 7.64821 57.6301 7.643 57.5833 7.63779C57.2447 7.59091 56.901 7.54404 56.5624 7.50237C56.6145 7.32529 56.6093 7.143 56.5416 6.97112C57.0572 7.0805 57.5781 7.19508 58.0937 7.32529ZM55.7864 9.68467C56.2604 9.68987 56.7291 9.73154 57.1926 9.79925C57.1562 10.2784 57.1301 10.7628 57.1249 11.2472C57.0572 11.2628 56.9895 11.2836 56.927 11.3149C56.8541 11.3513 56.7864 11.3982 56.7239 11.4555C56.2499 11.1378 55.776 10.8201 55.302 10.5076C55.4791 10.242 55.6301 9.96071 55.7864 9.68467ZM54.4531 11.7576C54.7604 11.9711 55.0729 12.1847 55.3801 12.3982C55.0208 12.2524 54.6614 12.1118 54.2968 11.9763C54.3489 11.9034 54.401 11.8305 54.4531 11.7576ZM51.5416 13.0076C51.4166 13.1847 51.2864 13.3618 51.1562 13.5388C51.0208 13.5753 50.8749 13.6013 50.7395 13.6378C50.7343 13.5753 50.7187 13.518 50.7031 13.4607C50.677 13.367 50.6354 13.2836 50.5833 13.2055C50.7604 13.1222 50.9114 12.9972 51.026 12.8357C51.1979 12.893 51.3697 12.9503 51.5416 13.0076ZM51.151 10.9242C51.4374 10.643 51.7291 10.3618 52.0208 10.0909C52.3749 10.3357 52.7343 10.5753 53.0937 10.8201C52.9583 11.018 52.8229 11.2107 52.6822 11.4086C52.5729 11.367 52.4583 11.3305 52.3489 11.2992C51.9531 11.1742 51.552 11.0492 51.151 10.9242ZM50.6718 21.4815C50.3697 21.8253 50.0624 22.1743 49.7604 22.5232C49.6458 21.5857 49.5416 20.6482 49.4583 19.7055C49.7031 19.4607 49.9531 19.2211 50.2031 18.9815C50.3124 19.5701 50.427 20.1638 50.5364 20.7524C50.5833 20.9972 50.6301 21.242 50.6718 21.4815ZM50.3385 41.6951C50.4166 41.9763 50.4895 42.2576 50.5676 42.5336C50.3229 42.7576 50.0572 42.9711 49.802 43.1899C49.9791 42.6899 50.1614 42.1951 50.3385 41.6951ZM50.401 27.1013C50.3854 27.0284 50.3749 26.9555 50.3645 26.8826C50.7187 26.4399 51.0676 25.992 51.4166 25.544C51.6041 26.5857 51.7916 27.6274 51.9791 28.669C51.6093 29.1534 51.2447 29.643 50.8801 30.1326C50.7135 29.1274 50.552 28.1118 50.401 27.1013ZM51.8437 19.0649C51.7551 18.617 51.6666 18.1638 51.5781 17.7159C51.9999 17.3461 52.4583 17.0076 52.901 16.6534C52.5416 17.4555 52.1979 18.2628 51.8437 19.0649ZM53.2239 23.2055C53.2239 23.2836 53.2239 23.3618 53.2239 23.4399C53.2239 24.3305 53.2083 25.2263 53.2239 26.1274C53.0729 25.3513 52.9218 24.5753 52.7708 23.7993C52.9218 23.6013 53.0729 23.4034 53.2239 23.2055ZM51.7187 15.6065C51.6562 15.6534 51.5937 15.7055 51.5312 15.7524C51.8906 15.268 52.2447 14.7784 52.5989 14.294C53.0312 14.2055 53.4687 14.143 53.9062 14.0753C53.1458 14.544 52.4166 15.0492 51.7187 15.6065ZM48.9062 5.89821C50.5051 5.99196 52.1093 6.17946 53.7083 6.42425C53.3593 6.63258 53.0312 6.85654 52.7135 7.10654C51.7708 7.07529 50.0885 6.62217 49.9062 7.95029C48.8749 7.46071 47.6666 7.47112 46.552 7.52321C47.052 4.41904 35.2187 8.38258 33.3333 8.68467C32.5729 8.97633 31.7968 9.22112 30.9999 9.41383C36.3333 6.82008 42.3801 5.58571 48.9062 5.89821ZM49.1979 30.9972C49.1249 30.7315 49.0624 30.4659 48.9895 30.2003C49.0104 30.1482 49.026 30.1013 49.0468 30.0545C49.0937 30.367 49.1458 30.6847 49.1979 30.9972ZM48.0572 32.9347C48.1197 33.1951 48.1822 33.4555 48.2499 33.7211C47.9583 34.117 47.677 34.5128 47.3906 34.9138C47.6093 34.2524 47.8333 33.5909 48.0572 32.9347ZM47.5624 24.6274C47.7343 24.1118 47.8906 23.5961 48.0572 23.0805C48.1093 23.4972 48.1562 23.9138 48.2135 24.3305C48.1458 24.4086 48.0781 24.4868 48.0156 24.5701C47.901 24.7159 47.7812 24.8618 47.6666 25.0128C47.6301 24.8826 47.5989 24.7524 47.5624 24.6274ZM32.677 52.117C32.5989 51.5961 32.5208 51.0805 32.4374 50.5597C32.6718 49.6534 32.9166 48.7472 33.177 47.8461C33.3176 47.6378 33.4531 47.4295 33.5937 47.2211L33.9374 46.7263C34.1458 47.867 34.4426 48.9815 34.8229 50.0753C34.1145 50.7628 33.401 51.4451 32.677 52.117ZM33.8801 56.6847C33.7656 57.0753 33.651 57.4659 33.5468 57.8565C33.5416 57.8201 33.5364 57.7784 33.5312 57.742C33.5104 57.617 33.4895 57.4868 33.4739 57.3618C33.6301 57.117 33.7656 56.8878 33.8801 56.6847ZM27.5676 56.4711C28.1822 55.4138 28.8593 54.393 29.5312 53.367C29.5624 53.3201 29.5937 53.2732 29.6197 53.2263C29.6562 53.367 29.6926 53.5076 29.7291 53.643C29.0676 54.6899 28.7239 55.8513 27.5676 56.4711ZM29.6822 59.4607C29.6614 59.5284 29.6406 59.5909 29.6197 59.6586C29.5781 59.8045 29.5364 59.9555 29.4895 60.1065C29.5416 59.8774 29.6041 59.6482 29.6562 59.419C29.6666 59.4347 29.6718 59.4451 29.6822 59.4607ZM26.8854 66.268C26.7551 66.4399 26.6249 66.6118 26.4895 66.7784C26.4531 66.8149 26.4218 66.8513 26.3854 66.8878C26.1926 66.1118 25.9322 65.3618 25.6718 64.6065C25.3437 63.643 24.9843 62.6795 24.6249 61.7315C24.6041 61.6743 24.5833 61.6222 24.5624 61.5649C25.3385 61.544 25.5885 60.7263 25.5416 60.0753C25.8906 60.2159 26.2812 60.3618 26.6458 60.2888C26.8281 60.2576 27.0051 60.2107 27.1822 60.1586C26.7343 62.117 25.7395 64.3982 26.8854 66.268ZM15.2864 28.919C15.0989 28.7368 14.8697 28.6222 14.6145 28.5753C14.4166 28.5545 14.2239 28.5701 14.0364 28.6222C13.9374 28.3722 13.802 28.1482 13.6197 27.9503C15.8645 23.5857 19.2447 19.9295 22.9843 16.7472C20.4114 20.8045 17.7135 24.7732 15.2864 28.919ZM21.6406 47.0805C21.552 47.2107 21.4635 47.3461 21.3749 47.4763C21.2864 47.169 21.2031 46.867 21.1197 46.5597C20.9999 46.143 20.8854 45.7263 20.7708 45.3097C20.802 45.2628 20.8333 45.2159 20.8645 45.1638C21.0208 45.0336 21.177 44.9034 21.3333 44.768C21.4166 45.4034 21.4999 46.0336 21.5833 46.6638C21.6041 46.8045 21.6249 46.9399 21.6406 47.0805ZM12.9479 42.6899C12.9218 42.1118 12.901 41.5284 12.8749 40.9451C12.8645 40.6951 12.8541 40.4399 12.8489 40.1847C13.7551 40.5232 14.6562 39.9399 15.4322 39.5232C15.2343 39.9243 15.0364 40.3201 14.8333 40.7159C14.6041 41.1847 14.3749 41.6534 14.1614 42.1274C14.0312 42.2055 13.9062 42.2784 13.776 42.3513C13.5051 42.4763 13.2291 42.5909 12.9479 42.6899ZM13.2916 44.5597C13.2187 44.8513 13.1718 45.1482 13.151 45.4503C13.1249 45.1743 13.1041 44.9034 13.0833 44.6274C13.151 44.6065 13.2239 44.5857 13.2916 44.5597ZM10.0781 40.7524C10.026 40.9295 9.98431 41.1118 9.95306 41.2993L9.94785 41.3097C9.89056 41.3357 9.83327 41.367 9.78119 41.3982C9.83848 41.0597 9.89577 40.7211 9.95827 40.3826C9.9791 40.4347 9.99994 40.492 10.0208 40.5545C10.0156 40.5388 10.0104 40.5284 10.0104 40.5232C10.0312 40.5961 10.0572 40.6743 10.0781 40.7524ZM10.1666 43.7159C10.1979 43.7732 10.2395 43.8253 10.2812 43.8774C10.4218 44.0597 10.5833 44.2211 10.7656 44.3565C10.927 45.2263 11.052 46.1013 11.177 46.9815C10.7604 47.2524 10.3333 47.5128 9.88535 47.7472C9.8489 47.7576 9.73952 47.8045 9.63015 47.8565C9.6614 46.4763 9.76556 45.0909 10.1666 43.7159ZM10.4322 48.8201C10.7551 48.6586 11.0676 48.4763 11.3645 48.2836C11.5312 49.4138 11.6874 50.5493 11.8697 51.6899C12.0208 52.6534 12.177 53.617 12.3385 54.5805C12.2291 54.5024 12.1145 54.4399 11.9895 54.3826C11.8176 54.2993 11.6354 54.2576 11.4426 54.2524C11.2031 54.2159 10.9791 54.2576 10.7708 54.3774C10.3593 52.6534 9.94264 50.919 9.64056 49.169C9.90619 49.0597 10.1718 48.9451 10.4322 48.8201ZM11.8854 26.669C11.9062 26.6326 11.9218 26.5909 11.9426 26.5545C12.3229 25.5909 12.7864 24.669 13.3385 23.794C13.3593 23.9815 13.4218 24.143 13.5364 24.294C12.9947 25.0909 12.4531 25.8878 11.8854 26.669ZM11.4791 55.9555C11.4895 55.8982 11.4999 55.8461 11.5104 55.7888V55.7836C12.2187 56.3149 12.6458 57.1951 12.9374 58.018C12.6354 57.6586 12.3437 57.2993 12.0468 56.9295C11.8541 56.6743 11.6614 56.419 11.4739 56.1586C11.4739 56.0909 11.4739 56.0232 11.4791 55.9555ZM15.9635 34.0388C16.1979 34.8461 16.4166 35.6586 16.6354 36.4659C16.2239 36.7784 15.8072 37.0805 15.3854 37.3878C15.1197 37.5649 14.8541 37.7368 14.5729 37.893C14.2708 38.0545 13.9583 38.2055 13.6354 38.3357C13.6458 38.3045 13.651 38.2784 13.6614 38.2472C13.7916 37.867 13.9426 37.4972 14.1041 37.1274C14.6718 36.0701 15.3072 35.0493 15.9635 34.0388ZM14.3333 30.6013C14.3333 30.4711 14.3489 30.3513 14.3437 30.2263C14.3593 30.2159 14.3801 30.2055 14.3958 30.1951C14.4322 30.2315 14.4583 30.2732 14.4895 30.3097C14.4374 30.4034 14.3854 30.5024 14.3333 30.6013ZM18.9322 32.393C19.0885 32.2368 19.2343 32.0701 19.3906 31.9086C18.9426 32.9503 18.4166 33.9555 17.8124 34.9138C17.5676 34.0753 17.3176 33.2368 17.0468 32.4034C17.2499 32.0961 17.4739 31.794 17.6822 31.4815C17.4947 32.268 17.7135 32.7732 18.9322 32.393ZM20.1979 35.7993C20.2447 35.7628 20.2864 35.7211 20.3333 35.6795C20.3749 36.1951 20.4166 36.7055 20.4687 37.2211C19.9426 37.6847 19.4166 38.1534 18.8854 38.6118C18.7604 38.169 18.6301 37.7211 18.4999 37.2784C19.0833 36.7992 19.651 36.3097 20.1979 35.7993ZM20.026 29.242C20.1458 28.992 20.276 28.7524 20.401 28.5024C20.3801 28.5961 20.3697 28.6951 20.3541 28.7888C20.2447 28.9399 20.1249 29.0961 20.026 29.242ZM19.4479 61.3461C19.2604 60.8045 19.0781 60.268 18.9062 59.7263C19.026 59.6274 19.151 59.5232 19.276 59.419C19.2968 59.3982 19.3229 59.3826 19.3489 59.3618C19.3229 60.1118 19.5572 60.9451 20.1666 61.4347C20.1718 62.018 20.177 62.5961 20.1926 63.1795C19.9062 62.5545 19.6666 61.919 19.4322 61.2888C19.4322 61.3097 19.4374 61.3305 19.4479 61.3461ZM18.4374 57.9868H18.4322C18.2968 57.3461 18.1874 56.6951 18.1093 56.0388C18.3697 55.643 18.6301 55.2472 18.8906 54.8565C19.2083 54.367 19.5312 53.8722 19.8541 53.3826C19.9635 53.6638 20.0676 53.9451 20.177 54.2263C20.3281 54.6795 20.5208 55.2263 20.7135 55.768C20.2916 56.7888 19.2291 57.2784 18.4374 57.9868ZM17.3958 50.5909C17.5989 50.2628 17.8124 49.9399 18.0156 49.6065C18.2031 49.3201 18.3801 49.0336 18.5676 48.7368C18.8906 48.2368 19.2135 47.7315 19.5364 47.2315C19.5416 47.2524 19.5468 47.2732 19.552 47.294C19.7343 47.992 19.9166 48.6847 20.0989 49.3774C19.8385 49.617 19.5729 49.867 19.3176 50.0909C18.6562 49.8045 17.8541 50.0753 17.3958 50.5909ZM20.4322 39.867C20.1614 40.3149 19.8958 40.7628 19.6249 41.2107C19.5833 41.0649 19.5416 40.919 19.4999 40.7732C19.8958 40.3149 20.2916 39.8565 20.6874 39.4034C20.6874 39.4138 20.6874 39.419 20.6874 39.4295C20.6041 39.5753 20.5156 39.7211 20.4322 39.867ZM17.5416 39.7472C17.3958 39.8618 17.2447 39.9815 17.0989 40.0961C17.2135 39.8618 17.3281 39.6222 17.4426 39.3878C17.4739 39.5076 17.5051 39.6274 17.5416 39.7472ZM18.2135 42.242C18.302 42.5545 18.3854 42.8722 18.4687 43.1847C17.9895 44.018 17.5104 44.8357 17.0364 45.669C16.6041 45.9138 16.177 46.1847 15.6458 46.268C15.4687 46.2888 15.2916 46.2836 15.1093 46.2472C15.026 45.9868 14.9895 45.7211 15.0104 45.4451C16.1301 44.4295 17.2031 43.3565 18.2135 42.242ZM13.3489 46.8722C13.6249 47.8722 14.7135 48.2211 15.6614 48.1534C14.9583 49.4607 14.3541 50.8409 14.2031 52.3305C14.0624 51.6795 13.9218 51.0284 13.776 50.3722C13.6145 49.2159 13.4635 48.0597 13.3176 46.8982C13.3281 46.8878 13.3385 46.8826 13.3489 46.8722ZM13.6874 61.4868C13.9374 61.5857 14.1979 61.5961 14.4583 61.5232C14.7551 62.3045 15.026 63.0232 15.2968 63.8253C14.8489 63.294 14.427 62.742 14.0208 62.1638C13.9114 61.9868 13.7291 61.7055 13.552 61.419C13.5989 61.4451 13.6406 61.4659 13.6874 61.4868ZM15.2187 56.9815C15.2083 56.9972 15.1979 57.0128 15.1926 57.0284C15.1874 57.0128 15.1822 56.992 15.177 56.9711C15.0208 56.2107 14.9062 55.5753 14.7343 54.7888C14.7343 54.7888 14.7343 54.7888 14.7343 54.7836C14.9687 54.9086 15.2187 54.9347 15.4791 54.8722C15.7135 54.8149 15.9531 54.768 16.1874 54.7055C16.1822 54.9399 16.1822 55.169 16.1822 55.4034C15.8437 55.919 15.5104 56.4399 15.2187 56.9815ZM16.1197 59.2836C16.1041 59.3253 16.0885 59.3565 16.0729 59.3982C16.2187 59.1274 16.3645 58.8618 16.5156 58.5961C16.5572 58.8097 16.6041 59.0284 16.651 59.242C16.5624 59.294 16.4739 59.3409 16.3854 59.393C16.4062 59.3774 16.4322 59.3618 16.4583 59.3461C16.3697 59.393 16.276 59.4295 16.1926 59.4711C16.1301 59.4868 16.0729 59.5076 16.0156 59.5284C16.0468 59.4451 16.0833 59.3618 16.1197 59.2836ZM17.0833 60.9711C17.7395 62.8565 18.1145 65.5649 20.3333 66.1795C20.3697 66.643 20.4426 67.1013 20.5624 67.5493C20.6249 67.7784 20.6822 68.018 20.7656 68.2472C20.2447 67.9555 19.7343 67.6482 19.2291 67.3201C18.6979 66.9607 18.1822 66.5805 17.6874 66.1743C17.5208 64.4711 16.7551 62.9138 16.1093 61.3565C16.4426 61.2472 16.7656 61.1222 17.0833 60.9711ZM23.3541 28.3982C23.5364 28.9243 23.6979 29.4503 23.8541 29.9815C23.427 30.393 22.9999 30.8045 22.5781 31.2159C22.3854 31.3982 22.1979 31.5857 22.0104 31.7732C21.776 30.4347 22.7447 29.4347 23.3176 28.3097C23.3281 28.3461 23.3437 28.3774 23.3541 28.4138C23.3541 28.4086 23.3541 28.4034 23.3541 28.3982ZM22.7239 33.4763C23.2708 32.9347 23.8124 32.3982 24.3593 31.8618C24.4426 32.1847 24.5208 32.5024 24.6041 32.8201C24.177 33.393 23.7499 33.9607 23.3124 34.5232C22.9583 34.867 22.6041 35.2107 22.2551 35.5545C22.2135 35.0493 22.1718 34.5493 22.1301 34.044C22.3281 33.8565 22.5312 33.669 22.7239 33.4763ZM25.8541 40.8409C24.9999 42.0805 24.1614 43.3201 23.3281 44.5649C23.2604 44.1013 23.1926 43.6378 23.1301 43.169C23.7551 42.5909 24.3697 42.0024 24.9791 41.3982C25.4426 40.9295 25.9114 40.4659 26.3801 39.9972C26.3801 40.0128 26.3854 40.0336 26.3906 40.0545C26.2135 40.3149 26.0312 40.5805 25.8541 40.8409ZM25.8749 46.7107C25.2708 47.8097 24.6926 48.919 24.1197 50.0336C24.052 49.5857 23.9895 49.1378 23.9218 48.6899C24.5729 48.0284 25.2239 47.367 25.8749 46.7107ZM23.7395 37.5336C24.2135 36.7368 24.6926 35.9399 25.1874 35.1482C25.2083 35.2263 25.2291 35.3097 25.2499 35.393C24.7447 36.1065 24.2395 36.8201 23.7395 37.5336ZM25.0312 38.8982C25.1874 38.669 25.3437 38.4451 25.4999 38.2211C25.6093 38.0597 25.7187 37.9034 25.8281 37.7472C25.8541 37.8409 25.8749 37.9399 25.901 38.0388C25.6093 38.3253 25.3229 38.6118 25.0312 38.8982ZM25.0989 28.7003C25.0156 28.4243 24.927 28.1534 24.8385 27.8774C24.6926 27.4347 24.5156 26.9972 24.3072 26.5753C24.3801 26.4503 24.4531 26.3253 24.526 26.2055C25.1197 25.5649 25.7239 24.9347 26.3645 24.3305C26.5104 24.1847 26.6718 24.0492 26.8229 23.9034C26.8749 24.8409 26.927 25.7784 26.9687 26.7211C26.7968 26.9138 26.6249 27.1118 26.4426 27.2993C25.9947 27.7628 25.5468 28.2263 25.0989 28.7003ZM23.2812 63.1795C23.8229 64.8201 24.4791 66.4503 24.6874 68.169C24.4895 68.242 24.2864 68.2836 24.0781 68.2888C22.6979 68.1013 22.7291 66.294 22.526 65.1795C22.9062 64.5597 23.1562 63.893 23.2812 63.1795ZM25.1301 56.7888C25.1197 56.742 25.1145 56.7003 25.1093 56.6534C24.9999 55.9399 24.8958 55.2315 24.7916 54.5232C26.1718 53.1951 27.5989 51.9086 28.9374 50.5388C28.9426 50.5545 28.9479 50.5701 28.9531 50.5857C27.6562 52.6274 26.2031 54.617 25.1301 56.7888ZM29.6822 32.2784C29.9843 31.8618 30.2864 31.4503 30.5885 31.0388C30.6874 31.5336 30.7916 32.0336 30.8958 32.5284C30.5572 32.9242 30.2239 33.3201 29.8906 33.7159C29.8854 33.6638 29.8749 33.6118 29.8697 33.5545C29.8072 33.1274 29.7447 32.7003 29.6822 32.2784ZM30.1822 20.9711C30.3489 20.8357 30.5104 20.7003 30.677 20.5649C30.5989 21.1899 30.5676 21.8149 30.5885 22.4451C30.5729 22.4659 30.5572 22.4868 30.5416 22.5076C30.5364 22.5076 30.5364 22.5128 30.5312 22.5128C30.3906 22.0128 30.2864 21.492 30.1822 20.9711ZM30.5156 37.5805C30.8801 37.0493 31.2447 36.518 31.6145 35.9868C31.6666 36.2315 31.7187 36.4711 31.7708 36.7159C31.3854 37.3461 30.9947 37.9763 30.6093 38.6065C30.5624 38.2888 30.5156 37.9711 30.4635 37.6534C30.4843 37.6274 30.4999 37.6013 30.5156 37.5805ZM30.7291 63.3618C31.026 62.4086 31.276 61.4451 31.526 60.4815C31.6145 60.867 31.8176 61.1795 32.1197 61.4295C31.9218 61.7836 31.7187 62.1274 31.5051 62.4711C31.276 62.8253 30.9583 63.2576 30.6354 63.669C30.6666 63.5649 30.6979 63.4659 30.7291 63.3618ZM31.7187 45.8722C31.5833 44.9868 31.4479 44.0961 31.3072 43.2055C31.7864 42.5024 32.2656 41.7993 32.7447 41.0909C32.8489 41.5597 32.9583 42.0284 33.0624 42.4972C32.7604 43.4711 32.4583 44.4503 32.1614 45.4295C32.0104 45.5753 31.8645 45.7211 31.7187 45.8722ZM34.9947 26.4138C35.0468 26.669 35.0989 26.9243 35.151 27.1795C34.6354 27.8878 34.0833 28.5701 33.552 29.2628C33.4322 29.4243 33.3072 29.5857 33.1822 29.7472C33.0833 29.1222 32.9947 28.4972 32.9218 27.8722C32.9218 27.867 32.9218 27.867 32.9218 27.8618C32.9322 27.8513 32.9374 27.8409 32.9479 27.8305C33.5624 27.044 34.1718 26.2524 34.7916 25.4659C34.8593 25.794 34.9322 26.117 34.9947 26.4451C34.9947 26.4347 34.9947 26.4243 34.9947 26.4138ZM36.9947 36.0597C37.1406 36.7472 37.2864 37.4399 37.4374 38.1274C37.4479 38.1847 37.4635 38.2368 37.4739 38.294C36.7395 39.3201 35.9999 40.3409 35.2604 41.3565C35.2499 41.3201 35.2447 41.2836 35.2343 41.2524C35.8176 39.5128 36.4062 37.7836 36.9947 36.0597ZM36.0208 32.3045C36.0676 32.2263 36.1145 32.1482 36.1614 32.0753L36.1666 32.1118C36.1197 32.1742 36.0676 32.2368 36.0208 32.3045ZM37.1926 11.7315C37.7135 11.5076 38.2291 11.2836 38.7499 11.0597C38.9635 12.2628 38.5989 13.3618 37.9791 14.3357C37.6406 14.5336 37.302 14.7315 36.9687 14.9347C37.3749 13.893 37.651 12.7888 37.1926 11.7315ZM40.2916 11.0492C41.5676 10.9295 42.8333 10.9763 44.0989 11.1899C43.8281 11.3097 43.5572 11.4347 43.2864 11.5597C42.2187 11.0805 41.151 11.867 40.2656 12.419C40.302 12.169 40.3176 11.919 40.3124 11.6638C40.3072 11.4711 40.3072 11.2576 40.2916 11.0492ZM45.5364 12.992C45.1718 13.044 44.8176 13.143 44.4739 13.2836C44.4687 13.0492 44.4114 12.8305 44.3124 12.617C45.0729 12.2888 45.8333 11.9711 46.5989 11.6742C46.6145 11.6742 46.6249 11.6795 46.6406 11.6847C46.2343 12.0857 45.8697 12.5232 45.5364 12.992ZM46.1145 25.018C45.7604 26.1274 45.3906 27.2315 45.0156 28.3357C44.7708 28.643 44.526 28.9503 44.276 29.2628C44.1822 28.643 44.1041 28.0232 44.0208 27.4034C44.3854 26.367 44.7656 25.3357 45.1614 24.3097C45.3645 24.0805 45.5624 23.8461 45.7708 23.617C45.8854 24.0857 45.9999 24.5493 46.1145 25.018ZM44.8906 21.3409C44.7239 21.7472 44.5364 22.143 44.3697 22.544C44.1458 22.8305 43.9218 23.1222 43.6926 23.4086C44.0989 22.7211 44.4999 22.0336 44.8906 21.3409ZM40.2656 14.5232C41.0885 14.1013 41.9166 13.7055 42.7499 13.3201C42.8749 13.669 42.6301 14.169 42.5885 14.518C41.8489 15.1013 41.1458 15.7211 40.4791 16.3826C40.2083 16.6482 39.9479 16.919 39.6822 17.1899C39.6145 16.9763 39.526 16.768 39.4218 16.5753C39.3281 16.393 39.2135 16.2263 39.0781 16.0753C39.0624 16.0545 39.0468 16.0388 39.0312 16.0232C39.1249 15.8357 39.2135 15.643 39.302 15.4555C39.6145 15.1326 39.9374 14.8253 40.2656 14.5232ZM41.0468 29.2524C41.151 29.7263 41.2551 30.2003 41.3593 30.6743C40.8645 32.1118 40.3749 33.5493 39.9062 34.9972C39.7968 35.1482 39.6822 35.2993 39.5676 35.4503C39.3489 34.2628 39.1406 33.0805 38.9374 31.8878C39.2656 31.4555 39.5937 31.018 39.9374 30.6013C40.3072 30.1482 40.677 29.7003 41.0468 29.2524ZM40.2812 19.1742C40.302 19.169 40.3176 19.1638 40.3385 19.1586C40.3229 19.1847 40.3124 19.2107 40.2968 19.2315C40.2916 19.2159 40.2864 19.1951 40.2812 19.1742ZM39.2187 21.0857C38.7395 21.8461 38.2604 22.6118 37.7864 23.3774C37.7499 22.8565 37.7187 22.3357 37.7031 21.8149C38.0468 21.4034 38.3906 20.9972 38.7447 20.5909C38.7395 20.6013 38.7343 20.6065 38.7343 20.6117C38.8281 20.5024 38.927 20.393 39.026 20.2784C39.0937 20.5492 39.1562 20.8149 39.2187 21.0857ZM38.8697 44.4451C38.6093 45.0388 38.3801 45.643 38.1197 46.2315C38.2604 45.7315 38.401 45.2368 38.5468 44.742C38.6145 44.4868 38.6926 44.2368 38.7604 43.9815C38.7968 44.1378 38.8333 44.294 38.8697 44.4451ZM37.9218 41.2993C37.8333 41.5857 37.7395 41.8722 37.651 42.1586C37.1718 43.6482 36.7916 45.2003 36.401 46.7524C36.2031 45.8461 36.0051 44.9451 35.8124 44.018C36.4374 43.0493 37.1406 42.143 37.9218 41.2993ZM38.4635 18.2784C38.4687 18.294 38.4739 18.3097 38.4791 18.3305C38.4843 18.3409 38.4895 18.3565 38.4947 18.367C38.4895 18.3617 38.4895 18.3565 38.4843 18.3513C38.4947 18.3774 38.4999 18.3982 38.5104 18.4242C38.2447 18.7107 37.9843 18.9972 37.7239 19.2888C37.7499 18.9763 37.7812 18.6638 37.8229 18.3461C37.9479 18.1222 38.0729 17.8982 38.1979 17.669C38.2916 17.8826 38.3801 18.0961 38.4687 18.3097C38.4687 18.2992 38.4635 18.2888 38.4635 18.2784ZM33.7708 33.4659C33.7447 33.3253 33.7187 33.1795 33.6926 33.0336C33.927 32.7003 34.1614 32.367 34.3958 32.0336C34.8489 31.393 35.2916 30.7368 35.7551 30.1013C35.7604 30.1326 35.7656 30.1638 35.776 30.1951C35.1093 31.2888 34.4426 32.3774 33.7708 33.4659ZM32.7031 19.4295C32.7187 19.3253 32.7395 19.2159 32.7604 19.1065C32.7656 19.0753 32.776 19.044 32.7812 19.0128C32.8906 18.9347 32.9947 18.8513 33.1041 18.7784C32.9739 18.9972 32.8385 19.2159 32.7031 19.4295ZM35.3385 59.8097C36.5729 57.6326 37.677 55.3878 38.6562 53.0805C39.1718 53.0597 39.6562 52.9243 40.1093 52.669C39.9374 53.2524 39.776 53.8357 39.6041 54.419C37.9999 57.4555 36.2135 60.4451 35.2083 63.7055C35.0989 63.8149 34.9895 63.9243 34.8749 64.0336C34.8385 64.0701 34.6718 64.2055 34.5104 64.3305C34.6093 62.7888 34.8854 61.2836 35.3385 59.8097ZM39.6979 50.5857C39.8437 50.2368 39.9843 49.8826 40.1249 49.5284C40.1822 49.7784 40.2447 50.0232 40.3124 50.268C40.2916 50.2784 40.2708 50.2888 40.2499 50.3045C40.0729 50.393 39.8854 50.492 39.6979 50.5857ZM40.2499 38.9815C40.2864 38.8513 40.3281 38.7211 40.3697 38.5857C40.6145 38.3149 40.8645 38.044 41.1093 37.7784C41.401 37.4503 41.6926 37.1274 41.9843 36.8045C41.5208 38.0284 41.0364 39.2472 40.5468 40.4555C40.4479 39.9659 40.3437 39.4763 40.2499 38.9815ZM42.8697 37.4034C43.0051 37.9815 43.1406 38.5597 43.276 39.1378C42.6979 40.5076 42.1145 41.8826 41.5312 43.2524C41.4947 43.3045 41.4583 43.3565 41.4218 43.4086C41.3437 43.492 41.2656 43.5753 41.1874 43.6586C41.0937 43.2003 41.0051 42.742 40.9114 42.2888C41.5729 40.6638 42.2291 39.0336 42.8697 37.4034ZM44.2812 44.6586C44.3645 44.5701 44.4479 44.4815 44.5312 44.393C44.5676 44.5388 44.6041 44.6795 44.6406 44.8201C44.7812 45.367 44.9218 45.9138 45.0624 46.4659C44.9374 46.7524 44.8072 47.0336 44.6822 47.3253C44.5989 47.3878 44.5156 47.4503 44.4322 47.5128C43.901 47.4347 43.552 47.6847 43.2499 48.018C43.5885 46.8982 43.9374 45.7784 44.2812 44.6586ZM44.9426 33.3982C45.4426 32.8097 45.9426 32.2211 46.4426 31.6326C46.0156 32.643 45.5885 33.6534 45.1614 34.669C45.0885 34.242 45.0104 33.8201 44.9426 33.3982ZM45.526 30.8774C45.427 30.9868 45.3333 31.1013 45.2343 31.2107C45.2551 31.1638 45.2708 31.117 45.2864 31.0753C45.3854 30.9503 45.4791 30.8253 45.5729 30.7055C46.0676 30.0857 46.5572 29.4607 47.0572 28.8357C47.0676 28.893 47.0833 28.9503 47.0937 29.0024C46.5781 29.6326 46.0572 30.2628 45.526 30.8774ZM46.9583 22.3045C46.9739 22.2888 46.9895 22.2732 47.0051 22.2524C46.9947 22.2888 46.9843 22.3253 46.9739 22.3617C46.9687 22.3409 46.9635 22.3253 46.9583 22.3045ZM34.8697 12.7367C35.3333 14.0597 34.7604 15.4347 34.2135 16.6795C34.0833 16.7628 33.9583 16.8461 33.8333 16.9347C32.276 15.6638 31.401 17.1326 30.9583 18.9503C30.6041 19.2107 30.2499 19.4711 29.9062 19.7315C29.8072 19.2836 29.6666 18.8513 29.4947 18.4242C31.1562 16.4555 32.3801 13.7524 34.8697 12.7367ZM28.9426 23.3305C29.0104 23.6274 29.0729 23.9242 29.1406 24.2211C29.0364 24.3461 28.9374 24.4659 28.8385 24.5909C28.7864 23.8357 28.7447 23.0857 28.7239 22.3305C28.7968 22.6638 28.8697 22.9972 28.9426 23.3305ZM28.651 40.2993C28.6718 40.4503 28.6926 40.5961 28.7135 40.7472C28.5989 40.8618 28.4843 40.9815 28.3749 41.1013C28.3489 41.0076 28.3229 40.9138 28.2968 40.8149C28.4166 40.643 28.5364 40.4711 28.651 40.2993ZM28.3749 48.2524C28.4322 48.492 28.4895 48.7263 28.552 48.9659C27.5208 49.992 26.4479 50.9711 25.3749 51.9503C26.3281 50.5388 27.2864 49.1326 28.2447 47.7159C28.2916 47.8982 28.3333 48.0753 28.3749 48.2524ZM28.0364 35.7628C27.8749 35.9347 27.7187 36.1065 27.5572 36.2784C27.4479 36.3982 27.3333 36.518 27.2239 36.643C27.1666 36.419 27.1093 36.2003 27.052 35.9763C27.3333 35.5701 27.6197 35.1586 27.901 34.7524C27.9479 35.0909 27.9895 35.4243 28.0364 35.7628ZM27.2083 29.0128C26.7291 29.7368 26.2656 30.4607 25.802 31.1951C25.802 31.2055 25.7968 31.2107 25.7916 31.2159C25.7395 31.0076 25.6822 30.7993 25.6301 30.5909C25.9843 30.2159 26.3385 29.8461 26.6979 29.4711C26.8645 29.294 27.0312 29.1222 27.1979 28.9503C27.2031 28.9711 27.2031 28.992 27.2083 29.0128ZM23.2239 25.3253C23.0156 25.1951 22.7864 25.1326 22.5416 25.1274C22.3958 25.1326 22.2499 25.1638 22.1093 25.2159C23.677 23.1274 25.3176 21.1065 27.0051 19.117C25.9999 21.2732 24.401 23.2211 23.2239 25.3253ZM23.6041 18.0909C23.901 17.5545 24.1979 17.0128 24.5051 16.4815C24.5364 16.5753 24.5781 16.6638 24.6406 16.7472L24.6458 16.7524C24.2864 17.1899 23.9531 17.6482 23.6041 18.0909ZM25.3281 15.1065C25.3801 15.1065 25.4374 15.1065 25.4947 15.1013C25.4114 15.1482 25.3176 15.2055 25.2291 15.268C25.2604 15.2159 25.2968 15.1638 25.3281 15.1065ZM4.9114 54.518C4.81244 54.2055 4.7291 53.8878 4.63535 53.5701C4.11452 51.4138 4.1614 49.2107 4.45306 46.9659C4.55723 47.6065 4.80723 48.1847 5.20827 48.6951C5.40619 49.6534 5.2239 50.9347 5.92702 51.7107C5.99994 53.5493 6.08848 55.3878 6.1666 57.2263C5.63535 56.3774 5.21869 55.4711 4.9114 54.518ZM4.71869 39.5701C4.15098 41.4555 3.69265 43.3618 3.33327 45.294C2.88535 30.5649 11.5156 15.2836 24.8176 8.893C21.4999 11.4451 18.7499 14.6326 16.4322 18.1117C16.3749 18.1534 16.3124 18.1951 16.2499 18.2367C16.5989 17.6742 16.9791 16.8045 16.3437 16.3045C13.0781 15.367 7.9114 27.0024 6.93744 29.7888C5.75515 32.9607 5.07806 36.242 4.71869 39.5701ZM26.3958 72.6222C18.2656 72.2784 11.1458 66.9451 7.21869 59.9399C7.69786 59.5232 7.59369 58.044 7.4791 57.294C8.06765 60.1065 9.46869 62.3565 11.2812 64.2732C11.3281 64.419 11.3801 64.5649 11.427 64.7159C11.4895 64.9295 11.6197 65.1013 11.802 65.2315C11.9895 65.3565 12.1926 65.4138 12.4218 65.3982C12.4322 65.4086 12.4374 65.4138 12.4479 65.4243C13.2343 66.669 14.5051 68.3305 16.0989 68.2003C17.177 68.9086 18.2812 69.5753 19.3906 70.2107C19.5468 70.3045 19.7083 70.3253 19.8801 70.2732C22.1458 71.5388 24.6979 72.2368 26.2968 70.0336C27.3697 69.3982 28.1979 68.4243 28.8801 67.393C30.2864 67.367 31.3333 66.2628 32.1562 65.2368C32.3229 66.0597 32.927 66.8305 33.7968 66.9451C31.9583 68.1378 29.9583 68.919 27.7968 69.2836C26.7499 69.5701 26.9583 71.1118 27.9843 71.2263C33.0624 70.0805 39.1041 69.1899 43.0208 65.4972C38.7499 70.044 32.7395 72.9347 26.3958 72.6222ZM40.9843 61.7836C41.3333 61.3357 41.6458 60.8565 41.9843 60.3982C42.2812 59.9868 42.552 59.5701 42.8281 59.1534C43.0156 58.8774 43.1874 58.5961 43.3697 58.3253C43.4322 58.4086 43.5104 58.4763 43.6093 58.5232C43.9114 58.643 44.177 58.5857 44.4114 58.3565C44.4426 58.3201 44.4635 58.2784 44.4947 58.2472C43.6197 59.7211 42.4479 60.8982 40.9843 61.7836ZM44.3281 53.8201C43.6197 54.8409 42.9062 55.8618 42.1822 56.8722C42.0416 57.0649 41.901 57.2576 41.7604 57.4503C42.9739 54.8253 44.2083 52.1899 45.0833 49.4347C45.0885 49.4086 45.0989 49.3774 45.1041 49.3513C45.2343 49.2524 45.3593 49.1534 45.4843 49.0597C45.5833 48.9815 45.677 48.9034 45.776 48.8253C45.7968 48.9763 45.8437 49.1222 45.9062 49.2576C45.6249 50.0493 45.3437 50.8409 45.0676 51.6378C44.5729 52.0649 44.3958 52.6013 44.5208 53.2368C44.4583 53.4295 44.3906 53.6274 44.3281 53.8201ZM44.6614 63.5805C45.1926 62.4972 45.8385 61.492 46.5989 60.5597C46.0312 61.617 45.3801 62.6222 44.6614 63.5805ZM46.6197 42.4138C46.6041 42.3253 46.5885 42.242 46.5729 42.1534C46.7916 41.9086 47.0104 41.669 47.2291 41.4243C47.0468 41.8513 46.8645 42.2784 46.6822 42.7055C46.6614 42.6118 46.6406 42.5128 46.6197 42.4138ZM47.0676 44.669C47.8958 42.7315 48.7239 40.7993 49.5572 38.8618C49.5729 38.9243 49.5937 38.9868 49.6093 39.0493C48.8541 41.1065 48.1041 43.1638 47.3541 45.2211C47.302 45.2628 47.2499 45.3045 47.1979 45.3461C47.1562 45.1222 47.1093 44.893 47.0676 44.669ZM47.2343 50.3097C47.2864 50.1743 47.3333 50.0388 47.3801 49.9034C47.6041 49.7628 47.7551 49.5649 47.8333 49.3097C47.8906 49.0701 47.8958 48.8305 47.8541 48.5857C48.1093 47.8774 48.3645 47.1743 48.6197 46.4659C49.0989 46.0545 49.5729 45.643 50.0572 45.2368C49.9426 45.4815 49.8645 45.7368 49.8229 46.0024C49.1093 47.393 48.3854 48.7784 47.6458 50.1534C47.5104 50.2003 47.3749 50.2576 47.2343 50.3097ZM48.7551 54.8722C48.7291 54.9868 48.6926 55.0909 48.6666 55.2003C48.4895 55.3722 48.3176 55.5493 48.1406 55.7159C48.151 55.6638 48.1666 55.6065 48.177 55.5545C48.3385 54.8722 48.5156 54.1847 48.6249 53.492C48.7812 53.4138 48.9218 53.3045 49.0729 53.2159C48.8958 53.7524 48.7916 54.3097 48.7551 54.8722ZM50.2447 47.8409C50.8281 48.2263 51.4531 48.3045 52.1145 48.0805C51.3281 48.8722 50.3541 49.2784 49.3385 49.6065C49.6406 49.018 49.9479 48.4295 50.2447 47.8409ZM51.5729 52.268C51.302 52.169 51.0208 52.1118 50.7291 52.0857C51.2604 51.7263 51.8072 51.419 52.4426 51.3461C52.1614 51.6638 51.8645 51.9607 51.5729 52.268ZM52.0729 36.8618C52.2656 36.3357 52.4531 35.8045 52.6406 35.2784C52.6614 35.2576 52.677 35.242 52.6926 35.2211C52.8333 35.0597 52.9739 34.8982 53.1145 34.7368C53.3281 35.8513 53.5416 36.9659 53.7656 38.0753C53.4166 38.7888 53.0676 39.5024 52.7187 40.2107C52.4999 39.0961 52.2864 37.9815 52.0729 36.8618ZM54.4739 42.4243C54.1822 43.1847 53.9114 43.9555 53.6301 44.7211C53.5729 44.4399 53.5156 44.1638 53.4583 43.8878C53.7968 43.3982 54.1354 42.9086 54.4739 42.4243ZM53.6145 53.5232C54.0572 53.0493 54.4895 52.5597 54.901 52.0493C56.026 55.4034 57.6354 58.5128 59.7239 61.367C59.9635 62.7472 60.2239 64.1222 60.4739 65.4972C58.6301 60.7263 56.2239 55.867 53.6145 53.5232ZM60.7031 54.8774C60.7343 54.8722 60.7656 54.8722 60.802 54.867C60.9843 55.2836 61.1666 55.7003 61.3541 56.1118C61.6822 56.8461 62.0156 57.5753 62.3489 58.3045C62.3385 58.393 62.3281 58.4868 62.3176 58.5753C62.0416 57.9659 61.7708 57.3565 61.4999 56.742C61.2343 56.117 60.9635 55.4972 60.7031 54.8774ZM63.1249 129.778C63.1458 129.752 63.1666 129.726 63.1874 129.7C57.3333 136.502 50.026 143.377 40.7604 144.909C40.0676 144.94 39.3333 144.987 38.6822 144.705C39.1718 143.768 39.7135 143.034 40.2812 142.153C50.3176 127.33 62.1979 110.961 64.5781 92.9711C64.5833 92.992 64.5833 93.0076 64.5885 93.0284C64.8176 93.7107 64.8801 94.5857 65.6301 94.8982C63.2343 103.971 59.1145 112.81 55.052 121.299C51.8697 127.83 48.7864 134.346 43.2604 139.284C42.3906 140.226 39.3281 142.877 42.177 143.205C42.2083 143.351 42.2551 143.492 42.3124 143.627C43.9895 146.122 52.3645 138.622 54.427 137.242C57.8801 134.487 61.1354 131.513 64.1979 128.325C63.8176 128.83 63.4531 129.351 63.0572 129.851C63.0781 129.825 63.0989 129.799 63.1249 129.778ZM65.0312 102.091C64.7291 103.482 64.3176 104.888 63.5937 106.122C63.8176 105.497 64.0364 104.872 64.2604 104.252C64.5208 103.534 64.7812 102.81 65.0312 102.091ZM60.6406 117.888C60.7708 117.591 60.901 117.289 61.026 116.992C62.3072 117.258 62.677 115.388 63.2551 114.565C63.2239 114.794 63.276 115.008 63.4166 115.2C62.5781 116.513 61.7708 117.804 60.8749 119.096C60.9322 118.935 60.9791 118.778 61.026 118.612C61.0676 118.461 61.052 118.315 60.9791 118.174C60.901 118.034 60.7916 117.94 60.6406 117.888ZM52.9426 131.752C52.4374 132.284 51.9322 132.815 51.4218 133.346C51.3281 133.44 51.2343 133.539 51.1406 133.638C51.4635 133.07 51.7812 132.497 52.0885 131.919C52.1145 131.867 52.1406 131.815 52.1718 131.763C52.427 131.81 52.6874 131.804 52.9426 131.752ZM48.3958 136.403C47.3489 137.388 46.3906 138.476 45.2864 139.393C46.2135 138.362 47.1354 137.33 48.052 136.294C48.0624 136.299 48.0676 136.299 48.0729 136.299C48.177 136.341 48.2864 136.377 48.3958 136.403ZM62.8385 126.565C58.8645 130.596 54.7291 134.409 50.1718 137.815C50.3958 137.627 50.6145 137.44 50.8333 137.242C53.6458 134.794 56.3229 132.211 58.8697 129.487C60.6145 127.56 62.5312 125.768 63.8906 123.544C64.177 123.06 64.1666 122.58 63.8489 122.112C63.3749 121.341 62.4947 121.737 61.9583 122.211C64.0989 119.929 66.1926 117.607 68.2291 115.242C66.4947 119.044 64.5312 122.752 62.8385 126.565ZM72.8697 114.586C71.552 116.45 70.1874 118.278 68.7187 120.034C71.3229 115.44 72.8541 110.205 75.6458 105.758C77.302 103.497 78.8749 101.179 80.3697 98.8149C78.026 104.127 75.5989 109.445 72.8697 114.586ZM81.8385 91.8305C80.6718 93.9242 79.4479 95.992 78.1666 98.0284C79.6614 93.4034 81.2291 88.7628 82.7604 84.1013C82.3958 86.6743 82.052 89.2472 81.8385 91.8305ZM84.1614 70.0805C82.5781 74.9347 80.5208 79.6847 78.8333 84.393C78.7239 84.419 78.6145 84.4503 78.5104 84.4972C78.4635 84.518 78.4166 84.544 78.3749 84.5701C80.5051 78.0961 82.4635 71.5753 84.2916 65.0128C84.2604 66.7003 84.2291 68.393 84.1614 70.0805ZM84.8697 85.9972C84.7031 86.3409 84.5156 86.669 84.3437 87.0128C84.8697 83.2576 85.1614 79.4763 85.4479 75.6951C85.5364 75.4086 85.6145 75.1222 85.7031 74.8357C85.3906 78.5545 85.0676 82.2732 84.8697 85.9972ZM85.3906 37.0753C85.0781 36.0597 84.7656 35.044 84.4687 34.0284C84.8229 34.9868 85.2395 35.919 85.7291 36.8149C85.6041 36.8878 85.4947 36.9711 85.3906 37.0753ZM90.6354 57.8305C90.5624 57.1638 90.4947 56.5128 90.4218 55.893C90.4947 55.4868 90.5781 55.0857 90.6458 54.6847C90.6718 55.7315 90.6614 56.7836 90.6354 57.8305ZM89.7604 45.143C90.1718 47.6534 90.4426 50.1743 90.5676 52.7159C90.427 52.5753 90.2551 52.492 90.0572 52.4659H90.052C89.9791 51.8774 89.9426 51.2888 89.9479 50.6951C89.6666 50.1847 89.7135 47.8097 89.7604 45.143ZM88.9739 66.7211C89.2395 67.6378 89.177 68.7836 89.552 69.6795C89.177 72.0961 88.7135 74.4972 88.1354 76.8774C88.6458 72.0493 88.927 67.2732 88.9739 66.7211ZM87.2395 40.6013C87.3854 41.2784 87.4114 41.9607 87.3124 42.6482C87.1614 42.268 87.0416 41.867 86.8958 41.4815C87.0156 41.1899 87.1301 40.8982 87.2395 40.6013ZM86.776 78.2472C86.8489 77.143 86.9322 76.0388 87.0051 74.9295C87.1458 73.0232 87.2395 71.1013 87.3385 69.1847C87.5572 68.3878 87.7656 67.5857 87.9791 66.7888C87.7395 71.2211 87.1197 75.6586 86.651 80.0388C86.6926 79.4451 86.7343 78.8461 86.776 78.2472ZM86.4791 56.9138C86.2604 58.7732 86.0416 60.6274 85.7968 62.4868C85.802 61.4555 85.802 60.4243 85.8176 59.393C85.9739 58.794 86.1406 58.2003 86.2968 57.6013C86.3593 57.3722 86.4166 57.143 86.4791 56.9138ZM170.005 12.1847C166.088 9.03362 161.536 6.35133 156.708 4.71071C156.812 4.03883 155.818 3.67946 155.49 4.3305C152.656 3.4555 149.75 3.018 146.781 3.01279C145.844 2.91383 144.901 2.87217 143.958 2.89821C142.219 2.643 138.661 3.46071 137.844 3.41383C135.344 3.84612 132.578 4.11175 130.016 4.82008C133.151 3.37737 136.427 2.43467 139.854 1.99196C140.125 2.018 140.391 2.06487 140.651 2.13258C141.297 2.31487 141.568 1.29925 140.911 1.11696C133.078 0.528416 125.406 4.80967 119.135 9.15342C100.682 21.9086 94.6458 54.4399 115.318 67.9295C129.073 77.5753 138.734 70.794 148.359 59.7263C152.266 79.7107 147.885 101.367 136.375 118.33C132.156 124.518 125.932 129.549 120.057 134.216C113.875 138.643 113.849 143.669 121.891 145.226C133.604 146.888 144.036 139.107 153.021 132.586C166.448 123.086 175.542 108.935 180.474 93.393C188.422 70.9867 190.911 28.0649 170.005 12.1847ZM171.38 26.0701C172.417 27.1847 172.943 28.5076 172.953 30.0336C172.937 30.0232 172.927 30.0128 172.911 30.0024C172.885 29.9243 172.859 29.8461 172.833 29.768C172.417 28.518 171.927 27.2993 171.365 26.1065C171.365 26.0961 171.375 26.0805 171.38 26.0701ZM173.51 55.2524C173.755 55.0597 174 54.867 174.245 54.6743C174.109 55.2107 173.99 55.7524 173.844 56.2888C173.443 56.8826 173.062 57.4815 172.646 58.0701C172.906 57.1222 173.198 56.1847 173.51 55.2524ZM173.286 40.3409C173.406 39.8253 173.531 39.3149 173.651 38.7993C173.698 38.6013 173.745 38.4034 173.792 38.2055C173.917 38.8097 174.036 39.4138 174.161 40.018C173.849 40.0701 173.557 40.1743 173.286 40.3409ZM175.854 59.1378C175.755 62.4295 175.307 65.6795 174.51 68.8774C173.901 69.1743 173.292 69.4659 172.687 69.7784C173.74 66.2211 174.781 62.6638 175.854 59.1378ZM174.635 52.3409C174.792 51.9868 174.917 51.6274 175.088 51.2732C175.021 51.5753 174.937 51.8722 174.865 52.169C174.786 52.2263 174.713 52.2836 174.635 52.3409ZM177.75 67.3982C177.729 67.4086 177.708 67.419 177.687 67.4295C178.146 66.5753 178.677 65.7732 179.286 65.018C180.146 68.5701 178.24 72.1899 177.349 75.6013C176.198 78.643 175.302 81.8409 173.911 84.794C173.734 84.6482 173.542 84.6326 173.344 84.7576C173.276 84.8045 173.203 84.8461 173.135 84.893C174.245 80.8618 175.271 76.8149 176.151 72.7315C178.49 69.7003 179.5 67.5493 177.75 67.3982ZM176.854 69.5388C176.922 69.2836 177.005 69.0284 177.094 68.7784C177.281 68.6899 177.463 68.5909 177.656 68.5024C177.635 68.5128 177.646 68.5076 177.656 68.5076C177.651 68.5076 177.651 68.5128 177.651 68.518C177.396 68.867 177.115 69.1951 176.854 69.5388ZM178.979 63.5805C178.99 63.6378 179 63.6951 179.016 63.7524C178.422 63.9868 178.109 64.5753 177.797 65.0909C177.88 64.6274 177.958 64.1586 178.026 63.6899C178.146 62.8722 178.245 62.0545 178.302 61.2315C178.365 61.2628 178.432 61.2836 178.505 61.294C178.656 62.0545 178.818 62.8201 178.979 63.5805ZM178.812 49.2993C179.474 54.1013 179.854 58.7315 180.203 63.6065C180.187 63.6013 180.172 63.5909 180.156 63.5805C178.932 58.9138 179.208 54.0753 178.812 49.2993ZM178.505 80.0909C177.885 81.7784 177.193 83.4295 176.448 85.0649C176.427 85.1065 176.406 85.1534 176.385 85.2003C176.49 84.893 176.599 84.5909 176.708 84.2836C177.062 83.2784 177.448 82.2784 177.771 81.2524C177.932 80.8253 178.271 80.4815 178.505 80.0909ZM170.547 76.8722C171.115 75.0336 171.677 73.1899 172.224 71.3461C172.865 70.9763 173.51 70.617 174.161 70.268C173.812 71.5857 173.427 72.893 173.01 74.1951C172.203 75.1013 171.391 75.9972 170.547 76.8722ZM172.875 86.7576C172.724 87.0076 172.583 87.268 172.422 87.518C172.469 87.367 172.505 87.2107 172.547 87.0597C172.656 86.9607 172.766 86.8565 172.875 86.7576ZM161.12 29.2628C161.974 28.5597 162.828 27.8565 163.677 27.143C163.557 27.4659 163.443 27.7836 163.328 28.1065C162.588 28.4972 161.859 28.8618 161.12 29.2628ZM162.693 29.992C162.109 31.8097 161.578 33.643 161.094 35.4868C161.057 35.5232 161.016 35.5597 160.979 35.5961C160.906 34.1065 160.828 32.617 160.76 31.1274C161.401 30.7472 162.042 30.3618 162.693 29.992ZM166.276 45.2576C165.516 45.742 164.74 46.2107 163.969 46.6795C164.198 45.7107 164.427 44.7368 164.661 43.768C165.594 42.7836 166.583 41.7368 167.557 40.6795C167.13 42.2055 166.703 43.7315 166.276 45.2576ZM167.099 52.1795C166.948 52.6951 166.781 53.2003 166.635 53.7107C166.729 53.2784 166.833 52.8409 166.932 52.4034C166.984 52.3305 167.042 52.2524 167.099 52.1795ZM165.635 47.544C165.234 49.0024 164.812 50.4607 164.411 51.919C164.292 52.0597 164.177 52.2003 164.057 52.3357C163.969 51.0909 163.911 49.8774 163.922 48.7055C164.495 48.3253 165.062 47.9295 165.635 47.544ZM163.531 37.1586C163.49 37.1847 163.443 37.2055 163.401 37.2315C163.588 36.6065 163.776 35.9815 163.963 35.3565C163.99 35.3305 164.005 35.3097 164.031 35.2836C163.854 35.9034 163.693 36.5336 163.531 37.1586ZM161.641 26.4086C161.646 26.3878 161.651 26.367 161.656 26.3461C162.057 24.5024 162.594 22.6899 163.135 20.8826C163.5 21.4399 163.875 21.9972 164.255 22.5545C164.521 22.9347 164.766 23.3253 165.031 23.7055C163.896 24.5909 162.766 25.5024 161.641 26.4086ZM163.984 69.3253C163.776 69.5857 163.568 69.8461 163.354 70.1065C164.005 67.1951 164.776 64.3097 165.594 61.4347C165.745 61.3201 165.896 61.2055 166.052 61.0909C165.375 63.8409 164.667 66.5805 163.984 69.3253ZM165.187 75.6274C164.578 77.6951 163.974 79.768 163.349 81.8305C163.344 81.8253 163.338 81.8149 163.333 81.8097C163.849 79.8357 164.323 77.8513 164.792 75.867C164.922 75.7836 165.057 75.7055 165.187 75.6274ZM166.109 70.169C166.432 69.768 166.766 69.3513 167.109 68.9243C166.672 70.4711 166.25 72.0128 165.802 73.5545C165.62 73.6586 165.443 73.7524 165.26 73.8565C165.542 72.6274 165.828 71.3982 166.109 70.169ZM166.74 58.3357C166.63 58.419 166.521 58.4972 166.411 58.5805C167.052 56.3774 167.703 54.1795 168.333 51.9868C167.781 54.0961 167.271 56.2211 166.74 58.3357ZM168.016 47.6274C168.172 46.9451 168.323 46.2576 168.479 45.5753C168.75 45.3826 169.01 45.1847 169.271 44.992C169.094 45.5753 168.922 46.1638 168.745 46.7472C168.5 47.0388 168.26 47.3357 168.016 47.6274ZM168.865 58.9243C169.266 58.6118 169.667 58.2993 170.062 57.9815C169.588 59.8253 169.104 61.6638 168.615 63.5024C168.167 64.0753 167.713 64.6378 167.266 65.2107C167.766 63.1065 168.302 61.0128 168.865 58.9243ZM169.687 69.9711C170.25 67.8305 170.786 65.6795 171.312 63.5284C171.562 63.1951 171.807 62.867 172.052 62.5388C171.193 65.393 170.292 68.242 169.396 71.0805C169.49 70.7107 169.588 70.3409 169.687 69.9711ZM170.75 55.3097C170.38 55.5909 170.01 55.8722 169.641 56.1586C170.516 53.1899 171.495 50.2628 172.656 47.3826C172.052 50.0336 171.411 52.6743 170.75 55.3097ZM169.958 42.7836C169.625 43.0128 169.292 43.242 168.958 43.4711C169.042 43.1013 169.125 42.7263 169.213 42.3565C169.568 40.7732 169.937 39.1951 170.307 37.6222C171.094 36.7107 171.812 35.8409 172.417 35.0545C171.588 37.6274 170.771 40.2055 169.958 42.7836ZM168.615 36.9138C167.604 37.9607 166.588 39.0024 165.552 40.0284C165.792 39.0597 166.052 38.1013 166.297 37.1378C167.219 36.5232 168.146 35.9086 169.068 35.2888C168.917 35.8305 168.766 36.3722 168.615 36.9138ZM165.781 29.7993C165.687 29.9399 165.609 30.0961 165.51 30.242C165.724 29.5336 165.943 28.8253 166.156 28.117C166.271 28.0545 166.38 27.992 166.49 27.9347C166.25 28.5545 166.005 29.1743 165.781 29.7993ZM166 21.8409C165.948 21.919 165.896 21.9972 165.849 22.0805C165.13 21.0701 164.463 20.0701 163.781 19.0284C164.708 19.7524 165.594 20.5232 166.437 21.3461C166.271 21.492 166.125 21.6586 166 21.8409ZM162.667 16.2784C162.156 15.8774 161.641 15.4763 161.13 15.0701C161.208 14.7524 161.276 14.4347 161.333 14.117C162.792 15.4555 164.088 16.9555 165.359 18.4659C164.479 17.7159 163.583 16.992 162.667 16.2784ZM161.969 19.0961C161.422 20.8357 160.917 22.5857 160.427 24.3409C160.344 22.7732 160.255 21.2055 160.167 19.6326C160.135 19.4763 160.12 19.3201 160.109 19.1586C160.286 18.4711 160.463 17.7784 160.641 17.0857C161.088 17.7524 161.531 18.4242 161.969 19.0961ZM160.937 64.6951C160.005 68.1274 159.073 71.5545 158.141 74.9868C158.687 71.7628 159.302 68.544 159.922 65.3357C160.26 65.1222 160.604 64.9138 160.937 64.6951ZM160.062 13.1065C160 13.1899 159.943 13.2732 159.891 13.3617C159.771 13.1899 159.646 13.0232 159.521 12.8617C159.469 12.794 159.417 12.7263 159.365 12.6586C159.526 12.7367 159.682 12.8253 159.833 12.9295C159.911 12.9815 159.995 13.0388 160.073 13.0909C160.068 13.0961 160.062 13.1013 160.062 13.1065ZM159.417 51.6743C159.536 51.5961 159.651 51.518 159.776 51.4347C159.849 52.2576 159.932 53.0597 160.021 53.8409C159.75 55.2888 159.469 56.7368 159.182 58.1795C158.588 58.8982 158.005 59.6222 157.422 60.3461C158.026 57.4399 158.687 54.5493 159.417 51.6743ZM158.365 47.0701C158.094 47.3409 157.823 47.6118 157.557 47.8774C157.594 46.5284 157.651 45.1743 157.698 43.8253C158.172 43.2003 158.656 42.5805 159.115 41.9451C159.135 42.4295 159.161 42.9138 159.193 43.4034C158.917 44.6274 158.641 45.8513 158.365 47.0701ZM158.526 28.8878C158.568 28.4243 158.583 27.9607 158.625 27.4972C158.635 27.7576 158.646 28.2055 158.656 28.7836C158.615 28.8149 158.573 28.8513 158.526 28.8878ZM158.719 16.8565C158.349 16.9242 158.135 17.143 158.083 17.5128C157.995 18.3253 157.927 19.143 157.844 19.9555C157.698 20.5232 157.542 21.0909 157.396 21.6638C157.49 21.1065 157.583 20.5545 157.667 19.9972C157.838 18.8513 158.047 17.7107 158.177 16.5545C158.25 15.9503 158.323 15.3461 158.396 14.7367C158.635 14.9711 158.885 15.1951 159.146 15.419C158.99 15.893 158.859 16.3774 158.719 16.8565ZM159.042 79.1065C159.099 79.0753 159.156 79.044 159.219 79.018C158.609 82.4763 158.01 85.9451 157.531 89.419C157.526 89.4972 157.547 89.5753 157.552 89.6534C157.333 89.8722 157.125 90.1013 156.911 90.3201C157.594 86.5857 158.255 82.8305 159.042 79.1065ZM157.99 100.633C157.588 101.174 157.187 101.716 156.792 102.263C156.411 102.44 156.078 102.596 155.682 102.789C155.682 102.784 155.682 102.784 155.682 102.784C156.453 102.07 157.219 101.351 157.99 100.633ZM156.193 94.1482C156.208 94.0649 156.224 93.9763 156.24 93.8878C156.281 93.8409 156.328 93.794 156.37 93.742C156.312 93.8774 156.25 94.0128 156.193 94.1482ZM154.823 92.492C154.51 92.8305 154.203 93.1742 153.891 93.518C154.693 90.1482 155.505 86.7836 156.156 83.3878C156.385 83.3878 156.578 83.3045 156.734 83.1378C156.094 86.2576 155.458 89.3774 154.823 92.492ZM156.849 103.888C157.516 103.528 158.187 103.174 158.87 102.836C158.01 104.232 157.094 105.591 156.135 106.914C155.427 107.403 154.719 107.888 154.01 108.377C154.755 106.784 155.76 105.315 156.849 103.888ZM157.594 98.3097C157.854 97.768 158.104 97.2211 158.338 96.6742C158.995 97.1899 159.635 96.518 159.776 95.8617C159.74 96.0597 159.713 96.2628 159.677 96.4607C158.984 97.0805 158.292 97.6951 157.594 98.3097ZM160.656 98.8409C160.729 99.0284 160.849 99.1795 161.016 99.2888C160.74 99.7524 160.458 100.216 160.182 100.679C159.75 100.877 159.344 101.06 158.875 101.273C159.495 100.476 160.104 99.669 160.656 98.8409ZM160.687 70.9243C160.635 70.9555 160.583 70.9868 160.536 71.0284C160.708 70.3774 160.875 69.7315 161.042 69.0805C160.922 69.6951 160.802 70.3097 160.687 70.9243ZM160.448 62.5961C160.609 61.7993 160.792 61.0076 160.958 60.2159C160.974 60.1899 160.99 60.169 161.01 60.143C161.161 60.8149 161.323 61.4138 161.495 61.9451C161.146 62.1638 160.802 62.3826 160.448 62.5961ZM161.49 44.018C161.484 43.9815 161.484 43.9503 161.479 43.9138C161.891 42.4451 162.312 40.9763 162.74 39.5076C162.818 39.4555 162.901 39.4034 162.979 39.3461C162.651 40.7159 162.338 42.0909 162.047 43.4711C161.859 43.6534 161.672 43.8357 161.49 44.018ZM162.448 54.2472C162.422 54.0336 162.391 53.8201 162.37 53.6065C162.557 52.7576 162.729 51.9086 162.922 51.0597C162.937 51.919 162.958 52.7784 162.958 53.6378C162.792 53.8409 162.62 54.044 162.448 54.2472ZM162.745 74.294C162.651 74.6534 162.568 75.0128 162.474 75.3722C162.427 75.3982 162.38 75.4243 162.333 75.4503C162.38 75.1743 162.427 74.8982 162.474 74.6222C162.562 74.518 162.651 74.4086 162.745 74.294ZM165.469 93.6586C165.516 93.617 165.557 93.5753 165.604 93.5336C164.943 95.3201 164.318 97.1117 163.771 98.919C163.453 99.0336 163.177 99.2159 162.953 99.4711C162.917 99.4867 162.875 99.5024 162.838 99.518C163.833 97.6222 164.953 95.7472 165.469 93.6586ZM165.74 103.857C165.906 103.362 166.146 102.909 166.458 102.492C166.245 103.133 166.026 103.768 165.807 104.409C165.62 104.679 165.437 104.95 165.25 105.221C165.411 104.768 165.578 104.31 165.74 103.857ZM165.578 91.367C165.625 91.2524 165.667 91.1378 165.713 91.018C166.026 90.8305 166.344 90.6326 166.661 90.4451C166.292 90.742 165.943 91.0649 165.578 91.367ZM166.516 88.9086C167.562 86.0753 168.536 83.2159 169.458 80.3409C170.234 79.5232 170.99 78.7159 171.719 77.919C170.448 81.3826 169.031 84.8149 167.656 88.2472C167.276 88.4711 166.896 88.6899 166.516 88.9086ZM172.213 31.7368C172.016 31.8565 171.812 31.9815 171.615 32.1013C171.682 31.8201 171.745 31.5336 171.818 31.2524C171.927 31.3409 172.036 31.4243 172.151 31.5024C172.172 31.5805 172.193 31.6638 172.213 31.7368ZM171.922 33.3878C171.656 33.6899 171.365 33.9711 171.094 34.268C171.125 34.1378 171.156 34.0076 171.187 33.8774C171.432 33.7107 171.677 33.5545 171.922 33.3878ZM170.667 27.5545C170.802 27.8513 170.974 28.1326 171.099 28.4347C171.094 28.4399 171.094 28.4399 171.088 28.4451C170.885 28.2472 170.703 28.0232 170.505 27.8201C170.568 27.7263 170.615 27.643 170.667 27.5545ZM170.297 21.9034C170.333 21.9763 170.38 22.044 170.417 22.117C170.365 22.0545 170.312 21.992 170.26 21.9295L170.297 21.9034ZM170.505 30.1534C170.203 31.2107 169.917 32.2732 169.62 33.3253C168.682 33.919 167.75 34.5076 166.823 35.1065C167.161 33.7836 167.5 32.4607 167.849 31.1378C168.448 30.4659 169.005 29.8097 169.51 29.169C169.677 29.3409 169.833 29.5232 170.005 29.6899C170.172 29.8461 170.338 30.0024 170.505 30.1534ZM166.703 26.3305C166.734 26.2368 166.76 26.143 166.792 26.044C166.833 26.1013 166.88 26.1586 166.927 26.2159C166.854 26.2524 166.776 26.294 166.703 26.3305ZM167.375 24.1586C167.667 23.9295 167.953 23.6951 168.245 23.4711C168.521 23.8253 168.776 24.1951 169.021 24.5701C168.849 24.8513 168.677 25.1326 168.505 25.4138C168.474 25.4295 168.448 25.4451 168.417 25.4607C168.068 25.0284 167.708 24.6065 167.375 24.1586ZM169.432 26.6743C169.391 26.6326 169.349 26.5909 169.307 26.544C169.328 26.5128 169.344 26.4868 169.365 26.4555C169.495 26.393 169.625 26.3305 169.755 26.268C169.651 26.4086 169.536 26.5388 169.432 26.6743ZM155.786 8.25758C159.969 9.87217 163.786 12.1065 167.245 14.9607C166.969 15.1586 166.854 15.4242 166.911 15.7628C167.479 17.4451 168.573 18.9503 169.526 20.5076C169.432 20.5701 169.338 20.6326 169.245 20.6899C167.448 18.4868 165.615 16.3045 163.651 14.2524C162.276 12.9711 160.807 11.2888 158.854 11.0545C158.917 10.867 158.87 10.7055 158.724 10.5701C158.667 10.5024 158.615 10.4347 158.562 10.367C158.406 9.92425 158.042 9.62737 157.687 9.77842C157.495 9.85654 157.349 9.98154 157.245 10.1586C156.786 9.59612 156.26 9.10133 155.677 8.67425C155.713 8.53363 155.75 8.39821 155.786 8.25758ZM155.74 40.3878C155.724 39.3253 155.713 38.2628 155.698 37.2003C155.953 36.044 156.224 34.8982 156.49 33.7472C156.609 33.669 156.724 33.5909 156.844 33.5128C156.76 35.1743 156.682 36.8409 156.615 38.5076C156.479 39.0024 156.344 39.4972 156.203 39.992C156.052 40.1274 155.896 40.2576 155.74 40.3878ZM156.141 53.8618C156.12 54.6899 156.094 55.5128 156.073 56.3357C156.031 56.4815 155.99 56.6274 155.948 56.7732C155.937 55.8513 155.922 54.9295 155.911 54.0128C155.99 53.9607 156.062 53.9138 156.141 53.8618ZM155.25 10.3097C155.542 10.5649 155.812 10.8357 156.068 11.1274C155.88 11.6482 155.724 12.1795 155.542 12.7055C155.656 11.8357 155.776 10.9347 155.203 10.492C155.219 10.4347 155.234 10.3722 155.25 10.3097ZM155.307 72.3149C155.432 71.5961 155.547 70.8826 155.667 70.169C155.703 69.9451 155.745 69.7211 155.781 69.4972C156.495 69.3045 156.734 68.242 156.833 67.143C156.953 67.0753 157.073 67.0128 157.193 66.9503C156.547 69.3982 155.833 71.8253 154.979 74.2107C155.083 73.5753 155.198 72.9451 155.307 72.3149ZM154.307 7.74196C154.297 7.768 154.286 7.79404 154.276 7.82529C153.927 7.66904 153.568 7.53883 153.203 7.43987C153.568 7.53362 153.937 7.62737 154.307 7.74196ZM152.661 57.4034C152.984 56.6326 152.943 55.7732 153.078 54.9607C153.088 55.3513 153.115 55.742 153.13 56.1326C152.849 57.518 152.578 58.9086 152.323 60.294C152.083 59.6013 151.786 58.9347 151.437 58.2888C151.448 58.2732 151.453 58.2576 151.463 58.2472C152.021 58.1899 152.422 57.9086 152.661 57.4034ZM151.948 38.8513C152.135 38.0232 152.323 37.2003 152.51 36.3722C152.521 36.367 152.526 36.3618 152.536 36.3565C152.484 37.3722 152.417 38.3982 152.359 39.419C152.245 39.9711 152.125 40.518 152.01 41.0701C151.995 40.3305 151.969 39.5909 151.948 38.8513ZM153.12 20.5909C152.547 22.6795 152.016 24.7836 151.521 26.8982C151.49 26.1534 151.458 25.4086 151.422 24.6638C152 22.5336 152.578 20.3982 153.156 18.2628C153.135 19.0388 153.125 19.8201 153.12 20.5909ZM151.135 18.2367C151.13 18.143 151.125 18.0492 151.12 17.9555C151.432 16.0076 152.495 11.0805 151.953 8.73154C152.609 8.81487 153.229 9.00758 153.812 9.30967C152.885 12.2732 152.031 15.2628 151.135 18.2367ZM153.562 62.669C153.599 63.0128 153.635 63.3513 153.667 63.6899C153.531 64.0597 153.385 64.4243 153.24 64.7836C153.219 64.6638 153.203 64.544 153.182 64.4243C153.307 63.8409 153.437 63.2524 153.562 62.669ZM153.568 67.0024C153.682 67.3409 153.885 67.6118 154.177 67.8149C154.052 68.4815 153.922 69.1482 153.797 69.8149C153.729 68.9034 153.641 67.9972 153.531 67.0857C153.542 67.0597 153.552 67.0284 153.568 67.0024ZM149.031 38.8253C148.719 40.492 148.406 42.1638 148.099 43.8305C148.057 43.8305 148.016 43.8409 147.974 43.8513C148.109 42.3305 148.25 40.8097 148.375 39.2888C148.594 39.1326 148.812 38.9815 149.031 38.8253ZM148.609 36.5284C148.661 35.9086 148.713 35.294 148.766 34.6743C148.927 34.0701 149.083 33.4659 149.245 32.8618C149.276 33.9086 149.292 34.9607 149.297 36.018C149.068 36.1899 148.838 36.3618 148.609 36.5284ZM148 23.9711C147.13 27.7472 146.161 31.5076 145.146 35.2628C145.109 34.6326 145.078 34.0076 145.047 33.3774C146.213 29.3409 147.276 25.2784 148.234 21.1847C148.156 22.1118 148.073 23.044 148 23.9711ZM144.307 20.3774C144.297 20.1534 144.281 19.9295 144.271 19.7055C144.849 17.1222 145.604 13.492 145.969 10.5805C146.568 10.3149 147.172 10.0649 147.776 9.81487C146.661 13.3357 145.437 16.8409 144.307 20.3774ZM144.896 8.07008C144.828 8.62737 144.729 9.17946 144.646 9.73675C144.552 9.78362 144.458 9.8305 144.365 9.87217C144.536 9.27321 144.724 8.67425 144.896 8.07008ZM144.349 6.57529C144.328 6.60133 144.312 6.61696 144.286 6.63779C144.266 6.61175 144.25 6.60654 144.229 6.5805C144.266 6.57529 144.307 6.5805 144.349 6.57529ZM143.87 11.544C144.052 11.4607 144.234 11.3774 144.417 11.294C144.255 12.2732 144.073 13.2472 143.885 14.2159C143.833 13.5024 143.771 12.794 143.713 12.0805C143.766 11.9034 143.818 11.7263 143.87 11.544ZM143.047 42.9347C142.354 45.4555 141.687 47.9763 141.036 50.5024C141.042 49.0961 141.047 47.6951 141.052 46.294C141.406 45.2628 141.745 44.2263 142.068 43.1847C142.354 42.294 142.615 41.393 142.896 40.5024C142.943 41.3149 142.995 42.1274 143.047 42.9347ZM141.88 18.2732C141.906 18.1899 141.932 18.1065 141.953 18.0232C142.01 19.3461 142.057 20.669 142.109 21.992C141.922 22.7107 141.734 23.4295 141.536 24.1482C141.635 22.1899 141.74 20.2315 141.88 18.2732ZM141.057 6.91383C141.125 6.90342 141.193 6.89821 141.26 6.88779C141.219 7.22112 141.193 7.55967 141.182 7.893C141.099 8.74196 141.052 9.59092 140.979 10.4347C139.979 13.4347 139.182 17.0284 138.885 17.8097C138.536 19.0388 138.187 20.268 137.838 21.4972C137.74 20.4138 137.625 19.3409 137.51 18.2628C138.401 15.3149 139.281 12.367 140.193 9.42946C140.49 8.58571 140.734 7.75758 141.057 6.91383ZM137.979 7.59612C137.974 7.5805 137.958 7.57529 137.953 7.55967C138.453 7.42946 138.958 7.33571 139.458 7.23154C139.276 7.78883 139.13 8.36696 138.927 8.68467C138.286 10.4763 137.656 12.2732 137.021 14.0753C136.943 13.419 136.885 12.7628 136.792 12.1117C137.208 10.6117 137.609 9.10133 137.979 7.59612ZM136.891 50.8618C136.672 51.8149 136.458 52.768 136.24 53.7211C136.245 52.5336 136.234 51.3461 136.208 50.1586C136.38 49.7107 136.547 49.2576 136.719 48.8097C136.771 49.5024 136.828 50.1899 136.891 50.8618ZM135.963 42.0649C135.922 40.7784 135.891 39.492 135.87 38.2055C135.953 37.9399 136.031 37.6743 136.115 37.4034C136.167 38.492 136.219 39.742 136.276 41.0961C136.172 41.419 136.068 41.742 135.963 42.0649ZM136.198 8.0805C135.797 8.85654 135.734 9.86175 135.448 10.7263C135.406 10.8826 135.359 11.0336 135.318 11.1899C135.052 11.3409 134.891 11.5649 134.833 11.867C134.771 12.367 134.75 12.867 134.719 13.367C133.906 16.3409 133.047 19.3045 132.125 22.2524C131.984 20.1326 131.87 18.0128 131.802 15.893C132.958 13.2368 134.292 10.6742 135.797 8.20029C135.932 8.15862 136.068 8.12217 136.198 8.0805ZM134.271 29.1274C134.266 30.6795 134.266 32.2263 134.281 33.7784C133.995 34.7263 133.703 35.669 133.411 36.6118C133.292 35.4763 133.177 34.3409 133.062 33.2055C133.463 31.8461 133.865 30.4868 134.271 29.1274ZM132.49 26.8878C132.469 26.643 132.448 26.3982 132.427 26.1534C133.109 24.1065 133.781 22.0597 134.432 20.0128C134.417 20.5232 134.396 21.0336 134.385 21.544C133.755 23.3253 133.12 25.1013 132.49 26.8878ZM134.411 43.0024C134.432 44.2107 134.458 45.419 134.479 46.6274C134.38 45.6795 134.276 44.7315 134.172 43.7836C134.255 43.5232 134.333 43.2628 134.411 43.0024ZM131.338 57.4868C131.177 56.5597 131.01 55.6378 130.854 54.7159C131.229 53.4815 131.599 52.2472 131.974 51.0128C132.005 52.3097 132.021 53.6118 132.031 54.9138C131.792 55.768 131.557 56.6274 131.338 57.4868ZM131.354 64.2159C131.281 64.2472 131.208 64.2784 131.135 64.3045C131.156 64.242 131.177 64.1795 131.198 64.117C131.25 64.1586 131.302 64.1847 131.354 64.2159ZM126.87 17.3826C126.854 17.1742 126.838 16.9607 126.823 16.7524C127.734 15.2836 128.677 13.8305 129.687 12.4295C128.969 13.919 128.266 15.4138 127.667 16.9555C127.344 16.992 127.078 17.1326 126.87 17.3826ZM127.115 41.8826C127.099 41.9243 127.083 41.9659 127.068 42.0076C127.083 41.9607 127.099 41.919 127.115 41.8774V41.8826ZM130.422 19.2315C130.463 20.4711 130.516 21.7107 130.573 22.9503C130.62 24.1482 130.677 25.3409 130.74 26.5388C129.917 29.0336 129.078 31.518 128.198 33.992C127.99 31.8149 127.792 29.6378 127.609 27.4555C128.443 24.669 129.375 21.9242 130.422 19.2315ZM130.948 30.518C130.958 30.7107 130.969 30.8982 130.979 31.0909C130.187 33.3201 129.385 35.5493 128.583 37.7784C128.573 37.6951 128.568 37.617 128.557 37.5336C129.349 35.2003 130.151 32.8618 130.948 30.518ZM128.432 51.5961C128.219 52.1743 128.005 52.7524 127.792 53.3253C127.708 52.8618 127.625 52.3982 127.542 51.9347C127.755 51.2159 127.969 50.5024 128.182 49.7836C128.266 50.3982 128.349 51.0024 128.432 51.5961ZM128.094 63.9659C128.24 64.4451 128.417 64.9086 128.604 65.3722C128.24 65.5284 127.885 65.7003 127.526 65.8722C127.713 65.2368 127.906 64.6013 128.094 63.9659ZM128.521 57.2888C128.443 56.8565 128.365 56.4243 128.281 55.992C128.469 55.5128 128.651 55.0388 128.833 54.5597C128.891 54.9659 128.943 55.3618 128.995 55.7524C128.833 56.2628 128.682 56.7784 128.521 57.2888ZM128.99 41.3253C128.953 41.0232 128.917 40.7263 128.885 40.4243C129.417 38.9607 129.953 37.5024 130.474 36.0388C129.995 37.8045 129.495 39.5649 128.99 41.3253ZM131.427 38.7732C131.495 39.9503 131.557 41.1274 131.62 42.3045C131.031 44.1118 130.427 45.919 129.807 47.7211C129.698 46.9347 129.588 46.1534 129.484 45.367C130.135 43.169 130.781 40.9711 131.427 38.7732ZM130.974 48.5701C130.781 49.4399 130.526 50.294 130.302 51.1534C130.276 51.0024 130.25 50.8513 130.229 50.6951C130.474 49.9868 130.734 49.2836 130.974 48.5701ZM129.849 9.74196C130.25 8.93467 131.141 8.36696 131.182 7.39821C131.594 7.26279 132.005 7.14821 132.417 7.02842C131.781 7.44508 131.354 7.90342 131.312 8.40342C130.62 9.13258 129.99 9.92425 129.359 10.6795L129.849 9.74196ZM125.323 12.1951C125.484 11.8045 125.74 11.4347 125.719 10.9972C125.719 10.992 125.719 10.9868 125.719 10.9815C125.745 10.9555 125.766 10.9295 125.786 10.9034C126.187 10.4503 126.661 9.93987 127.156 9.44508C126.536 10.3513 125.88 11.2472 125.323 12.1951ZM119.286 35.9763C119.312 36.5232 119.344 37.0753 119.37 37.6222C118.318 40.242 117.286 42.8722 116.312 45.5232C116.271 45.242 116.229 44.9607 116.193 44.6795C117.156 41.7576 118.187 38.8565 119.286 35.9763ZM116.865 39.0024C116.875 38.9711 116.885 38.9347 116.896 38.8982C117.583 36.7472 118.333 34.6118 119.141 32.492C119.151 32.7003 119.161 32.9034 119.167 33.1118C118.391 35.0753 117.62 37.0388 116.865 39.0024ZM119.776 44.7732C119.88 46.4451 119.974 48.117 120.073 49.7888C119.469 52.0493 118.88 54.3149 118.292 56.5753C117.99 55.268 117.719 53.9555 117.469 52.6378C118.104 49.9868 118.891 47.367 119.776 44.7732ZM120.302 54.3618C120.312 54.4972 120.318 54.6326 120.323 54.768C120.052 55.4555 119.781 56.143 119.51 56.8305C119.786 56.0128 120.047 55.1899 120.302 54.3618ZM119.338 27.0336C119.12 27.1274 119.01 27.294 119.021 27.5336C119.021 27.5857 119.026 27.6378 119.026 27.6951C118.021 29.8305 116.984 31.9503 115.844 34.0232C117.021 31.1847 118.24 28.367 119.542 25.5857C120.411 23.7524 121.312 21.9399 122.24 20.1326C122.24 20.2263 122.24 20.3149 122.24 20.4034C122.245 20.4555 122.245 20.5128 122.25 20.5649C121.297 22.7315 120.333 24.8878 119.338 27.0336ZM116.047 25.8722C117.286 23.4086 118.307 20.6378 120.568 18.9347C118.687 22.3878 116.755 25.8149 114.776 29.2159C114.588 29.5336 114.406 29.8513 114.219 30.1638C114.828 28.7315 115.417 27.294 116.047 25.8722ZM114.625 24.742C114.698 24.5492 114.776 24.3565 114.849 24.1586C115.13 23.3826 115.458 22.6222 115.828 21.8774C115.979 21.8722 116.125 21.8513 116.266 21.8201C116.297 21.8097 116.323 21.8045 116.349 21.7992C115.771 22.7784 115.198 23.7576 114.625 24.742ZM117.969 17.7524C117.917 17.9138 117.859 18.0701 117.802 18.2315C117.807 18.2211 117.812 18.2107 117.818 18.2055C117.588 18.8357 117.359 19.4711 117.125 20.1013C117.057 20.143 116.99 20.1795 116.922 20.2159C116.807 20.2784 116.687 20.3357 116.562 20.393C116.63 20.2524 116.698 20.1118 116.766 19.9763C116.76 19.9972 116.74 20.0232 116.734 20.0492C117.13 19.2732 117.542 18.5128 117.969 17.7524ZM121.979 15.8878C121.984 15.8722 121.995 15.8618 122.005 15.8513C122.016 15.8357 122.026 15.8201 122.036 15.8045C122.031 15.8097 122.031 15.8149 122.026 15.8201C122.286 15.4711 122.542 15.1222 122.802 14.7732C122.411 15.5336 122.068 16.3149 121.354 16.8253C121.568 16.5076 121.776 16.1899 121.99 15.8722C121.984 15.8774 121.979 15.8826 121.979 15.8878ZM119.25 17.2367C119.338 16.9659 119.432 16.6951 119.505 16.419C119.625 16.0128 119.703 15.6013 119.745 15.1795C120.687 14.169 121.687 13.2107 122.74 12.3097C121.479 13.8878 120.318 15.5284 119.25 17.2367ZM122.463 24.7263C122.479 24.9295 122.484 25.1378 122.5 25.3461C121.818 26.8045 121.161 28.268 120.536 29.7524C120.516 29.5597 120.49 29.3722 120.469 29.1795C121.099 27.6795 121.766 26.1951 122.463 24.7263ZM122.672 27.794C122.703 28.2836 122.74 28.768 122.781 29.2524C122.187 30.7003 121.594 32.1482 121.005 33.5909C120.943 33.0961 120.88 32.5961 120.823 32.1013C121.417 30.6534 122.031 29.2211 122.672 27.794ZM121.693 49.6795C121.75 50.0753 121.807 50.4711 121.865 50.867C121.672 51.367 121.474 51.8618 121.276 52.3565C121.255 52.0336 121.229 51.7107 121.203 51.3878C121.37 50.8201 121.531 50.2524 121.693 49.6795ZM121.745 39.3461C122.26 37.9972 122.781 36.6586 123.302 35.3201C123.354 35.867 123.401 36.4138 123.458 36.9607C123.01 38.6482 122.562 40.3357 122.115 42.0232C121.99 41.1274 121.865 40.2368 121.745 39.3461ZM123.266 18.1586C123.365 17.9763 123.448 17.794 123.552 17.6117C123.463 17.7992 123.385 17.992 123.297 18.1795C123.286 18.1742 123.276 18.1638 123.266 18.1586ZM123.901 41.3201C124.016 42.4451 124.135 43.5701 124.25 44.6951C123.838 45.7836 123.417 46.8722 122.995 47.9555C122.896 47.3201 122.776 46.6847 122.677 46.0493C123.094 44.4763 123.5 42.8982 123.901 41.3201ZM124.104 25.9972C124.073 25.6378 124.036 25.2836 124.016 24.9243C124.349 24.2211 124.703 23.5284 125.052 22.8357C125.062 23.0649 125.078 23.2888 125.094 23.5284C124.766 24.3513 124.437 25.1743 124.104 25.9972ZM125.12 30.6847C124.979 31.2263 124.828 31.768 124.687 32.3149C124.672 32.1743 124.656 32.0388 124.641 31.9034C124.802 31.4972 124.963 31.0909 125.12 30.6847ZM123.87 22.5128C123.859 22.3253 123.854 22.143 123.844 21.9555C124.193 21.2888 124.562 20.6378 124.927 19.9815C124.932 20.1482 124.943 20.3409 124.948 20.518C124.583 21.1795 124.213 21.8409 123.87 22.5128ZM124.927 51.2784C125.031 52.3565 125.135 53.4347 125.234 54.518C125.01 55.3409 124.792 56.1743 124.573 57.0024C124.375 55.9711 124.167 54.9399 123.979 53.9034C124.292 53.0284 124.609 52.1482 124.927 51.2784ZM125.594 58.4868C125.604 58.617 125.609 58.7472 125.625 58.8826C125.474 59.2472 125.333 59.6118 125.182 59.9763C125.177 59.9555 125.172 59.9347 125.167 59.9138C125.312 59.4347 125.453 58.9607 125.594 58.4868ZM125.156 36.4034C125.437 35.3045 125.724 34.2107 126.016 33.117C126.213 34.8097 126.422 36.5388 126.646 38.2836C126.344 39.1065 126.047 39.9243 125.74 40.7472C125.531 39.2993 125.338 37.8513 125.156 36.4034ZM125.13 7.47112C125.12 8.22633 126.312 7.98154 126.891 7.73154C126.682 7.84092 126.474 7.9555 126.271 8.07008C125.417 8.55967 124.588 9.09091 123.781 9.65862C121.641 9.92425 120.323 12.0597 119.083 13.6274C118.229 13.5024 117.349 13.8826 116.463 14.5649C119.068 11.8513 121.953 9.48154 125.13 7.47112ZM118.245 14.6482C118.047 14.867 117.849 15.0857 117.651 15.3045C117.37 15.6274 117.109 15.9711 116.844 16.3097C116.609 16.2784 116.411 16.3565 116.26 16.544C114.562 18.8097 113.703 21.5857 112.542 24.1534C111.484 26.2732 110.729 28.5805 109.932 30.8618C109.849 30.2888 109.776 29.7159 109.734 29.1378C109.922 29.0336 110.01 28.867 110 28.6482C109.99 28.4347 109.88 28.2784 109.682 28.1951C110.297 26.7888 110.937 25.3982 111.62 24.0284C113.422 20.7159 115.052 16.8097 118.245 14.6482ZM112.359 19.4607C112.719 18.9659 113.094 18.4763 113.479 17.992C111.047 21.617 108.797 26.7576 107.245 30.6534C108.396 26.669 110.099 22.9399 112.359 19.4607ZM105.76 38.794C106.625 36.0076 107.604 33.2472 108.708 30.5232C108.807 31.3565 108.948 32.1795 109.146 32.9972C108.286 35.242 107.26 37.393 105.729 39.2368C105.74 39.0857 105.75 38.9399 105.76 38.794ZM105.776 41.6482C105.734 41.6326 105.698 41.6222 105.661 41.6118C105.661 41.4138 105.661 41.2107 105.661 41.0128C105.713 40.9815 105.766 40.9607 105.812 40.9295C105.833 41.0961 105.849 41.2576 105.865 41.4243C105.833 41.4972 105.807 41.5701 105.776 41.6482ZM108.922 39.018C108.922 38.669 108.891 38.3149 108.917 37.9659C109.021 38.1586 109.109 38.3618 109.213 38.5545C109.115 38.7107 109.021 38.8618 108.922 39.018ZM110.115 36.7263C110.135 36.8045 110.156 36.893 110.177 36.9659C110.104 37.0857 110.026 37.2055 109.953 37.3305C109.838 37.1795 109.703 37.0493 109.557 36.9347C109.76 36.919 109.948 36.8461 110.115 36.7263ZM110.151 44.6222C109.979 44.2211 109.823 43.8201 109.682 43.4034C109.927 42.5961 110.177 41.7888 110.427 40.9763C110.687 41.5128 110.963 42.0284 111.213 42.5753C110.88 43.268 110.531 43.9555 110.151 44.6222ZM111.094 46.6743C111.354 45.8878 111.635 45.1065 111.948 44.3409C112.078 44.6586 112.213 44.9763 112.344 45.2993C112.036 45.9659 111.719 46.6274 111.396 47.2888C111.292 47.0805 111.193 46.8774 111.094 46.6743ZM112.151 48.8305C112.094 48.7107 112.036 48.5909 111.974 48.4711C112.115 48.1586 112.271 47.8513 112.448 47.5545C112.349 47.9763 112.25 48.4034 112.151 48.8305ZM112.286 40.1534C112.026 39.3149 111.771 38.4815 111.521 37.643C111.792 36.9451 112.094 36.268 112.427 35.5961C112.542 36.6795 112.667 37.7628 112.807 38.8409C112.635 39.2784 112.469 39.7159 112.286 40.1534ZM113.25 43.3045C113.13 42.9086 113.01 42.5076 112.891 42.1118C112.979 41.919 113.078 41.7315 113.172 41.544C113.24 42.0284 113.318 42.5076 113.391 42.992C113.344 43.0961 113.292 43.2003 113.25 43.3045ZM113.927 52.4451C113.917 52.419 113.901 52.393 113.885 52.367C114.01 51.8982 114.135 51.4295 114.26 50.9607C114.281 50.8878 114.302 50.8149 114.318 50.7472C114.344 50.8305 114.38 50.9086 114.406 50.992C114.245 51.4763 114.083 51.9607 113.927 52.4451ZM114.448 31.9972C115.354 30.5545 116.318 29.1482 117.25 27.742C116.292 29.6899 115.448 31.6795 114.719 33.7211C114.635 33.143 114.536 32.5701 114.448 31.9972ZM115.312 38.0597C115.281 37.8618 115.255 37.669 115.229 37.4763C115.521 36.919 115.812 36.367 116.104 35.8149C115.854 36.5701 115.578 37.3149 115.312 38.0597ZM118.338 65.2368C117.568 64.7628 116.823 64.2472 116.104 63.6899C116.125 63.2888 116.062 62.8982 115.917 62.518C116.656 61.7107 117 60.6222 117.187 59.5753C117.24 59.6847 117.307 59.867 117.375 60.0753C117.208 60.7315 117.031 61.3826 116.865 62.0336C116.818 62.4607 117.104 62.9763 117.594 62.8982C117.802 62.7888 117.984 62.6482 118.151 62.4815C118.312 62.9711 118.484 63.4711 118.672 63.9503C118.552 64.3878 118.443 64.8149 118.338 65.2368ZM119.49 61.0649C119.432 60.8826 119.365 60.7003 119.312 60.518C119.693 59.5805 120.01 58.5857 120.411 57.8774C120.365 58.1534 119.963 59.4503 119.49 61.0649ZM120.437 64.0284C120.474 63.919 120.51 63.8097 120.547 63.7003C120.547 63.9295 120.557 64.1638 120.552 64.393C120.51 64.2732 120.479 64.1482 120.437 64.0284ZM120.734 42.9868C120.875 43.8982 121.005 44.8149 121.135 45.7315C121.047 46.0545 120.963 46.3826 120.875 46.7055C120.807 45.4659 120.75 44.2211 120.734 42.9868ZM122.302 67.1743C121.828 66.992 121.354 66.794 120.891 66.5857C121.12 66.4607 121.349 66.2003 121.578 65.7524C121.729 63.8982 121.781 62.0493 121.734 60.1899C122.109 59.117 122.5 58.044 122.885 56.9711C123.12 58.1899 123.37 59.4086 123.661 60.6118C123.521 61.2107 123.354 61.7993 123.213 62.3982C122.885 63.8982 122.479 65.4034 122.255 66.919C122.255 67.0076 122.276 67.0909 122.302 67.1743ZM125.896 66.7159C125.557 66.9034 125.198 67.0545 124.87 67.2524C124.646 67.4243 124.568 67.6482 124.63 67.9243C124.213 67.8149 123.802 67.6899 123.391 67.5545C123.578 67.3774 123.719 67.1638 123.823 66.9243C124.146 66.1534 124.469 65.3826 124.792 64.6065C124.99 65.2263 125.182 65.8513 125.401 66.4659C125.557 66.5701 125.724 66.643 125.901 66.7003C125.901 66.7055 125.896 66.7107 125.896 66.7159ZM125.693 62.4659C125.745 62.3357 125.797 62.2003 125.854 62.0701C125.896 62.6847 125.948 63.2993 125.99 63.9138C125.88 63.4347 125.797 62.9451 125.693 62.4659ZM126.5 56.6847C126.495 56.5753 126.49 56.4659 126.49 56.393C126.505 56.4607 126.521 56.5336 126.536 56.6013C126.526 56.6274 126.51 56.6586 126.5 56.6847ZM127.448 44.3826C127.516 44.9138 127.588 45.4399 127.661 45.9607C127.417 46.7888 127.182 47.617 126.943 48.4399C126.838 47.8305 126.734 47.2211 126.635 46.6065C126.906 45.867 127.177 45.1274 127.448 44.3826ZM127.391 61.0336C127.297 61.3565 127.193 61.6795 127.099 62.0024C127.031 61.2003 126.937 60.3878 126.844 59.6326C126.911 59.4711 126.974 59.3097 127.042 59.1534C127.151 59.7784 127.266 60.4086 127.391 61.0336ZM129.042 68.4555C128.531 68.4972 128.021 68.5024 127.51 68.4763C127.224 68.4451 126.937 68.3878 126.651 68.3409C126.667 68.3305 126.677 68.3097 126.693 68.2993C127.516 68.0388 128.344 67.8045 129.182 67.5857C129.135 67.8774 129.083 68.1638 129.042 68.4555ZM129.792 63.8409C129.568 62.7211 129.354 61.5961 129.135 60.4763C129.245 60.117 129.349 59.7524 129.458 59.393C129.755 61.8305 129.896 63.4555 129.792 63.8409ZM133.052 67.6013C132.068 67.9711 131.052 68.2263 130.01 68.3722C130.099 68.0128 130.203 67.6586 130.297 67.2993C131.229 67.0701 132.156 66.8409 133.083 66.6013C133.031 66.9295 133.021 67.268 133.052 67.6013ZM133.01 63.5493C133.51 62.2055 133.521 59.669 133.443 57.492C133.526 57.2576 133.615 57.0232 133.698 56.7888C133.818 57.643 133.995 58.4659 134.432 59.1795C134.552 59.3357 134.708 59.4399 134.901 59.4868C134.599 60.7211 134.281 61.9503 133.948 63.1743C133.635 63.2993 133.323 63.4243 133.01 63.5493ZM134.849 66.8201C134.891 66.5597 134.948 66.3097 134.995 66.0545C135.953 65.768 136.896 65.4243 137.818 65.0336C136.87 65.7003 135.88 66.294 134.849 66.8201ZM138.609 60.8565C138.328 61.0493 138.062 61.2576 137.781 61.4451C137.13 61.7784 136.453 62.0649 135.781 62.3618C136.302 60.2888 136.917 58.2368 137.594 56.2055C137.922 57.8982 138.328 59.1847 138.833 59.8357C138.76 60.1743 138.677 60.5128 138.609 60.8565ZM139.88 29.8201C139.51 31.0284 139.135 32.2315 138.755 33.4347C138.667 32.1482 138.583 30.8565 138.495 29.5649C139.026 27.8149 139.562 26.0649 140.088 24.3097C140.01 26.1482 139.937 27.9815 139.88 29.8201ZM140.625 59.3878C140.776 58.669 140.875 57.9399 140.927 57.2107C141.75 54.6378 142.656 52.0961 143.562 49.5545C143.568 49.5857 143.568 49.6222 143.573 49.6534C142.937 52.7263 142.12 55.7472 141.115 58.7159C141.135 58.8149 141.161 58.8618 141.182 58.9399C140.995 59.0909 140.812 59.242 140.625 59.3878ZM142.833 57.6065C143.302 56.367 143.766 54.7732 144.125 53.4399C144.26 53.7472 144.469 54.0024 144.74 54.2055C144.703 54.3201 144.672 54.4347 144.641 54.5493C144.573 54.7107 144.573 54.8774 144.646 55.0388C144.713 55.2055 144.828 55.3201 144.995 55.3878C145.104 55.4086 145.219 55.4034 145.328 55.3826C144.51 56.143 143.682 56.8878 142.833 57.6065ZM146.083 54.6586C146.052 54.6899 146.021 54.7211 145.984 54.7524C146.052 54.6013 146.109 54.4451 146.156 54.2836L146.083 54.6586ZM145.885 47.8409C145.859 47.4138 145.838 46.992 145.807 46.5649C145.932 46.044 146.057 45.5232 146.182 45.0024C146.078 45.9451 146.005 46.8982 145.885 47.8409ZM148.901 54.9503C148.526 54.8565 148.12 55.0961 147.729 55.4347C147.75 55.3513 147.776 55.2732 147.797 55.1899C148.281 54.7159 148.76 54.242 149.234 53.7524C149.135 54.1222 149.021 54.5232 148.901 54.9503ZM148.719 52.0232C148.937 51.2211 149.146 50.419 149.354 49.617C149.38 50.169 149.406 50.7159 149.443 51.2628C149.203 51.518 148.958 51.768 148.719 52.0232ZM148.521 7.41904C148.469 7.60133 148.406 7.77842 148.354 7.96071C148.271 8.00758 148.182 8.02842 148.099 8.07529C147.437 8.38779 146.786 8.71071 146.13 9.02321C146.208 7.97112 146.203 7.10133 146.073 6.52321C148.406 6.52842 150.703 6.80967 152.963 7.37737C151.922 7.12737 150.88 7.13779 149.844 7.40342C149.661 6.79404 148.708 6.65342 148.521 7.41904ZM150.542 10.0388C150.406 11.1586 150.203 12.268 150.031 13.3878C149.984 13.3722 149.937 13.367 149.896 13.3617C150.104 12.2524 150.354 11.1534 150.542 10.0388ZM153.974 77.5909C154.891 77.9138 155.771 76.0701 156 75.2524C154.766 81.0597 153.536 86.8617 152.161 92.6326C151.135 97.0128 150.068 101.383 148.958 105.742C148.281 106.299 147.588 106.825 146.901 107.367C151.25 97.919 153.609 87.992 153.974 77.5909ZM153.74 97.8253C153.443 99.6013 153.146 101.377 151.896 102.732C152.172 101.216 152.484 99.7107 152.818 98.2055C152.906 98.1951 152.995 98.1795 153.083 98.1534C153.302 98.0545 153.521 97.9295 153.74 97.8253ZM148.786 115.867C149.219 115.19 149.656 114.518 150.094 113.846C150.318 113.685 150.542 113.518 150.766 113.357C150.161 114.221 149.422 115.008 148.786 115.867ZM151.229 121.205C151.562 121.133 151.901 121.06 152.24 120.987C151.588 121.638 150.891 122.237 150.146 122.773C150.104 122.622 150.083 122.471 150.078 122.32C150.458 121.945 150.849 121.58 151.229 121.205ZM148.786 123.7C148.719 123.742 148.651 123.778 148.583 123.82C148.635 123.763 148.693 123.711 148.745 123.653C148.755 123.669 148.776 123.685 148.786 123.7ZM144.396 112.32C144.854 112.278 145.255 112.117 145.609 111.83C145.974 111.471 146.365 111.153 146.74 110.81C145.76 112.367 144.766 113.914 143.76 115.455C143.047 115.95 142.354 116.471 141.646 116.976C142.625 115.466 143.531 113.903 144.396 112.32ZM145.318 117.294C144.588 118.643 143.786 119.95 142.953 121.237C142.797 121.263 142.646 121.294 142.49 121.32C143.276 120.107 144.047 118.888 144.807 117.659C144.974 117.539 145.146 117.414 145.318 117.294ZM119.719 141.398C119.375 141.273 119.031 141.169 118.687 141.018C118.37 140.815 117.953 140.289 118.182 139.846C121.693 135.763 126.25 132.586 130.568 129.138C128.474 131.357 126.411 133.601 124.474 135.945C121.74 138.039 119.057 139.971 119.719 141.398ZM125.047 141.31C123.818 141.263 122.63 141.039 121.469 140.638C122.458 139.711 123.625 138.872 124.687 137.987C127 138.065 129.021 135.914 130.969 134.799C134.963 131.659 138.156 127.716 141.021 123.523C141.161 123.497 141.307 123.482 141.448 123.45C138.578 127.414 135.37 131.08 131.828 134.455C129.76 136.846 126.557 138.622 125.047 141.31ZM140.604 127.117C140.25 127.846 139.573 128.69 139.099 129.554C138.687 129.815 138.266 130.06 137.854 130.325C138.661 129.403 139.458 128.471 140.224 127.518C140.344 127.372 140.463 127.226 140.583 127.08C140.588 127.091 140.594 127.107 140.604 127.117ZM134.432 134.018C134.693 134.252 134.99 134.414 135.328 134.497C135.62 134.487 135.906 134.455 136.193 134.393C134.172 136.377 131.963 138.185 129.292 139.065C131.042 137.424 132.755 135.742 134.432 134.018ZM145.37 133.804C142.427 135.633 139.167 137.716 135.745 139.362C137.432 138.232 139.062 137.008 140.635 135.872C146.333 132.299 151.677 128.06 156.036 122.924C157.437 125.435 159.615 120.737 160.505 119.705C160.609 120.403 160.786 120.867 161.01 121.169C156.349 125.966 151 130.148 145.37 133.804ZM153.516 119.002C154.719 117.841 155.906 116.659 157.125 115.523C156.13 116.58 155.177 117.742 154.193 118.877C153.969 118.919 153.745 118.961 153.516 119.002ZM160.552 110.398C158.146 113.883 154.26 116.336 151.307 119.45C151.281 119.455 151.25 119.461 151.224 119.466C154.578 114.976 157.823 110.429 160.911 105.763C161.401 105.383 161.87 105.013 162.328 104.648C162.474 105.117 162.849 105.429 163.463 105.127C162.422 106.867 161.443 108.565 160.552 110.398ZM163.656 115.794C163.823 115.242 164.005 114.69 164.182 114.138C165.807 111.013 167.594 107.987 169.536 105.049C167.823 108.768 165.859 112.346 163.656 115.794ZM172.844 103.789C172.859 103.752 172.88 103.721 172.896 103.685C171.963 105.836 170.891 107.909 169.677 109.914C172.958 102.888 175.594 95.1742 174.458 94.5336C175.078 92.7003 183.646 76.0284 178.958 77.5597C179.687 75.3513 180.286 73.1118 180.75 70.8357C181.338 71.5753 182.031 70.794 181.911 70.1013C181.906 53.7107 180.885 35.643 172.745 21.0805C172.792 20.9815 172.838 20.8826 172.885 20.7888C176.25 25.0961 178.49 29.9295 179.599 35.2836C185.526 57.9972 182.615 82.6013 172.823 103.83C172.833 103.815 172.838 103.799 172.844 103.789Z" fill="#103E7C"/>
</g>
</svg>
