<svg width="187" height="149" viewBox="0 0 187 149" fill="none" xmlns="http://www.w3.org/2000/svg">
<mask id="mask0_2485_189" style="mask-type:luminance" maskUnits="userSpaceOnUse" x="0" y="0" width="187" height="149">
<path d="M0 0H186.667V148.807H0V0Z" fill="white"/>
</mask>
<g mask="url(#mask0_2485_189)">
<path d="M48.9843 0.978937C38.0208 1.40081 26.9531 5.12998 17.7083 10.9737C-1.81777 23.8852 -6.8959 58.7237 15.0156 71.7654C29.0729 80.5362 47.1666 70.9581 50.927 55.6144C51.0416 55.5102 51.151 55.4008 51.2656 55.2966C61.2343 71.1925 64.3906 91.2758 55.9687 108.531C52.7239 116.12 48.1874 123.041 43.7083 129.942C41.3489 133.416 38.9531 136.88 36.6093 140.437C34.9062 142.448 33.677 145.969 36.6354 147.651C44.3801 150.937 52.7083 144.953 58.6666 140.354C68.5885 132.041 74.9426 120.291 80.2135 108.646C84.8124 98.2602 89.4479 87.7654 92.1145 76.6873C96.5156 58.0258 96.2135 37.3696 86.0624 20.5675C78.3229 8.11435 63.4583 0.984145 48.9843 0.978937ZM85.9166 33.6196C84.9791 31.7029 84.2708 29.6664 83.302 27.7602C83.2916 27.531 83.276 27.3019 83.2604 27.0727C84.6718 28.9529 85.7291 31.0154 85.9166 33.6196ZM82.7343 55.156C82.7239 55.0519 82.6927 54.9529 82.6354 54.8644C83.2708 51.4737 83.427 47.9841 85.1666 44.9269C86.6614 49.5466 83.5989 54.2914 82.5312 58.7289C82.776 57.5519 82.9479 56.3487 82.7343 55.156ZM60.0729 10.2237C60.802 10.6352 61.4218 11.1716 61.9426 11.8331C61.5885 11.8696 61.2447 11.9581 60.9166 12.0935C60.7551 11.8748 60.5468 11.8019 60.2864 11.8644C60.2187 11.3175 60.1458 10.7706 60.0729 10.2237ZM60.1979 46.0883C60.0051 46.2029 59.8124 46.3175 59.6197 46.4321C59.5676 46.3279 59.5156 46.2185 59.4583 46.1144C59.6301 45.8123 59.802 45.5154 59.9843 45.2185C59.9999 45.2029 60.0156 45.1821 60.026 45.1612C60.0781 45.4685 60.1301 45.781 60.1979 46.0883ZM61.5364 13.8435C61.9374 13.9373 62.3333 14.031 62.7291 14.1456C62.6926 14.3956 62.6354 14.6352 62.552 14.8748C62.1093 14.5727 61.6718 14.2758 61.2291 13.9737C61.3333 13.9321 61.4374 13.8904 61.5364 13.8435ZM62.2864 18.9841C62.3697 19.1091 62.4531 19.2394 62.526 19.3696C62.5833 19.4737 62.6458 19.5831 62.7031 19.6873C62.5104 19.9425 62.3176 20.1977 62.1249 20.4477C61.8854 20.7602 61.651 21.0727 61.4114 21.3852C61.3801 21.0831 61.3437 20.7862 61.3072 20.4841C61.6354 19.9894 61.9635 19.4894 62.2864 18.9841ZM63.2708 24.3644C63.2239 24.6769 63.1874 24.9894 63.1458 25.3019C62.8697 25.9894 62.5989 26.6716 62.3229 27.3591C62.2551 27.4477 62.1874 27.531 62.1197 27.6196C62.1197 27.5883 62.1145 27.5623 62.1145 27.531C62.5104 26.4789 62.8854 25.4216 63.2708 24.3644ZM62.7447 48.4737C62.7968 48.8331 62.8489 49.1925 62.901 49.5519C62.9739 50.0883 63.0833 50.6248 63.1614 51.1612C62.9531 51.3019 62.7395 51.4373 62.5208 51.5727C62.4479 51.2654 62.3749 50.9581 62.302 50.656C62.2291 50.3279 62.151 49.9946 62.0676 49.6612C62.2916 49.2654 62.5208 48.8696 62.7447 48.4737ZM63.3593 53.255C63.427 53.2081 63.4895 53.1664 63.5572 53.1196C63.5937 53.2289 63.6354 53.3383 63.677 53.4425C63.8124 53.7394 64.0364 53.9373 64.3541 54.031C64.4114 54.5362 64.151 54.9633 63.9635 55.4164C63.651 54.7654 63.3437 54.1196 63.0364 53.4685C63.1458 53.3956 63.2499 53.3227 63.3593 53.255ZM64.3124 72.3175C64.6145 72.3227 64.9166 72.2914 65.2187 72.2237C65.8124 76.0414 65.7604 79.9321 65.8906 83.7914C65.7343 82.7498 65.5676 81.7133 65.3906 80.6821C64.9999 77.8748 64.1614 75.1196 64.0468 72.2862C64.1354 72.3019 64.2239 72.3123 64.3124 72.3175ZM64.8385 39.1664C64.8124 38.6144 64.7864 38.0571 64.7656 37.4998C64.8124 37.4269 64.8593 37.3539 64.9062 37.281C64.8854 37.9112 64.8645 38.5362 64.8385 39.1664ZM64.901 70.4216C64.8593 70.4269 64.8176 70.4373 64.7812 70.4425C64.7656 70.4425 64.7551 70.4425 64.7395 70.4477C64.7343 70.2706 64.7551 70.0987 64.8124 69.9321C64.8385 70.0935 64.8697 70.2602 64.901 70.4216ZM64.6874 32.9112V31.9841C64.6874 31.6091 64.677 31.2394 64.6926 30.8644C64.7083 30.5258 64.7239 30.1873 64.7395 29.8487C64.8697 29.6977 64.9947 29.5519 65.1197 29.4008C65.1041 30.38 65.0833 31.3644 65.0572 32.3487C64.9322 32.5362 64.8072 32.7237 64.6874 32.9112ZM65.1874 15.6716C65.1979 15.6612 65.2083 15.6508 65.2187 15.6404V15.781C65.2083 15.7446 65.1979 15.7081 65.1874 15.6716ZM65.8176 110.453C66.052 108.547 66.4479 106.661 67.4687 105.005C67.6614 105.536 67.6458 106.406 68.3489 106.469C67.5156 107.963 66.6458 109.432 65.7447 110.89C65.7708 110.745 65.7916 110.599 65.8176 110.453ZM71.2395 34.4425C71.2864 34.3696 71.3333 34.3019 71.3801 34.2289C71.3697 34.5206 71.3541 34.8175 71.3385 35.1091C71.1406 35.3904 70.9426 35.6716 70.7239 35.9321C70.677 35.9946 70.6301 36.0519 70.5833 36.1091C70.6145 35.8435 70.651 35.5779 70.6822 35.3123C70.8749 35.0154 71.0624 34.7237 71.2499 34.4269C71.2447 34.4321 71.2395 34.4373 71.2395 34.4425ZM70.8906 73.9321C70.8593 73.5466 70.8333 73.1612 70.8072 72.7758C70.7343 71.6925 70.6614 70.6039 70.5833 69.5154C70.5624 69.1404 70.5364 68.7706 70.5051 68.3956C71.2083 67.6873 71.8801 66.9529 72.526 66.1977C72.3749 68.8539 71.5208 71.3696 70.8906 73.9321ZM72.3801 82.1977C72.2708 82.5519 72.1666 82.906 72.0572 83.2654C72.1093 82.9216 72.1614 82.5831 72.2187 82.2394C72.2708 82.2289 72.3229 82.2133 72.3801 82.1977ZM72.6562 97.7341C71.4426 100.099 70.3541 102.76 68.8281 104.995C68.1301 101.229 71.6354 98.1091 73.0676 94.8019C72.8958 95.7602 72.2916 96.7706 72.6562 97.7341ZM68.3281 70.3904C68.6979 76.4112 69.1822 82.1769 69.6874 88.2498C68.0885 82.6716 67.6458 76.9112 67.3229 71.1456C67.6666 70.906 67.9999 70.6508 68.3281 70.3904ZM67.1197 69.2237C67.0051 68.1508 66.8854 67.0831 66.7656 66.0102C66.7656 66.005 66.7656 65.9998 66.7656 65.9946C66.9531 66.1769 67.1718 66.3019 67.4218 66.38C67.6458 66.4321 67.8645 66.4425 68.0885 66.406L68.0937 66.4998C68.1301 67.1248 68.1666 67.7446 68.2031 68.3696C67.8489 68.6664 67.4895 68.9477 67.1197 69.2237ZM68.7083 26.9477C68.552 27.1716 68.3958 27.3956 68.2395 27.6248C68.151 27.2914 68.0468 26.9633 67.9374 26.6352C67.8854 26.4633 67.8385 26.2862 67.7864 26.1144C68.2499 25.5362 68.7083 24.9529 69.1666 24.3748C69.1979 24.3383 69.2239 24.3071 69.2499 24.2706C69.2968 24.4425 69.3437 24.6144 69.3906 24.781C69.4687 25.0727 69.5468 25.3591 69.6301 25.6508C69.3176 26.0831 69.0156 26.5154 68.7083 26.9477ZM69.5885 31.0727C69.4687 31.7289 69.526 32.4633 69.2968 33.0779C69.2395 32.6039 69.1718 32.1404 69.0937 31.6769C69.2604 31.4737 69.427 31.2758 69.5885 31.0727ZM70.0364 51.5414C70.1041 50.2602 70.2187 48.9894 70.4114 47.7289C70.4426 47.6716 70.4739 47.6091 70.4999 47.5519C70.427 48.3383 70.3541 49.1248 70.2812 49.9112C70.1926 50.9216 70.0937 51.9269 69.9947 52.9321C69.9999 52.4581 70.0156 51.9894 70.0416 51.5206C70.0364 51.5258 70.0364 51.531 70.0364 51.5414ZM69.6301 43.4321C69.8072 42.0831 69.9843 40.7341 70.1562 39.38C70.5051 38.9529 70.8541 38.5258 71.2031 38.0987C71.2343 40.0727 70.9426 41.8852 69.6301 43.4321ZM68.0051 87.2758C68.1041 87.7446 68.2187 88.2133 68.3489 88.6769C68.3854 88.8279 68.427 88.9789 68.4635 89.1248C68.3229 89.1716 68.2135 89.2602 68.1458 89.3904C68.0781 89.5154 68.0104 89.6456 67.9426 89.7706C67.9739 89.031 68.0051 88.2914 68.0051 87.5466C68.0051 87.4581 68.0051 87.3644 68.0051 87.2758ZM67.4062 98.6144C67.526 96.0102 68.6406 93.6039 69.1718 91.0623C69.177 91.0727 69.1874 91.0831 69.1926 91.0935C69.276 91.2341 69.3697 91.3696 69.4687 91.4998C68.9583 93.9269 68.1406 96.3071 67.401 98.6716C67.401 98.6508 67.4062 98.6352 67.4062 98.6144ZM70.3645 66.3383C70.3593 66.1821 70.3489 66.0206 70.3385 65.8591C70.2916 64.9269 70.2395 63.9998 70.1822 63.0727C72.1562 61.5727 71.052 57.3696 73.0468 55.6664C73.0572 58.2914 73.0468 60.9321 72.8489 63.5414C72.0572 64.5206 71.2447 65.4269 70.3645 66.3383ZM70.9322 18.4216C70.3906 18.3748 69.8854 18.6664 69.4843 19.0102C69.1197 18.2289 68.5416 17.3487 67.6926 17.0727C67.7864 16.8383 67.8801 16.5935 67.9791 16.3539C68.9583 16.8904 69.9479 17.4112 70.9374 17.9321C70.9322 18.0987 70.9322 18.2654 70.9322 18.4216ZM67.6979 35.5571L67.5833 35.7446C67.5208 35.0935 67.4739 34.4425 67.4218 33.7914C67.4218 33.7966 67.4218 33.7966 67.4218 33.8019C67.4218 33.7602 67.4166 33.7185 67.4166 33.6716L67.4218 33.6664C67.4687 33.9737 67.5156 34.2862 67.5624 34.5987C67.6145 34.9164 67.6562 35.2341 67.6979 35.5571ZM67.2864 21.2289H67.2812L67.2708 20.7602C67.3645 20.8175 67.4583 20.8748 67.5468 20.9321C67.4583 21.031 67.3697 21.13 67.2864 21.2289ZM67.7499 42.0727C67.8229 42.1144 67.901 42.1404 67.9791 42.1769C68.0676 42.2133 68.1562 42.2289 68.2499 42.2289C68.1406 43.0831 68.0364 43.9373 67.9322 44.7914C67.8229 45.6716 67.7083 46.5519 67.5989 47.4373C67.3072 47.7237 67.0104 48.0102 66.7135 48.2914C66.7968 46.4946 66.8801 44.6925 66.9531 42.8956C67.2187 42.6196 67.4895 42.3591 67.7499 42.0727ZM67.8072 111.89C69.9426 108.364 72.2499 104.89 74.2291 101.265C72.7864 105.515 70.3229 109.114 67.4374 112.51C67.5572 112.302 67.6822 112.094 67.8072 111.89ZM71.6614 94.6196C72.9895 91.2498 74.1718 87.8175 75.3593 84.4008C75.5676 83.8123 75.7604 83.2133 75.9479 82.6091C75.8906 82.8748 75.8437 83.1404 75.8124 83.4112C75.7916 83.6404 75.8801 83.8123 76.0781 83.9269C75.1926 87.7758 73.9426 91.3644 71.6614 94.6196ZM75.6562 75.5727C75.8541 74.906 76.0572 74.2394 76.2551 73.5727C77.1666 70.5102 78.1145 67.4685 79.0885 64.4321C78.0937 68.1664 77.1041 71.9998 75.6562 75.5727ZM76.9166 67.0883C75.2499 71.281 74.8801 76.2914 72.5468 80.0675C72.5624 79.906 72.5781 79.7446 72.5989 79.5831C72.6926 78.8383 72.7916 78.0831 72.8801 77.3383C74.6666 69.4841 77.1874 61.8748 80.4426 54.505C80.026 58.8591 78.0104 62.8696 76.9166 67.0883ZM79.2083 35.0987C79.1041 36.906 78.6354 38.4685 77.4947 39.8904C77.552 39.281 77.6093 38.6716 77.6614 38.0623C77.677 36.9164 78.7135 36.0987 79.2083 35.0987ZM78.3541 29.0831C78.3906 28.5571 78.427 28.0362 78.4635 27.5102C78.7343 27.0154 78.9739 26.505 79.177 25.9737C79.2083 26.0519 79.2395 26.1248 79.276 26.1977C79.401 26.6196 79.526 27.0414 79.6562 27.4581C79.2135 27.9685 78.7604 28.5258 78.3541 29.0831ZM79.2239 46.6925C79.3333 46.7185 79.4426 46.7341 79.5572 46.7341C79.7968 46.7237 80.0208 46.6612 80.2343 46.5466C79.3333 48.755 78.4114 50.9633 77.5781 53.1977C77.6301 52.906 77.677 52.6091 77.7291 52.3175C78.1874 50.4269 78.0364 48.3071 79.2239 46.6925ZM77.6301 45.5258C77.5729 45.9008 77.5104 46.2758 77.4479 46.6508C77.1718 47.1144 76.901 47.5779 76.6249 48.0414C76.8333 47.0206 76.6406 45.8539 77.1666 44.9477C77.2031 44.9946 77.2395 45.0466 77.2812 45.0935C77.3958 45.2394 77.5104 45.3852 77.6301 45.5258ZM75.401 32.3644C75.2708 33.3383 75.0833 34.2602 74.4739 35.0571C74.3749 34.7602 74.2708 34.4633 74.1666 34.1716C74.5833 33.5727 74.9895 32.9633 75.401 32.3644ZM73.9739 31.3331C73.9843 30.9894 73.9895 30.6456 73.9999 30.3019C74.7187 29.255 75.4791 28.2289 76.2864 27.2498C75.901 28.7446 74.7135 29.9737 73.9739 31.3331ZM76.2031 51.5883C76.276 51.2029 76.6249 50.9112 76.8124 50.5675C76.3176 53.5362 75.8072 56.505 75.2812 59.4737C75.2083 59.6821 75.1406 59.8904 75.0676 60.0987C75.4843 57.2706 75.8645 54.4269 76.2031 51.5883ZM76.8541 23.2758C76.8281 23.4425 76.802 23.6144 76.776 23.7862C75.651 24.4529 74.8489 25.531 74.0104 26.5154C74.0051 26.1039 74.0051 25.6925 73.9947 25.281C74.9374 23.9633 75.9426 22.6977 76.8072 21.3383C77.026 21.7237 77.2343 22.1091 77.4374 22.4998C77.1041 22.6508 76.9062 22.9112 76.8541 23.2758ZM73.8176 20.1925C73.8072 19.9373 73.7916 19.6821 73.7812 19.4269C73.7812 19.4216 73.7812 19.4216 73.7812 19.4216C73.9583 19.5102 74.1354 19.5935 74.3124 19.6873C74.1458 19.8539 73.9739 20.0154 73.8176 20.1925ZM79.276 43.3487C79.4166 41.1612 80.2239 39.3904 81.5833 37.6664C81.5676 39.7498 80.0781 41.4685 79.276 43.3487ZM79.6718 23.0414C79.9895 23.3696 80.302 23.6977 80.6093 24.0206C80.6041 24.3591 80.6041 24.6925 80.5781 25.0258C80.3072 24.4112 80.0208 23.8071 79.7239 23.2081C79.7083 23.1508 79.6874 23.0987 79.6718 23.0414ZM81.1406 32.0206C81.2604 32.3696 81.3801 32.7185 81.4999 33.0675C81.5156 33.4894 81.5364 33.9112 81.5468 34.3331C81.4843 34.3852 81.4322 34.4425 81.3749 34.4998C81.0937 34.7966 80.8281 35.1144 80.5781 35.4321C80.7604 34.3071 80.9426 33.1769 81.1249 32.0519C81.1301 32.0414 81.1354 32.031 81.1406 32.0206ZM79.6458 19.7758C80.1354 20.4425 80.6041 21.13 81.0624 21.8227C80.1926 21.2602 79.3437 20.6821 78.7395 19.8539C78.6145 19.7237 78.4687 19.6508 78.2916 19.63C78.1145 19.6091 77.9531 19.6456 77.802 19.7446C76.401 17.4425 74.7291 15.3591 72.7812 13.4894C75.3385 15.2914 77.6249 17.3852 79.6458 19.7758ZM75.2499 18.7289C74.7239 18.4685 74.1979 18.2185 73.677 17.9529C73.6406 17.531 73.5781 17.1091 73.4947 16.6873C73.3333 15.6873 72.0885 15.4008 71.4218 16.0675C71.276 16.2394 71.1718 16.4321 71.1041 16.6456C70.1979 16.1769 69.2864 15.7133 68.3801 15.2394C68.4583 14.9216 68.3541 14.6821 68.0624 14.531C68.2708 13.6196 68.1354 12.7341 67.0833 12.5466C67.1197 11.8071 66.9583 10.755 65.9895 10.88C64.8697 11.0831 65.2916 12.4164 65.2343 13.2237C65.0416 13.3383 64.8593 13.4737 64.677 13.6039C64.6301 13.5883 64.5885 13.5675 64.5416 13.5519C63.6406 11.3748 62.276 9.90602 60.5989 8.98935C66.6301 10.0362 72.0729 13.4216 75.2499 18.7289ZM60.7499 7.56748C60.3489 7.51019 59.9479 7.44248 59.5364 7.40602C59.4791 7.31227 59.4114 7.22894 59.3333 7.15602C59.8072 7.29144 60.2812 7.41644 60.7499 7.56748ZM59.3385 39.755C58.7812 40.2602 58.2187 40.7602 57.6562 41.2602C58.1666 40.1716 58.6666 39.0831 59.151 37.9894C59.2135 38.5779 59.276 39.1664 59.3385 39.755ZM58.5104 31.9216C58.3437 32.3227 58.1822 32.7237 58.0156 33.1196C57.3593 34.0206 56.7083 34.9216 56.052 35.8227C56.0468 35.7862 56.0468 35.755 56.0416 35.7185C56.8281 34.13 57.6197 32.5362 58.4114 30.9425C58.4479 31.2706 58.4791 31.5987 58.5104 31.9216ZM58.1718 28.5519C57.3697 30.1664 56.5729 31.7862 55.7864 33.406C55.7812 33.4008 55.7812 33.3904 55.7812 33.3852C55.7083 32.6873 55.6458 31.9841 55.5885 31.281C56.4426 30.255 57.2968 29.2237 58.1354 28.1873C58.151 28.3071 58.1614 28.4321 58.1718 28.5519ZM56.3281 18.4998C56.5572 18.1769 56.7812 17.8435 56.9999 17.5102C57.026 17.7185 57.052 17.9216 57.0781 18.13C56.4479 19.5362 55.8124 20.9477 55.1926 22.3591C55.1874 21.5831 55.1874 20.8071 55.2187 20.0362C55.5989 19.531 55.9791 19.0258 56.3281 18.4998ZM55.7239 15.7706C55.8541 15.2498 55.927 14.8123 56.1874 14.3071L56.3176 14.3644C56.3437 14.4216 56.3697 14.4789 56.3906 14.531C56.4479 14.7029 56.4999 14.8696 56.5468 15.0414C56.2708 15.281 55.9947 15.5206 55.7239 15.7706ZM57.8645 25.4529C57.8801 25.5987 57.8906 25.7394 57.9062 25.8852C57.4062 26.5154 56.9062 27.1404 56.3958 27.755C56.0676 28.156 55.7395 28.5519 55.4114 28.9529C55.4062 28.8956 55.4062 28.8331 55.401 28.7758C56.2551 27.6873 57.0468 26.5675 57.8645 25.4529ZM58.0937 6.80185C57.9374 6.86956 57.8176 6.97894 57.7291 7.12998C57.6822 7.12477 57.6301 7.11956 57.5833 7.11435C57.2447 7.06748 56.901 7.0206 56.5624 6.97894C56.6145 6.80185 56.6093 6.61956 56.5416 6.44769C57.0572 6.55706 57.5781 6.67165 58.0937 6.80185ZM55.7864 9.16123C56.2604 9.16644 56.7291 9.2081 57.1926 9.27581C57.1562 9.75498 57.1301 10.2394 57.1249 10.7237C57.0572 10.7394 56.9895 10.7602 56.927 10.7914C56.8541 10.8279 56.7864 10.8748 56.7239 10.9321C56.2499 10.6144 55.776 10.2966 55.302 9.98415C55.4791 9.71852 55.6301 9.43727 55.7864 9.16123ZM54.4531 11.2341C54.7604 11.4477 55.0729 11.6612 55.3801 11.8748C55.0208 11.7289 54.6614 11.5883 54.2968 11.4529C54.3489 11.38 54.401 11.3071 54.4531 11.2341ZM51.5416 12.4841C51.4166 12.6612 51.2864 12.8383 51.1562 13.0154C51.0208 13.0519 50.8749 13.0779 50.7395 13.1144C50.7343 13.0519 50.7187 12.9946 50.7031 12.9373C50.677 12.8435 50.6354 12.7602 50.5833 12.6821C50.7604 12.5987 50.9114 12.4737 51.026 12.3123C51.1979 12.3696 51.3697 12.4269 51.5416 12.4841ZM51.151 10.4008C51.4374 10.1196 51.7291 9.83831 52.0208 9.56748C52.3749 9.81227 52.7343 10.0519 53.0937 10.2966C52.9583 10.4946 52.8229 10.6873 52.6822 10.8852C52.5729 10.8435 52.4583 10.8071 52.3489 10.7758C51.9531 10.6508 51.552 10.5258 51.151 10.4008ZM50.6718 20.9581C50.3697 21.3019 50.0624 21.6508 49.7604 21.9998C49.6458 21.0623 49.5416 20.1248 49.4583 19.1821C49.7031 18.9373 49.9531 18.6977 50.2031 18.4581C50.3124 19.0466 50.427 19.6404 50.5364 20.2289C50.5833 20.4737 50.6301 20.7185 50.6718 20.9581ZM50.3385 41.1716C50.4166 41.4529 50.4895 41.7341 50.5676 42.0102C50.3229 42.2341 50.0572 42.4477 49.802 42.6664C49.9791 42.1664 50.1614 41.6716 50.3385 41.1716ZM50.401 26.5779C50.3854 26.505 50.3749 26.4321 50.3645 26.3591C50.7187 25.9164 51.0676 25.4685 51.4166 25.0206C51.6041 26.0623 51.7916 27.1039 51.9791 28.1456C51.6093 28.63 51.2447 29.1196 50.8801 29.6091C50.7135 28.6039 50.552 27.5883 50.401 26.5779ZM51.8437 18.5414C51.7551 18.0935 51.6666 17.6404 51.5781 17.1925C51.9999 16.8227 52.4583 16.4841 52.901 16.13C52.5416 16.9321 52.1979 17.7394 51.8437 18.5414ZM53.2239 22.6821C53.2239 22.7602 53.2239 22.8383 53.2239 22.9164C53.2239 23.8071 53.2083 24.7029 53.2239 25.6039C53.0729 24.8279 52.9218 24.0519 52.7708 23.2758C52.9218 23.0779 53.0729 22.88 53.2239 22.6821ZM51.7187 15.0831C51.6562 15.13 51.5937 15.1821 51.5312 15.2289C51.8906 14.7446 52.2447 14.255 52.5989 13.7706C53.0312 13.6821 53.4687 13.6196 53.9062 13.5519C53.1458 14.0206 52.4166 14.5258 51.7187 15.0831ZM48.9062 5.37477C50.5051 5.46852 52.1093 5.65602 53.7083 5.90081C53.3593 6.10915 53.0312 6.3331 52.7135 6.5831C51.7708 6.55185 50.0885 6.09873 49.9062 7.42685C48.8749 6.93727 47.6666 6.94769 46.552 6.99977C47.052 3.8956 35.2187 7.85914 33.3333 8.16123C32.5729 8.4529 31.7968 8.69769 30.9999 8.8904C36.3333 6.29665 42.3801 5.06227 48.9062 5.37477ZM49.1979 30.4737C49.1249 30.2081 49.0624 29.9425 48.9895 29.6769C49.0104 29.6248 49.026 29.5779 49.0468 29.531C49.0937 29.8435 49.1458 30.1612 49.1979 30.4737ZM48.0572 32.4112C48.1197 32.6716 48.1822 32.9321 48.2499 33.1977C47.9583 33.5935 47.677 33.9894 47.3906 34.3904C47.6093 33.7289 47.8333 33.0675 48.0572 32.4112ZM47.5624 24.1039C47.7343 23.5883 47.8906 23.0727 48.0572 22.5571C48.1093 22.9737 48.1562 23.3904 48.2135 23.8071C48.1458 23.8852 48.0781 23.9633 48.0156 24.0466C47.901 24.1925 47.7812 24.3383 47.6666 24.4894C47.6301 24.3591 47.5989 24.2289 47.5624 24.1039ZM32.677 51.5935C32.5989 51.0727 32.5208 50.5571 32.4374 50.0362C32.6718 49.13 32.9166 48.2237 33.177 47.3227C33.3176 47.1144 33.4531 46.906 33.5937 46.6977L33.9374 46.2029C34.1458 47.3435 34.4426 48.4581 34.8229 49.5519C34.1145 50.2394 33.401 50.9216 32.677 51.5935ZM33.8801 56.1612C33.7656 56.5519 33.651 56.9425 33.5468 57.3331C33.5416 57.2966 33.5364 57.255 33.5312 57.2185C33.5104 57.0935 33.4895 56.9633 33.4739 56.8383C33.6301 56.5935 33.7656 56.3644 33.8801 56.1612ZM27.5676 55.9477C28.1822 54.8904 28.8593 53.8696 29.5312 52.8435C29.5624 52.7966 29.5937 52.7498 29.6197 52.7029C29.6562 52.8435 29.6926 52.9841 29.7291 53.1196C29.0676 54.1664 28.7239 55.3279 27.5676 55.9477ZM29.6822 58.9373C29.6614 59.005 29.6406 59.0675 29.6197 59.1352C29.5781 59.281 29.5364 59.4321 29.4895 59.5831C29.5416 59.3539 29.6041 59.1248 29.6562 58.8956C29.6666 58.9112 29.6718 58.9216 29.6822 58.9373ZM26.8854 65.7446C26.7551 65.9164 26.6249 66.0883 26.4895 66.255C26.4531 66.2914 26.4218 66.3279 26.3854 66.3644C26.1926 65.5883 25.9322 64.8383 25.6718 64.0831C25.3437 63.1196 24.9843 62.156 24.6249 61.2081C24.6041 61.1508 24.5833 61.0987 24.5624 61.0414C25.3385 61.0206 25.5885 60.2029 25.5416 59.5519C25.8906 59.6925 26.2812 59.8383 26.6458 59.7654C26.8281 59.7341 27.0051 59.6873 27.1822 59.6352C26.7343 61.5935 25.7395 63.8748 26.8854 65.7446ZM15.2864 28.3956C15.0989 28.2133 14.8697 28.0987 14.6145 28.0519C14.4166 28.031 14.2239 28.0466 14.0364 28.0987C13.9374 27.8487 13.802 27.6248 13.6197 27.4269C15.8645 23.0623 19.2447 19.406 22.9843 16.2237C20.4114 20.281 17.7135 24.2498 15.2864 28.3956ZM21.6406 46.5571C21.552 46.6873 21.4635 46.8227 21.3749 46.9529C21.2864 46.6456 21.2031 46.3435 21.1197 46.0362C20.9999 45.6196 20.8854 45.2029 20.7708 44.7862C20.802 44.7394 20.8333 44.6925 20.8645 44.6404C21.0208 44.5102 21.177 44.38 21.3333 44.2446C21.4166 44.88 21.4999 45.5102 21.5833 46.1404C21.6041 46.281 21.6249 46.4164 21.6406 46.5571ZM12.9479 42.1664C12.9218 41.5883 12.901 41.005 12.8749 40.4216C12.8645 40.1716 12.8541 39.9164 12.8489 39.6612C13.7551 39.9998 14.6562 39.4164 15.4322 38.9998C15.2343 39.4008 15.0364 39.7966 14.8333 40.1925C14.6041 40.6612 14.3749 41.13 14.1614 41.6039C14.0312 41.6821 13.9062 41.755 13.776 41.8279C13.5051 41.9529 13.2291 42.0675 12.9479 42.1664ZM13.2916 44.0362C13.2187 44.3279 13.1718 44.6248 13.151 44.9269C13.1249 44.6508 13.1041 44.38 13.0833 44.1039C13.151 44.0831 13.2239 44.0623 13.2916 44.0362ZM10.0781 40.2289C10.026 40.406 9.98431 40.5883 9.95306 40.7758L9.94785 40.7862C9.89056 40.8123 9.83327 40.8435 9.78119 40.8748C9.83848 40.5362 9.89577 40.1977 9.95827 39.8591C9.9791 39.9112 9.99994 39.9685 10.0208 40.031C10.0156 40.0154 10.0104 40.005 10.0104 39.9998C10.0312 40.0727 10.0572 40.1508 10.0781 40.2289ZM10.1666 43.1925C10.1979 43.2498 10.2395 43.3019 10.2812 43.3539C10.4218 43.5362 10.5833 43.6977 10.7656 43.8331C10.927 44.7029 11.052 45.5779 11.177 46.4581C10.7604 46.7289 10.3333 46.9894 9.88535 47.2237C9.8489 47.2341 9.73952 47.281 9.63015 47.3331C9.6614 45.9529 9.76556 44.5675 10.1666 43.1925ZM10.4322 48.2966C10.7551 48.1352 11.0676 47.9529 11.3645 47.7602C11.5312 48.8904 11.6874 50.0258 11.8697 51.1664C12.0208 52.13 12.177 53.0935 12.3385 54.0571C12.2291 53.9789 12.1145 53.9164 11.9895 53.8591C11.8176 53.7758 11.6354 53.7341 11.4426 53.7289C11.2031 53.6925 10.9791 53.7341 10.7708 53.8539C10.3593 52.13 9.94264 50.3956 9.64056 48.6456C9.90619 48.5362 10.1718 48.4216 10.4322 48.2966ZM11.8854 26.1456C11.9062 26.1091 11.9218 26.0675 11.9426 26.031C12.3229 25.0675 12.7864 24.1456 13.3385 23.2706C13.3593 23.4581 13.4218 23.6196 13.5364 23.7706C12.9947 24.5675 12.4531 25.3644 11.8854 26.1456ZM11.4791 55.4321C11.4895 55.3748 11.4999 55.3227 11.5104 55.2654V55.2602C12.2187 55.7914 12.6458 56.6716 12.9374 57.4946C12.6354 57.1352 12.3437 56.7758 12.0468 56.406C11.8541 56.1508 11.6614 55.8956 11.4739 55.6352C11.4739 55.5675 11.4739 55.4998 11.4791 55.4321ZM15.9635 33.5154C16.1979 34.3227 16.4166 35.1352 16.6354 35.9425C16.2239 36.255 15.8072 36.5571 15.3854 36.8644C15.1197 37.0414 14.8541 37.2133 14.5729 37.3696C14.2708 37.531 13.9583 37.6821 13.6354 37.8123C13.6458 37.781 13.651 37.755 13.6614 37.7237C13.7916 37.3435 13.9426 36.9737 14.1041 36.6039C14.6718 35.5466 15.3072 34.5258 15.9635 33.5154ZM14.3333 30.0779C14.3333 29.9477 14.3489 29.8279 14.3437 29.7029C14.3593 29.6925 14.3801 29.6821 14.3958 29.6716C14.4322 29.7081 14.4583 29.7498 14.4895 29.7862C14.4374 29.88 14.3854 29.9789 14.3333 30.0779ZM18.9322 31.8696C19.0885 31.7133 19.2343 31.5466 19.3906 31.3852C18.9426 32.4269 18.4166 33.4321 17.8124 34.3904C17.5676 33.5519 17.3176 32.7133 17.0468 31.88C17.2499 31.5727 17.4739 31.2706 17.6822 30.9581C17.4947 31.7446 17.7135 32.2498 18.9322 31.8696ZM20.1979 35.2758C20.2447 35.2394 20.2864 35.1977 20.3333 35.156C20.3749 35.6716 20.4166 36.1821 20.4687 36.6977C19.9426 37.1612 19.4166 37.63 18.8854 38.0883C18.7604 37.6456 18.6301 37.1977 18.4999 36.755C19.0833 36.2758 19.651 35.7862 20.1979 35.2758ZM20.026 28.7185C20.1458 28.4685 20.276 28.2289 20.401 27.9789C20.3801 28.0727 20.3697 28.1716 20.3541 28.2654C20.2447 28.4164 20.1249 28.5727 20.026 28.7185ZM19.4479 60.8227C19.2604 60.281 19.0781 59.7446 18.9062 59.2029C19.026 59.1039 19.151 58.9998 19.276 58.8956C19.2968 58.8748 19.3229 58.8591 19.3489 58.8383C19.3229 59.5883 19.5572 60.4216 20.1666 60.9112C20.1718 61.4946 20.177 62.0727 20.1926 62.656C19.9062 62.031 19.6666 61.3956 19.4322 60.7654C19.4322 60.7862 19.4374 60.8071 19.4479 60.8227ZM18.4374 57.4633H18.4322C18.2968 56.8227 18.1874 56.1716 18.1093 55.5154C18.3697 55.1196 18.6301 54.7237 18.8906 54.3331C19.2083 53.8435 19.5312 53.3487 19.8541 52.8591C19.9635 53.1404 20.0676 53.4216 20.177 53.7029C20.3281 54.156 20.5208 54.7029 20.7135 55.2446C20.2916 56.2654 19.2291 56.755 18.4374 57.4633ZM17.3958 50.0675C17.5989 49.7394 17.8124 49.4164 18.0156 49.0831C18.2031 48.7966 18.3801 48.5102 18.5676 48.2133C18.8906 47.7133 19.2135 47.2081 19.5364 46.7081C19.5416 46.7289 19.5468 46.7498 19.552 46.7706C19.7343 47.4685 19.9166 48.1612 20.0989 48.8539C19.8385 49.0935 19.5729 49.3435 19.3176 49.5675C18.6562 49.281 17.8541 49.5519 17.3958 50.0675ZM20.4322 39.3435C20.1614 39.7914 19.8958 40.2394 19.6249 40.6873C19.5833 40.5414 19.5416 40.3956 19.4999 40.2498C19.8958 39.7914 20.2916 39.3331 20.6874 38.88C20.6874 38.8904 20.6874 38.8956 20.6874 38.906C20.6041 39.0519 20.5156 39.1977 20.4322 39.3435ZM17.5416 39.2237C17.3958 39.3383 17.2447 39.4581 17.0989 39.5727C17.2135 39.3383 17.3281 39.0987 17.4426 38.8644C17.4739 38.9841 17.5051 39.1039 17.5416 39.2237ZM18.2135 41.7185C18.302 42.031 18.3854 42.3487 18.4687 42.6612C17.9895 43.4946 17.5104 44.3123 17.0364 45.1456C16.6041 45.3904 16.177 45.6612 15.6458 45.7446C15.4687 45.7654 15.2916 45.7602 15.1093 45.7237C15.026 45.4633 14.9895 45.1977 15.0104 44.9216C16.1301 43.906 17.2031 42.8331 18.2135 41.7185ZM13.3489 46.3487C13.6249 47.3487 14.7135 47.6977 15.6614 47.63C14.9583 48.9373 14.3541 50.3175 14.2031 51.8071C14.0624 51.156 13.9218 50.505 13.776 49.8487C13.6145 48.6925 13.4635 47.5362 13.3176 46.3748C13.3281 46.3644 13.3385 46.3591 13.3489 46.3487ZM13.6874 60.9633C13.9374 61.0623 14.1979 61.0727 14.4583 60.9998C14.7551 61.781 15.026 62.4998 15.2968 63.3019C14.8489 62.7706 14.427 62.2185 14.0208 61.6404C13.9114 61.4633 13.7291 61.1821 13.552 60.8956C13.5989 60.9216 13.6406 60.9425 13.6874 60.9633ZM15.2187 56.4581C15.2083 56.4737 15.1979 56.4894 15.1926 56.505C15.1874 56.4894 15.1822 56.4685 15.177 56.4477C15.0208 55.6873 14.9062 55.0519 14.7343 54.2654C14.7343 54.2654 14.7343 54.2654 14.7343 54.2602C14.9687 54.3852 15.2187 54.4112 15.4791 54.3487C15.7135 54.2914 15.9531 54.2446 16.1874 54.1821C16.1822 54.4164 16.1822 54.6456 16.1822 54.88C15.8437 55.3956 15.5104 55.9164 15.2187 56.4581ZM16.1197 58.7602C16.1041 58.8019 16.0885 58.8331 16.0729 58.8748C16.2187 58.6039 16.3645 58.3383 16.5156 58.0727C16.5572 58.2862 16.6041 58.505 16.651 58.7185C16.5624 58.7706 16.4739 58.8175 16.3854 58.8696C16.4062 58.8539 16.4322 58.8383 16.4583 58.8227C16.3697 58.8696 16.276 58.906 16.1926 58.9477C16.1301 58.9633 16.0729 58.9841 16.0156 59.005C16.0468 58.9216 16.0833 58.8383 16.1197 58.7602ZM17.0833 60.4477C17.7395 62.3331 18.1145 65.0414 20.3333 65.656C20.3697 66.1196 20.4426 66.5779 20.5624 67.0258C20.6249 67.255 20.6822 67.4946 20.7656 67.7237C20.2447 67.4321 19.7343 67.1248 19.2291 66.7966C18.6979 66.4373 18.1822 66.0571 17.6874 65.6508C17.5208 63.9477 16.7551 62.3904 16.1093 60.8331C16.4426 60.7237 16.7656 60.5987 17.0833 60.4477ZM23.3541 27.8748C23.5364 28.4008 23.6979 28.9269 23.8541 29.4581C23.427 29.8696 22.9999 30.281 22.5781 30.6925C22.3854 30.8748 22.1979 31.0623 22.0104 31.2498C21.776 29.9112 22.7447 28.9112 23.3176 27.7862C23.3281 27.8227 23.3437 27.8539 23.3541 27.8904C23.3541 27.8852 23.3541 27.88 23.3541 27.8748ZM22.7239 32.9529C23.2708 32.4112 23.8124 31.8748 24.3593 31.3383C24.4426 31.6612 24.5208 31.9789 24.6041 32.2966C24.177 32.8696 23.7499 33.4373 23.3124 33.9998C22.9583 34.3435 22.6041 34.6873 22.2551 35.031C22.2135 34.5258 22.1718 34.0258 22.1301 33.5206C22.3281 33.3331 22.5312 33.1456 22.7239 32.9529ZM25.8541 40.3175C24.9999 41.5571 24.1614 42.7966 23.3281 44.0414C23.2604 43.5779 23.1926 43.1144 23.1301 42.6456C23.7551 42.0675 24.3697 41.4789 24.9791 40.8748C25.4426 40.406 25.9114 39.9425 26.3801 39.4737C26.3801 39.4894 26.3854 39.5102 26.3906 39.531C26.2135 39.7914 26.0312 40.0571 25.8541 40.3175ZM25.8749 46.1873C25.2708 47.2862 24.6926 48.3956 24.1197 49.5102C24.052 49.0623 23.9895 48.6144 23.9218 48.1664C24.5729 47.505 25.2239 46.8435 25.8749 46.1873ZM23.7395 37.0102C24.2135 36.2133 24.6926 35.4164 25.1874 34.6248C25.2083 34.7029 25.2291 34.7862 25.2499 34.8696C24.7447 35.5831 24.2395 36.2966 23.7395 37.0102ZM25.0312 38.3748C25.1874 38.1456 25.3437 37.9216 25.4999 37.6977C25.6093 37.5362 25.7187 37.38 25.8281 37.2237C25.8541 37.3175 25.8749 37.4164 25.901 37.5154C25.6093 37.8019 25.3229 38.0883 25.0312 38.3748ZM25.0989 28.1769C25.0156 27.9008 24.927 27.63 24.8385 27.3539C24.6926 26.9112 24.5156 26.4737 24.3072 26.0519C24.3801 25.9269 24.4531 25.8019 24.526 25.6821C25.1197 25.0414 25.7239 24.4112 26.3645 23.8071C26.5104 23.6612 26.6718 23.5258 26.8229 23.38C26.8749 24.3175 26.927 25.255 26.9687 26.1977C26.7968 26.3904 26.6249 26.5883 26.4426 26.7758C25.9947 27.2394 25.5468 27.7029 25.0989 28.1769ZM23.2812 62.656C23.8229 64.2966 24.4791 65.9269 24.6874 67.6456C24.4895 67.7185 24.2864 67.7602 24.0781 67.7654C22.6979 67.5779 22.7291 65.7706 22.526 64.656C22.9062 64.0362 23.1562 63.3696 23.2812 62.656ZM25.1301 56.2654C25.1197 56.2185 25.1145 56.1769 25.1093 56.13C24.9999 55.4164 24.8958 54.7081 24.7916 53.9998C26.1718 52.6716 27.5989 51.3852 28.9374 50.0154C28.9426 50.031 28.9479 50.0466 28.9531 50.0623C27.6562 52.1039 26.2031 54.0935 25.1301 56.2654ZM29.6822 31.755C29.9843 31.3383 30.2864 30.9269 30.5885 30.5154C30.6874 31.0102 30.7916 31.5102 30.8958 32.005C30.5572 32.4008 30.2239 32.7966 29.8906 33.1925C29.8854 33.1404 29.8749 33.0883 29.8697 33.031C29.8072 32.6039 29.7447 32.1769 29.6822 31.755ZM30.1822 20.4477C30.3489 20.3123 30.5104 20.1769 30.677 20.0414C30.5989 20.6664 30.5676 21.2914 30.5885 21.9216C30.5729 21.9425 30.5572 21.9633 30.5416 21.9841C30.5364 21.9841 30.5364 21.9894 30.5312 21.9894C30.3906 21.4894 30.2864 20.9685 30.1822 20.4477ZM30.5156 37.0571C30.8801 36.5258 31.2447 35.9946 31.6145 35.4633C31.6666 35.7081 31.7187 35.9477 31.7708 36.1925C31.3854 36.8227 30.9947 37.4529 30.6093 38.0831C30.5624 37.7654 30.5156 37.4477 30.4635 37.13C30.4843 37.1039 30.4999 37.0779 30.5156 37.0571ZM30.7291 62.8383C31.026 61.8852 31.276 60.9216 31.526 59.9581C31.6145 60.3435 31.8176 60.656 32.1197 60.906C31.9218 61.2602 31.7187 61.6039 31.5051 61.9477C31.276 62.3019 30.9583 62.7341 30.6354 63.1456C30.6666 63.0414 30.6979 62.9425 30.7291 62.8383ZM31.7187 45.3487C31.5833 44.4633 31.4479 43.5727 31.3072 42.6821C31.7864 41.9789 32.2656 41.2758 32.7447 40.5675C32.8489 41.0362 32.9583 41.505 33.0624 41.9737C32.7604 42.9477 32.4583 43.9269 32.1614 44.906C32.0104 45.0519 31.8645 45.1977 31.7187 45.3487ZM34.9947 25.8904C35.0468 26.1456 35.0989 26.4008 35.151 26.656C34.6354 27.3644 34.0833 28.0466 33.552 28.7394C33.4322 28.9008 33.3072 29.0623 33.1822 29.2237C33.0833 28.5987 32.9947 27.9737 32.9218 27.3487C32.9218 27.3435 32.9218 27.3435 32.9218 27.3383C32.9322 27.3279 32.9374 27.3175 32.9479 27.3071C33.5624 26.5206 34.1718 25.7289 34.7916 24.9425C34.8593 25.2706 34.9322 25.5935 34.9947 25.9216C34.9947 25.9112 34.9947 25.9008 34.9947 25.8904ZM36.9947 35.5362C37.1406 36.2237 37.2864 36.9164 37.4374 37.6039C37.4479 37.6612 37.4635 37.7133 37.4739 37.7706C36.7395 38.7966 35.9999 39.8175 35.2604 40.8331C35.2499 40.7966 35.2447 40.7602 35.2343 40.7289C35.8176 38.9894 36.4062 37.2602 36.9947 35.5362ZM36.0208 31.781C36.0676 31.7029 36.1145 31.6248 36.1614 31.5519L36.1666 31.5883C36.1197 31.6508 36.0676 31.7133 36.0208 31.781ZM37.1926 11.2081C37.7135 10.9841 38.2291 10.7602 38.7499 10.5362C38.9635 11.7394 38.5989 12.8383 37.9791 13.8123C37.6406 14.0102 37.302 14.2081 36.9687 14.4112C37.3749 13.3696 37.651 12.2654 37.1926 11.2081ZM40.2916 10.5258C41.5676 10.406 42.8333 10.4529 44.0989 10.6664C43.8281 10.7862 43.5572 10.9112 43.2864 11.0362C42.2187 10.5571 41.151 11.3435 40.2656 11.8956C40.302 11.6456 40.3176 11.3956 40.3124 11.1404C40.3072 10.9477 40.3072 10.7341 40.2916 10.5258ZM45.5364 12.4685C45.1718 12.5206 44.8176 12.6196 44.4739 12.7602C44.4687 12.5258 44.4114 12.3071 44.3124 12.0935C45.0729 11.7654 45.8333 11.4477 46.5989 11.1508C46.6145 11.1508 46.6249 11.156 46.6406 11.1612C46.2343 11.5623 45.8697 11.9998 45.5364 12.4685ZM46.1145 24.4946C45.7604 25.6039 45.3906 26.7081 45.0156 27.8123C44.7708 28.1196 44.526 28.4269 44.276 28.7394C44.1822 28.1196 44.1041 27.4998 44.0208 26.88C44.3854 25.8435 44.7656 24.8123 45.1614 23.7862C45.3645 23.5571 45.5624 23.3227 45.7708 23.0935C45.8854 23.5623 45.9999 24.0258 46.1145 24.4946ZM44.8906 20.8175C44.7239 21.2237 44.5364 21.6196 44.3697 22.0206C44.1458 22.3071 43.9218 22.5987 43.6926 22.8852C44.0989 22.1977 44.4999 21.5102 44.8906 20.8175ZM40.2656 13.9998C41.0885 13.5779 41.9166 13.1821 42.7499 12.7966C42.8749 13.1456 42.6301 13.6456 42.5885 13.9946C41.8489 14.5779 41.1458 15.1977 40.4791 15.8591C40.2083 16.1248 39.9479 16.3956 39.6822 16.6664C39.6145 16.4529 39.526 16.2446 39.4218 16.0519C39.3281 15.8696 39.2135 15.7029 39.0781 15.5519C39.0624 15.531 39.0468 15.5154 39.0312 15.4998C39.1249 15.3123 39.2135 15.1196 39.302 14.9321C39.6145 14.6091 39.9374 14.3019 40.2656 13.9998ZM41.0468 28.7289C41.151 29.2029 41.2551 29.6769 41.3593 30.1508C40.8645 31.5883 40.3749 33.0258 39.9062 34.4737C39.7968 34.6248 39.6822 34.7758 39.5676 34.9269C39.3489 33.7394 39.1406 32.5571 38.9374 31.3644C39.2656 30.9321 39.5937 30.4946 39.9374 30.0779C40.3072 29.6248 40.677 29.1769 41.0468 28.7289ZM40.2812 18.6508C40.302 18.6456 40.3176 18.6404 40.3385 18.6352C40.3229 18.6612 40.3124 18.6873 40.2968 18.7081C40.2916 18.6925 40.2864 18.6716 40.2812 18.6508ZM39.2187 20.5623C38.7395 21.3227 38.2604 22.0883 37.7864 22.8539C37.7499 22.3331 37.7187 21.8123 37.7031 21.2914C38.0468 20.88 38.3906 20.4737 38.7447 20.0675C38.7395 20.0779 38.7343 20.0831 38.7343 20.0883C38.8281 19.9789 38.927 19.8696 39.026 19.755C39.0937 20.0258 39.1562 20.2914 39.2187 20.5623ZM38.8697 43.9216C38.6093 44.5154 38.3801 45.1196 38.1197 45.7081C38.2604 45.2081 38.401 44.7133 38.5468 44.2185C38.6145 43.9633 38.6926 43.7133 38.7604 43.4581C38.7968 43.6144 38.8333 43.7706 38.8697 43.9216ZM37.9218 40.7758C37.8333 41.0623 37.7395 41.3487 37.651 41.6352C37.1718 43.1248 36.7916 44.6769 36.401 46.2289C36.2031 45.3227 36.0051 44.4216 35.8124 43.4946C36.4374 42.5258 37.1406 41.6196 37.9218 40.7758ZM38.4635 17.755C38.4687 17.7706 38.4739 17.7862 38.4791 17.8071C38.4843 17.8175 38.4895 17.8331 38.4947 17.8435C38.4895 17.8383 38.4895 17.8331 38.4843 17.8279C38.4947 17.8539 38.4999 17.8748 38.5104 17.9008C38.2447 18.1873 37.9843 18.4737 37.7239 18.7654C37.7499 18.4529 37.7812 18.1404 37.8229 17.8227C37.9479 17.5987 38.0729 17.3748 38.1979 17.1456C38.2916 17.3591 38.3801 17.5727 38.4687 17.7862C38.4687 17.7758 38.4635 17.7654 38.4635 17.755ZM33.7708 32.9425C33.7447 32.8019 33.7187 32.656 33.6926 32.5102C33.927 32.1769 34.1614 31.8435 34.3958 31.5102C34.8489 30.8696 35.2916 30.2133 35.7551 29.5779C35.7604 29.6091 35.7656 29.6404 35.776 29.6716C35.1093 30.7654 34.4426 31.8539 33.7708 32.9425ZM32.7031 18.906C32.7187 18.8019 32.7395 18.6925 32.7604 18.5831C32.7656 18.5519 32.776 18.5206 32.7812 18.4894C32.8906 18.4112 32.9947 18.3279 33.1041 18.255C32.9739 18.4737 32.8385 18.6925 32.7031 18.906ZM35.3385 59.2862C36.5729 57.1091 37.677 54.8644 38.6562 52.5571C39.1718 52.5362 39.6562 52.4008 40.1093 52.1456C39.9374 52.7289 39.776 53.3123 39.6041 53.8956C37.9999 56.9321 36.2135 59.9216 35.2083 63.1821C35.0989 63.2914 34.9895 63.4008 34.8749 63.5102C34.8385 63.5466 34.6718 63.6821 34.5104 63.8071C34.6093 62.2654 34.8854 60.7602 35.3385 59.2862ZM39.6979 50.0623C39.8437 49.7133 39.9843 49.3591 40.1249 49.005C40.1822 49.255 40.2447 49.4998 40.3124 49.7446C40.2916 49.755 40.2708 49.7654 40.2499 49.781C40.0729 49.8696 39.8854 49.9685 39.6979 50.0623ZM40.2499 38.4581C40.2864 38.3279 40.3281 38.1977 40.3697 38.0623C40.6145 37.7914 40.8645 37.5206 41.1093 37.255C41.401 36.9269 41.6926 36.6039 41.9843 36.281C41.5208 37.505 41.0364 38.7237 40.5468 39.9321C40.4479 39.4425 40.3437 38.9529 40.2499 38.4581ZM42.8697 36.88C43.0051 37.4581 43.1406 38.0362 43.276 38.6144C42.6979 39.9841 42.1145 41.3591 41.5312 42.7289C41.4947 42.781 41.4583 42.8331 41.4218 42.8852C41.3437 42.9685 41.2656 43.0519 41.1874 43.1352C41.0937 42.6769 41.0051 42.2185 40.9114 41.7654C41.5729 40.1404 42.2291 38.5102 42.8697 36.88ZM44.2812 44.1352C44.3645 44.0466 44.4479 43.9581 44.5312 43.8696C44.5676 44.0154 44.6041 44.156 44.6406 44.2966C44.7812 44.8435 44.9218 45.3904 45.0624 45.9425C44.9374 46.2289 44.8072 46.5102 44.6822 46.8019C44.5989 46.8644 44.5156 46.9269 44.4322 46.9894C43.901 46.9112 43.552 47.1612 43.2499 47.4946C43.5885 46.3748 43.9374 45.255 44.2812 44.1352ZM44.9426 32.8748C45.4426 32.2862 45.9426 31.6977 46.4426 31.1091C46.0156 32.1196 45.5885 33.13 45.1614 34.1456C45.0885 33.7185 45.0104 33.2966 44.9426 32.8748ZM45.526 30.3539C45.427 30.4633 45.3333 30.5779 45.2343 30.6873C45.2551 30.6404 45.2708 30.5935 45.2864 30.5519C45.3854 30.4269 45.4791 30.3019 45.5729 30.1821C46.0676 29.5623 46.5572 28.9373 47.0572 28.3123C47.0676 28.3696 47.0833 28.4269 47.0937 28.4789C46.5781 29.1091 46.0572 29.7394 45.526 30.3539ZM46.9583 21.781C46.9739 21.7654 46.9895 21.7498 47.0051 21.7289C46.9947 21.7654 46.9843 21.8019 46.9739 21.8383C46.9687 21.8175 46.9635 21.8019 46.9583 21.781ZM34.8697 12.2133C35.3333 13.5362 34.7604 14.9112 34.2135 16.156C34.0833 16.2394 33.9583 16.3227 33.8333 16.4112C32.276 15.1404 31.401 16.6091 30.9583 18.4269C30.6041 18.6873 30.2499 18.9477 29.9062 19.2081C29.8072 18.7602 29.6666 18.3279 29.4947 17.9008C31.1562 15.9321 32.3801 13.2289 34.8697 12.2133ZM28.9426 22.8071C29.0104 23.1039 29.0729 23.4008 29.1406 23.6977C29.0364 23.8227 28.9374 23.9425 28.8385 24.0675C28.7864 23.3123 28.7447 22.5623 28.7239 21.8071C28.7968 22.1404 28.8697 22.4737 28.9426 22.8071ZM28.651 39.7758C28.6718 39.9269 28.6926 40.0727 28.7135 40.2237C28.5989 40.3383 28.4843 40.4581 28.3749 40.5779C28.3489 40.4841 28.3229 40.3904 28.2968 40.2914C28.4166 40.1196 28.5364 39.9477 28.651 39.7758ZM28.3749 47.7289C28.4322 47.9685 28.4895 48.2029 28.552 48.4425C27.5208 49.4685 26.4479 50.4477 25.3749 51.4269C26.3281 50.0154 27.2864 48.6091 28.2447 47.1925C28.2916 47.3748 28.3333 47.5519 28.3749 47.7289ZM28.0364 35.2394C27.8749 35.4112 27.7187 35.5831 27.5572 35.755C27.4479 35.8748 27.3333 35.9946 27.2239 36.1196C27.1666 35.8956 27.1093 35.6769 27.052 35.4529C27.3333 35.0466 27.6197 34.6352 27.901 34.2289C27.9479 34.5675 27.9895 34.9008 28.0364 35.2394ZM27.2083 28.4894C26.7291 29.2133 26.2656 29.9373 25.802 30.6716C25.802 30.6821 25.7968 30.6873 25.7916 30.6925C25.7395 30.4841 25.6822 30.2758 25.6301 30.0675C25.9843 29.6925 26.3385 29.3227 26.6979 28.9477C26.8645 28.7706 27.0312 28.5987 27.1979 28.4269C27.2031 28.4477 27.2031 28.4685 27.2083 28.4894ZM23.2239 24.8019C23.0156 24.6716 22.7864 24.6091 22.5416 24.6039C22.3958 24.6091 22.2499 24.6404 22.1093 24.6925C23.677 22.6039 25.3176 20.5831 27.0051 18.5935C25.9999 20.7498 24.401 22.6977 23.2239 24.8019ZM23.6041 17.5675C23.901 17.031 24.1979 16.4894 24.5051 15.9581C24.5364 16.0519 24.5781 16.1404 24.6406 16.2237L24.6458 16.2289C24.2864 16.6664 23.9531 17.1248 23.6041 17.5675ZM25.3281 14.5831C25.3801 14.5831 25.4374 14.5831 25.4947 14.5779C25.4114 14.6248 25.3176 14.6821 25.2291 14.7446C25.2604 14.6925 25.2968 14.6404 25.3281 14.5831ZM4.9114 53.9946C4.81244 53.6821 4.7291 53.3644 4.63535 53.0466C4.11452 50.8904 4.1614 48.6873 4.45306 46.4425C4.55723 47.0831 4.80723 47.6612 5.20827 48.1716C5.40619 49.13 5.2239 50.4112 5.92702 51.1873C5.99994 53.0258 6.08848 54.8644 6.1666 56.7029C5.63535 55.8539 5.21869 54.9477 4.9114 53.9946ZM4.71869 39.0466C4.15098 40.9321 3.69265 42.8383 3.33327 44.7706C2.88535 30.0414 11.5156 14.7602 24.8176 8.36956C21.4999 10.9216 18.7499 14.1091 16.4322 17.5883C16.3749 17.63 16.3124 17.6716 16.2499 17.7133C16.5989 17.1508 16.9791 16.281 16.3437 15.781C13.0781 14.8435 7.9114 26.4789 6.93744 29.2654C5.75515 32.4373 5.07806 35.7185 4.71869 39.0466ZM26.3958 72.0987C18.2656 71.755 11.1458 66.4216 7.21869 59.4164C7.69786 58.9998 7.59369 57.5206 7.4791 56.7706C8.06765 59.5831 9.46869 61.8331 11.2812 63.7498C11.3281 63.8956 11.3801 64.0414 11.427 64.1925C11.4895 64.406 11.6197 64.5779 11.802 64.7081C11.9895 64.8331 12.1926 64.8904 12.4218 64.8748C12.4322 64.8852 12.4374 64.8904 12.4479 64.9008C13.2343 66.1456 14.5051 67.8071 16.0989 67.6769C17.177 68.3852 18.2812 69.0519 19.3906 69.6873C19.5468 69.781 19.7083 69.8019 19.8801 69.7498C22.1458 71.0154 24.6979 71.7133 26.2968 69.5102C27.3697 68.8748 28.1979 67.9008 28.8801 66.8696C30.2864 66.8435 31.3333 65.7394 32.1562 64.7133C32.3229 65.5362 32.927 66.3071 33.7968 66.4216C31.9583 67.6144 29.9583 68.3956 27.7968 68.7602C26.7499 69.0466 26.9583 70.5883 27.9843 70.7029C33.0624 69.5571 39.1041 68.6664 43.0208 64.9737C38.7499 69.5206 32.7395 72.4112 26.3958 72.0987ZM40.9843 61.2602C41.3333 60.8123 41.6458 60.3331 41.9843 59.8748C42.2812 59.4633 42.552 59.0466 42.8281 58.63C43.0156 58.3539 43.1874 58.0727 43.3697 57.8019C43.4322 57.8852 43.5104 57.9529 43.6093 57.9998C43.9114 58.1196 44.177 58.0623 44.4114 57.8331C44.4426 57.7966 44.4635 57.755 44.4947 57.7237C43.6197 59.1977 42.4479 60.3748 40.9843 61.2602ZM44.3281 53.2966C43.6197 54.3175 42.9062 55.3383 42.1822 56.3487C42.0416 56.5414 41.901 56.7341 41.7604 56.9269C42.9739 54.3019 44.2083 51.6664 45.0833 48.9112C45.0885 48.8852 45.0989 48.8539 45.1041 48.8279C45.2343 48.7289 45.3593 48.63 45.4843 48.5362C45.5833 48.4581 45.677 48.38 45.776 48.3019C45.7968 48.4529 45.8437 48.5987 45.9062 48.7341C45.6249 49.5258 45.3437 50.3175 45.0676 51.1144C44.5729 51.5414 44.3958 52.0779 44.5208 52.7133C44.4583 52.906 44.3906 53.1039 44.3281 53.2966ZM44.6614 63.0571C45.1926 61.9737 45.8385 60.9685 46.5989 60.0362C46.0312 61.0935 45.3801 62.0987 44.6614 63.0571ZM46.6197 41.8904C46.6041 41.8019 46.5885 41.7185 46.5729 41.63C46.7916 41.3852 47.0104 41.1456 47.2291 40.9008C47.0468 41.3279 46.8645 41.755 46.6822 42.1821C46.6614 42.0883 46.6406 41.9894 46.6197 41.8904ZM47.0676 44.1456C47.8958 42.2081 48.7239 40.2758 49.5572 38.3383C49.5729 38.4008 49.5937 38.4633 49.6093 38.5258C48.8541 40.5831 48.1041 42.6404 47.3541 44.6977C47.302 44.7394 47.2499 44.781 47.1979 44.8227C47.1562 44.5987 47.1093 44.3696 47.0676 44.1456ZM47.2343 49.7862C47.2864 49.6508 47.3333 49.5154 47.3801 49.38C47.6041 49.2394 47.7551 49.0414 47.8333 48.7862C47.8906 48.5466 47.8958 48.3071 47.8541 48.0623C48.1093 47.3539 48.3645 46.6508 48.6197 45.9425C49.0989 45.531 49.5729 45.1196 50.0572 44.7133C49.9426 44.9581 49.8645 45.2133 49.8229 45.4789C49.1093 46.8696 48.3854 48.255 47.6458 49.63C47.5104 49.6769 47.3749 49.7341 47.2343 49.7862ZM48.7551 54.3487C48.7291 54.4633 48.6926 54.5675 48.6666 54.6769C48.4895 54.8487 48.3176 55.0258 48.1406 55.1925C48.151 55.1404 48.1666 55.0831 48.177 55.031C48.3385 54.3487 48.5156 53.6612 48.6249 52.9685C48.7812 52.8904 48.9218 52.781 49.0729 52.6925C48.8958 53.2289 48.7916 53.7862 48.7551 54.3487ZM50.2447 47.3175C50.8281 47.7029 51.4531 47.781 52.1145 47.5571C51.3281 48.3487 50.3541 48.755 49.3385 49.0831C49.6406 48.4946 49.9479 47.906 50.2447 47.3175ZM51.5729 51.7446C51.302 51.6456 51.0208 51.5883 50.7291 51.5623C51.2604 51.2029 51.8072 50.8956 52.4426 50.8227C52.1614 51.1404 51.8645 51.4373 51.5729 51.7446ZM52.0729 36.3383C52.2656 35.8123 52.4531 35.281 52.6406 34.755C52.6614 34.7341 52.677 34.7185 52.6926 34.6977C52.8333 34.5362 52.9739 34.3748 53.1145 34.2133C53.3281 35.3279 53.5416 36.4425 53.7656 37.5519C53.4166 38.2654 53.0676 38.9789 52.7187 39.6873C52.4999 38.5727 52.2864 37.4581 52.0729 36.3383ZM54.4739 41.9008C54.1822 42.6612 53.9114 43.4321 53.6301 44.1977C53.5729 43.9164 53.5156 43.6404 53.4583 43.3644C53.7968 42.8748 54.1354 42.3852 54.4739 41.9008ZM53.6145 52.9998C54.0572 52.5258 54.4895 52.0362 54.901 51.5258C56.026 54.88 57.6354 57.9894 59.7239 60.8435C59.9635 62.2237 60.2239 63.5987 60.4739 64.9737C58.6301 60.2029 56.2239 55.3435 53.6145 52.9998ZM60.7031 54.3539C60.7343 54.3487 60.7656 54.3487 60.802 54.3435C60.9843 54.7602 61.1666 55.1769 61.3541 55.5883C61.6822 56.3227 62.0156 57.0519 62.3489 57.781C62.3385 57.8696 62.3281 57.9633 62.3176 58.0519C62.0416 57.4425 61.7708 56.8331 61.4999 56.2185C61.2343 55.5935 60.9635 54.9737 60.7031 54.3539ZM63.1249 129.255C63.1458 129.229 63.1666 129.203 63.1874 129.177C57.3333 135.979 50.026 142.854 40.7604 144.385C40.0676 144.416 39.3333 144.463 38.6822 144.182C39.1718 143.245 39.7135 142.51 40.2812 141.63C50.3176 126.807 62.1979 110.437 64.5781 92.4477C64.5833 92.4685 64.5833 92.4841 64.5885 92.505C64.8176 93.1873 64.8801 94.0623 65.6301 94.3748C63.2343 103.448 59.1145 112.286 55.052 120.776C51.8697 127.307 48.7864 133.823 43.2604 138.76C42.3906 139.703 39.3281 142.354 42.177 142.682C42.2083 142.828 42.2551 142.969 42.3124 143.104C43.9895 145.599 52.3645 138.099 54.427 136.719C57.8801 133.963 61.1354 130.989 64.1979 127.802C63.8176 128.307 63.4531 128.828 63.0572 129.328C63.0781 129.302 63.0989 129.276 63.1249 129.255ZM65.0312 101.567C64.7291 102.958 64.3176 104.364 63.5937 105.599C63.8176 104.974 64.0364 104.349 64.2604 103.729C64.5208 103.01 64.7812 102.286 65.0312 101.567ZM60.6406 117.364C60.7708 117.067 60.901 116.765 61.026 116.469C62.3072 116.734 62.677 114.864 63.2551 114.041C63.2239 114.271 63.276 114.484 63.4166 114.677C62.5781 115.989 61.7708 117.281 60.8749 118.573C60.9322 118.411 60.9791 118.255 61.026 118.088C61.0676 117.937 61.052 117.791 60.9791 117.651C60.901 117.51 60.7916 117.416 60.6406 117.364ZM52.9426 131.229C52.4374 131.76 51.9322 132.291 51.4218 132.823C51.3281 132.916 51.2343 133.015 51.1406 133.114C51.4635 132.547 51.7812 131.974 52.0885 131.396C52.1145 131.344 52.1406 131.291 52.1718 131.239C52.427 131.286 52.6874 131.281 52.9426 131.229ZM48.3958 135.88C47.3489 136.864 46.3906 137.953 45.2864 138.87C46.2135 137.838 47.1354 136.807 48.052 135.771C48.0624 135.776 48.0676 135.776 48.0729 135.776C48.177 135.817 48.2864 135.854 48.3958 135.88ZM62.8385 126.041C58.8645 130.073 54.7291 133.885 50.1718 137.291C50.3958 137.104 50.6145 136.916 50.8333 136.719C53.6458 134.271 56.3229 131.687 58.8697 128.963C60.6145 127.036 62.5312 125.245 63.8906 123.021C64.177 122.536 64.1666 122.057 63.8489 121.588C63.3749 120.817 62.4947 121.213 61.9583 121.687C64.0989 119.406 66.1926 117.083 68.2291 114.719C66.4947 118.521 64.5312 122.229 62.8385 126.041ZM72.8697 114.062C71.552 115.927 70.1874 117.755 68.7187 119.51C71.3229 114.916 72.8541 109.682 75.6458 105.234C77.302 102.974 78.8749 100.656 80.3697 98.2914C78.026 103.604 75.5989 108.922 72.8697 114.062ZM81.8385 91.3071C80.6718 93.4008 79.4479 95.4685 78.1666 97.505C79.6614 92.88 81.2291 88.2394 82.7604 83.5779C82.3958 86.1508 82.052 88.7237 81.8385 91.3071ZM84.1614 69.5571C82.5781 74.4112 80.5208 79.1612 78.8333 83.8696C78.7239 83.8956 78.6145 83.9269 78.5104 83.9737C78.4635 83.9946 78.4166 84.0206 78.3749 84.0466C80.5051 77.5727 82.4635 71.0519 84.2916 64.4894C84.2604 66.1769 84.2291 67.8696 84.1614 69.5571ZM84.8697 85.4737C84.7031 85.8175 84.5156 86.1456 84.3437 86.4894C84.8697 82.7341 85.1614 78.9529 85.4479 75.1716C85.5364 74.8852 85.6145 74.5987 85.7031 74.3123C85.3906 78.031 85.0676 81.7498 84.8697 85.4737ZM85.3906 36.5519C85.0781 35.5362 84.7656 34.5206 84.4687 33.505C84.8229 34.4633 85.2395 35.3956 85.7291 36.2914C85.6041 36.3644 85.4947 36.4477 85.3906 36.5519ZM90.6354 57.3071C90.5624 56.6404 90.4947 55.9894 90.4218 55.3696C90.4947 54.9633 90.5781 54.5623 90.6458 54.1612C90.6718 55.2081 90.6614 56.2602 90.6354 57.3071ZM89.7604 44.6196C90.1718 47.13 90.4426 49.6508 90.5676 52.1925C90.427 52.0519 90.2551 51.9685 90.0572 51.9425H90.052C89.9791 51.3539 89.9426 50.7654 89.9479 50.1716C89.6666 49.6612 89.7135 47.2862 89.7604 44.6196ZM88.9739 66.1977C89.2395 67.1144 89.177 68.2602 89.552 69.156C89.177 71.5727 88.7135 73.9737 88.1354 76.3539C88.6458 71.5258 88.927 66.7498 88.9739 66.1977ZM87.2395 40.0779C87.3854 40.755 87.4114 41.4373 87.3124 42.1248C87.1614 41.7446 87.0416 41.3435 86.8958 40.9581C87.0156 40.6664 87.1301 40.3748 87.2395 40.0779ZM86.776 77.7237C86.8489 76.6196 86.9322 75.5154 87.0051 74.406C87.1458 72.4998 87.2395 70.5779 87.3385 68.6612C87.5572 67.8644 87.7656 67.0623 87.9791 66.2654C87.7395 70.6977 87.1197 75.1352 86.651 79.5154C86.6926 78.9216 86.7343 78.3227 86.776 77.7237ZM86.4791 56.3904C86.2604 58.2498 86.0416 60.1039 85.7968 61.9633C85.802 60.9321 85.802 59.9008 85.8176 58.8696C85.9739 58.2706 86.1406 57.6769 86.2968 57.0779C86.3593 56.8487 86.4166 56.6196 86.4791 56.3904ZM170.005 11.6612C166.088 8.51019 161.536 5.8279 156.708 4.18727C156.812 3.5154 155.818 3.15602 155.49 3.80706C152.656 2.93206 149.75 2.49456 146.781 2.48935C145.844 2.39039 144.901 2.34873 143.958 2.37477C142.219 2.11956 138.661 2.93727 137.844 2.8904C135.344 3.32269 132.578 3.58831 130.016 4.29665C133.151 2.85394 136.427 1.91123 139.854 1.46852C140.125 1.49456 140.391 1.54144 140.651 1.60915C141.297 1.79144 141.568 0.775811 140.911 0.59352C133.078 0.00497876 125.406 4.28623 119.135 8.62998C100.682 21.3852 94.6458 53.9164 115.318 67.406C129.073 77.0519 138.734 70.2706 148.359 59.2029C152.266 79.1873 147.885 100.844 136.375 117.807C132.156 123.995 125.932 129.026 120.057 133.692C113.875 138.12 113.849 143.146 121.891 144.703C133.604 146.364 144.036 138.583 153.021 132.062C166.448 122.562 175.542 108.411 180.474 92.8696C188.422 70.4633 190.911 27.5414 170.005 11.6612ZM171.38 25.5466C172.417 26.6612 172.943 27.9841 172.953 29.5102C172.937 29.4998 172.927 29.4894 172.911 29.4789C172.885 29.4008 172.859 29.3227 172.833 29.2446C172.417 27.9946 171.927 26.7758 171.365 25.5831C171.365 25.5727 171.375 25.5571 171.38 25.5466ZM173.51 54.7289C173.755 54.5362 174 54.3435 174.245 54.1508C174.109 54.6873 173.99 55.2289 173.844 55.7654C173.443 56.3591 173.062 56.9581 172.646 57.5466C172.906 56.5987 173.198 55.6612 173.51 54.7289ZM173.286 39.8175C173.406 39.3019 173.531 38.7914 173.651 38.2758C173.698 38.0779 173.745 37.88 173.792 37.6821C173.917 38.2862 174.036 38.8904 174.161 39.4946C173.849 39.5466 173.557 39.6508 173.286 39.8175ZM175.854 58.6144C175.755 61.906 175.307 65.156 174.51 68.3539C173.901 68.6508 173.292 68.9425 172.687 69.255C173.74 65.6977 174.781 62.1404 175.854 58.6144ZM174.635 51.8175C174.792 51.4633 174.917 51.1039 175.088 50.7498C175.021 51.0519 174.937 51.3487 174.865 51.6456C174.786 51.7029 174.713 51.7602 174.635 51.8175ZM177.75 66.8748C177.729 66.8852 177.708 66.8956 177.687 66.906C178.146 66.0519 178.677 65.2498 179.286 64.4946C180.146 68.0466 178.24 71.6664 177.349 75.0779C176.198 78.1196 175.302 81.3175 173.911 84.2706C173.734 84.1248 173.542 84.1091 173.344 84.2341C173.276 84.281 173.203 84.3227 173.135 84.3696C174.245 80.3383 175.271 76.2914 176.151 72.2081C178.49 69.1769 179.5 67.0258 177.75 66.8748ZM176.854 69.0154C176.922 68.7602 177.005 68.505 177.094 68.255C177.281 68.1664 177.463 68.0675 177.656 67.9789C177.635 67.9894 177.646 67.9841 177.656 67.9841C177.651 67.9841 177.651 67.9894 177.651 67.9946C177.396 68.3435 177.115 68.6716 176.854 69.0154ZM178.979 63.0571C178.99 63.1144 179 63.1716 179.016 63.2289C178.422 63.4633 178.109 64.0519 177.797 64.5675C177.88 64.1039 177.958 63.6352 178.026 63.1664C178.146 62.3487 178.245 61.531 178.302 60.7081C178.365 60.7394 178.432 60.7602 178.505 60.7706C178.656 61.531 178.818 62.2966 178.979 63.0571ZM178.812 48.7758C179.474 53.5779 179.854 58.2081 180.203 63.0831C180.187 63.0779 180.172 63.0675 180.156 63.0571C178.932 58.3904 179.208 53.5519 178.812 48.7758ZM178.505 79.5675C177.885 81.255 177.193 82.906 176.448 84.5414C176.427 84.5831 176.406 84.63 176.385 84.6769C176.49 84.3696 176.599 84.0675 176.708 83.7602C177.062 82.755 177.448 81.755 177.771 80.7289C177.932 80.3019 178.271 79.9581 178.505 79.5675ZM170.547 76.3487C171.115 74.5102 171.677 72.6664 172.224 70.8227C172.865 70.4529 173.51 70.0935 174.161 69.7446C173.812 71.0623 173.427 72.3696 173.01 73.6716C172.203 74.5779 171.391 75.4737 170.547 76.3487ZM172.875 86.2341C172.724 86.4841 172.583 86.7446 172.422 86.9946C172.469 86.8435 172.505 86.6873 172.547 86.5362C172.656 86.4373 172.766 86.3331 172.875 86.2341ZM161.12 28.7394C161.974 28.0362 162.828 27.3331 163.677 26.6196C163.557 26.9425 163.443 27.2602 163.328 27.5831C162.588 27.9737 161.859 28.3383 161.12 28.7394ZM162.693 29.4685C162.109 31.2862 161.578 33.1196 161.094 34.9633C161.057 34.9998 161.016 35.0362 160.979 35.0727C160.906 33.5831 160.828 32.0935 160.76 30.6039C161.401 30.2237 162.042 29.8383 162.693 29.4685ZM166.276 44.7341C165.516 45.2185 164.74 45.6873 163.969 46.156C164.198 45.1873 164.427 44.2133 164.661 43.2446C165.594 42.2602 166.583 41.2133 167.557 40.156C167.13 41.6821 166.703 43.2081 166.276 44.7341ZM167.099 51.656C166.948 52.1716 166.781 52.6769 166.635 53.1873C166.729 52.755 166.833 52.3175 166.932 51.88C166.984 51.8071 167.042 51.7289 167.099 51.656ZM165.635 47.0206C165.234 48.4789 164.812 49.9373 164.411 51.3956C164.292 51.5362 164.177 51.6769 164.057 51.8123C163.969 50.5675 163.911 49.3539 163.922 48.1821C164.495 47.8019 165.062 47.406 165.635 47.0206ZM163.531 36.6352C163.49 36.6612 163.443 36.6821 163.401 36.7081C163.588 36.0831 163.776 35.4581 163.963 34.8331C163.99 34.8071 164.005 34.7862 164.031 34.7602C163.854 35.38 163.693 36.0102 163.531 36.6352ZM161.641 25.8852C161.646 25.8644 161.651 25.8435 161.656 25.8227C162.057 23.9789 162.594 22.1664 163.135 20.3591C163.5 20.9164 163.875 21.4737 164.255 22.031C164.521 22.4112 164.766 22.8019 165.031 23.1821C163.896 24.0675 162.766 24.9789 161.641 25.8852ZM163.984 68.8019C163.776 69.0623 163.568 69.3227 163.354 69.5831C164.005 66.6716 164.776 63.7862 165.594 60.9112C165.745 60.7966 165.896 60.6821 166.052 60.5675C165.375 63.3175 164.667 66.0571 163.984 68.8019ZM165.187 75.1039C164.578 77.1716 163.974 79.2446 163.349 81.3071C163.344 81.3019 163.338 81.2914 163.333 81.2862C163.849 79.3123 164.323 77.3279 164.792 75.3435C164.922 75.2602 165.057 75.1821 165.187 75.1039ZM166.109 69.6456C166.432 69.2446 166.766 68.8279 167.109 68.4008C166.672 69.9477 166.25 71.4894 165.802 73.031C165.62 73.1352 165.443 73.2289 165.26 73.3331C165.542 72.1039 165.828 70.8748 166.109 69.6456ZM166.74 57.8123C166.63 57.8956 166.521 57.9737 166.411 58.0571C167.052 55.8539 167.703 53.656 168.333 51.4633C167.781 53.5727 167.271 55.6977 166.74 57.8123ZM168.016 47.1039C168.172 46.4216 168.323 45.7341 168.479 45.0519C168.75 44.8591 169.01 44.6612 169.271 44.4685C169.094 45.0519 168.922 45.6404 168.745 46.2237C168.5 46.5154 168.26 46.8123 168.016 47.1039ZM168.865 58.4008C169.266 58.0883 169.667 57.7758 170.062 57.4581C169.588 59.3019 169.104 61.1404 168.615 62.9789C168.167 63.5519 167.713 64.1144 167.266 64.6873C167.766 62.5831 168.302 60.4894 168.865 58.4008ZM169.687 69.4477C170.25 67.3071 170.786 65.156 171.312 63.005C171.562 62.6716 171.807 62.3435 172.052 62.0154C171.193 64.8696 170.292 67.7185 169.396 70.5571C169.49 70.1873 169.588 69.8175 169.687 69.4477ZM170.75 54.7862C170.38 55.0675 170.01 55.3487 169.641 55.6352C170.516 52.6664 171.495 49.7394 172.656 46.8591C172.052 49.5102 171.411 52.1508 170.75 54.7862ZM169.958 42.2602C169.625 42.4894 169.292 42.7185 168.958 42.9477C169.042 42.5779 169.125 42.2029 169.213 41.8331C169.568 40.2498 169.937 38.6716 170.307 37.0987C171.094 36.1873 171.812 35.3175 172.417 34.531C171.588 37.1039 170.771 39.6821 169.958 42.2602ZM168.615 36.3904C167.604 37.4373 166.588 38.4789 165.552 39.505C165.792 38.5362 166.052 37.5779 166.297 36.6144C167.219 35.9998 168.146 35.3852 169.068 34.7654C168.917 35.3071 168.766 35.8487 168.615 36.3904ZM165.781 29.2758C165.687 29.4164 165.609 29.5727 165.51 29.7185C165.724 29.0102 165.943 28.3019 166.156 27.5935C166.271 27.531 166.38 27.4685 166.49 27.4112C166.25 28.031 166.005 28.6508 165.781 29.2758ZM166 21.3175C165.948 21.3956 165.896 21.4737 165.849 21.5571C165.13 20.5466 164.463 19.5466 163.781 18.505C164.708 19.2289 165.594 19.9998 166.437 20.8227C166.271 20.9685 166.125 21.1352 166 21.3175ZM162.667 15.755C162.156 15.3539 161.641 14.9529 161.13 14.5466C161.208 14.2289 161.276 13.9112 161.333 13.5935C162.792 14.9321 164.088 16.4321 165.359 17.9425C164.479 17.1925 163.583 16.4685 162.667 15.755ZM161.969 18.5727C161.422 20.3123 160.917 22.0623 160.427 23.8175C160.344 22.2498 160.255 20.6821 160.167 19.1091C160.135 18.9529 160.12 18.7966 160.109 18.6352C160.286 17.9477 160.463 17.255 160.641 16.5623C161.088 17.2289 161.531 17.9008 161.969 18.5727ZM160.937 64.1716C160.005 67.6039 159.073 71.031 158.141 74.4633C158.687 71.2394 159.302 68.0206 159.922 64.8123C160.26 64.5987 160.604 64.3904 160.937 64.1716ZM160.062 12.5831C160 12.6664 159.943 12.7498 159.891 12.8383C159.771 12.6664 159.646 12.4998 159.521 12.3383C159.469 12.2706 159.417 12.2029 159.365 12.1352C159.526 12.2133 159.682 12.3019 159.833 12.406C159.911 12.4581 159.995 12.5154 160.073 12.5675C160.068 12.5727 160.062 12.5779 160.062 12.5831ZM159.417 51.1508C159.536 51.0727 159.651 50.9946 159.776 50.9112C159.849 51.7341 159.932 52.5362 160.021 53.3175C159.75 54.7654 159.469 56.2133 159.182 57.656C158.588 58.3748 158.005 59.0987 157.422 59.8227C158.026 56.9164 158.687 54.0258 159.417 51.1508ZM158.365 46.5466C158.094 46.8175 157.823 47.0883 157.557 47.3539C157.594 46.005 157.651 44.6508 157.698 43.3019C158.172 42.6769 158.656 42.0571 159.115 41.4216C159.135 41.906 159.161 42.3904 159.193 42.88C158.917 44.1039 158.641 45.3279 158.365 46.5466ZM158.526 28.3644C158.568 27.9008 158.583 27.4373 158.625 26.9737C158.635 27.2341 158.646 27.6821 158.656 28.2602C158.615 28.2914 158.573 28.3279 158.526 28.3644ZM158.719 16.3331C158.349 16.4008 158.135 16.6196 158.083 16.9894C157.995 17.8019 157.927 18.6196 157.844 19.4321C157.698 19.9998 157.542 20.5675 157.396 21.1404C157.49 20.5831 157.583 20.031 157.667 19.4737C157.838 18.3279 158.047 17.1873 158.177 16.031C158.25 15.4269 158.323 14.8227 158.396 14.2133C158.635 14.4477 158.885 14.6716 159.146 14.8956C158.99 15.3696 158.859 15.8539 158.719 16.3331ZM159.042 78.5831C159.099 78.5519 159.156 78.5206 159.219 78.4946C158.609 81.9529 158.01 85.4216 157.531 88.8956C157.526 88.9737 157.547 89.0519 157.552 89.13C157.333 89.3487 157.125 89.5779 156.911 89.7966C157.594 86.0623 158.255 82.3071 159.042 78.5831ZM157.99 100.109C157.588 100.651 157.187 101.192 156.792 101.739C156.411 101.916 156.078 102.073 155.682 102.265C155.682 102.26 155.682 102.26 155.682 102.26C156.453 101.547 157.219 100.828 157.99 100.109ZM156.193 93.6248C156.208 93.5414 156.224 93.4529 156.24 93.3644C156.281 93.3175 156.328 93.2706 156.37 93.2185C156.312 93.3539 156.25 93.4894 156.193 93.6248ZM154.823 91.9685C154.51 92.3071 154.203 92.6508 153.891 92.9946C154.693 89.6248 155.505 86.2602 156.156 82.8644C156.385 82.8644 156.578 82.781 156.734 82.6144C156.094 85.7341 155.458 88.8539 154.823 91.9685ZM156.849 103.364C157.516 103.005 158.187 102.651 158.87 102.312C158.01 103.708 157.094 105.067 156.135 106.39C155.427 106.88 154.719 107.364 154.01 107.854C154.755 106.26 155.76 104.791 156.849 103.364ZM157.594 97.7862C157.854 97.2446 158.104 96.6977 158.338 96.1508C158.995 96.6664 159.635 95.9946 159.776 95.3383C159.74 95.5362 159.713 95.7394 159.677 95.9373C158.984 96.5571 158.292 97.1716 157.594 97.7862ZM160.656 98.3175C160.729 98.505 160.849 98.656 161.016 98.7654C160.74 99.2289 160.458 99.6925 160.182 100.156C159.75 100.354 159.344 100.536 158.875 100.75C159.495 99.9529 160.104 99.1456 160.656 98.3175ZM160.687 70.4008C160.635 70.4321 160.583 70.4633 160.536 70.505C160.708 69.8539 160.875 69.2081 161.042 68.5571C160.922 69.1716 160.802 69.7862 160.687 70.4008ZM160.448 62.0727C160.609 61.2758 160.792 60.4841 160.958 59.6925C160.974 59.6664 160.99 59.6456 161.01 59.6196C161.161 60.2914 161.323 60.8904 161.495 61.4216C161.146 61.6404 160.802 61.8591 160.448 62.0727ZM161.49 43.4946C161.484 43.4581 161.484 43.4269 161.479 43.3904C161.891 41.9216 162.312 40.4529 162.74 38.9841C162.818 38.9321 162.901 38.88 162.979 38.8227C162.651 40.1925 162.338 41.5675 162.047 42.9477C161.859 43.13 161.672 43.3123 161.49 43.4946ZM162.448 53.7237C162.422 53.5102 162.391 53.2966 162.37 53.0831C162.557 52.2341 162.729 51.3852 162.922 50.5362C162.937 51.3956 162.958 52.255 162.958 53.1144C162.792 53.3175 162.62 53.5206 162.448 53.7237ZM162.745 73.7706C162.651 74.13 162.568 74.4894 162.474 74.8487C162.427 74.8748 162.38 74.9008 162.333 74.9269C162.38 74.6508 162.427 74.3748 162.474 74.0987C162.562 73.9946 162.651 73.8852 162.745 73.7706ZM165.469 93.1352C165.516 93.0935 165.557 93.0519 165.604 93.0102C164.943 94.7966 164.318 96.5883 163.771 98.3956C163.453 98.5102 163.177 98.6925 162.953 98.9477C162.917 98.9633 162.875 98.9789 162.838 98.9946C163.833 97.0987 164.953 95.2237 165.469 93.1352ZM165.74 103.333C165.906 102.838 166.146 102.385 166.458 101.969C166.245 102.609 166.026 103.245 165.807 103.885C165.62 104.156 165.437 104.427 165.25 104.698C165.411 104.245 165.578 103.786 165.74 103.333ZM165.578 90.8435C165.625 90.7289 165.667 90.6144 165.713 90.4946C166.026 90.3071 166.344 90.1091 166.661 89.9216C166.292 90.2185 165.943 90.5414 165.578 90.8435ZM166.516 88.3852C167.562 85.5519 168.536 82.6925 169.458 79.8175C170.234 78.9998 170.99 78.1925 171.719 77.3956C170.448 80.8591 169.031 84.2914 167.656 87.7237C167.276 87.9477 166.896 88.1664 166.516 88.3852ZM172.213 31.2133C172.016 31.3331 171.812 31.4581 171.615 31.5779C171.682 31.2966 171.745 31.0102 171.818 30.7289C171.927 30.8175 172.036 30.9008 172.151 30.9789C172.172 31.0571 172.193 31.1404 172.213 31.2133ZM171.922 32.8644C171.656 33.1664 171.365 33.4477 171.094 33.7446C171.125 33.6144 171.156 33.4841 171.187 33.3539C171.432 33.1873 171.677 33.031 171.922 32.8644ZM170.667 27.031C170.802 27.3279 170.974 27.6091 171.099 27.9112C171.094 27.9164 171.094 27.9164 171.088 27.9216C170.885 27.7237 170.703 27.4998 170.505 27.2966C170.568 27.2029 170.615 27.1196 170.667 27.031ZM170.297 21.38C170.333 21.4529 170.38 21.5206 170.417 21.5935C170.365 21.531 170.312 21.4685 170.26 21.406L170.297 21.38ZM170.505 29.63C170.203 30.6873 169.917 31.7498 169.62 32.8019C168.682 33.3956 167.75 33.9841 166.823 34.5831C167.161 33.2602 167.5 31.9373 167.849 30.6144C168.448 29.9425 169.005 29.2862 169.51 28.6456C169.677 28.8175 169.833 28.9998 170.005 29.1664C170.172 29.3227 170.338 29.4789 170.505 29.63ZM166.703 25.8071C166.734 25.7133 166.76 25.6196 166.792 25.5206C166.833 25.5779 166.88 25.6352 166.927 25.6925C166.854 25.7289 166.776 25.7706 166.703 25.8071ZM167.375 23.6352C167.667 23.406 167.953 23.1716 168.245 22.9477C168.521 23.3019 168.776 23.6716 169.021 24.0466C168.849 24.3279 168.677 24.6091 168.505 24.8904C168.474 24.906 168.448 24.9216 168.417 24.9373C168.068 24.505 167.708 24.0831 167.375 23.6352ZM169.432 26.1508C169.391 26.1091 169.349 26.0675 169.307 26.0206C169.328 25.9894 169.344 25.9633 169.365 25.9321C169.495 25.8696 169.625 25.8071 169.755 25.7446C169.651 25.8852 169.536 26.0154 169.432 26.1508ZM155.786 7.73415C159.969 9.34873 163.786 11.5831 167.245 14.4373C166.969 14.6352 166.854 14.9008 166.911 15.2394C167.479 16.9216 168.573 18.4269 169.526 19.9841C169.432 20.0466 169.338 20.1091 169.245 20.1664C167.448 17.9633 165.615 15.781 163.651 13.7289C162.276 12.4477 160.807 10.7654 158.854 10.531C158.917 10.3435 158.87 10.1821 158.724 10.0466C158.667 9.97894 158.615 9.91123 158.562 9.84352C158.406 9.40081 158.042 9.10394 157.687 9.25498C157.495 9.3331 157.349 9.4581 157.245 9.63519C156.786 9.07269 156.26 8.5779 155.677 8.15081C155.713 8.01019 155.75 7.87477 155.786 7.73415ZM155.74 39.8644C155.724 38.8019 155.713 37.7394 155.698 36.6769C155.953 35.5206 156.224 34.3748 156.49 33.2237C156.609 33.1456 156.724 33.0675 156.844 32.9894C156.76 34.6508 156.682 36.3175 156.615 37.9841C156.479 38.4789 156.344 38.9737 156.203 39.4685C156.052 39.6039 155.896 39.7341 155.74 39.8644ZM156.141 53.3383C156.12 54.1664 156.094 54.9894 156.073 55.8123C156.031 55.9581 155.99 56.1039 155.948 56.2498C155.937 55.3279 155.922 54.406 155.911 53.4894C155.99 53.4373 156.062 53.3904 156.141 53.3383ZM155.25 9.78623C155.542 10.0414 155.812 10.3123 156.068 10.6039C155.88 11.1248 155.724 11.656 155.542 12.1821C155.656 11.3123 155.776 10.4112 155.203 9.96852C155.219 9.91123 155.234 9.84873 155.25 9.78623ZM155.307 71.7914C155.432 71.0727 155.547 70.3591 155.667 69.6456C155.703 69.4216 155.745 69.1977 155.781 68.9737C156.495 68.781 156.734 67.7185 156.833 66.6196C156.953 66.5519 157.073 66.4894 157.193 66.4269C156.547 68.8748 155.833 71.3019 154.979 73.6873C155.083 73.0519 155.198 72.4216 155.307 71.7914ZM154.307 7.21852C154.297 7.24456 154.286 7.2706 154.276 7.30185C153.927 7.1456 153.568 7.0154 153.203 6.91644C153.568 7.01019 153.937 7.10394 154.307 7.21852ZM152.661 56.88C152.984 56.1091 152.943 55.2498 153.078 54.4373C153.088 54.8279 153.115 55.2185 153.13 55.6091C152.849 56.9946 152.578 58.3852 152.323 59.7706C152.083 59.0779 151.786 58.4112 151.437 57.7654C151.448 57.7498 151.453 57.7341 151.463 57.7237C152.021 57.6664 152.422 57.3852 152.661 56.88ZM151.948 38.3279C152.135 37.4998 152.323 36.6769 152.51 35.8487C152.521 35.8435 152.526 35.8383 152.536 35.8331C152.484 36.8487 152.417 37.8748 152.359 38.8956C152.245 39.4477 152.125 39.9946 152.01 40.5466C151.995 39.8071 151.969 39.0675 151.948 38.3279ZM153.12 20.0675C152.547 22.156 152.016 24.2602 151.521 26.3748C151.49 25.63 151.458 24.8852 151.422 24.1404C152 22.0102 152.578 19.8748 153.156 17.7394C153.135 18.5154 153.125 19.2966 153.12 20.0675ZM151.135 17.7133C151.13 17.6196 151.125 17.5258 151.12 17.4321C151.432 15.4841 152.495 10.5571 151.953 8.2081C152.609 8.29144 153.229 8.48414 153.812 8.78623C152.885 11.7498 152.031 14.7394 151.135 17.7133ZM153.562 62.1456C153.599 62.4894 153.635 62.8279 153.667 63.1664C153.531 63.5362 153.385 63.9008 153.24 64.2602C153.219 64.1404 153.203 64.0206 153.182 63.9008C153.307 63.3175 153.437 62.7289 153.562 62.1456ZM153.568 66.4789C153.682 66.8175 153.885 67.0883 154.177 67.2914C154.052 67.9581 153.922 68.6248 153.797 69.2914C153.729 68.38 153.641 67.4737 153.531 66.5623C153.542 66.5362 153.552 66.505 153.568 66.4789ZM149.031 38.3019C148.719 39.9685 148.406 41.6404 148.099 43.3071C148.057 43.3071 148.016 43.3175 147.974 43.3279C148.109 41.8071 148.25 40.2862 148.375 38.7654C148.594 38.6091 148.812 38.4581 149.031 38.3019ZM148.609 36.005C148.661 35.3852 148.713 34.7706 148.766 34.1508C148.927 33.5466 149.083 32.9425 149.245 32.3383C149.276 33.3852 149.292 34.4373 149.297 35.4946C149.068 35.6664 148.838 35.8383 148.609 36.005ZM148 23.4477C147.13 27.2237 146.161 30.9841 145.146 34.7394C145.109 34.1091 145.078 33.4841 145.047 32.8539C146.213 28.8175 147.276 24.755 148.234 20.6612C148.156 21.5883 148.073 22.5206 148 23.4477ZM144.307 19.8539C144.297 19.63 144.281 19.406 144.271 19.1821C144.849 16.5987 145.604 12.9685 145.969 10.0571C146.568 9.79144 147.172 9.54144 147.776 9.29144C146.661 12.8123 145.437 16.3175 144.307 19.8539ZM144.896 7.54665C144.828 8.10394 144.729 8.65602 144.646 9.21331C144.552 9.26019 144.458 9.30706 144.365 9.34873C144.536 8.74977 144.724 8.15081 144.896 7.54665ZM144.349 6.05185C144.328 6.07789 144.312 6.09352 144.286 6.11435C144.266 6.08831 144.25 6.0831 144.229 6.05706C144.266 6.05185 144.307 6.05706 144.349 6.05185ZM143.87 11.0206C144.052 10.9373 144.234 10.8539 144.417 10.7706C144.255 11.7498 144.073 12.7237 143.885 13.6925C143.833 12.9789 143.771 12.2706 143.713 11.5571C143.766 11.38 143.818 11.2029 143.87 11.0206ZM143.047 42.4112C142.354 44.9321 141.687 47.4529 141.036 49.9789C141.042 48.5727 141.047 47.1716 141.052 45.7706C141.406 44.7394 141.745 43.7029 142.068 42.6612C142.354 41.7706 142.615 40.8696 142.896 39.9789C142.943 40.7914 142.995 41.6039 143.047 42.4112ZM141.88 17.7498C141.906 17.6664 141.932 17.5831 141.953 17.4998C142.01 18.8227 142.057 20.1456 142.109 21.4685C141.922 22.1873 141.734 22.906 141.536 23.6248C141.635 21.6664 141.74 19.7081 141.88 17.7498ZM141.057 6.3904C141.125 6.37998 141.193 6.37477 141.26 6.36435C141.219 6.69769 141.193 7.03623 141.182 7.36956C141.099 8.21852 141.052 9.06748 140.979 9.91123C139.979 12.9112 139.182 16.505 138.885 17.2862C138.536 18.5154 138.187 19.7446 137.838 20.9737C137.74 19.8904 137.625 18.8175 137.51 17.7394C138.401 14.7914 139.281 11.8435 140.193 8.90602C140.49 8.06227 140.734 7.23414 141.057 6.3904ZM137.979 7.07269C137.974 7.05706 137.958 7.05185 137.953 7.03623C138.453 6.90602 138.958 6.81227 139.458 6.7081C139.276 7.2654 139.13 7.84352 138.927 8.16123C138.286 9.9529 137.656 11.7498 137.021 13.5519C136.943 12.8956 136.885 12.2394 136.792 11.5883C137.208 10.0883 137.609 8.57789 137.979 7.07269ZM136.891 50.3383C136.672 51.2914 136.458 52.2446 136.24 53.1977C136.245 52.0102 136.234 50.8227 136.208 49.6352C136.38 49.1873 136.547 48.7341 136.719 48.2862C136.771 48.9789 136.828 49.6664 136.891 50.3383ZM135.963 41.5414C135.922 40.255 135.891 38.9685 135.87 37.6821C135.953 37.4164 136.031 37.1508 136.115 36.88C136.167 37.9685 136.219 39.2185 136.276 40.5727C136.172 40.8956 136.068 41.2185 135.963 41.5414ZM136.198 7.55706C135.797 8.3331 135.734 9.33831 135.448 10.2029C135.406 10.3591 135.359 10.5102 135.318 10.6664C135.052 10.8175 134.891 11.0414 134.833 11.3435C134.771 11.8435 134.75 12.3435 134.719 12.8435C133.906 15.8175 133.047 18.781 132.125 21.7289C131.984 19.6091 131.87 17.4894 131.802 15.3696C132.958 12.7133 134.292 10.1508 135.797 7.67685C135.932 7.63519 136.068 7.59873 136.198 7.55706ZM134.271 28.6039C134.266 30.156 134.266 31.7029 134.281 33.255C133.995 34.2029 133.703 35.1456 133.411 36.0883C133.292 34.9529 133.177 33.8175 133.062 32.6821C133.463 31.3227 133.865 29.9633 134.271 28.6039ZM132.49 26.3644C132.469 26.1196 132.448 25.8748 132.427 25.63C133.109 23.5831 133.781 21.5362 134.432 19.4894C134.417 19.9998 134.396 20.5102 134.385 21.0206C133.755 22.8019 133.12 24.5779 132.49 26.3644ZM134.411 42.4789C134.432 43.6873 134.458 44.8956 134.479 46.1039C134.38 45.156 134.276 44.2081 134.172 43.2602C134.255 42.9998 134.333 42.7394 134.411 42.4789ZM131.338 56.9633C131.177 56.0362 131.01 55.1144 130.854 54.1925C131.229 52.9581 131.599 51.7237 131.974 50.4894C132.005 51.7862 132.021 53.0883 132.031 54.3904C131.792 55.2446 131.557 56.1039 131.338 56.9633ZM131.354 63.6925C131.281 63.7237 131.208 63.755 131.135 63.781C131.156 63.7185 131.177 63.656 131.198 63.5935C131.25 63.6352 131.302 63.6612 131.354 63.6925ZM126.87 16.8591C126.854 16.6508 126.838 16.4373 126.823 16.2289C127.734 14.7602 128.677 13.3071 129.687 11.906C128.969 13.3956 128.266 14.8904 127.667 16.4321C127.344 16.4685 127.078 16.6091 126.87 16.8591ZM127.115 41.3591C127.099 41.4008 127.083 41.4425 127.068 41.4841C127.083 41.4373 127.099 41.3956 127.115 41.3539V41.3591ZM130.422 18.7081C130.463 19.9477 130.516 21.1873 130.573 22.4269C130.62 23.6248 130.677 24.8175 130.74 26.0154C129.917 28.5102 129.078 30.9946 128.198 33.4685C127.99 31.2914 127.792 29.1144 127.609 26.9321C128.443 24.1456 129.375 21.4008 130.422 18.7081ZM130.948 29.9946C130.958 30.1873 130.969 30.3748 130.979 30.5675C130.187 32.7966 129.385 35.0258 128.583 37.255C128.573 37.1716 128.568 37.0935 128.557 37.0102C129.349 34.6769 130.151 32.3383 130.948 29.9946ZM128.432 51.0727C128.219 51.6508 128.005 52.2289 127.792 52.8019C127.708 52.3383 127.625 51.8748 127.542 51.4112C127.755 50.6925 127.969 49.9789 128.182 49.2602C128.266 49.8748 128.349 50.4789 128.432 51.0727ZM128.094 63.4425C128.24 63.9216 128.417 64.3852 128.604 64.8487C128.24 65.005 127.885 65.1769 127.526 65.3487C127.713 64.7133 127.906 64.0779 128.094 63.4425ZM128.521 56.7654C128.443 56.3331 128.365 55.9008 128.281 55.4685C128.469 54.9894 128.651 54.5154 128.833 54.0362C128.891 54.4425 128.943 54.8383 128.995 55.2289C128.833 55.7394 128.682 56.255 128.521 56.7654ZM128.99 40.8019C128.953 40.4998 128.917 40.2029 128.885 39.9008C129.417 38.4373 129.953 36.9789 130.474 35.5154C129.995 37.281 129.495 39.0414 128.99 40.8019ZM131.427 38.2498C131.495 39.4269 131.557 40.6039 131.62 41.781C131.031 43.5883 130.427 45.3956 129.807 47.1977C129.698 46.4112 129.588 45.63 129.484 44.8435C130.135 42.6456 130.781 40.4477 131.427 38.2498ZM130.974 48.0466C130.781 48.9164 130.526 49.7706 130.302 50.63C130.276 50.4789 130.25 50.3279 130.229 50.1716C130.474 49.4633 130.734 48.7602 130.974 48.0466ZM129.849 9.21852C130.25 8.41123 131.141 7.84352 131.182 6.87477C131.594 6.73935 132.005 6.62477 132.417 6.50498C131.781 6.92165 131.354 7.37998 131.312 7.87998C130.62 8.60914 129.99 9.40081 129.359 10.156L129.849 9.21852ZM125.323 11.6716C125.484 11.281 125.74 10.9112 125.719 10.4737C125.719 10.4685 125.719 10.4633 125.719 10.4581C125.745 10.4321 125.766 10.406 125.786 10.38C126.187 9.92685 126.661 9.41644 127.156 8.92165C126.536 9.82789 125.88 10.7237 125.323 11.6716ZM119.286 35.4529C119.312 35.9998 119.344 36.5519 119.37 37.0987C118.318 39.7185 117.286 42.3487 116.312 44.9998C116.271 44.7185 116.229 44.4373 116.193 44.156C117.156 41.2341 118.187 38.3331 119.286 35.4529ZM116.865 38.4789C116.875 38.4477 116.885 38.4112 116.896 38.3748C117.583 36.2237 118.333 34.0883 119.141 31.9685C119.151 32.1769 119.161 32.38 119.167 32.5883C118.391 34.5519 117.62 36.5154 116.865 38.4789ZM119.776 44.2498C119.88 45.9216 119.974 47.5935 120.073 49.2654C119.469 51.5258 118.88 53.7914 118.292 56.0519C117.99 54.7446 117.719 53.4321 117.469 52.1144C118.104 49.4633 118.891 46.8435 119.776 44.2498ZM120.302 53.8383C120.312 53.9737 120.318 54.1091 120.323 54.2446C120.052 54.9321 119.781 55.6196 119.51 56.3071C119.786 55.4894 120.047 54.6664 120.302 53.8383ZM119.338 26.5102C119.12 26.6039 119.01 26.7706 119.021 27.0102C119.021 27.0623 119.026 27.1144 119.026 27.1716C118.021 29.3071 116.984 31.4269 115.844 33.4998C117.021 30.6612 118.24 27.8435 119.542 25.0623C120.411 23.2289 121.312 21.4164 122.24 19.6091C122.24 19.7029 122.24 19.7914 122.24 19.88C122.245 19.9321 122.245 19.9894 122.25 20.0414C121.297 22.2081 120.333 24.3644 119.338 26.5102ZM116.047 25.3487C117.286 22.8852 118.307 20.1144 120.568 18.4112C118.687 21.8644 116.755 25.2914 114.776 28.6925C114.588 29.0102 114.406 29.3279 114.219 29.6404C114.828 28.2081 115.417 26.7706 116.047 25.3487ZM114.625 24.2185C114.698 24.0258 114.776 23.8331 114.849 23.6352C115.13 22.8591 115.458 22.0987 115.828 21.3539C115.979 21.3487 116.125 21.3279 116.266 21.2966C116.297 21.2862 116.323 21.281 116.349 21.2758C115.771 22.255 115.198 23.2341 114.625 24.2185ZM117.969 17.2289C117.917 17.3904 117.859 17.5466 117.802 17.7081C117.807 17.6977 117.812 17.6873 117.818 17.6821C117.588 18.3123 117.359 18.9477 117.125 19.5779C117.057 19.6196 116.99 19.656 116.922 19.6925C116.807 19.755 116.687 19.8123 116.562 19.8696C116.63 19.7289 116.698 19.5883 116.766 19.4529C116.76 19.4737 116.74 19.4998 116.734 19.5258C117.13 18.7498 117.542 17.9894 117.969 17.2289ZM121.979 15.3644C121.984 15.3487 121.995 15.3383 122.005 15.3279C122.016 15.3123 122.026 15.2966 122.036 15.281C122.031 15.2862 122.031 15.2914 122.026 15.2966C122.286 14.9477 122.542 14.5987 122.802 14.2498C122.411 15.0102 122.068 15.7914 121.354 16.3019C121.568 15.9841 121.776 15.6664 121.99 15.3487C121.984 15.3539 121.979 15.3591 121.979 15.3644ZM119.25 16.7133C119.338 16.4425 119.432 16.1716 119.505 15.8956C119.625 15.4894 119.703 15.0779 119.745 14.656C120.687 13.6456 121.687 12.6873 122.74 11.7862C121.479 13.3644 120.318 15.005 119.25 16.7133ZM122.463 24.2029C122.479 24.406 122.484 24.6144 122.5 24.8227C121.818 26.281 121.161 27.7446 120.536 29.2289C120.516 29.0362 120.49 28.8487 120.469 28.656C121.099 27.156 121.766 25.6716 122.463 24.2029ZM122.672 27.2706C122.703 27.7602 122.74 28.2446 122.781 28.7289C122.187 30.1769 121.594 31.6248 121.005 33.0675C120.943 32.5727 120.88 32.0727 120.823 31.5779C121.417 30.13 122.031 28.6977 122.672 27.2706ZM121.693 49.156C121.75 49.5519 121.807 49.9477 121.865 50.3435C121.672 50.8435 121.474 51.3383 121.276 51.8331C121.255 51.5102 121.229 51.1873 121.203 50.8644C121.37 50.2966 121.531 49.7289 121.693 49.156ZM121.745 38.8227C122.26 37.4737 122.781 36.1352 123.302 34.7966C123.354 35.3435 123.401 35.8904 123.458 36.4373C123.01 38.1248 122.562 39.8123 122.115 41.4998C121.99 40.6039 121.865 39.7133 121.745 38.8227ZM123.266 17.6352C123.365 17.4529 123.448 17.2706 123.552 17.0883C123.463 17.2758 123.385 17.4685 123.297 17.656C123.286 17.6508 123.276 17.6404 123.266 17.6352ZM123.901 40.7966C124.016 41.9216 124.135 43.0466 124.25 44.1716C123.838 45.2602 123.417 46.3487 122.995 47.4321C122.896 46.7966 122.776 46.1612 122.677 45.5258C123.094 43.9529 123.5 42.3748 123.901 40.7966ZM124.104 25.4737C124.073 25.1144 124.036 24.7602 124.016 24.4008C124.349 23.6977 124.703 23.005 125.052 22.3123C125.062 22.5414 125.078 22.7654 125.094 23.005C124.766 23.8279 124.437 24.6508 124.104 25.4737ZM125.12 30.1612C124.979 30.7029 124.828 31.2446 124.687 31.7914C124.672 31.6508 124.656 31.5154 124.641 31.38C124.802 30.9737 124.963 30.5675 125.12 30.1612ZM123.87 21.9894C123.859 21.8019 123.854 21.6196 123.844 21.4321C124.193 20.7654 124.562 20.1144 124.927 19.4581C124.932 19.6248 124.943 19.8175 124.948 19.9946C124.583 20.656 124.213 21.3175 123.87 21.9894ZM124.927 50.755C125.031 51.8331 125.135 52.9112 125.234 53.9946C125.01 54.8175 124.792 55.6508 124.573 56.4789C124.375 55.4477 124.167 54.4164 123.979 53.38C124.292 52.505 124.609 51.6248 124.927 50.755ZM125.594 57.9633C125.604 58.0935 125.609 58.2237 125.625 58.3591C125.474 58.7237 125.333 59.0883 125.182 59.4529C125.177 59.4321 125.172 59.4112 125.167 59.3904C125.312 58.9112 125.453 58.4373 125.594 57.9633ZM125.156 35.88C125.437 34.781 125.724 33.6873 126.016 32.5935C126.213 34.2862 126.422 36.0154 126.646 37.7602C126.344 38.5831 126.047 39.4008 125.74 40.2237C125.531 38.7758 125.338 37.3279 125.156 35.88ZM125.13 6.94769C125.12 7.70289 126.312 7.4581 126.891 7.2081C126.682 7.31748 126.474 7.43206 126.271 7.54665C125.417 8.03623 124.588 8.56748 123.781 9.13519C121.641 9.40081 120.323 11.5362 119.083 13.1039C118.229 12.9789 117.349 13.3591 116.463 14.0414C119.068 11.3279 121.953 8.9581 125.13 6.94769ZM118.245 14.1248C118.047 14.3435 117.849 14.5623 117.651 14.781C117.37 15.1039 117.109 15.4477 116.844 15.7862C116.609 15.755 116.411 15.8331 116.26 16.0206C114.562 18.2862 113.703 21.0623 112.542 23.63C111.484 25.7498 110.729 28.0571 109.932 30.3383C109.849 29.7654 109.776 29.1925 109.734 28.6144C109.922 28.5102 110.01 28.3435 110 28.1248C109.99 27.9112 109.88 27.755 109.682 27.6716C110.297 26.2654 110.937 24.8748 111.62 23.505C113.422 20.1925 115.052 16.2862 118.245 14.1248ZM112.359 18.9373C112.719 18.4425 113.094 17.9529 113.479 17.4685C111.047 21.0935 108.797 26.2341 107.245 30.13C108.396 26.1456 110.099 22.4164 112.359 18.9373ZM105.76 38.2706C106.625 35.4841 107.604 32.7237 108.708 29.9998C108.807 30.8331 108.948 31.656 109.146 32.4737C108.286 34.7185 107.26 36.8696 105.729 38.7133C105.74 38.5623 105.75 38.4164 105.76 38.2706ZM105.776 41.1248C105.734 41.1091 105.698 41.0987 105.661 41.0883C105.661 40.8904 105.661 40.6873 105.661 40.4894C105.713 40.4581 105.766 40.4373 105.812 40.406C105.833 40.5727 105.849 40.7341 105.865 40.9008C105.833 40.9737 105.807 41.0466 105.776 41.1248ZM108.922 38.4946C108.922 38.1456 108.891 37.7914 108.917 37.4425C109.021 37.6352 109.109 37.8383 109.213 38.031C109.115 38.1873 109.021 38.3383 108.922 38.4946ZM110.115 36.2029C110.135 36.281 110.156 36.3696 110.177 36.4425C110.104 36.5623 110.026 36.6821 109.953 36.8071C109.838 36.656 109.703 36.5258 109.557 36.4112C109.76 36.3956 109.948 36.3227 110.115 36.2029ZM110.151 44.0987C109.979 43.6977 109.823 43.2966 109.682 42.88C109.927 42.0727 110.177 41.2654 110.427 40.4529C110.687 40.9894 110.963 41.505 111.213 42.0519C110.88 42.7446 110.531 43.4321 110.151 44.0987ZM111.094 46.1508C111.354 45.3644 111.635 44.5831 111.948 43.8175C112.078 44.1352 112.213 44.4529 112.344 44.7758C112.036 45.4425 111.719 46.1039 111.396 46.7654C111.292 46.5571 111.193 46.3539 111.094 46.1508ZM112.151 48.3071C112.094 48.1873 112.036 48.0675 111.974 47.9477C112.115 47.6352 112.271 47.3279 112.448 47.031C112.349 47.4529 112.25 47.88 112.151 48.3071ZM112.286 39.63C112.026 38.7914 111.771 37.9581 111.521 37.1196C111.792 36.4216 112.094 35.7446 112.427 35.0727C112.542 36.156 112.667 37.2394 112.807 38.3175C112.635 38.755 112.469 39.1925 112.286 39.63ZM113.25 42.781C113.13 42.3852 113.01 41.9841 112.891 41.5883C112.979 41.3956 113.078 41.2081 113.172 41.0206C113.24 41.505 113.318 41.9841 113.391 42.4685C113.344 42.5727 113.292 42.6769 113.25 42.781ZM113.927 51.9216C113.917 51.8956 113.901 51.8696 113.885 51.8435C114.01 51.3748 114.135 50.906 114.26 50.4373C114.281 50.3644 114.302 50.2914 114.318 50.2237C114.344 50.3071 114.38 50.3852 114.406 50.4685C114.245 50.9529 114.083 51.4373 113.927 51.9216ZM114.448 31.4737C115.354 30.031 116.318 28.6248 117.25 27.2185C116.292 29.1664 115.448 31.156 114.719 33.1977C114.635 32.6196 114.536 32.0466 114.448 31.4737ZM115.312 37.5362C115.281 37.3383 115.255 37.1456 115.229 36.9529C115.521 36.3956 115.812 35.8435 116.104 35.2914C115.854 36.0466 115.578 36.7914 115.312 37.5362ZM118.338 64.7133C117.568 64.2394 116.823 63.7237 116.104 63.1664C116.125 62.7654 116.062 62.3748 115.917 61.9946C116.656 61.1873 117 60.0987 117.187 59.0519C117.24 59.1612 117.307 59.3435 117.375 59.5519C117.208 60.2081 117.031 60.8591 116.865 61.5102C116.818 61.9373 117.104 62.4529 117.594 62.3748C117.802 62.2654 117.984 62.1248 118.151 61.9581C118.312 62.4477 118.484 62.9477 118.672 63.4269C118.552 63.8644 118.443 64.2914 118.338 64.7133ZM119.49 60.5414C119.432 60.3591 119.365 60.1769 119.312 59.9946C119.693 59.0571 120.01 58.0623 120.411 57.3539C120.365 57.63 119.963 58.9269 119.49 60.5414ZM120.437 63.505C120.474 63.3956 120.51 63.2862 120.547 63.1769C120.547 63.406 120.557 63.6404 120.552 63.8696C120.51 63.7498 120.479 63.6248 120.437 63.505ZM120.734 42.4633C120.875 43.3748 121.005 44.2914 121.135 45.2081C121.047 45.531 120.963 45.8591 120.875 46.1821C120.807 44.9425 120.75 43.6977 120.734 42.4633ZM122.302 66.6508C121.828 66.4685 121.354 66.2706 120.891 66.0623C121.12 65.9373 121.349 65.6769 121.578 65.2289C121.729 63.3748 121.781 61.5258 121.734 59.6664C122.109 58.5935 122.5 57.5206 122.885 56.4477C123.12 57.6664 123.37 58.8852 123.661 60.0883C123.521 60.6873 123.354 61.2758 123.213 61.8748C122.885 63.3748 122.479 64.88 122.255 66.3956C122.255 66.4841 122.276 66.5675 122.302 66.6508ZM125.896 66.1925C125.557 66.38 125.198 66.531 124.87 66.7289C124.646 66.9008 124.568 67.1248 124.63 67.4008C124.213 67.2914 123.802 67.1664 123.391 67.031C123.578 66.8539 123.719 66.6404 123.823 66.4008C124.146 65.63 124.469 64.8591 124.792 64.0831C124.99 64.7029 125.182 65.3279 125.401 65.9425C125.557 66.0466 125.724 66.1196 125.901 66.1769C125.901 66.1821 125.896 66.1873 125.896 66.1925ZM125.693 61.9425C125.745 61.8123 125.797 61.6769 125.854 61.5466C125.896 62.1612 125.948 62.7758 125.99 63.3904C125.88 62.9112 125.797 62.4216 125.693 61.9425ZM126.5 56.1612C126.495 56.0519 126.49 55.9425 126.49 55.8696C126.505 55.9373 126.521 56.0102 126.536 56.0779C126.526 56.1039 126.51 56.1352 126.5 56.1612ZM127.448 43.8591C127.516 44.3904 127.588 44.9164 127.661 45.4373C127.417 46.2654 127.182 47.0935 126.943 47.9164C126.838 47.3071 126.734 46.6977 126.635 46.0831C126.906 45.3435 127.177 44.6039 127.448 43.8591ZM127.391 60.5102C127.297 60.8331 127.193 61.156 127.099 61.4789C127.031 60.6769 126.937 59.8644 126.844 59.1091C126.911 58.9477 126.974 58.7862 127.042 58.63C127.151 59.255 127.266 59.8852 127.391 60.5102ZM129.042 67.9321C128.531 67.9737 128.021 67.9789 127.51 67.9529C127.224 67.9216 126.937 67.8644 126.651 67.8175C126.667 67.8071 126.677 67.7862 126.693 67.7758C127.516 67.5154 128.344 67.281 129.182 67.0623C129.135 67.3539 129.083 67.6404 129.042 67.9321ZM129.792 63.3175C129.568 62.1977 129.354 61.0727 129.135 59.9529C129.245 59.5935 129.349 59.2289 129.458 58.8696C129.755 61.3071 129.896 62.9321 129.792 63.3175ZM133.052 67.0779C132.068 67.4477 131.052 67.7029 130.01 67.8487C130.099 67.4894 130.203 67.1352 130.297 66.7758C131.229 66.5466 132.156 66.3175 133.083 66.0779C133.031 66.406 133.021 66.7446 133.052 67.0779ZM133.01 63.0258C133.51 61.6821 133.521 59.1456 133.443 56.9685C133.526 56.7341 133.615 56.4998 133.698 56.2654C133.818 57.1196 133.995 57.9425 134.432 58.656C134.552 58.8123 134.708 58.9164 134.901 58.9633C134.599 60.1977 134.281 61.4269 133.948 62.6508C133.635 62.7758 133.323 62.9008 133.01 63.0258ZM134.849 66.2966C134.891 66.0362 134.948 65.7862 134.995 65.531C135.953 65.2446 136.896 64.9008 137.818 64.5102C136.87 65.1769 135.88 65.7706 134.849 66.2966ZM138.609 60.3331C138.328 60.5258 138.062 60.7341 137.781 60.9216C137.13 61.255 136.453 61.5414 135.781 61.8383C136.302 59.7654 136.917 57.7133 137.594 55.6821C137.922 57.3748 138.328 58.6612 138.833 59.3123C138.76 59.6508 138.677 59.9894 138.609 60.3331ZM139.88 29.2966C139.51 30.505 139.135 31.7081 138.755 32.9112C138.667 31.6248 138.583 30.3331 138.495 29.0414C139.026 27.2914 139.562 25.5414 140.088 23.7862C140.01 25.6248 139.937 27.4581 139.88 29.2966ZM140.625 58.8644C140.776 58.1456 140.875 57.4164 140.927 56.6873C141.75 54.1144 142.656 51.5727 143.562 49.031C143.568 49.0623 143.568 49.0987 143.573 49.13C142.937 52.2029 142.12 55.2237 141.115 58.1925C141.135 58.2914 141.161 58.3383 141.182 58.4164C140.995 58.5675 140.812 58.7185 140.625 58.8644ZM142.833 57.0831C143.302 55.8435 143.766 54.2498 144.125 52.9164C144.26 53.2237 144.469 53.4789 144.74 53.6821C144.703 53.7966 144.672 53.9112 144.641 54.0258C144.573 54.1873 144.573 54.3539 144.646 54.5154C144.713 54.6821 144.828 54.7966 144.995 54.8644C145.104 54.8852 145.219 54.88 145.328 54.8591C144.51 55.6196 143.682 56.3644 142.833 57.0831ZM146.083 54.1352C146.052 54.1664 146.021 54.1977 145.984 54.2289C146.052 54.0779 146.109 53.9216 146.156 53.7602L146.083 54.1352ZM145.885 47.3175C145.859 46.8904 145.838 46.4685 145.807 46.0414C145.932 45.5206 146.057 44.9998 146.182 44.4789C146.078 45.4216 146.005 46.3748 145.885 47.3175ZM148.901 54.4269C148.526 54.3331 148.12 54.5727 147.729 54.9112C147.75 54.8279 147.776 54.7498 147.797 54.6664C148.281 54.1925 148.76 53.7185 149.234 53.2289C149.135 53.5987 149.021 53.9998 148.901 54.4269ZM148.719 51.4998C148.937 50.6977 149.146 49.8956 149.354 49.0935C149.38 49.6456 149.406 50.1925 149.443 50.7394C149.203 50.9946 148.958 51.2446 148.719 51.4998ZM148.521 6.8956C148.469 7.0779 148.406 7.25498 148.354 7.43727C148.271 7.48414 148.182 7.50498 148.099 7.55185C147.437 7.86435 146.786 8.18727 146.13 8.49977C146.208 7.44769 146.203 6.5779 146.073 5.99977C148.406 6.00498 150.703 6.28623 152.963 6.85394C151.922 6.60394 150.88 6.61435 149.844 6.87998C149.661 6.2706 148.708 6.12998 148.521 6.8956ZM150.542 9.5154C150.406 10.6352 150.203 11.7446 150.031 12.8644C149.984 12.8487 149.937 12.8435 149.896 12.8383C150.104 11.7289 150.354 10.63 150.542 9.5154ZM153.974 77.0675C154.891 77.3904 155.771 75.5466 156 74.7289C154.766 80.5362 153.536 86.3383 152.161 92.1091C151.135 96.4894 150.068 100.859 148.958 105.219C148.281 105.776 147.588 106.302 146.901 106.844C151.25 97.3956 153.609 87.4685 153.974 77.0675ZM153.74 97.3019C153.443 99.0779 153.146 100.854 151.896 102.208C152.172 100.692 152.484 99.1873 152.818 97.6821C152.906 97.6716 152.995 97.656 153.083 97.63C153.302 97.531 153.521 97.406 153.74 97.3019ZM148.786 115.344C149.219 114.666 149.656 113.995 150.094 113.323C150.318 113.161 150.542 112.995 150.766 112.833C150.161 113.698 149.422 114.484 148.786 115.344ZM151.229 120.682C151.562 120.609 151.901 120.536 152.24 120.463C151.588 121.114 150.891 121.713 150.146 122.25C150.104 122.099 150.083 121.948 150.078 121.797C150.458 121.422 150.849 121.057 151.229 120.682ZM148.786 123.177C148.719 123.219 148.651 123.255 148.583 123.297C148.635 123.239 148.693 123.187 148.745 123.13C148.755 123.146 148.776 123.161 148.786 123.177ZM144.396 111.797C144.854 111.755 145.255 111.594 145.609 111.307C145.974 110.948 146.365 110.63 146.74 110.286C145.76 111.844 144.766 113.39 143.76 114.932C143.047 115.427 142.354 115.948 141.646 116.453C142.625 114.942 143.531 113.38 144.396 111.797ZM145.318 116.771C144.588 118.12 143.786 119.427 142.953 120.713C142.797 120.739 142.646 120.771 142.49 120.797C143.276 119.583 144.047 118.364 144.807 117.135C144.974 117.015 145.146 116.89 145.318 116.771ZM119.719 140.875C119.375 140.75 119.031 140.646 118.687 140.495C118.37 140.291 117.953 139.765 118.182 139.323C121.693 135.239 126.25 132.062 130.568 128.614C128.474 130.833 126.411 133.078 124.474 135.422C121.74 137.515 119.057 139.448 119.719 140.875ZM125.047 140.786C123.818 140.739 122.63 140.515 121.469 140.114C122.458 139.187 123.625 138.349 124.687 137.463C127 137.541 129.021 135.39 130.969 134.276C134.963 131.135 138.156 127.192 141.021 123C141.161 122.974 141.307 122.958 141.448 122.927C138.578 126.89 135.37 130.557 131.828 133.932C129.76 136.323 126.557 138.099 125.047 140.786ZM140.604 126.594C140.25 127.323 139.573 128.166 139.099 129.031C138.687 129.291 138.266 129.536 137.854 129.802C138.661 128.88 139.458 127.948 140.224 126.995C140.344 126.849 140.463 126.703 140.583 126.557C140.588 126.567 140.594 126.583 140.604 126.594ZM134.432 133.495C134.693 133.729 134.99 133.89 135.328 133.974C135.62 133.963 135.906 133.932 136.193 133.87C134.172 135.854 131.963 137.661 129.292 138.541C131.042 136.901 132.755 135.219 134.432 133.495ZM145.37 133.281C142.427 135.109 139.167 137.192 135.745 138.838C137.432 137.708 139.062 136.484 140.635 135.349C146.333 131.776 151.677 127.536 156.036 122.401C157.437 124.911 159.615 120.213 160.505 119.182C160.609 119.88 160.786 120.344 161.01 120.646C156.349 125.442 151 129.625 145.37 133.281ZM153.516 118.479C154.719 117.317 155.906 116.135 157.125 115C156.13 116.057 155.177 117.219 154.193 118.354C153.969 118.396 153.745 118.437 153.516 118.479ZM160.552 109.875C158.146 113.359 154.26 115.812 151.307 118.927C151.281 118.932 151.25 118.937 151.224 118.942C154.578 114.453 157.823 109.906 160.911 105.239C161.401 104.859 161.87 104.489 162.328 104.125C162.474 104.594 162.849 104.906 163.463 104.604C162.422 106.344 161.443 108.041 160.552 109.875ZM163.656 115.271C163.823 114.719 164.005 114.166 164.182 113.614C165.807 110.489 167.594 107.463 169.536 104.526C167.823 108.245 165.859 111.823 163.656 115.271ZM172.844 103.265C172.859 103.229 172.88 103.198 172.896 103.161C171.963 105.312 170.891 107.385 169.677 109.39C172.958 102.364 175.594 94.6508 174.458 94.0102C175.078 92.1769 183.646 75.505 178.958 77.0362C179.687 74.8279 180.286 72.5883 180.75 70.3123C181.338 71.0519 182.031 70.2706 181.911 69.5779C181.906 53.1873 180.885 35.1196 172.745 20.5571C172.792 20.4581 172.838 20.3591 172.885 20.2654C176.25 24.5727 178.49 29.406 179.599 34.7602C185.526 57.4737 182.615 82.0779 172.823 103.307C172.833 103.291 172.838 103.276 172.844 103.265Z" fill="white"/>
</g>
</svg>

