<svg width="64" height="73" viewBox="0 0 64 73" fill="none" xmlns="http://www.w3.org/2000/svg">
<mask id="mask0_138_50" style="mask-type:luminance" maskUnits="userSpaceOnUse" x="21" y="0" width="22" height="10">
<path d="M21.2852 0H42.1912V9.30753H21.2852V0Z" fill="white"/>
</mask>
<g mask="url(#mask0_138_50)">
<path d="M21.6405 8.47102C21.6405 8.87713 22.0488 9.19055 22.4549 9.06916C25.503 8.18188 28.6702 7.74928 31.9081 7.74928C35.0268 7.74928 38.097 8.15761 41.0479 8.97425C41.432 9.09343 41.8403 8.80651 41.8403 8.3739V4.67915C41.8403 2.08796 39.7545 0 37.1633 0H26.2954C23.7042 0 21.6162 2.08796 21.6162 4.67915H21.6405V8.47102Z" fill="#e6e50f"/>
</g>
<path d="M4.17481 21.9041C5.22983 20.4385 6.42831 19.0238 7.7239 17.7282C9.04377 16.4083 10.4586 15.2341 11.9484 14.1548C12.2596 13.9142 12.2839 13.4573 12.019 13.1947L10.1716 11.3473C8.34852 9.52421 5.39757 9.52421 3.57447 11.3473L1.36733 13.5545C-0.455775 15.3776 -0.455775 18.3285 1.36733 20.1273L3.21471 21.9747C3.47736 22.2638 3.93423 22.2153 4.17481 21.9041Z" fill="#e6e50f"/>
<path d="M62.292 13.7581L60.0848 11.5509C58.2617 9.72782 55.3108 9.72782 53.5119 11.5509L51.6646 13.3983C51.3776 13.6632 51.424 14.1178 51.7374 14.3584C53.2007 15.4134 54.6155 16.6141 55.9111 17.9097C57.231 19.2274 58.4074 20.6444 59.4845 22.132C59.725 22.4432 60.1819 22.4675 60.4446 22.2026L62.292 20.3552C64.1173 18.5321 64.1173 15.5812 62.292 13.7581Z" fill="#e6e50f"/>
<mask id="mask1_138_50" style="mask-type:luminance" maskUnits="userSpaceOnUse" x="1" y="11" width="59" height="62">
<path d="M1.50977 11.002H59.7077V72.4444H1.50977V11.002Z" fill="white"/>
</mask>
<g mask="url(#mask1_138_50)">
<path d="M31.8823 11.5391C15.108 11.5391 1.50977 25.1373 1.50977 41.9116C1.50977 58.6859 15.108 72.2841 31.8823 72.2841C38.3625 72.2841 44.3681 70.2535 49.2989 66.7971C52.3204 64.6783 50.8284 59.9285 47.1358 59.9285C46.3589 59.9285 45.6019 60.1691 44.964 60.6171C41.7129 62.8993 37.8394 64.3538 33.6568 64.6761V59.9285H30.1166V64.6761C25.1549 64.2964 20.6303 62.321 17.0591 59.2663L20.3808 55.9446L17.8779 53.4417L14.554 56.7657C11.4728 53.1746 9.48418 48.6191 9.11117 43.6221H13.8102V40.0841H9.12C9.51066 35.1202 11.4839 30.6044 14.5385 27.042L17.8779 30.3815L20.3808 27.8786L17.0436 24.5413C20.6126 21.4911 25.1372 19.5245 30.1166 19.1449V23.8924H33.6568V19.1449C38.6295 19.5289 43.1608 21.5131 46.7364 24.5833L43.3594 27.9602L45.8623 30.4631L49.2371 27.0862C50.4444 28.4988 51.4817 30.057 52.3204 31.7344C52.9583 33.0124 54.2583 33.8246 55.6863 33.8246H55.6974C58.5026 33.8246 60.3257 30.8736 59.0743 28.3619C54.095 18.3878 43.7876 11.5391 31.8823 11.5391Z" fill="#e6e50f"/>
</g>
</svg>
