<svg width="254" height="35" viewBox="0 0 254 35" fill="none" xmlns="http://www.w3.org/2000/svg">
<path d="M8.63021 0H245.349C250.115 0 253.979 3.86458 253.979 8.63021V25.8906C253.979 30.6562 250.115 34.5208 245.349 34.5208H8.63021C3.86458 34.5208 0 30.6562 0 25.8906V8.63021C0 3.86458 3.86458 0 8.63021 0Z" fill="#028A02"/>
<path d="M57.576 26L51.6 9.08H54.816L59.424 22.952H58.464L63.432 9.08H65.736L70.344 22.952H69.456L74.28 9.08H77.304L71.28 26H68.712L64.248 12.992H64.776L60.144 26H57.576ZM79.7783 26V9.08H91.1783V11.504H82.7543V16.184H90.6263V18.632H82.7543V23.552H91.1783V26H79.7783ZM97.9185 26V11.624H92.3265V9.08H106.607V11.624H101.015V26H97.9185ZM120.084 26L114.108 9.08H117.324L121.932 22.952H120.972L125.94 9.08H128.244L132.852 22.952H131.964L136.788 9.08H139.812L133.788 26H131.22L126.756 12.992H127.284L122.652 26H120.084ZM138.984 26L146.64 9.08H149.232L156.984 26H153.84L151.776 21.248L153.024 22.088H142.872L144.168 21.248L142.104 26H138.984ZM147.912 12.392L144.528 20.408L143.904 19.664H151.968L151.464 20.408L148.008 12.392H147.912ZM164.573 26.24C163.213 26.24 161.957 26.072 160.805 25.736C159.669 25.384 158.693 24.904 157.877 24.296L158.837 21.872C159.381 22.256 159.949 22.584 160.541 22.856C161.133 23.112 161.765 23.312 162.437 23.456C163.109 23.584 163.821 23.648 164.573 23.648C165.837 23.648 166.749 23.44 167.309 23.024C167.869 22.608 168.149 22.064 168.149 21.392C168.149 20.8 167.957 20.352 167.573 20.048C167.189 19.728 166.501 19.464 165.509 19.256L162.797 18.704C161.245 18.384 160.085 17.848 159.317 17.096C158.549 16.344 158.165 15.336 158.165 14.072C158.165 13.016 158.445 12.096 159.005 11.312C159.565 10.528 160.349 9.92 161.357 9.488C162.365 9.056 163.541 8.84 164.885 8.84C166.085 8.84 167.197 9.016 168.221 9.368C169.245 9.704 170.101 10.192 170.789 10.832L169.829 13.136C169.141 12.56 168.389 12.136 167.573 11.864C166.757 11.576 165.845 11.432 164.837 11.432C163.701 11.432 162.813 11.656 162.173 12.104C161.549 12.536 161.237 13.136 161.237 13.904C161.237 14.496 161.429 14.968 161.813 15.32C162.213 15.672 162.885 15.944 163.829 16.136L166.517 16.664C168.117 16.984 169.301 17.512 170.069 18.248C170.837 18.968 171.221 19.944 171.221 21.176C171.221 22.184 170.949 23.072 170.405 23.84C169.861 24.592 169.093 25.184 168.101 25.616C167.109 26.032 165.933 26.24 164.573 26.24ZM177.77 26V11.624H172.178V9.08H186.458V11.624H180.866V26H177.77ZM188.645 26V9.08H200.045V11.504H191.621V16.184H199.493V18.632H191.621V23.552H200.045V26H188.645Z" fill="white"/>
</svg>
